<svg width="160" height="80" viewBox="0 0 160 80" fill="none" xmlns="http://www.w3.org/2000/svg">
<g clip-path="url(#clip0_473_4901)">
<path fill-rule="evenodd" clip-rule="evenodd" d="M72.0681 38.4979C71.5745 34.617 68.2554 31.6128 64.2383 31.6128H43.5915V38.4979H59.983C60.8851 38.4979 61.6171 39.2298 61.6171 40.1319V41.3745H47.2341C44.5022 41.3745 42.2809 43.5958 42.2809 46.3362C42.2809 48.2085 42.2894 50.3362 42.2894 52.2256C42.2894 54.9575 44.5022 57.1788 47.2426 57.1788H64.2298C67.5234 57.1788 70.3575 55.1532 71.5319 52.2766C71.7702 51.6979 71.949 51.0766 72.0426 50.4298C72.1022 50.0553 72.1277 49.6639 72.1277 49.2724V39.5192C72.1277 39.1702 72.1107 38.8298 72.0681 38.4979ZM61.6256 49.3575C61.6256 49.9447 61.149 50.4298 60.5532 50.4298H52.7915C52.4511 50.4298 52.1362 50.3192 51.8809 50.1319C51.4894 49.8511 51.2341 49.3915 51.2341 48.8724C51.2341 48.3873 51.4468 47.9617 51.7873 47.6809C52.0596 47.4511 52.4085 47.3149 52.7915 47.3149H61.6171V49.3575H61.6256Z" fill="white"/>
<path fill-rule="evenodd" clip-rule="evenodd" d="M159.932 38.4979C159.438 34.617 156.119 31.6128 152.102 31.6128H131.464V38.4979H147.855C148.757 38.4979 149.489 39.2298 149.489 40.1319V41.3745H135.106C132.374 41.3745 130.153 43.5958 130.153 46.3362C130.153 48.2085 130.162 50.3362 130.162 52.2256C130.162 54.9575 132.374 57.1788 135.115 57.1788H152.102C155.396 57.1788 158.23 55.1532 159.404 52.2766C159.643 51.6979 159.821 51.0766 159.915 50.4298C159.974 50.0553 160 49.6639 160 49.2724V39.5192C160 39.1702 159.974 38.8298 159.932 38.4979ZM149.489 49.3575C149.489 49.9447 149.013 50.4298 148.417 50.4298H140.655C140.315 50.4298 140 50.3192 139.745 50.1319C139.353 49.8511 139.098 49.3915 139.098 48.8724C139.098 48.3873 139.311 47.9617 139.651 47.6809C139.923 47.4511 140.272 47.3149 140.655 47.3149H149.481V49.3575H149.489Z" fill="white"/>
<path fill-rule="evenodd" clip-rule="evenodd" d="M128.17 29.7745C128.17 29.7745 125.294 29.7745 122.647 29.783C121.634 29.783 120.817 30.6171 120.843 31.6213C120.843 31.6384 120.843 31.6469 120.843 31.6469H128.17V38.4979H120.97V57.1618H109.898V38.4894H106.579V31.6213H109.889C109.889 29.2809 110.834 27.1533 112.374 25.6213C113.906 24.0894 116.034 23.1362 118.374 23.1362H128.162V29.7745H128.17Z" fill="white"/>
<path fill-rule="evenodd" clip-rule="evenodd" d="M96.7575 45.8598C96.5022 45.5108 96.2724 45.1193 96.0766 44.7023C95.8809 44.2853 95.7873 43.8938 95.7873 43.5364C95.7873 43.281 95.8468 42.9662 95.9745 42.6172C96.1107 42.2598 96.2639 41.9534 96.4596 41.6981L104.145 31.6215H93.8724L88.1192 39.8002C87.7022 40.413 87.3362 41.0172 87.0383 41.5789C86.732 42.1491 86.5703 42.8896 86.5703 43.8257C86.5703 44.2427 86.6469 44.813 86.7915 45.5108C86.9362 46.2087 87.3617 47.0172 88.0681 47.9449L95.0469 57.1534H105.711L96.7575 45.8598ZM74.8596 23.23V57.1619H85.8213V23.23H74.8596Z" fill="white"/>
<path d="M31.3362 31.6211H0V32.8977H31.3362V31.6211Z" fill="#E54B4B"/>
<path d="M31.3362 32.8975H0V34.1741H31.3362V32.8975Z" fill="white"/>
<path d="M31.3362 34.1743H0V35.4509H31.3362V34.1743Z" fill="#E54B4B"/>
<path d="M31.3362 35.4507H0V36.7273H31.3362V35.4507Z" fill="white"/>
<path d="M31.3362 36.7275H0V38.0041H31.3362V36.7275Z" fill="#E54B4B"/>
<path d="M31.3362 38.0039H0V39.2805H31.3362V38.0039Z" fill="white"/>
<path d="M31.3362 39.2808H0V40.5574H31.3362V39.2808Z" fill="#E54B4B"/>
<path d="M31.3362 40.5659H0V41.8425H31.3362V40.5659Z" fill="white"/>
<path d="M31.3362 41.8423H0V43.1189H31.3362V41.8423Z" fill="#E54B4B"/>
<path d="M31.3362 43.1191H0V44.3957H31.3362V43.1191Z" fill="white"/>
<path d="M31.3362 44.3955H0V45.6721H31.3362V44.3955Z" fill="#E54B4B"/>
<path d="M31.3362 45.6724H0V46.949H31.3362V45.6724Z" fill="white"/>
<path d="M31.3362 46.9487H0V48.2253H31.3362V46.9487Z" fill="#E54B4B"/>
<path d="M31.3362 48.2256H0V49.5022H31.3362V48.2256Z" fill="white"/>
<path d="M31.3362 49.502H0V50.7785H31.3362V49.502Z" fill="#E54B4B"/>
<path d="M31.3362 50.7871H0V52.0637H31.3362V50.7871Z" fill="white"/>
<path d="M31.3362 52.0635H0V53.3401H31.3362V52.0635Z" fill="#E54B4B"/>
<path d="M31.3362 53.3403H0V54.6169H31.3362V53.3403Z" fill="white"/>
<path d="M31.3362 54.6167H0V55.8933H31.3362V54.6167Z" fill="#E54B4B"/>
<path d="M31.3362 55.8936H0V57.1702H31.3362V55.8936Z" fill="white"/>
<path fill-rule="evenodd" clip-rule="evenodd" d="M31.3362 57.17H0V31.6211L31.3362 57.17Z" fill="#E54B4B"/>
<path fill-rule="evenodd" clip-rule="evenodd" d="M9.97442 44.6423L10.5617 44.7359C14.017 40.9912 15.1063 37.7487 16.5361 33.8423C18.6382 46.9657 23.6085 53.3402 26.9446 54.9316C23.4893 55.0848 21.0893 53.2465 19.3787 50.4891C16.6297 47.8593 13.217 45.8338 11.1404 45.0593C8.14463 48.9061 5.3957 51.0423 4.68931 51.2976C4.15314 51.4763 3.40421 50.7955 3.80421 50.404C4.71484 49.5189 9.1574 46.5402 10.2127 45.0593C10.2808 44.9742 10.3744 44.9146 10.451 44.838L9.97442 44.6423ZM11.251 44.8976C12.9021 45.3316 15.4893 46.3529 18.0085 47.8168C17.0808 45.1614 15.7021 41.3827 15.3191 38.5912C14.451 40.4806 12.9787 42.4806 11.251 44.8976Z" fill="white"/>
</g>
<defs>
<clipPath id="clip0_473_4901">
<rect width="160" height="34.0426" fill="white" transform="translate(0 23)"/>
</clipPath>
</defs>
</svg>
