<svg width="160" height="80" viewBox="0 0 160 80" fill="none" xmlns="http://www.w3.org/2000/svg">
<g clip-path="url(#clip0_705_889)">
<path fill-rule="evenodd" clip-rule="evenodd" d="M17.4208 18.6299L32.104 33.3002C36.3867 37.579 34.9342 42.5833 32.9842 45.0806C31.4237 47.0789 29.1976 49.0061 27.4957 50.7813C23.0152 55.4548 18.8704 59.8814 12.1552 55.2768C10.281 53.9916 8.58292 51.8305 6.64923 49.9569C3.25434 46.6673 0 43.7113 0 40.6167C0 36.3368 1.57235 34.631 2.80453 33.3725C4.76015 31.3752 17.4208 18.6299 17.4208 18.6299Z" fill="#ED3237"/>
<path fill-rule="evenodd" clip-rule="evenodd" d="M15.7517 32.4266L12.8584 29.5088L17.4435 24.8501L29.4579 36.8155C29.4579 36.8155 30.4141 37.8943 30.4632 39.0467C30.5122 40.1992 30.5367 41.0573 29.9237 41.989C29.3107 42.9208 23.3526 48.7073 23.3526 48.7073L20.2281 51.7861C20.2281 51.7861 18.8656 52.9737 17.4925 52.802C16.1195 52.6304 15.531 52.6794 13.8637 50.9386C12.1964 49.1977 5.55638 42.5839 5.55638 42.5839C3.89892 40.7559 4.18831 38.3886 5.39103 36.9855C6.34101 35.877 8.31288 34.0048 8.81278 33.5299C9.05639 33.2984 12.1396 31.6257 14.2592 33.5747C16.3787 35.5238 22.1512 41.4986 22.1512 41.4986L17.5416 46.1818L14.5993 43.264L16.3156 41.5232L11.5344 36.7174L8.56759 39.6352L17.419 48.6583L26.4175 39.6843L17.5171 30.7347L15.7517 32.4266Z" fill="#FEFEFE"/>
<path fill-rule="evenodd" clip-rule="evenodd" d="M146.828 28.9253H154.629L135.588 49.13H127.787L146.828 28.9253Z" fill="#2957A4"/>
<path fill-rule="evenodd" clip-rule="evenodd" d="M135.587 28.9253H127.787L135.598 37.2136L139.498 33.0749L135.587 28.9253ZM137.286 39.0049L146.828 49.13H154.629L141.186 34.8662L137.286 39.0049Z" fill="#2957A4"/>
<path fill-rule="evenodd" clip-rule="evenodd" d="M104.145 49.13V44.1696H98.7819L94.5196 48.6924C95.0313 48.9101 95.6391 49.059 96.3559 49.13H104.145ZM97.1631 33.8824V42.1589L92.6454 46.9532C92.4161 46.4846 92.2739 45.9531 92.2034 45.3711V27.4069L97.1631 22.4072V28.9221H101.39V33.8824H97.1631Z" fill="#2957A4"/>
<path fill-rule="evenodd" clip-rule="evenodd" d="M110.791 43.2256L110.753 33.8219H124.296L124.304 37.1449L112.659 37.1582L112.738 42.0435L124.932 42.0037C124.932 42.0037 126.297 41.7228 127.185 40.9336C128.073 40.1442 128.921 39.2563 129.06 37.9342C129.198 36.6122 129.119 33.4351 129.119 33.4351C129.119 33.4351 128.705 30.0216 125.311 29.3112C121.917 28.6009 110.673 29.1351 110.673 29.1351C110.673 29.1351 108.546 29.2038 107.264 30.802C105.981 32.4003 105.992 33.5345 105.992 34.5405C105.992 35.5467 105.987 44.625 105.987 44.625C105.987 44.625 105.943 45.3314 106.124 46.1309C106.257 46.6446 106.464 47.1057 106.758 47.5047L110.791 43.2256ZM113.414 44.1698H128.816L123.925 49.1298H110.803C110.803 49.1298 109.737 49.0712 109.003 48.8508L109.07 48.779L113.414 44.1698Z" fill="#2957A4"/>
<path fill-rule="evenodd" clip-rule="evenodd" d="M39.2559 41.2595C39.2192 42.038 39.2123 43.485 39.2602 44.7953C39.2789 45.3064 39.3207 45.7742 39.3825 46.1858C39.51 46.6546 39.6996 47.0788 39.9623 47.451L44.2162 42.8134V41.4143H54.0452L54.0447 36.638L43.927 36.6376C41.2329 36.6433 39.2559 38.5978 39.2559 41.2595ZM55.8816 44.1697H46.4511L42.024 48.8673C42.4248 48.9911 42.875 49.0801 43.3789 49.13H55.9186C58.574 49.126 60.8576 47.123 60.842 44.505V33.7956C60.7559 31.2592 57.9787 28.8243 55.7939 28.9218H46.5198C45.1358 30.2613 43.4012 32.5427 42.0172 33.8816C46.6981 33.8816 51.2001 33.8816 55.8816 33.8816V44.1697Z" fill="#2957A4"/>
<path fill-rule="evenodd" clip-rule="evenodd" d="M62.6789 27.4072L67.6387 22.4077V49.1302H62.6785L62.6789 27.4072Z" fill="#2957A4"/>
<path fill-rule="evenodd" clip-rule="evenodd" d="M76.1392 44.3647H85.5984V28.9258H90.3654V44.8567C89.9563 47.5329 87.9661 49.0552 85.4404 49.13H73.6284C73.001 49.0678 72.4574 48.9452 71.9882 48.7697L76.1392 44.3647ZM69.4763 28.9258H74.2428V42.6494L70.0142 47.1365C69.8672 46.8739 69.7499 46.59 69.6603 46.2864C69.5719 45.9864 69.5006 45.6664 69.4758 45.3537L69.4763 28.9258Z" fill="#2957A4"/>
<path fill-rule="evenodd" clip-rule="evenodd" d="M157.025 22.9891C155.662 22.9891 154.558 24.0938 154.558 25.4564C154.558 26.819 155.662 27.9237 157.025 27.9237C158.388 27.9237 159.492 26.819 159.492 25.4564C159.492 24.0938 158.388 22.9891 157.025 22.9891ZM154.05 25.4564C154.05 23.8134 155.382 22.4814 157.025 22.4814C158.668 22.4814 160 23.8134 160 25.4564C160 27.0994 158.668 28.4314 157.025 28.4314C155.382 28.4314 154.05 27.0994 154.05 25.4564Z" fill="#235AA7"/>
<path d="M155.827 26.9272V23.9854H157.078C157.392 23.9854 157.62 24.0121 157.763 24.0648C157.905 24.1175 158.02 24.2114 158.105 24.3464C158.191 24.482 158.233 24.6361 158.233 24.81C158.233 25.0306 158.168 25.2135 158.039 25.3573C157.909 25.5005 157.715 25.5916 157.457 25.6286C157.585 25.7039 157.692 25.7861 157.775 25.8758C157.859 25.9656 157.971 26.1244 158.113 26.3532L158.472 26.9272H157.762L157.333 26.2868C157.18 26.058 157.076 25.9142 157.02 25.8546C156.963 25.795 156.904 25.7546 156.841 25.732C156.778 25.71 156.679 25.6991 156.542 25.6991H156.422V26.9272H155.827ZM156.422 25.2293H156.861C157.146 25.2293 157.324 25.2176 157.395 25.1936C157.466 25.1696 157.521 25.1278 157.561 25.069C157.601 25.01 157.622 24.9368 157.622 24.8484C157.622 24.7491 157.595 24.6696 157.542 24.6087C157.49 24.5477 157.415 24.5093 157.318 24.4929C157.27 24.4868 157.126 24.4833 156.885 24.4833H156.422V25.2293Z" fill="#235AA7"/>
<path d="M149.149 61.2327L149.031 60.2352C149.263 60.2982 149.465 60.3297 149.638 60.3297C149.874 60.3297 150.063 60.2903 150.205 60.2116C150.347 60.1329 150.463 60.0228 150.553 59.8811C150.62 59.7749 150.728 59.5113 150.878 59.0902C150.898 59.0312 150.929 58.9447 150.972 58.8306L148.594 52.5508H149.739L151.043 56.1805C151.212 56.6409 151.364 57.1249 151.498 57.6324C151.62 57.1445 151.765 56.6684 151.934 56.2041L153.274 52.5508H154.336L151.952 58.925C151.696 59.6136 151.498 60.0877 151.356 60.3474C151.167 60.6976 150.951 60.9533 150.707 61.1146C150.463 61.2799 150.172 61.3625 149.833 61.3625C149.629 61.3625 149.4 61.3193 149.149 61.2327Z" fill="#2957A4"/>
<path d="M142.273 59.3377L143.305 59.4911C143.349 59.8099 143.469 60.042 143.665 60.1876C143.929 60.3843 144.289 60.4827 144.745 60.4827C145.237 60.4827 145.617 60.3843 145.885 60.1876C146.152 59.9909 146.333 59.7154 146.428 59.3613C146.483 59.1449 146.508 58.6904 146.504 57.9979C146.04 58.5449 145.462 58.8183 144.769 58.8183C143.907 58.8183 143.24 58.5075 142.768 57.8858C142.296 57.2641 142.06 56.5185 142.06 55.6489C142.06 55.0508 142.168 54.5 142.385 53.9963C142.601 53.4888 142.914 53.0973 143.323 52.8218C143.736 52.5464 144.22 52.4087 144.775 52.4087C145.515 52.4087 146.125 52.7077 146.605 53.3058V52.5503H147.584V57.9684C147.584 58.9442 147.484 59.6348 147.283 60.04C147.087 60.4492 146.772 60.7719 146.339 61.008C145.91 61.2441 145.381 61.3621 144.751 61.3621C144.004 61.3621 143.4 61.1929 142.939 60.8545C142.479 60.5201 142.257 60.0145 142.273 59.3377ZM143.152 55.5722C143.152 56.3945 143.315 56.9946 143.642 57.3723C143.968 57.75 144.378 57.9389 144.869 57.9389C145.357 57.9389 145.767 57.752 146.097 57.3782C146.428 57.0005 146.593 56.4103 146.593 55.6076C146.593 54.8403 146.422 54.2619 146.079 53.8724C145.741 53.4829 145.332 53.2881 144.852 53.2881C144.38 53.2881 143.978 53.4809 143.648 53.8665C143.317 54.2482 143.152 54.8167 143.152 55.5722Z" fill="#2957A4"/>
<path d="M135.344 55.6843C135.344 54.5236 135.666 53.6639 136.312 53.1051C136.851 52.6408 137.508 52.4087 138.283 52.4087C139.145 52.4087 139.849 52.692 140.396 53.2586C140.943 53.8212 141.216 54.6003 141.216 55.5958C141.216 56.4024 141.094 57.0379 140.85 57.5022C140.61 57.9625 140.258 58.3206 139.794 58.5763C139.334 58.8321 138.83 58.96 138.283 58.96C137.406 58.96 136.695 58.6786 136.152 58.116C135.613 57.5533 135.344 56.7428 135.344 55.6843ZM136.436 55.6843C136.436 56.487 136.611 57.089 136.961 57.4904C137.311 57.8878 137.752 58.0865 138.283 58.0865C138.81 58.0865 139.249 57.8858 139.599 57.4845C139.949 57.0831 140.124 56.4713 140.124 55.6489C140.124 54.8738 139.947 54.2875 139.593 53.8901C139.243 53.4888 138.806 53.2881 138.283 53.2881C137.752 53.2881 137.311 53.4868 136.961 53.8842C136.611 54.2816 136.436 54.8816 136.436 55.6843Z" fill="#2957A4"/>
<path d="M133.024 58.8184V50.166H134.087V58.8184H133.024Z" fill="#2957A4"/>
<path d="M125.924 55.6843C125.924 54.5236 126.247 53.6639 126.892 53.1051C127.431 52.6408 128.088 52.4087 128.863 52.4087C129.725 52.4087 130.429 52.692 130.976 53.2586C131.523 53.8212 131.797 54.6003 131.797 55.5958C131.797 56.4024 131.675 57.0379 131.431 57.5022C131.191 57.9625 130.839 58.3206 130.374 58.5763C129.914 58.8321 129.41 58.96 128.863 58.96C127.986 58.96 127.276 58.6786 126.733 58.116C126.194 57.5533 125.924 56.7428 125.924 55.6843ZM127.016 55.6843C127.016 56.487 127.191 57.089 127.541 57.4904C127.891 57.8878 128.332 58.0865 128.863 58.0865C129.391 58.0865 129.829 57.8858 130.179 57.4845C130.53 57.0831 130.705 56.4713 130.705 55.6489C130.705 54.8738 130.528 54.2875 130.174 53.8901C129.823 53.4888 129.387 53.2881 128.863 53.2881C128.332 53.2881 127.891 53.4868 127.541 53.8842C127.191 54.2816 127.016 54.8816 127.016 55.6843Z" fill="#2957A4"/>
<path d="M119.591 58.8183V52.5503H120.547V53.4415C121.008 52.753 121.673 52.4087 122.542 52.4087C122.92 52.4087 123.266 52.4775 123.581 52.6153C123.9 52.749 124.138 52.9261 124.295 53.1464C124.452 53.3668 124.563 53.6284 124.626 53.9314C124.665 54.1282 124.685 54.4724 124.685 54.9643V58.8183H123.622V55.0056C123.622 54.5728 123.581 54.2501 123.498 54.0377C123.416 53.8212 123.268 53.6501 123.056 53.5242C122.847 53.3943 122.601 53.3294 122.318 53.3294C121.865 53.3294 121.474 53.473 121.143 53.7603C120.817 54.0475 120.653 54.5924 120.653 55.3951V58.8183H119.591Z" fill="#2957A4"/>
<path d="M112.863 58.8184V50.166H113.925V53.2705C114.421 52.696 115.047 52.4088 115.802 52.4088C116.266 52.4088 116.67 52.5013 117.012 52.6862C117.354 52.8672 117.598 53.119 117.744 53.4417C117.893 53.7643 117.968 54.2325 117.968 54.8463V58.8184H116.906V54.8463C116.906 54.3152 116.79 53.9296 116.557 53.6895C116.329 53.4456 116.005 53.3236 115.584 53.3236C115.269 53.3236 114.972 53.4062 114.692 53.5715C114.417 53.7328 114.22 53.9532 114.102 54.2325C113.984 54.5119 113.925 54.8975 113.925 55.3893V58.8184H112.863Z" fill="#2957A4"/>
<path d="M110.909 56.5224L111.954 56.6582C111.84 57.3782 111.547 57.9428 111.074 58.3521C110.606 58.7573 110.03 58.96 109.345 58.96C108.487 58.96 107.797 58.6806 107.273 58.1219C106.754 57.5592 106.494 56.7546 106.494 55.7079C106.494 55.0312 106.607 54.439 106.831 53.9314C107.055 53.4238 107.395 53.0441 107.852 52.7923C108.312 52.5366 108.812 52.4087 109.351 52.4087C110.032 52.4087 110.588 52.5818 111.021 52.9281C111.454 53.2704 111.731 53.7583 111.853 54.3918L110.821 54.5511C110.722 54.1301 110.547 53.8134 110.295 53.6009C110.047 53.3884 109.746 53.2822 109.392 53.2822C108.857 53.2822 108.422 53.475 108.088 53.8606C107.753 54.2423 107.586 54.8482 107.586 55.6784C107.586 56.5205 107.748 57.1323 108.07 57.514C108.393 57.8956 108.814 58.0865 109.333 58.0865C109.75 58.0865 110.099 57.9586 110.378 57.7028C110.657 57.4471 110.834 57.0536 110.909 56.5224Z" fill="#2957A4"/>
<path d="M104.381 56.7998L105.479 56.9356C105.306 57.5769 104.985 58.0747 104.517 58.4288C104.049 58.7829 103.451 58.96 102.723 58.96C101.806 58.96 101.078 58.6786 100.539 58.116C100.004 57.5494 99.7366 56.7565 99.7366 55.7374C99.7366 54.6829 100.008 53.8645 100.551 53.2822C101.094 52.6999 101.798 52.4087 102.664 52.4087C103.502 52.4087 104.187 52.694 104.718 53.2645C105.249 53.835 105.515 54.6377 105.515 55.6725C105.515 55.7355 105.513 55.8299 105.509 55.9558H100.834C100.874 56.6444 101.068 57.1716 101.419 57.5376C101.769 57.9035 102.206 58.0865 102.729 58.0865C103.118 58.0865 103.451 57.9842 103.726 57.7796C104.002 57.5749 104.22 57.2484 104.381 56.7998ZM100.893 55.0823H104.393C104.346 54.5551 104.212 54.1596 103.992 53.896C103.654 53.4868 103.215 53.2822 102.676 53.2822C102.188 53.2822 101.777 53.4455 101.442 53.7721C101.112 54.0986 100.929 54.5354 100.893 55.0823Z" fill="#2957A4"/>
<path d="M99.0461 57.8682L99.1996 58.8067C98.9006 58.8696 98.633 58.9011 98.3969 58.9011C98.0113 58.9011 97.7123 58.8401 97.4998 58.7181C97.2873 58.5962 97.1378 58.4368 97.0513 58.2401C96.9647 58.0394 96.9214 57.6204 96.9214 56.9829V53.3768H96.1423V52.5505H96.9214V50.9983L97.9779 50.3608V52.5505H99.0461V53.3768H97.9779V57.042C97.9779 57.3449 97.9956 57.5397 98.031 57.6263C98.0703 57.7128 98.1313 57.7817 98.214 57.8328C98.3005 57.884 98.4225 57.9096 98.5799 57.9096C98.6979 57.9096 98.8533 57.8958 99.0461 57.8682Z" fill="#2957A4"/>
<path d="M83.2935 58.8183V52.5503H84.2437V53.4297C84.4404 53.1228 84.7021 52.8769 85.0287 52.692C85.3552 52.5031 85.7271 52.4087 86.1441 52.4087C86.6084 52.4087 86.9881 52.5051 87.2832 52.6979C87.5823 52.8907 87.7928 53.1602 87.9148 53.5065C88.4105 52.7746 89.0558 52.4087 89.8506 52.4087C90.4723 52.4087 90.9504 52.5818 91.2848 52.9281C91.6193 53.2704 91.7865 53.7996 91.7865 54.5157V58.8183H90.73V54.8698C90.73 54.4449 90.6946 54.14 90.6238 53.955C90.5569 53.7662 90.433 53.6147 90.252 53.5006C90.071 53.3865 89.8585 53.3294 89.6145 53.3294C89.1739 53.3294 88.8079 53.477 88.5168 53.7721C88.2256 54.0632 88.08 54.5315 88.08 55.1768V58.8183H87.0176V54.7459C87.0176 54.2737 86.9311 53.9196 86.758 53.6835C86.5848 53.4475 86.3015 53.3294 85.9081 53.3294C85.609 53.3294 85.3316 53.4081 85.0759 53.5655C84.8241 53.7229 84.6411 53.9531 84.527 54.256C84.4129 54.559 84.3558 54.9958 84.3558 55.5663V58.8183H83.2935Z" fill="#2957A4"/>
<path d="M80.6729 58.8188V57.898C80.185 58.6063 79.522 58.9604 78.6839 58.9604C78.3141 58.9604 77.9678 58.8896 77.6452 58.7479C77.3265 58.6063 77.0884 58.4292 76.931 58.2167C76.7776 58.0003 76.6694 57.7367 76.6064 57.4259C76.5631 57.2173 76.5415 56.8868 76.5415 56.4343V52.5508H77.6039V56.0271C77.6039 56.5819 77.6255 56.9557 77.6688 57.1485C77.7357 57.4278 77.8773 57.6482 78.0937 57.8095C78.3102 57.9669 78.5777 58.0456 78.8964 58.0456C79.2151 58.0456 79.5142 57.9649 79.7935 57.8036C80.0729 57.6383 80.2696 57.416 80.3837 57.1367C80.5018 56.8534 80.5608 56.4442 80.5608 55.909V52.5508H81.6232V58.8188H80.6729Z" fill="#2957A4"/>
<path d="M69.8369 58.8183V52.5503H70.793V53.4415C71.2534 52.753 71.9184 52.4087 72.7879 52.4087C73.1657 52.4087 73.5119 52.4775 73.8267 52.6153C74.1454 52.749 74.3835 52.9261 74.5408 53.1464C74.6982 53.3668 74.8084 53.6284 74.8714 53.9314C74.9107 54.1282 74.9304 54.4724 74.9304 54.9643V58.8183H73.868V55.0056C73.868 54.5728 73.8267 54.2501 73.7441 54.0377C73.6614 53.8212 73.5139 53.6501 73.3014 53.5242C73.0929 53.3943 72.847 53.3294 72.5637 53.3294C72.1112 53.3294 71.7197 53.473 71.3892 53.7603C71.0626 54.0475 70.8993 54.5924 70.8993 55.3951V58.8183H69.8369Z" fill="#2957A4"/>
<path d="M67.1514 51.3877V50.166H68.2137V51.3877H67.1514ZM67.1514 58.8184V52.5504H68.2137V58.8184H67.1514Z" fill="#2957A4"/>
<path d="M57.0767 58.8183V52.5503H58.0269V53.4297C58.2236 53.1228 58.4853 52.8769 58.8119 52.692C59.1384 52.5031 59.5103 52.4087 59.9273 52.4087C60.3916 52.4087 60.7713 52.5051 61.0664 52.6979C61.3655 52.8907 61.576 53.1602 61.698 53.5065C62.1937 52.7746 62.839 52.4087 63.6338 52.4087C64.2555 52.4087 64.7336 52.5818 65.068 52.9281C65.4025 53.2704 65.5697 53.7996 65.5697 54.5157V58.8183H64.5132V54.8698C64.5132 54.4449 64.4778 54.14 64.407 53.955C64.3401 53.7662 64.2162 53.6147 64.0352 53.5006C63.8542 53.3865 63.6417 53.3294 63.3978 53.3294C62.9571 53.3294 62.5911 53.477 62.3 53.7721C62.0088 54.0632 61.8632 54.5315 61.8632 55.1768V58.8183H60.8009V54.7459C60.8009 54.2737 60.7143 53.9196 60.5412 53.6835C60.368 53.4475 60.0847 53.3294 59.6913 53.3294C59.3922 53.3294 59.1148 53.4081 58.8591 53.5655C58.6073 53.7229 58.4243 53.9531 58.3102 54.256C58.1961 54.559 58.139 54.9958 58.139 55.5663V58.8183H57.0767Z" fill="#2957A4"/>
<path d="M54.4561 58.8188V57.898C53.9682 58.6063 53.3052 58.9604 52.4672 58.9604C52.0973 58.9604 51.751 58.8896 51.4284 58.7479C51.1097 58.6063 50.8716 58.4292 50.7142 58.2167C50.5608 58.0003 50.4526 57.7367 50.3896 57.4259C50.3463 57.2173 50.3247 56.8868 50.3247 56.4343V52.5508H51.3871V56.0271C51.3871 56.5819 51.4087 56.9557 51.452 57.1485C51.5189 57.4278 51.6605 57.6482 51.8769 57.8095C52.0934 57.9669 52.3609 58.0456 52.6796 58.0456C52.9983 58.0456 53.2974 57.9649 53.5767 57.8036C53.8561 57.6383 54.0528 57.416 54.1669 57.1367C54.285 56.8534 54.344 56.4442 54.344 55.909V52.5508H55.4064V58.8188H54.4561Z" fill="#2957A4"/>
<path d="M47.6333 58.8184V50.166H48.6957V58.8184H47.6333Z" fill="#2957A4"/>
<path d="M45.0187 58.0451C44.6253 58.3796 44.2456 58.6157 43.8797 58.7534C43.5177 58.8911 43.1281 58.96 42.711 58.96C42.0225 58.96 41.4933 58.7927 41.1234 58.4583C40.7535 58.1199 40.5686 57.6891 40.5686 57.1657C40.5686 56.8588 40.6375 56.5795 40.7752 56.3276C40.9168 56.0719 41.0998 55.8673 41.3241 55.7138C41.5523 55.5604 41.808 55.4443 42.0913 55.3656C42.2999 55.3105 42.6146 55.2574 43.0357 55.2063C43.8934 55.104 44.5249 54.982 44.9302 54.8403C44.9341 54.6948 44.9361 54.6023 44.9361 54.5629C44.9361 54.1301 44.8358 53.8252 44.6351 53.6481C44.3636 53.4081 43.9603 53.2881 43.4252 53.2881C42.9255 53.2881 42.5556 53.3766 42.3156 53.5537C42.0795 53.7268 41.9044 54.0357 41.7903 54.4803L40.7516 54.3387C40.846 53.894 41.0014 53.536 41.2178 53.2645C41.4342 52.9891 41.747 52.7786 42.1563 52.633C42.5655 52.4835 43.0396 52.4087 43.5786 52.4087C44.1138 52.4087 44.5485 52.4716 44.883 52.5976C45.2174 52.7235 45.4634 52.8828 45.6208 53.0756C45.7781 53.2645 45.8883 53.5045 45.9513 53.7957C45.9867 53.9767 46.0044 54.3032 46.0044 54.7754V56.1919C46.0044 57.1795 46.026 57.8051 46.0693 58.0688C46.1165 58.3284 46.207 58.5783 46.3408 58.8183H45.2312C45.121 58.598 45.0502 58.3402 45.0187 58.0451ZM44.9302 55.6725C44.5446 55.8299 43.9662 55.9637 43.195 56.0739C42.7583 56.1368 42.4494 56.2076 42.2684 56.2863C42.0874 56.365 41.9477 56.4811 41.8493 56.6346C41.751 56.7841 41.7018 56.9513 41.7018 57.1362C41.7018 57.4195 41.808 57.6556 42.0205 57.8445C42.2369 58.0333 42.5517 58.1278 42.9648 58.1278C43.374 58.1278 43.738 58.0392 44.0567 57.8622C44.3754 57.6812 44.6095 57.4353 44.7591 57.1244C44.8732 56.8844 44.9302 56.5303 44.9302 56.0621V55.6725Z" fill="#2957A4"/>
</g>
<defs>
<clipPath id="clip0_705_889">
<rect width="160" height="80" fill="white"/>
</clipPath>
</defs>
</svg>
