<svg width="160" height="80" viewBox="0 0 160 80" fill="none" xmlns="http://www.w3.org/2000/svg">
<g clip-path="url(#clip0_473_4933)">
<mask id="mask0_473_4933" style="mask-type:luminance" maskUnits="userSpaceOnUse" x="0" y="0" width="160" height="81">
<path d="M160 0.344238H0V80.3442H160V0.344238Z" fill="white"/>
</mask>
<g mask="url(#mask0_473_4933)">
<path fill-rule="evenodd" clip-rule="evenodd" d="M0 78.1135H1.97155V67.7473H0V78.1135ZM151.325 71.2434H152.669V74.3536H153.605V71.2434H154.95V70.4247H151.322V71.2434H151.325ZM157.028 70.4247H155.621V74.3536H156.49V71.4549L157.475 74.3536H158.101L159.091 71.425V74.3536H160V70.4247H158.648L157.839 72.8209L157.026 70.4247H157.028ZM7.76426 75.2221C8.59819 75.3241 8.85957 75.6028 8.85957 76.0557C8.85957 76.5235 8.37664 76.8718 7.34108 76.8718C6.08395 76.8718 5.6309 76.2149 5.5587 76.0382H3.55727C3.70414 76.7251 4.59533 78.3176 7.34108 78.3176C9.60388 78.3176 10.7589 77.3695 10.7589 75.9811C10.7589 74.523 9.94244 73.7615 7.941 73.5874L6.68388 73.4554C5.93957 73.3534 5.63338 73.0896 5.63338 72.6815C5.63338 72.2287 6.10138 71.9375 6.99256 71.9375C8.10281 71.9375 8.52599 72.4502 8.65793 72.6094H10.6295C10.4254 71.8928 9.66611 70.5218 7.0075 70.5218C5.02101 70.5218 3.74894 71.3976 3.74894 72.7835C3.74894 74.2144 4.84426 74.9733 6.46483 75.0902C6.97763 75.1475 7.239 75.1774 7.76426 75.2221ZM14.0648 74.1695C14.0648 73.0175 14.7941 72.2287 15.9193 72.2287C17.0296 72.2287 17.7166 73.0026 17.7166 74.1695V78.111H19.601V73.8037C19.601 71.9202 18.3739 70.564 16.5192 70.564C15.1751 70.564 14.3436 71.4399 14.0648 71.9649V67.3666H12.2102V78.111H14.0648V74.1695ZM24.9831 70.5342C22.7053 70.5342 20.9951 72.169 20.9951 74.4184C20.9951 76.6652 22.7053 78.3026 24.9831 78.3026C27.2334 78.3026 28.9561 76.6677 28.9561 74.4184C28.9561 72.169 27.2334 70.5342 24.9831 70.5342ZM24.9831 76.638C23.7409 76.638 22.8796 75.6451 22.8796 74.4184C22.8796 73.1917 23.7409 72.1989 24.9831 72.1989C26.2252 72.1989 27.0716 73.1618 27.0716 74.4184C27.0716 75.675 26.2252 76.638 24.9831 76.638ZM32.3066 74.1695C32.3066 73.0175 33.0361 72.2287 34.1612 72.2287C35.2715 72.2287 35.9586 73.0026 35.9586 74.1695V78.111H37.843V73.8037C37.843 71.9202 36.6157 70.564 34.7612 70.564C33.4169 70.564 32.583 71.4399 32.3066 71.9649V70.7234H30.4521V78.111H32.3066V74.1695ZM46.6702 73.1618C46.5532 72.3581 45.662 70.5342 43.0333 70.5342C40.885 70.5342 39.2345 72.1391 39.2345 74.4184C39.2345 76.6952 40.8999 78.3026 43.0458 78.3026C45.6894 78.3026 46.5955 76.4489 46.6677 75.675H44.843C44.7111 75.879 44.3028 76.6529 43.0755 76.6529C41.9081 76.6529 41.1339 75.66 41.1339 74.4184C41.1339 73.1767 41.923 72.1839 43.0631 72.1839C44.2456 72.1839 44.6986 72.9727 44.8156 73.1618H46.6702ZM49.9338 74.1695C49.9338 73.0175 50.6656 72.2287 51.7883 72.2287C52.8985 72.2287 53.5856 73.0026 53.5856 74.1695V78.111H55.47V73.8037C55.47 71.9202 54.2428 70.564 52.3882 70.564C51.0439 70.564 50.2101 71.4399 49.9338 71.9649V67.3666H48.0792V78.111H49.9338V74.1695ZM57.3892 78.111H59.2588V67.3666H57.3892V78.111ZM61.2378 69.5413H63.1795V67.3218H61.2378V69.5413ZM61.2826 78.111H63.1521V70.7234H61.2826V78.111ZM105.242 78.111H107.097V70.7234H105.227V71.8331C105.065 71.527 104.321 70.564 102.76 70.564C100.848 70.564 99.27 72.0246 99.27 74.4184C99.27 76.8271 100.848 78.2727 102.745 78.2727C104.381 78.2727 105.098 77.2351 105.242 76.9441V78.111ZM105.257 74.4184C105.257 75.675 104.453 76.638 103.241 76.638C101.986 76.638 101.167 75.675 101.167 74.4184C101.167 73.1618 101.986 72.1989 103.241 72.1989C104.453 72.1989 105.257 73.1618 105.257 74.4184ZM110.93 74.2169C110.93 73.0448 111.5 72.5198 113.078 72.5198H115.05V70.666H113.327C111.692 70.666 111.122 71.527 110.933 71.95V70.7084H109.078V78.111H110.933V74.2169H110.93ZM121.702 78.111H123.556V70.7234H121.687V71.8331C121.525 71.527 120.78 70.564 119.22 70.564C117.305 70.564 115.727 72.0246 115.727 74.4184C115.727 76.8271 117.305 78.2727 119.202 78.2727C120.838 78.2727 121.555 77.2351 121.699 76.9441V78.111H121.702ZM121.716 74.4184C121.716 75.675 120.912 76.638 119.7 76.638C118.443 76.638 117.626 75.675 117.626 74.4184C117.626 73.1618 118.445 72.1989 119.7 72.1989C120.912 72.1989 121.716 73.1618 121.716 74.4184ZM130.91 78.111H133.406L129.272 74.1695L133.203 70.7234H130.763L127.375 73.7316V67.3666H125.535V78.111H127.375V74.7518L130.91 78.111ZM139.461 78.111H141.315V70.7234H139.445V71.8331C139.284 71.527 138.539 70.564 136.978 70.564C135.064 70.564 133.489 72.0246 133.489 74.4184C133.489 76.8271 135.066 78.2727 136.964 78.2727C138.599 78.2727 139.315 77.2351 139.461 76.9441V78.111ZM139.475 74.4184C139.475 75.675 138.671 76.638 137.458 76.638C136.202 76.638 135.385 75.675 135.385 74.4184C135.385 73.1618 136.205 72.1989 137.458 72.1989C138.671 72.1989 139.475 73.1618 139.475 74.4184ZM143.323 78.111H145.193V67.3666H143.323V78.111ZM147.172 69.5413H149.115V67.3218H147.172V69.5413ZM147.214 78.111H149.085V70.7234H147.214V78.111ZM76.2585 70.7234H74.3468L72.171 75.8915L69.9953 70.7234H67.8918L71.2525 78.2131H73.005L76.261 70.7234H76.2585ZM82.7357 78.111H84.5903V70.7234H82.7208V71.8331C82.5591 71.527 81.8147 70.564 80.2539 70.564C78.3422 70.564 76.7638 72.0246 76.7638 74.4184C76.7638 76.8271 78.342 78.2727 80.239 78.2727C81.8745 78.2727 82.5913 77.2351 82.7357 76.9441V78.111ZM82.7507 74.4184C82.7507 75.675 81.9466 76.638 80.7343 76.638C79.4772 76.638 78.6607 75.675 78.6607 74.4184C78.6607 73.1618 79.4797 72.1989 80.7343 72.1989C81.9466 72.1989 82.7507 73.1618 82.7507 74.4184ZM92.1629 76.9888C92.3073 77.2799 93.1263 78.2727 94.7195 78.2727C96.6611 78.2727 98.2395 76.8271 98.2395 74.4184C98.2395 72.0098 96.6611 70.564 94.7195 70.564C93.0989 70.564 92.3397 71.6141 92.1778 71.8928V67.3666H90.3382V78.111H92.1654V76.9863L92.1629 76.9888ZM92.1479 74.4184C92.1479 73.1493 92.9819 72.1989 94.2515 72.1989C95.521 72.1989 96.3401 73.1468 96.3401 74.4184C96.3401 75.675 95.521 76.638 94.2515 76.638C92.9819 76.638 92.1479 75.675 92.1479 74.4184Z" fill="white"/>
<path fill-rule="evenodd" clip-rule="evenodd" d="M35.5229 48.0522V34.8295C35.5229 27.5761 29.5534 21.6067 22.2946 21.6067C15.0382 21.6067 9.07116 27.5786 9.07116 34.8295C9.07116 42.0852 15.0357 48.0522 22.2946 48.0522H35.5229ZM95.429 44.917C93.8333 41.8016 92.9968 38.3529 92.9968 34.8295C92.9968 22.5697 103.026 12.5418 115.291 12.5418C129.005 12.5418 139.54 24.9509 137.288 38.4772L137.138 39.3656H102.877C104.776 44.5138 109.743 48.0522 115.291 48.0522H140.018V0.344238H149.087V57.1195H115.179C111.172 57.1195 107.288 56.0097 103.885 53.9643C103.594 53.7752 103.305 53.5812 103.024 53.3821C99.3945 55.8008 95.0779 57.1195 90.7066 57.1195H90.5524C78.2973 57.1195 68.2926 47.0718 68.2926 34.832V21.6514C61.5041 22.2014 56.1372 27.9618 56.1372 34.832V57.1195H47.066V34.832C47.066 22.9577 56.4906 13.129 68.2926 12.5692V0.346726H77.3663V12.5443H89.3798V21.6092H77.3663V34.832C77.3663 42.0902 83.3332 48.0547 90.5946 48.0547C92.6284 48.0547 94.6746 47.5844 96.5069 46.6911C96.1235 46.1163 95.765 45.5265 95.4315 44.9219L95.429 44.917ZM127.711 30.2982C125.811 25.145 120.845 21.6067 115.291 21.6067C109.74 21.6067 104.774 25.1475 102.877 30.2982H127.711ZM44.5916 57.117H22.2522C9.99719 57.117 0 47.0669 0 34.8295C0 22.5697 10.0271 12.5418 22.2946 12.5418C34.5596 12.5418 44.5916 22.5697 44.5916 34.8295V57.117Z" fill="white"/>
</g>
</g>
<defs>
<clipPath id="clip0_473_4933">
<rect width="160" height="77.3771" fill="white" transform="translate(0 1)"/>
</clipPath>
</defs>
</svg>
