<svg width="160" height="80" viewBox="0 0 160 80" fill="none" xmlns="http://www.w3.org/2000/svg">
<path fill-rule="evenodd" clip-rule="evenodd" d="M0.0187013 50.3247C-0.00623377 50.5013 -0.00623377 50.68 0.0187013 50.8566C0.0159479 51.3009 0.145756 51.736 0.391532 52.1061C0.637307 52.4762 0.987883 52.7647 1.39844 52.9345C1.67169 53.0468 1.96364 53.1039 2.2587 53.1008H23.5574C24.1226 50.7569 24.7034 48.4119 25.2177 46.0847H15.4629C16.6577 41.2452 17.8525 36.4234 19.0629 31.5683H26.0301C26.56 29.3896 27.0919 27.2119 27.6894 25.0166H9.44104C8.56935 25.0166 7.72364 25.3106 7.03792 25.8509C6.35218 26.3907 5.86684 27.1445 5.65922 27.9922L0.135065 50.3247H0.0187013ZM27.4899 50.3247L33.4618 25H47.8275C46.1002 32.0249 44.3638 39.0476 42.6182 46.0681H49.9179C49.3371 48.3953 48.7564 50.7403 48.2587 53.0852H29.5803C29.2434 53.0807 28.9117 53.0011 28.6094 52.8523C28.3071 52.7035 28.0418 52.4892 27.8327 52.2249C27.6228 51.9606 27.4741 51.6529 27.3976 51.3241C27.3211 50.9953 27.3185 50.6536 27.3901 50.3236L27.4899 50.3247ZM71.7984 25H60.8997C60.027 25 59.1813 25.294 58.4956 25.8343C57.8097 26.3744 57.3243 27.1286 57.1169 27.9766C55.0597 36.3351 52.9922 44.7039 50.9132 53.0852H64.8312L66.4893 46.0681H72.7107V53.0852H86.6286V25.0166H72.7107V39.5496H68.1652C69.36 34.7112 70.5548 29.8883 71.7652 25.0332L71.7984 25ZM111.246 53.1184V46.0847H105.092C104.511 48.4119 103.93 50.7569 103.433 53.1018H89.4816L95.7018 27.9922C95.9107 27.1403 96.3979 26.3839 97.0878 25.8447C97.7766 25.3044 98.6265 25.0135 99.5013 25.0156H110.367L106.734 39.5486H111.262V25.0166H125.214V53.1018H111.262L111.246 53.1184ZM158.291 39.5496C158.316 39.3676 158.316 39.183 158.291 39.001C158.296 38.5572 158.169 38.1219 157.925 37.7507C157.682 37.3795 157.334 37.0892 156.925 36.9169C156.654 36.8023 156.363 36.7423 156.069 36.7403H146.38C146.796 35.0769 147.227 33.4135 147.658 31.6016H158.341C158.872 29.4123 159.425 27.2283 160 25.0499H137.986C137.115 25.0548 136.27 25.3502 135.585 25.8893C134.9 26.4284 134.414 27.1804 134.205 28.0265C133.409 31.2525 132.607 34.4836 131.799 37.72C131.782 37.8966 131.782 38.0753 131.799 38.253C131.797 38.5465 131.853 38.8376 131.963 39.1095C132.074 39.3814 132.237 39.6287 132.444 39.8373C132.65 40.0459 132.896 40.2116 133.167 40.3248C133.438 40.438 133.728 40.4966 134.022 40.4971H142.317C141.869 42.3766 141.387 44.2384 140.923 46.1179H129.776C129.195 48.4452 128.614 50.7901 128.116 53.1351H152.004C152.857 53.1029 153.677 52.7912 154.336 52.2478C154.995 51.7034 155.458 50.9578 155.654 50.1252C156.538 46.6 157.412 43.0634 158.274 39.5164" fill="#FE0001"/>
</svg>
