<svg width="160" height="80" viewBox="0 0 160 80" fill="none" xmlns="http://www.w3.org/2000/svg">
<g clip-path="url(#clip0_473_4944)">
<path fill-rule="evenodd" clip-rule="evenodd" d="M131.367 25.7008L131.358 25.696C132.521 24.4261 133.809 23.0775 135.158 21.7799C133.517 20.98 132.001 20.0733 130.535 19.1961C127.358 17.2954 124.412 15.5336 120.927 15.2978C118.223 15.1305 115.517 15.5778 113.011 16.6063C113.011 16.6063 111.656 14.767 107.484 15.363C103.311 15.9591 90.4589 21.3282 79.5064 38.8374C69.6057 54.6654 74.2577 63.7412 81.3688 63.6434C89.0752 63.5364 96.4051 54.9681 98.892 47.9039C101.378 40.8396 98.4445 38.9257 96.1907 39.1074C93.7 39.3169 89.2983 41.5335 86.8774 46.4323C84.4553 51.3312 84.4553 54.3486 84.4553 54.3486C85.4451 53.3104 86.5222 52.3586 87.674 51.5034C88.7099 50.6941 89.8518 50.0298 91.0685 49.5291C91.3527 48.2633 91.7765 47.0327 92.33 45.8596C93.2064 44.0341 94.5938 42.1342 96.3066 41.7059C99.7858 40.835 98.1192 47.1774 95.5624 51.3126C94.1887 53.5198 89.3133 59.904 85.126 59.904C80.9399 59.904 80.1396 55.8715 81.0197 52.0856C81.8998 48.2997 83.124 43.5126 89.2435 34.7953C95.3617 26.078 101.979 20.9091 105.812 18.7438C109.746 16.5132 111.348 17.4911 111.348 17.4911C111.348 17.4911 106.324 20.5738 103.465 24.2992C100.736 27.8569 99.1015 31.857 100.368 33.8174C101.578 35.6847 105.831 35.722 110.519 28.9605C115.148 22.2828 113.984 18.3107 113.984 18.3107C114.289 18.2116 114.6 18.1338 114.916 18.0778C117.173 17.7752 118.981 18.3759 121.774 19.8101C123.137 20.5098 124.474 21.4061 125.903 22.3633C127.542 23.462 129.303 24.6414 131.358 25.696L131.353 25.7008H131.367ZM112.4 18.8276C112.4 18.8276 109.421 20.015 105.955 23.8335C102.491 27.652 100.47 31.9501 101.965 33.0864C102.538 33.5194 103.86 33.5938 106.263 31.4331C108.478 29.5089 110.217 27.0973 111.343 24.3876C112.805 20.8225 112.45 19.0747 112.405 18.8514C112.403 18.8379 112.4 18.83 112.4 18.8276Z" fill="white"/>
<path d="M137.404 27.8639L137.403 27.8663C145.542 29.4775 152.671 24.4344 156.462 20.1409C157.846 18.6044 159.035 16.9046 160.006 15.0791C158.279 16.8764 156.347 18.4643 154.251 19.8103L154.227 19.8056C150.698 22.0688 145.812 24.1224 141.119 23.6707C139.931 24.9 138.659 26.3203 137.393 27.8617L137.404 27.8639Z" fill="white"/>
<path fill-rule="evenodd" clip-rule="evenodd" d="M140.271 56.7934C139.596 57.8738 138.828 59.946 141.058 58.656C143.773 57.0867 147.642 51.2054 147.642 51.2054H149.394C147.798 53.6632 146.021 55.998 144.076 58.1904C141.324 61.2404 137.966 64.0112 135.6 63.7365C132.839 63.4151 133.706 59.7877 133.706 59.7877C133.706 59.7877 129.738 63.9786 127.014 63.6946C123.32 63.2848 124.447 58.7212 124.447 58.7212C124.447 58.7212 120.256 63.8436 117.425 63.6899C112.964 63.4338 114.087 57.9901 115.325 54.181C115.992 52.1367 116.606 50.5301 116.606 50.5301C116.606 50.5301 116.164 50.6466 115.209 50.7863C114.71 50.8561 113.811 50.9074 113.811 50.9074C112.788 52.7128 111.672 54.4645 110.468 56.1554C108.983 58.1298 102.673 64.9146 98.947 63.5548C95.5114 62.2975 96.6471 57.0356 98.6491 52.8446C101.57 46.7489 109.784 37.9897 114.519 39.14C119.432 40.3321 114.632 49.2915 114.632 49.2915C114.632 49.2915 114.632 49.3241 114.683 49.3474C114.993 49.4034 115.312 49.3858 115.614 49.2961C116.228 49.1717 116.829 48.9926 117.411 48.7606C117.411 48.7606 122.348 38.4228 127.801 31.6613C133.253 24.8998 144.146 13.2674 148.415 16.0847C149.459 16.7786 148.984 19.1628 147.578 22.0592C146.943 22.2597 146.3 22.4275 145.649 22.5622C146.43 21.2687 147.019 19.8698 147.401 18.4084C148.043 14.9159 139.885 22.2781 134.055 30.2038C130.548 34.9784 127.433 40.0286 124.741 45.3053C125.795 44.6652 126.8 43.9493 127.749 43.1633C130.35 41.0063 132.822 38.6989 135.153 36.2527C137.389 33.9487 139.487 31.5136 141.436 28.9605C142.059 28.931 142.681 28.8673 143.298 28.7695C141.166 31.6599 138.844 34.4042 136.346 36.9839C136.139 37.1897 135.932 37.3972 135.724 37.6059C133.575 39.7579 131.308 42.0271 129.314 43.7081C127.365 45.3743 125.311 46.9112 123.162 48.3088C123.162 48.3088 118.04 58.5908 120.835 59.2521C122.464 59.6433 125.686 54.6839 125.686 54.6839C125.686 54.6839 129.877 48.2717 132.42 45.3705C135.856 41.459 138.832 39.2052 141.788 39.1446C143.521 39.112 144.541 40.9607 144.541 40.9607L145.356 39.6987H150.371C150.371 39.6987 141.007 55.5873 140.256 56.784L140.271 56.7934ZM143.414 42.7395C143.475 42.6316 143.525 42.5177 143.564 42.3995C143.54 42.2135 143.453 42.0413 143.317 41.9115C143.181 41.7818 143.005 41.7027 142.818 41.6871C142.045 41.6498 140.983 41.7989 138.213 44.8676C135.911 47.4086 133.93 50.2239 132.317 53.2497C130.73 56.1507 130.087 58.3115 130.999 58.8703C131.296 59.0224 131.638 59.0573 131.959 58.968C132.579 58.8191 133.277 58.2416 134.343 57.0075C134.742 56.5452 135.177 55.9274 135.674 55.2213L135.679 55.2147C135.801 55.0412 135.927 54.8624 136.057 54.6793C137.892 52.1832 142.502 44.3228 143.414 42.7349V42.7395ZM114.608 46.0737C115.074 44.8629 115.66 42.488 114.436 41.5567C113.118 40.5648 109.779 42.8886 109.746 45.282C109.714 47.6756 112.107 48.8258 112.681 48.9795C113.006 49.0679 113.118 49.0539 113.277 48.7931C113.783 47.9218 114.228 47.0163 114.608 46.0831V46.0737ZM112.07 50.5208C111.238 50.1366 110.463 49.6416 109.765 49.0493C109.062 48.4621 108.473 47.75 108.028 46.9492C107.99 46.8838 107.951 46.9265 107.91 46.9723C107.901 46.9819 107.893 46.9915 107.884 47.0004L107.883 47.0012C107.83 47.0538 107.622 47.2616 105.834 49.8782C104.037 52.5092 101.299 57.9296 103.786 58.8562C105.378 59.4477 108.028 56.6584 109.481 54.8097C110.464 53.5202 111.356 52.1633 112.15 50.749C112.224 50.5907 112.15 50.5535 112.07 50.5208Z" fill="white"/>
<path d="M83.837 27.6055H79.0676L76.3724 31.9642H81.1406L83.837 27.6055Z" fill="white"/>
<path fill-rule="evenodd" clip-rule="evenodd" d="M72.6419 39.5312H74.3742C74.3742 39.5312 65.6196 52.1833 60.6696 51.6059C57.9081 51.2847 58.7278 47.8806 58.7278 47.8806C58.7278 47.8806 54.8394 52.4208 51.277 51.5128C48.0454 50.6839 50.1316 45.3148 50.1316 45.3148C50.0765 45.3371 49.8734 45.5323 49.5511 45.8418C47.7193 47.6021 42.0392 53.0601 37.8612 51.4522C32.7388 49.4685 35.3886 42.87 36.3664 40.8863C37.1952 39.2145 38.1126 37.5847 38.1126 37.5847C38.1126 37.5847 37.3256 37.8082 36.8321 37.92C36.3384 38.0317 35.5981 38.1761 35.5981 38.1761C35.5981 38.1761 33.1673 42.1296 31.6818 44.0993C30.1963 46.0692 23.8772 52.8493 20.1565 51.4988C16.4358 50.1484 17.3625 44.9423 19.4487 40.7885C22.8388 34.0829 30.8855 25.8406 35.7471 27.0792C40.6086 28.3179 36.5899 36.2668 36.5899 36.2668C36.5899 36.2668 37.5632 36.3926 39.8962 34.7999C40.8597 34.1444 41.9102 33.1713 43.0309 32.1332C45.8262 29.5441 49.0587 26.55 52.4692 27.0653C54.723 27.4052 56.8231 29.7196 53.95 34.1108C53.0187 35.5078 51.4866 36.7838 50.3038 35.5358C49.5681 34.7674 50.2107 33.3472 50.9837 32.3786C51.2859 31.9838 51.6806 31.6695 52.1328 31.4632C52.5852 31.257 53.0814 31.1651 53.5775 31.1957C53.5775 31.1957 54.3691 29.3749 52.3527 29.4122C50.7183 29.4449 46.5831 33.2493 44.2502 37.0958C42.1359 40.6395 38.8996 46.6558 42.1361 47.9691C45.1209 49.1752 50.8021 42.4323 53.4331 38.8978C56.0642 35.3634 62.0527 27.354 67.0819 27.0327C68.8141 26.9209 69.8432 28.4996 69.8432 28.4996L70.4254 27.5681H75.445C75.445 27.5681 65.9921 43.3963 65.2518 44.5836C64.6696 45.515 63.8966 47.6244 66.0387 46.4463C68.1808 45.2682 72.6419 39.5312 72.6419 39.5312ZM61.2563 42.6837C63.2867 39.8898 68.884 30.1573 68.884 30.1573C68.86 29.9712 68.7731 29.7989 68.6375 29.6692C68.5019 29.5396 68.3259 29.4603 68.1389 29.4449C67.3659 29.4076 66.0806 29.6684 63.4822 32.8814C60.8837 36.0945 58.9467 38.651 57.503 41.31C55.9105 44.2112 55.2166 46.2601 56.1294 46.8142C56.4261 46.9641 56.7678 46.999 57.0886 46.912C57.6846 46.7631 58.4624 46.1669 59.5287 44.9376C60.0316 44.3647 60.5998 43.5917 61.2657 42.6837H61.2563ZM35.6773 29.5053C34.3594 28.5088 31.0205 30.8372 30.988 33.2307C30.9553 35.6242 34.0148 36.3693 34.4106 36.388C34.4989 36.4112 34.5925 36.4047 34.6766 36.3693C34.7609 36.3339 34.8311 36.2717 34.8762 36.1924C35.2345 35.4907 35.5562 34.7711 35.8402 34.0363C36.3058 32.8256 36.8879 30.4506 35.6632 29.5193L35.6773 29.5053ZM33.6749 37.9013C32.7662 37.6172 31.8977 37.2182 31.0903 36.7139C30.3029 36.2053 29.661 35.5009 29.2277 34.6695C29.1872 34.6006 29.143 34.6518 29.1015 34.7001C29.0954 34.7072 29.0893 34.7143 29.0833 34.7208C29.0368 34.772 28.7667 35.1259 26.9738 37.757C25.181 40.388 22.522 45.7711 25.0135 46.6931C26.606 47.2845 29.2836 44.4859 30.7318 42.6372C31.8231 41.1942 32.8321 39.6908 33.754 38.1342C33.8145 37.9759 33.754 37.9386 33.6655 37.9107L33.6749 37.9013Z" fill="white"/>
<path d="M69.9038 64.8634C66.2005 62.3003 61.7663 61.0064 57.2656 61.1754C56.0473 61.2082 54.8541 61.5281 53.7826 62.1091C52.7113 62.6902 51.7923 63.5158 51.1002 64.5189C49.1816 61.1707 45.3911 59.1171 39.5283 59.1637C34.5645 59.2198 29.6199 60.4462 24.9673 61.6001C20.742 62.648 16.7575 63.6363 13.2181 63.6341C6.07477 63.6341 0.87326 59.1451 1.04554 51.1774C1.35295 37.2074 13.1529 24.6344 22.0007 18.9626C27.0718 15.7029 31.3139 14.7437 34.108 15.0557C36.1336 15.2792 38.569 17.6215 37.0324 21.0721C34.7739 26.1246 31.654 25.7008 31.7703 23.2887C31.8189 22.6594 32.016 22.0506 32.3455 21.5123C32.6749 20.974 33.1273 20.5215 33.6656 20.192C34.2368 19.881 34.8779 19.7208 35.5282 19.7263C35.994 19.3491 36.3152 16.5877 32.683 17.4958C29.0508 18.4038 24.627 21.9755 20.4546 26.5856C16.2822 31.1956 9.79084 39.9037 8.18424 49.0494C7.43454 53.2916 7.9328 61.0263 17.9633 60.9426C21.8305 60.9108 26.5359 59.7376 31.6025 58.4743C37.6943 56.9554 44.3084 55.3062 50.6159 55.3545C54.6389 55.3377 58.5902 56.4196 62.0434 58.4838C65.0329 60.3464 68.6139 63.0101 69.8852 64.8449L69.9038 64.8634Z" fill="white"/>
</g>
<defs>
<clipPath id="clip0_473_4944">
<rect width="160" height="49.6" fill="white" transform="translate(0 15)"/>
</clipPath>
</defs>
</svg>
