<svg width="160" height="80" viewBox="0 0 160 80" fill="none" xmlns="http://www.w3.org/2000/svg">
<g clip-path="url(#clip0_676_63)">
<path opacity="0.999" fill-rule="evenodd" clip-rule="evenodd" d="M103.65 20.9502C108.617 20.9502 113.583 20.9502 118.55 20.9502C118.55 22.2502 118.55 23.5502 118.55 24.8502C114.85 24.8502 111.15 24.8502 107.45 24.8502C107.45 25.9502 107.45 27.0502 107.45 28.1502C110.783 28.1502 114.117 28.1502 117.45 28.1502C117.45 29.4502 117.45 30.7502 117.45 32.0502C114.117 32.0502 110.783 32.0502 107.45 32.0502C107.45 33.3169 107.45 34.5835 107.45 35.8502C111.283 35.8502 115.117 35.8502 118.95 35.8502C118.95 37.1169 118.95 38.3835 118.95 39.6502C113.85 39.6502 108.75 39.6502 103.65 39.6502C103.65 33.4169 103.65 27.1835 103.65 20.9502Z" fill="#878787"/>
<path opacity="0.997" fill-rule="evenodd" clip-rule="evenodd" d="M65.6499 21.0502C66.8504 21.0335 68.0504 21.0502 69.2499 21.1002C72.4332 25.2835 75.6166 29.4669 78.7999 33.6502C78.8499 29.4503 78.8666 25.2503 78.8499 21.0502C80.0166 21.0502 81.1832 21.0502 82.3499 21.0502C82.3499 27.2502 82.3499 33.4502 82.3499 39.6502C81.2161 39.6669 80.0827 39.6502 78.9499 39.6002C75.8332 35.6169 72.7166 31.6335 69.5999 27.6502C69.5499 31.6501 69.5332 35.6501 69.5499 39.6502C68.2499 39.6502 66.9499 39.6502 65.6499 39.6502C65.6499 33.4502 65.6499 27.2502 65.6499 21.0502Z" fill="#878787"/>
<path opacity="0.997" fill-rule="evenodd" clip-rule="evenodd" d="M84.8501 21.0498C90.4501 21.0498 96.0501 21.0498 101.65 21.0498C101.65 22.3165 101.65 23.5831 101.65 24.8498C99.4834 24.8498 97.3168 24.8498 95.1501 24.8498C95.1501 29.7831 95.1501 34.7165 95.1501 39.6498C93.8834 39.6498 92.6168 39.6498 91.3501 39.6498C91.3501 34.7165 91.3501 29.7831 91.3501 24.8498C89.1834 24.8498 87.0168 24.8498 84.8501 24.8498C84.8501 23.5831 84.8501 22.3165 84.8501 21.0498Z" fill="#888888"/>
<path opacity="0.988" fill-rule="evenodd" clip-rule="evenodd" d="M47.75 21.1499C52.6833 21.1499 57.6167 21.1499 62.55 21.1499C62.5821 22.3413 62.5488 23.5246 62.45 24.6999C58.8168 24.7499 55.1835 24.7666 51.55 24.7499C51.55 25.9499 51.55 27.1499 51.55 28.3499C54.8167 28.3499 58.0833 28.3499 61.35 28.3499C61.35 29.5832 61.35 30.8166 61.35 32.0499C58.0833 32.0499 54.8167 32.0499 51.55 32.0499C51.55 33.3166 51.55 34.5832 51.55 35.8499C55.3167 35.8499 59.0833 35.8499 62.85 35.8499C62.85 37.1166 62.85 38.3832 62.85 39.6499C57.8167 39.6499 52.7833 39.6499 47.75 39.6499C47.75 33.4832 47.75 27.3166 47.75 21.1499Z" fill="#878787"/>
<path opacity="0.999" fill-rule="evenodd" clip-rule="evenodd" d="M23.95 58.5499C15.95 58.5499 7.94995 58.5499 -0.0500488 58.5499C-0.0500488 47.8832 -0.0500488 37.2166 -0.0500488 26.5499C6.08328 26.5499 12.2167 26.5499 18.35 26.5499C18.35 24.7499 18.35 22.9499 18.35 21.1499C26.35 21.1499 34.35 21.1499 42.35 21.1499C42.35 31.8499 42.35 42.5499 42.35 53.2499C36.2167 53.2499 30.0833 53.2499 23.95 53.2499C23.95 55.0166 23.95 56.7832 23.95 58.5499ZM23.65 26.6499C27.75 26.6499 31.85 26.6499 35.95 26.6499C35.95 29.5499 35.95 32.4499 35.95 35.3499C30.65 35.3499 25.35 35.3499 20.05 35.3499C20.05 36.6166 20.05 37.8832 20.05 39.1499C15.5167 39.1499 10.9833 39.1499 6.44995 39.1499C6.44995 36.7832 6.44995 34.4166 6.44995 32.0499C12.1833 32.0499 17.9167 32.0499 23.65 32.0499C23.65 30.2499 23.65 28.4499 23.65 26.6499ZM22.35 40.8499C26.85 40.8499 31.35 40.8499 35.85 40.8499C35.85 43.1499 35.85 45.4499 35.85 47.7499C30.0167 47.7499 24.1833 47.7499 18.35 47.7499C18.35 49.5832 18.35 51.4166 18.35 53.2499C14.3833 53.2499 10.4167 53.2499 6.44995 53.2499C6.44995 50.3499 6.44995 47.4499 6.44995 44.5499C11.7405 44.5168 17.0238 44.5502 22.3 44.6499C22.35 43.3837 22.3667 42.117 22.35 40.8499Z" fill="#FE050E"/>
<path opacity="0.998" fill-rule="evenodd" clip-rule="evenodd" d="M121.95 21.1498C125.15 21.1331 128.35 21.1498 131.55 21.1998C135.009 21.1926 137.092 22.876 137.8 26.2498C138.319 28.6293 138.019 30.896 136.9 33.0498C136.173 34.2221 135.123 34.9054 133.75 35.0998C134.84 36.657 136.007 38.157 137.25 39.5998C135.883 39.6665 134.517 39.6665 133.15 39.5998C132.15 38.2331 131.15 36.8665 130.15 35.4998C128.55 35.4498 126.95 35.4331 125.35 35.4498C125.35 36.8498 125.35 38.2498 125.35 39.6498C124.217 39.6498 123.083 39.6498 121.95 39.6498C121.95 33.4831 121.95 27.3165 121.95 21.1498ZM125.35 24.8498C127.755 24.8038 130.155 24.8538 132.55 24.9998C133.091 25.1611 133.508 25.4778 133.8 25.9498C133.991 27.3519 133.991 28.7519 133.8 30.1498C133.376 31.116 132.626 31.566 131.55 31.4998C129.484 31.5498 127.417 31.5665 125.35 31.5498C125.35 29.3165 125.35 27.0831 125.35 24.8498Z" fill="#878787"/>
<path opacity="0.989" fill-rule="evenodd" clip-rule="evenodd" d="M75.9499 41.95C77.4786 41.7657 78.9119 42.0491 80.2499 42.8C81.0878 43.3588 81.5545 44.1421 81.6499 45.15C81.1455 45.1827 80.6455 45.1494 80.1499 45.05C79.6252 44.0435 78.7919 43.4935 77.6499 43.4C74.5833 43.2104 73.05 44.6604 73.0499 47.75C73.0553 49.9761 74.1553 51.2927 76.3499 51.7C77.8167 51.7917 79.1834 51.4583 80.4499 50.7C80.5479 49.9921 80.5812 49.2755 80.5499 48.55C79.5832 48.55 78.6166 48.55 77.6499 48.55C77.6499 48.05 77.6499 47.55 77.6499 47.05C79.0832 47.05 80.5166 47.05 81.9499 47.05C81.9499 49.0833 81.9499 51.1167 81.9499 53.15C81.6499 53.15 81.3499 53.15 81.0499 53.15C81.0823 52.7445 81.049 52.3445 80.9499 51.95C78.4554 53.5211 75.9554 53.5377 73.4499 52C71.4221 50.2057 70.8721 48.0224 71.7999 45.45C72.5077 43.4725 73.891 42.3058 75.9499 41.95Z" fill="#878787"/>
<path opacity="0.99" fill-rule="evenodd" clip-rule="evenodd" d="M159.95 47.0501C159.95 49.0834 159.95 51.1168 159.95 53.1501C159.65 53.1501 159.35 53.1501 159.05 53.1501C159.067 52.7155 159.05 52.2822 159 51.8501C158.61 52.2453 158.143 52.5119 157.6 52.6501C155.436 53.4482 153.386 53.2315 151.45 52.0001C149.754 50.6134 149.104 48.83 149.5 46.6501C150.258 43.1291 152.441 41.5791 156.05 42.0001C157.336 42.1842 158.386 42.7675 159.2 43.7501C159.441 44.1893 159.591 44.6559 159.65 45.1501C159.149 45.1667 158.649 45.15 158.15 45.1001C157.648 44.0644 156.815 43.4977 155.65 43.4001C152.524 43.1778 150.991 44.6444 151.05 47.8001C151.033 49.7664 151.967 51.033 153.85 51.6001C154.869 51.8294 155.869 51.7628 156.85 51.4001C157.392 51.1862 157.925 50.9529 158.45 50.7001C158.548 49.9922 158.581 49.2756 158.55 48.5501C157.583 48.5501 156.617 48.5501 155.65 48.5501C155.65 48.0501 155.65 47.5501 155.65 47.0501C157.083 47.0501 158.517 47.0501 159.95 47.0501Z" fill="#878787"/>
<path opacity="0.989" fill-rule="evenodd" clip-rule="evenodd" d="M133.85 42.1499C134.35 42.1499 134.85 42.1499 135.35 42.1499C135.35 45.8499 135.35 49.5499 135.35 53.2499C134.85 53.2499 134.35 53.2499 133.85 53.2499C133.85 49.5499 133.85 45.8499 133.85 42.1499Z" fill="#888888"/>
<path fill-rule="evenodd" clip-rule="evenodd" d="M84.1499 42.1499C84.6499 42.1499 85.1499 42.1499 85.6499 42.1499C85.6499 45.8499 85.6499 49.5499 85.6499 53.2499C85.1499 53.2499 84.6499 53.2499 84.1499 53.2499C84.1499 49.5499 84.1499 45.8499 84.1499 42.1499Z" fill="#888888"/>
<path opacity="0.994" fill-rule="evenodd" clip-rule="evenodd" d="M59.1499 42.35C59.651 42.3334 60.151 42.3501 60.6499 42.4C63.1039 45.1538 65.5206 47.9371 67.8999 50.75C67.9499 47.9502 67.9666 45.1502 67.9499 42.35C68.4166 42.35 68.8832 42.35 69.3499 42.35C69.3499 45.9833 69.3499 49.6167 69.3499 53.25C68.7793 53.2829 68.2127 53.2495 67.6499 53.15C65.2999 50.3167 62.9499 47.4833 60.5999 44.65C60.5499 47.5165 60.5332 50.3831 60.5499 53.25C60.0832 53.25 59.6166 53.25 59.1499 53.25C59.1499 49.6167 59.1499 45.9833 59.1499 42.35Z" fill="#888888"/>
<path opacity="0.995" fill-rule="evenodd" clip-rule="evenodd" d="M87.55 42.35C88.0844 42.3334 88.6177 42.3501 89.15 42.4C91.6021 45.1553 94.0187 47.9386 96.4 50.75C96.45 47.9502 96.4667 45.1502 96.45 42.35C96.9167 42.35 97.3833 42.35 97.85 42.35C97.85 45.9833 97.85 49.6167 97.85 53.25C97.2824 53.2666 96.7157 53.2499 96.15 53.2C93.8 50.3833 91.45 47.5667 89.1 44.75C89.05 47.5831 89.0333 50.4165 89.05 53.25C88.55 53.25 88.05 53.25 87.55 53.25C87.55 49.6167 87.55 45.9833 87.55 42.35Z" fill="#878787"/>
<path opacity="0.99" fill-rule="evenodd" clip-rule="evenodd" d="M99.8501 42.3501C102.85 42.3501 105.85 42.3501 108.85 42.3501C108.85 42.8168 108.85 43.2834 108.85 43.7501C106.35 43.7501 103.85 43.7501 101.35 43.7501C101.35 44.7834 101.35 45.8168 101.35 46.8501C103.583 46.8501 105.817 46.8501 108.05 46.8501C108.05 47.3168 108.05 47.7834 108.05 48.2501C105.817 48.2501 103.583 48.2501 101.35 48.2501C101.333 49.4506 101.35 50.6506 101.4 51.8501C104.009 51.7506 106.626 51.7173 109.25 51.7501C109.25 52.2168 109.25 52.6834 109.25 53.1501C106.117 53.1501 102.983 53.1501 99.8501 53.1501C99.8501 49.5501 99.8501 45.9501 99.8501 42.3501Z" fill="#878787"/>
<path opacity="0.992" fill-rule="evenodd" clip-rule="evenodd" d="M122.35 42.3501C124.317 42.369 126.284 42.419 128.25 42.5001C131.019 42.7682 132.302 44.2848 132.1 47.0501C131.928 48.4112 131.245 49.4279 130.05 50.1001C130.696 51.0749 131.329 52.0583 131.95 53.0501C131.283 53.1834 130.617 53.1834 129.95 53.0501C129.458 52.3001 128.992 51.5334 128.55 50.7501C126.918 50.6502 125.285 50.6168 123.65 50.6501C123.688 51.4832 123.722 52.3165 123.75 53.1501C123.283 53.1501 122.817 53.1501 122.35 53.1501C122.35 49.5501 122.35 45.9501 122.35 42.3501ZM123.65 43.8501C125.355 43.8074 127.055 43.8574 128.75 44.0001C129.796 44.4736 130.296 45.2903 130.25 46.4501C130.312 47.7027 129.778 48.5861 128.65 49.1001C126.984 49.1501 125.317 49.1668 123.65 49.1501C123.65 47.3834 123.65 45.6168 123.65 43.8501Z" fill="#878787"/>
<path opacity="0.995" fill-rule="evenodd" clip-rule="evenodd" d="M137.35 42.35C137.884 42.3334 138.418 42.3501 138.95 42.4C141.355 45.1927 143.772 47.976 146.2 50.75C146.25 47.9502 146.267 45.1502 146.25 42.35C146.683 42.35 147.117 42.35 147.55 42.35C147.55 45.9833 147.55 49.6167 147.55 53.25C147.016 53.2666 146.482 53.2499 145.95 53.2C143.6 50.3833 141.25 47.5667 138.9 44.75C138.85 47.5831 138.833 50.4165 138.85 53.25C138.35 53.25 137.85 53.25 137.35 53.25C137.35 49.6167 137.35 45.9833 137.35 42.35Z" fill="#878787"/>
<path opacity="0.99" fill-rule="evenodd" clip-rule="evenodd" d="M47.6499 42.3501C50.6832 42.3501 53.7166 42.3501 56.7499 42.3501C56.7499 42.8168 56.7499 43.2834 56.7499 43.7501C54.2499 43.7501 51.7499 43.7501 49.2499 43.7501C49.2499 44.7834 49.2499 45.8168 49.2499 46.8501C51.4832 46.8501 53.7166 46.8501 55.9499 46.8501C55.9499 47.3168 55.9499 47.7834 55.9499 48.2501C53.7166 48.2501 51.4832 48.2501 49.2499 48.2501C49.2499 49.4168 49.2499 50.5834 49.2499 51.7501C51.8499 51.7501 54.4499 51.7501 57.0499 51.7501C57.0499 52.2168 57.0499 52.6834 57.0499 53.1501C53.9166 53.1501 50.7832 53.1501 47.6499 53.1501C47.6499 49.5501 47.6499 45.9501 47.6499 42.3501Z" fill="#878787"/>
<path opacity="0.99" fill-rule="evenodd" clip-rule="evenodd" d="M110.75 42.3501C113.783 42.3501 116.817 42.3501 119.85 42.3501C119.85 42.8168 119.85 43.2834 119.85 43.7501C117.35 43.7501 114.85 43.7501 112.35 43.7501C112.35 44.7834 112.35 45.8168 112.35 46.8501C114.583 46.8501 116.817 46.8501 119.05 46.8501C119.05 47.3168 119.05 47.7834 119.05 48.2501C116.817 48.2501 114.583 48.2501 112.35 48.2501C112.35 49.4168 112.35 50.5834 112.35 51.7501C114.95 51.7501 117.55 51.7501 120.15 51.7501C120.15 52.2168 120.15 52.6834 120.15 53.1501C117.017 53.1501 113.883 53.1501 110.75 53.1501C110.75 49.5501 110.75 45.9501 110.75 42.3501Z" fill="#878787"/>
</g>
<defs>
<clipPath id="clip0_676_63">
<rect width="160" height="37.6" fill="white" transform="translate(0 21)"/>
</clipPath>
</defs>
</svg>
