<svg width="160" height="80" viewBox="0 0 160 80" fill="none" xmlns="http://www.w3.org/2000/svg">
<g clip-path="url(#clip0_676_10)">
<path d="M0 23.6401H20.4551C27.2333 23.6401 32.7281 29.135 32.7281 35.9132V56.3683H12.2731C5.49483 56.3683 0 50.8735 0 44.0952V23.6401Z" fill="white"/>
<path d="M156.711 45.568C155.816 45.568 155.014 45.3498 154.305 44.9134C153.607 44.4662 153.051 43.828 152.636 42.9988C152.232 42.1697 152.031 41.1715 152.031 40.0042C152.031 38.8478 152.238 37.8551 152.652 37.026C153.067 36.1968 153.634 35.5586 154.354 35.1114C155.074 34.6641 155.887 34.4404 156.792 34.4404C157.447 34.4404 158.025 34.5768 158.527 34.8495C159.029 35.1114 159.433 35.4168 159.738 35.7659L159.002 36.6496C158.718 36.3441 158.396 36.0987 158.036 35.9132C157.676 35.7277 157.267 35.635 156.809 35.635C156.132 35.635 155.538 35.815 155.025 36.175C154.523 36.5241 154.131 37.0205 153.847 37.6642C153.574 38.3078 153.438 39.0769 153.438 39.9715C153.438 40.8661 153.574 41.6461 153.847 42.3115C154.12 42.9661 154.501 43.4734 154.992 43.8334C155.494 44.1934 156.083 44.3734 156.76 44.3734C157.272 44.3734 157.731 44.2643 158.134 44.0461C158.538 43.828 158.909 43.5334 159.247 43.1625L160 44.0134C159.574 44.5043 159.094 44.8862 158.56 45.1589C158.025 45.4316 157.409 45.568 156.711 45.568Z" fill="white"/>
<path d="M146.717 45.3716V34.6367H148.075V45.3716H146.717Z" fill="white"/>
<path d="M138.533 45.3716V35.7822H135.293V34.6367H143.148V35.7822H139.908V45.3716H138.533Z" fill="white"/>
<path d="M129.228 45.568C128.475 45.568 127.777 45.4262 127.133 45.1425C126.489 44.848 125.933 44.4607 125.464 43.9807L126.282 43.0316C126.664 43.4352 127.111 43.7625 127.624 44.0134C128.148 44.2534 128.688 44.3734 129.244 44.3734C129.953 44.3734 130.504 44.2152 130.897 43.8989C131.289 43.5716 131.486 43.1461 131.486 42.6225C131.486 42.2515 131.404 41.957 131.24 41.7388C131.088 41.5206 130.875 41.3352 130.602 41.1824C130.34 41.0297 130.04 40.877 129.702 40.7242L128.164 40.0533C127.826 39.9115 127.488 39.726 127.149 39.4969C126.822 39.2678 126.544 38.9733 126.315 38.6133C126.097 38.2533 125.988 37.8114 125.988 37.2878C125.988 36.7423 126.129 36.2568 126.413 35.8314C126.708 35.395 127.111 35.0568 127.624 34.8168C128.137 34.5659 128.715 34.4404 129.359 34.4404C130.002 34.4404 130.597 34.5659 131.142 34.8168C131.688 35.0568 132.151 35.3732 132.533 35.7659L131.797 36.6496C131.469 36.3332 131.104 36.0877 130.7 35.9132C130.308 35.7277 129.86 35.635 129.359 35.635C128.759 35.635 128.273 35.7768 127.902 36.0605C127.542 36.3441 127.362 36.7259 127.362 37.206C127.362 37.5441 127.449 37.8278 127.624 38.0569C127.809 38.2751 128.038 38.4551 128.311 38.5969C128.584 38.7387 128.862 38.8696 129.146 38.9896L130.668 39.6442C131.082 39.8188 131.453 40.0315 131.78 40.2824C132.119 40.5224 132.386 40.8224 132.582 41.1824C132.779 41.5315 132.877 41.9734 132.877 42.5079C132.877 43.0752 132.73 43.5934 132.435 44.0625C132.14 44.5207 131.72 44.8862 131.175 45.1589C130.629 45.4316 129.98 45.568 129.228 45.568Z" fill="white"/>
<path d="M120.314 45.3716V34.6367H121.672V45.3716H120.314Z" fill="white"/>
<path d="M112.8 45.568C111.862 45.568 111.027 45.3498 110.296 44.9134C109.565 44.4662 108.993 43.828 108.578 42.9988C108.164 42.1697 107.956 41.1715 107.956 40.0042C107.956 38.8478 108.169 37.8551 108.594 37.026C109.02 36.1968 109.604 35.5586 110.345 35.1114C111.087 34.6641 111.933 34.4404 112.882 34.4404C113.624 34.4404 114.246 34.5823 114.747 34.8659C115.26 35.1386 115.669 35.4386 115.975 35.7659L115.222 36.6496C114.949 36.3659 114.633 36.1259 114.273 35.9296C113.913 35.7332 113.46 35.635 112.915 35.635C112.195 35.635 111.567 35.815 111.033 36.175C110.498 36.5241 110.084 37.0205 109.789 37.6642C109.505 38.3078 109.364 39.0769 109.364 39.9715C109.364 41.3243 109.669 42.3988 110.28 43.1952C110.902 43.9807 111.785 44.3734 112.931 44.3734C113.313 44.3734 113.678 44.3189 114.027 44.2098C114.376 44.0898 114.655 43.9316 114.862 43.7352V40.937H112.587V39.8078H116.106V44.3243C115.767 44.6843 115.309 44.9843 114.731 45.2244C114.164 45.4535 113.52 45.568 112.8 45.568Z" fill="white"/>
<path d="M100.035 45.568C99.1407 45.568 98.3444 45.3389 97.6462 44.8807C96.9589 44.4225 96.4188 43.7734 96.0261 42.9334C95.6443 42.0934 95.4534 41.1006 95.4534 39.9551C95.4534 38.8096 95.6443 37.8278 96.0261 37.0096C96.4188 36.1805 96.9589 35.5477 97.6462 35.1114C98.3444 34.6641 99.1407 34.4404 100.035 34.4404C100.941 34.4404 101.737 34.6641 102.424 35.1114C103.112 35.5477 103.652 36.1805 104.045 37.0096C104.437 37.8278 104.634 38.8096 104.634 39.9551C104.634 41.1006 104.437 42.0934 104.045 42.9334C103.652 43.7734 103.112 44.4225 102.424 44.8807C101.737 45.3389 100.941 45.568 100.035 45.568ZM100.035 44.3734C100.679 44.3734 101.235 44.1934 101.704 43.8334C102.184 43.4625 102.555 42.9497 102.817 42.2952C103.079 41.6297 103.21 40.8497 103.21 39.9551C103.21 38.6242 102.921 37.5714 102.343 36.7969C101.764 36.0223 100.995 35.635 100.035 35.635C99.0753 35.635 98.3062 36.0223 97.728 36.7969C97.1498 37.5714 96.8607 38.6242 96.8607 39.9551C96.8607 40.8497 96.9916 41.6297 97.2534 42.2952C97.5152 42.9497 97.8862 43.4625 98.3662 43.8334C98.8462 44.1934 99.4026 44.3734 100.035 44.3734Z" fill="white"/>
<path d="M86.9116 45.3716V34.6367H88.2698V44.2097H92.9663V45.3716H86.9116Z" fill="white"/>
<path d="M68.6767 45.3716L66.4021 34.6367H67.8094L68.9385 40.4787C69.0367 41.0569 69.1404 41.6351 69.2494 42.2133C69.3585 42.7915 69.4622 43.3697 69.5604 43.9479H69.6258C69.7458 43.3697 69.8713 42.7915 70.0022 42.2133C70.1331 41.6242 70.2586 41.046 70.3786 40.4787L71.8677 34.6367H73.1114L74.6005 40.4787C74.7314 41.046 74.8623 41.6242 74.9932 42.2133C75.1242 42.7915 75.2551 43.3697 75.386 43.9479H75.4514C75.5496 43.3697 75.6478 42.7915 75.746 42.2133C75.8442 41.6242 75.9478 41.046 76.0569 40.4787L77.186 34.6367H78.4952L76.2696 45.3716H74.6332L73.0132 38.9077C72.915 38.4932 72.8223 38.0895 72.735 37.6968C72.6586 37.2932 72.5768 36.8841 72.4895 36.4695H72.4241C72.3477 36.8841 72.2604 37.2932 72.1623 37.6968C72.0641 38.0895 71.9713 38.4932 71.8841 38.9077L70.2968 45.3716H68.6767Z" fill="white"/>
<path d="M57.2329 45.3716V34.6367H63.4185V35.7822H58.5911V39.1532H62.6658V40.3151H58.5911V44.2097H63.5822V45.3716H57.2329Z" fill="white"/>
<path d="M45.0012 45.3716V34.6367H46.4085L50.2868 41.3787L51.4487 43.6042H51.5141C51.4814 43.0588 51.4432 42.4969 51.3996 41.9187C51.3668 41.3296 51.3505 40.7514 51.3505 40.1841V34.6367H52.6432V45.3716H51.2359L47.3413 38.6132L46.1794 36.404H46.114C46.1576 36.9386 46.1958 37.4895 46.2285 38.0568C46.2722 38.6241 46.294 39.1914 46.294 39.7587V45.3716H45.0012Z" fill="white"/>
<path d="M19.6174 46.6931V33.3154H21.9902V44.6885H27.554V46.6931H19.6174Z" fill="#030C51"/>
<path d="M5.1709 46.6931V33.3154H7.60505L11.7779 40.8429L13.1484 43.6862H13.2302C13.1757 43.0043 13.1075 42.2611 13.0257 41.4566C12.9575 40.652 12.9234 39.8747 12.9234 39.1247V33.3154H15.1939V46.6931H12.7597L8.5869 39.1656L7.21641 36.3223H7.13459C7.18913 37.0314 7.2505 37.7746 7.31868 38.5519C7.4005 39.3292 7.44141 40.0929 7.44141 40.8429V46.6931H5.1709Z" fill="#030C51"/>
</g>
<defs>
<clipPath id="clip0_676_10">
<rect width="160" height="80" fill="white"/>
</clipPath>
</defs>
</svg>
