<svg width="160" height="80" viewBox="0 0 160 80" fill="none" xmlns="http://www.w3.org/2000/svg">
<g clip-path="url(#clip0_473_4952)">
<path fill-rule="evenodd" clip-rule="evenodd" d="M6.34865 32.7191C6.57013 31.9259 6.99411 31.084 7.3948 30.3667C7.93147 29.4072 8.55056 28.4753 9.22092 27.6035C10.1818 26.3548 11.5091 24.8907 12.908 24.1374L13.024 24.0737L13.1517 24.1078C13.5557 24.213 14.0177 24.6219 14.3269 24.9072L14.3362 24.9154L14.345 24.9234C15.191 25.8231 15.9332 26.8079 16.6373 27.8205L17.0051 28.3481L15.2176 28.3394L15.119 28.1914C14.5977 27.4092 13.987 26.5744 13.2728 25.9561C13.2385 25.936 13.1972 25.9125 13.1649 25.899C13.1421 25.898 13.1155 25.898 13.09 25.898C12.9132 25.9202 12.549 26.1863 12.4185 26.288C11.9904 26.6223 11.5881 27.0269 11.2228 27.4276C10.2259 28.5236 9.32374 29.8243 8.65224 31.1437C8.25484 31.9213 7.91912 32.7467 7.70669 33.5958C7.51648 34.3626 7.42332 35.1717 7.5242 35.9577C7.55266 36.0698 7.6779 36.1644 7.78455 36.2269L19.1536 36.2165L19.1678 36.2176C20.0558 36.2968 20.6144 36.8219 20.7928 37.6855L20.7939 37.6932L20.7958 37.6998C20.9408 38.5981 20.9939 39.5075 21.0011 40.4161V40.4243L20.9992 40.4312C20.9928 40.6005 20.9501 40.7628 20.8676 40.9096C20.5985 41.392 20.0292 41.548 19.5118 41.5346H6.36596C6.08582 41.5346 5.80547 41.4041 5.59721 41.2229C5.34364 41.0012 5.18551 40.7006 5.14772 40.3656L5.14551 40.3473L5.15484 38.1972L6.97545 38.2049L6.95357 39.5873C6.96975 39.9035 7.2068 39.9663 7.48527 39.9885L10.1662 40.0044H18.5748H18.5819C19.0097 40.0209 19.2057 39.8967 19.2138 39.4568L19.1916 38.1533C19.1719 37.8535 18.9973 37.6641 18.6844 37.6855L18.672 37.6863L14.8564 37.6831H6.78363L6.74195 37.6723C6.05024 37.4881 5.73285 36.9639 5.75312 36.2671C5.75151 35.0566 5.98501 33.8688 6.34865 32.7191Z" fill="#C9212A"/>
<path fill-rule="evenodd" clip-rule="evenodd" d="M26.0511 43.3155C25.8779 44.3049 25.2352 44.9229 24.2529 45.0914L24.2107 45.0975L1.95283 45.1709L1.92625 45.1682C1.0599 45.0802 0.274966 44.374 0.0773735 43.5273L0.068045 43.4892L0.0658968 43.4492C-0.225995 39.6273 1.26273 35.3652 2.89401 31.9631C3.68747 30.3086 4.58804 28.6995 5.56922 27.148C6.44765 25.7571 7.39649 24.3969 8.41767 23.1069C9.21167 22.1015 11.5999 19.1788 12.9467 19.0136L12.9774 19.0098H13.0091C14.314 19.0098 16.8834 22.1248 17.6328 23.0523C18.7016 24.3772 19.6949 25.7738 20.6106 27.2083C21.6353 28.8127 22.5737 30.4829 23.3883 32.2049C24.9609 35.5294 26.2964 39.538 26.0574 43.2593L26.0552 43.2875L26.0511 43.3155ZM2.54486 41.9945C2.58379 32.7739 10.7735 22.1819 13.082 21.458C14.9671 21.6071 24.1102 33.5297 23.6201 42.0616C23.5302 42.7221 23.1495 43.1091 22.4443 43.1943L3.80445 43.2051C3.03542 43.1184 2.57802 42.6651 2.54486 41.9945Z" fill="#C9212A"/>
<path fill-rule="evenodd" clip-rule="evenodd" d="M4.20517 57.3376C4.70968 57.3376 5.03446 57.2574 5.18112 57.0968C5.32662 56.9362 5.40039 56.8041 5.40039 56.7019C5.40039 56.5996 5.32662 56.4681 5.18112 56.3075C5.03446 56.1469 4.70968 56.066 4.20517 56.066H3.13076H1.94708V57.3376H4.20517ZM1.94708 60.9768H0.0398167L0.0288086 59.1465V56.4502L0.0398167 54.6191H2.2869H5.09312C5.94819 54.6191 6.53285 54.7765 6.84716 55.0908C7.161 55.4049 7.31859 55.8577 7.31859 56.4502V56.7237V56.9543C7.31859 57.546 7.161 57.9996 6.84716 58.3134C6.53285 58.6274 5.94819 58.7845 5.09312 58.7845H3.98589H3.13076H1.94708V60.9768Z" fill="white"/>
<path fill-rule="evenodd" clip-rule="evenodd" d="M13.5337 57.0741C13.5337 56.7235 13.4609 56.4684 13.3147 56.3072C13.1684 56.1466 12.8431 56.0658 12.3385 56.0658H11.2647C10.7974 56.0658 10.4847 56.1538 10.3274 56.3291C10.1704 56.504 10.0914 56.7531 10.0914 57.0741V58.5217C10.0914 58.8432 10.1704 59.0918 10.3274 59.2669C10.4847 59.442 10.7974 59.53 11.2647 59.53H12.3385C12.8431 59.53 13.1643 59.4497 13.3035 59.2891C13.4422 59.1282 13.5192 58.8758 13.5337 58.5321V57.0741ZM14.9806 60.5057C14.6665 60.8193 14.0819 60.9766 13.2271 60.9766H10.4203C9.57256 60.9766 8.98442 60.825 8.65581 60.5216C8.32694 60.2193 8.16223 59.7599 8.16223 59.1463V56.45C8.16223 55.8364 8.32694 55.3775 8.65581 55.0734C8.98442 54.7702 9.57256 54.6187 10.4203 54.6187H13.2271C14.0819 54.6187 14.6665 54.7762 14.9806 55.0906C15.295 55.4047 15.4519 55.8575 15.4519 56.45V59.1463C15.4519 59.7386 15.295 60.1911 14.9806 60.5057Z" fill="white"/>
<path fill-rule="evenodd" clip-rule="evenodd" d="M22.0729 60.9768H18.5541C17.7062 60.9768 17.1183 60.8255 16.7894 60.5221C16.4606 60.2187 16.2958 59.7602 16.2958 59.1469V54.6191H18.2253V58.5217C18.2253 58.8434 18.3036 59.0912 18.4607 59.2663C18.618 59.4423 18.9305 59.5297 19.3983 59.5297H19.9464L19.9574 54.6191H21.8978V59.5297H22.5112C23.0152 59.5297 23.3411 59.4492 23.4866 59.2885C23.6329 59.1282 23.7059 58.8722 23.7059 58.5217V54.6191H25.6249V59.1469C25.6249 59.7383 25.4676 60.1913 25.1532 60.5054C24.8392 60.8195 24.2546 60.9768 23.3992 60.9768H22.0729Z" fill="white"/>
<path fill-rule="evenodd" clip-rule="evenodd" d="M28.9349 58.4992H28.387C28.3938 58.8355 28.4761 59.0918 28.6334 59.2663C28.7904 59.4423 29.1029 59.5297 29.5705 59.5297H30.6451H33.758V60.9768H31.5328H28.7266C27.8789 60.9768 27.2907 60.8255 26.9621 60.5224C26.6327 60.219 26.4685 59.7602 26.4685 59.1469V56.4497C26.4685 55.8358 26.6327 55.3772 26.9621 55.0741C27.2907 54.7708 27.8789 54.6191 28.7266 54.6191H31.5328H33.758V56.066H30.6451H29.5705C29.1029 56.066 28.7904 56.1537 28.6334 56.3293C28.4761 56.5045 28.3938 56.7457 28.387 57.0524H28.9349H33.758V58.4992H28.9349Z" fill="white"/>
<path fill-rule="evenodd" clip-rule="evenodd" d="M38.7784 57.3376C39.2829 57.3376 39.6077 57.2574 39.7543 57.0968C39.9004 56.9362 39.9736 56.8041 39.9736 56.7019C39.9736 56.5996 39.9004 56.4681 39.7543 56.3075C39.6077 56.1469 39.2829 56.066 38.7784 56.066H37.7037H36.5203V57.3376H38.7784ZM41.9793 60.9768H39.8308L37.7037 58.7845H36.5203V60.9768H34.613V54.6191H36.8601H39.6661C40.5215 54.6191 41.1061 54.7765 41.4204 55.0908C41.7342 55.4049 41.8918 55.8577 41.8918 56.4502V56.7237V56.9543C41.8918 57.546 41.7342 57.9996 41.4204 58.3134C41.1061 58.6274 40.6782 58.7845 40.1378 58.7845H39.853L41.9793 60.9768Z" fill="white"/>
<path fill-rule="evenodd" clip-rule="evenodd" d="M45.2018 58.4992H44.6539C44.6611 58.8355 44.7433 59.0918 44.9003 59.2663C45.0576 59.4423 45.3701 59.5297 45.8377 59.5297H46.9123H50.0249V60.9768H47.8H44.9938C44.1461 60.9768 43.5579 60.8255 43.2293 60.5224C42.8999 60.219 42.7357 59.7602 42.7357 59.1469V56.4497C42.7357 55.8358 42.8999 55.3772 43.2293 55.0741C43.5579 54.7708 44.1461 54.6191 44.9938 54.6191H47.8H50.0249V56.066H46.9123H45.8377C45.3701 56.066 45.0576 56.1537 44.9003 56.3293C44.7433 56.5045 44.6611 56.7457 44.6539 57.0524H45.2018H50.0249V58.4992H45.2018Z" fill="white"/>
<path fill-rule="evenodd" clip-rule="evenodd" d="M52.7875 56.066V59.5302H53.9827H55.0565C55.5238 59.5302 55.8366 59.4422 55.9936 59.2671C56.1509 59.0915 56.2298 58.8434 56.2298 58.5217V57.0748C56.2298 56.7537 56.1509 56.5048 55.9936 56.3294C55.8366 56.1537 55.5238 56.066 55.0565 56.066H53.9827H52.7875ZM50.8802 60.9771V54.6191H53.0942H55.9009C56.7481 54.6191 57.3368 54.7704 57.6657 55.0741C57.9943 55.3781 58.159 55.8366 58.159 56.4502V59.1468C58.159 59.7602 57.9943 60.2195 57.6657 60.5224C57.3368 60.8258 56.7481 60.9771 55.9009 60.9771H53.0942H50.8802Z" fill="white"/>
<path fill-rule="evenodd" clip-rule="evenodd" d="M65.7029 58.4992V59.5297H66.8863H67.961C68.465 59.5297 68.79 59.4492 68.9364 59.2885C69.0824 59.1282 69.1554 58.9961 69.1554 58.8944C69.1554 58.7919 69.0847 58.7007 68.9413 58.6201C68.7993 58.5392 68.4793 58.4992 67.9829 58.4992H65.7029ZM68.0045 57.0524C68.5014 57.0524 68.8172 57.0198 68.9523 56.954C69.0874 56.888 69.1554 56.8043 69.1554 56.7018C69.1554 56.5996 69.0824 56.4681 68.9364 56.3066C68.79 56.1463 68.465 56.066 67.961 56.066H66.8863H65.7029V57.0524H68.0045ZM69.8682 57.9516C70.6573 58.1265 71.0593 58.4339 71.0739 58.8722V59.1469C71.0739 59.7383 70.9165 60.1913 70.6022 60.5054C70.2881 60.8195 69.7035 60.9768 68.8487 60.9768H66.0424H63.7948L63.7844 59.1469V56.4497L63.7948 54.6191H66.0424H68.8487C69.7035 54.6191 70.2881 54.7765 70.6022 55.0908C70.9165 55.4049 71.0739 55.8583 71.0739 56.4497V56.7237C71.0739 57.2497 70.6718 57.6589 69.8682 57.9516Z" fill="white"/>
<path fill-rule="evenodd" clip-rule="evenodd" d="M74.5595 58.6088L71.9283 54.6191H73.8578L75.579 57.0524L77.278 54.6191H79.2071L76.4667 58.6088V60.9768H74.5595V58.6088Z" fill="white"/>
<path fill-rule="evenodd" clip-rule="evenodd" d="M88.2987 48.6792H84.5352V60.9773H88.2987V48.6792Z" fill="#C9212A"/>
<path fill-rule="evenodd" clip-rule="evenodd" d="M119.547 60.9768C122.944 60.9768 123.885 59.4138 123.885 57.3816V48.6787H120.122V56.1304C120.122 57.2248 119.861 58.1109 117.875 58.1109H115.784C113.798 58.1109 113.536 57.2248 113.536 56.1304V48.6787H109.773V57.3816C109.773 59.4138 110.714 60.9768 114.111 60.9768H119.547Z" fill="#C9212A"/>
<path fill-rule="evenodd" clip-rule="evenodd" d="M91.8638 58.1109V60.9768H104.094C106.132 60.9768 106.864 59.4654 107.021 58.684C107.177 57.9026 106.968 56.1828 105.61 55.6612L96.4367 52.2224C96.0447 52.0399 96.2541 51.5455 96.7244 51.5455H105.818V48.6787H96.4322C94.4458 48.6787 92.7734 49.4091 92.3554 50.7373C91.9772 51.9388 92.0208 53.8378 93.8497 54.4633L102.107 57.5112C102.63 57.72 102.5 58.1109 102.055 58.1109H91.8638Z" fill="#C9212A"/>
<path fill-rule="evenodd" clip-rule="evenodd" d="M141.797 58.1109V60.9768H130.089C128.051 60.9768 127.685 59.8301 127.529 59.0488C127.372 58.2674 127.581 56.5476 128.94 56.0266L137.328 51.7409C137.511 51.6623 137.524 51.5455 137.342 51.5455H127.842V48.6787H137.355C139.341 48.6787 140.997 48.7642 141.588 50.0603C142.111 51.2065 141.849 52.9523 140.02 53.5774L132.154 57.5901C131.788 57.7464 131.736 58.1109 132.181 58.1109H141.797Z" fill="#C9212A"/>
<path fill-rule="evenodd" clip-rule="evenodd" d="M154.232 34.7661C154.232 38.3584 153.713 41.2841 151.158 41.2841C148.64 41.2841 148.085 38.3584 148.085 34.7661C148.085 31.2117 148.603 28.101 151.158 28.101C153.713 28.101 154.232 31.2117 154.232 34.7661ZM159.971 34.8413C159.971 28.8794 156.935 24.5104 151.121 24.5104C145.382 24.5104 142.345 28.8794 142.345 34.8413C142.345 40.8031 145.382 45.2094 151.158 45.2094C156.935 45.2094 159.971 40.8031 159.971 34.8413ZM142.223 44.579V41.0243C141.741 41.1717 141.483 41.2466 141.001 41.2466C139.705 41.2466 139.149 40.4326 139.149 38.9142V28.6196H142.223V24.8799H139.149V19.1405L133.373 20.6222V24.8799H131.188V28.6196H133.373V39.3582C133.373 42.4314 135.188 45.1345 139.372 45.1345C140.704 45.1345 141.741 44.8015 142.223 44.579ZM130.066 43.654V24.8799H124.291V40.839C123.66 41.1717 122.92 41.3214 121.883 41.3214C119.92 41.3214 119.143 40.1352 119.143 38.692V24.8799H113.367V38.2833C113.367 43.0982 116.107 45.2094 121.735 45.2094C125.474 45.2094 128.214 44.579 130.066 43.654ZM104.727 36.3221H98.7652L101.135 28.0276C101.654 26.2132 101.802 24.9536 101.802 24.9536H101.876C101.876 24.9536 101.988 26.2494 102.469 28.0276L104.727 36.3221ZM113.281 45.2094L105.024 19.7328H99.173L90.878 45.2094H96.2473L97.8775 39.7663H105.542L107.097 45.2094H113.281ZM90.0522 45.2094V31.2117C90.0522 27.6946 87.6092 24.8799 82.8688 24.8799C79.5728 24.8799 77.5368 25.8057 76.2769 26.8795C75.1296 25.7681 73.2409 24.8799 69.946 24.8799C66.4643 24.8799 64.0949 25.3622 61.8725 26.3612V45.2094H67.6496V28.8794C68.3529 28.6196 68.9463 28.5086 69.9831 28.5086C71.9824 28.5086 73.093 29.5457 73.093 31.1385V45.2094H78.8692V29.4714C79.5358 28.8043 80.3876 28.5086 81.3874 28.5086C83.3874 28.5086 84.2753 29.6936 84.2753 31.2117V45.2094H90.0522ZM55.4565 41.6174C54.9382 41.8761 54.1968 42.0236 53.3451 42.0236C51.0497 42.0236 49.7172 41.0243 49.7172 38.692C49.7172 35.5078 51.9755 34.6933 55.4565 34.3597V41.6174ZM60.8626 43.7275V31.8051C60.8626 26.3971 57.5301 24.5104 53.0123 24.5104C49.4946 24.5104 46.9019 25.4354 45.4962 26.0285L46.7544 29.3228C48.0511 28.7311 50.0132 28.101 51.9393 28.101C54.0491 28.101 55.4565 28.6938 55.4565 30.7677V31.6927C49.4573 32.2482 44.3114 33.7664 44.3114 38.9142C44.3114 43.0609 47.273 45.2094 53.0493 45.2094C56.4933 45.2094 59.1962 44.616 60.8626 43.7275ZM43.5221 37.2106C43.5221 34.6182 42.8182 31.9153 37.8937 29.6936C35.7464 28.7311 34.4492 27.8056 34.4492 25.9534C34.4492 24.1396 35.5235 23.028 37.5232 23.028C39.0785 23.028 40.4486 23.5838 41.3377 24.1396L42.5959 20.473C41.3747 19.6588 39.3742 18.9917 36.6335 18.9917C31.6731 18.9917 28.5624 22.5467 28.5624 26.8428C28.5624 29.3228 29.6724 32.1005 33.6349 33.8773C36.2277 35.026 37.1896 36.0258 37.1896 37.6549C37.1896 39.469 35.8941 40.691 33.7827 40.691C32.0059 40.691 30.4883 40.0623 29.6724 39.506L28.304 43.691C29.7467 44.6538 31.8211 45.2094 34.9675 45.2094C40.0046 45.2094 43.5221 41.8021 43.5221 37.2106Z" fill="#C9212A"/>
<path fill-rule="evenodd" clip-rule="evenodd" d="M155.633 60.9768C159.03 60.9768 159.971 59.4138 159.971 57.3816V48.6787H156.208V56.1304C156.208 57.2248 155.947 58.1109 153.961 58.1109H151.869C149.884 58.1109 149.622 57.2248 149.622 56.1304V48.6787H145.859V57.3816C145.859 59.4138 146.8 60.9768 150.197 60.9768H155.633Z" fill="#C9212A"/>
</g>
<defs>
<clipPath id="clip0_473_4952">
<rect width="160" height="41.909" fill="white" transform="translate(0 19)"/>
</clipPath>
</defs>
</svg>
