<svg width="160" height="80" viewBox="0 0 160 80" fill="none" xmlns="http://www.w3.org/2000/svg">
<g clip-path="url(#clip0_473_4975)">
<path fill-rule="evenodd" clip-rule="evenodd" d="M152.458 34.5082C152.094 39.8308 148.214 42.8938 144.509 43.3672C140.825 43.838 137.308 41.7535 137.587 36.7895C138.174 26.3332 153.126 24.7515 152.458 34.5082ZM145.862 21.1978C137.862 21.9521 131.574 27.7744 130.336 35.1646C126.978 55.2232 156.407 54.828 159.758 36.2106C161.46 26.7589 155.251 20.3127 145.862 21.1978Z" fill="white"/>
<path fill-rule="evenodd" clip-rule="evenodd" d="M23.7264 11.3875C24.0792 12.133 24.5567 12.2264 24.404 13.4846L23.1865 20.3371C22.8855 21.9998 20.2089 37.51 19.881 38.6384C17.9631 45.242 7.6922 45.3284 8.70612 37.99C9.11732 35.018 9.8031 31.7798 10.3371 28.8187L12.7909 15.0694C13.0466 13.6231 13.9386 11.3809 11.9354 11.3809L4.36173 11.3839C5.01253 12.4683 5.22949 12.504 4.93253 14.1163L1.24686 34.7765C0.439548 39.2476 -0.266435 42.7075 2.27498 46.1924C5.68721 50.8711 12.828 51.4774 18.4424 49.2813C19.7806 48.758 21.0392 48.058 22.1704 47.2218C23.929 45.9211 25.4247 44.32 26.596 42.1056C27.5784 40.2477 27.9159 38.4896 28.3219 36.2375L32.3678 13.5544C32.5866 12.3008 32.7074 11.3809 31.1961 11.3809L23.7264 11.3875Z" fill="white"/>
<path fill-rule="evenodd" clip-rule="evenodd" d="M73.0934 16.7304L74.759 31.9807L66.2331 31.9886L73.0934 16.7304ZM58.5616 49.4805C58.4656 48.8489 58.2036 48.6681 58.3676 47.8683L62.6952 39.2489L75.7679 39.2493L77.05 48.5245C77.2226 49.3943 77.8412 49.4855 78.7291 49.4814L86.7372 49.4772C86.4214 48.7165 85.6143 48.8902 85.3419 47.3201L79.7105 13.5982C79.2072 10.5812 79.5711 11.0458 75.1362 11.0458L67.8975 11.0557C67.9015 12.7099 68.6984 11.6053 67.3789 14.1089C61.2303 25.9699 54.9843 37.7122 48.865 49.4805H58.5616Z" fill="white"/>
<path fill-rule="evenodd" clip-rule="evenodd" d="M48.0594 43.2722L36.3775 43.3757L51.0273 27.6049C51.3452 27.3028 51.5956 27.0713 51.7252 26.5661C51.9552 25.6692 52.093 24.4782 52.2661 23.5395C52.519 22.1666 51.8019 21.9191 50.5209 21.9234L32.6736 21.9371L31.5854 28.2627L43.5253 28.168L28.8118 43.5297C28.3956 43.9529 28.2462 44.5404 28.1265 45.197C28.0151 45.8093 27.5068 48.0018 27.6032 48.4766C27.8358 49.623 29.5199 49.4802 30.7985 49.4802H46.8752L48.0594 43.2722Z" fill="white"/>
<path fill-rule="evenodd" clip-rule="evenodd" d="M114.184 22.0377L105.615 21.9257C105.759 22.814 106.488 22.7862 106.212 24.4283L102.819 43.2044L99.2929 43.1701C94.2425 43.1332 93.3596 42.8046 94.4253 36.953L96.769 24.0856C97.1973 21.6273 96.3969 21.9238 93.915 21.9238C92.1388 21.9238 90.3628 21.9238 88.5862 21.9238C88.7451 22.3959 89.0481 22.6186 89.1838 23.1139C89.3417 23.6907 89.2122 24.224 89.1086 24.7951L86.5627 39.524C85.2553 47.0885 90.4773 49.555 95.7752 49.555L109.512 49.502L114.184 22.0377Z" fill="white"/>
<path fill-rule="evenodd" clip-rule="evenodd" d="M129.316 13.9462C126.606 13.9054 125.951 14.3765 125.3 16.3895C123.448 21.7752 120.615 22.1467 115.905 22.049L114.931 27.8495C116.693 27.8557 118.424 27.8797 118.652 27.9468C119.755 28.2707 119.198 29.8911 119.018 30.9151L117.151 41.489C116.955 42.5999 116.976 43.7305 117.2 44.7555C117.681 46.9579 119.09 48.2795 120.915 49.0188C122.675 49.7307 126.014 50.0237 128.029 49.4496L129.106 43.1503C128.207 43.2576 127.22 43.2798 126.402 43.0307C124.571 42.4725 124.428 41.2004 124.714 39.6316L126.855 27.8856C132.273 27.8856 131.754 28.4858 132.344 25.1291C132.989 21.4522 133.048 21.9242 127.919 21.9212L128.249 20.0361L129.316 13.9462Z" fill="white"/>
<path d="M15.3883 69.5023H18.1292L17.4626 58.4129H13.7585L12.4437 62.0983C12.0177 63.3324 11.5918 64.7967 11.2584 66.08H11.1843C10.9065 64.7802 10.536 63.3982 10.1287 62.1149L8.90622 58.4129H5.1468L4.35034 69.5023H6.96179L7.20253 65.2902C7.27651 63.9083 7.35063 62.197 7.40621 60.6998H7.44312C7.75811 62.1477 8.16561 63.7272 8.57309 65.0435L9.90647 69.3213H12.1103L13.629 64.9939C14.1104 63.6943 14.6291 62.1149 15.0364 60.6998H15.0735C15.0735 62.3121 15.129 63.9246 15.1845 65.2573L15.3883 69.5023ZM42.0341 58.2153C38.367 58.2153 35.9595 60.6998 35.9595 64.0233C35.9595 67.1988 38.1447 69.6833 41.8301 69.6833C45.497 69.6833 47.9604 67.4949 47.9604 63.8423C47.9604 60.7657 45.8675 58.2153 42.0341 58.2153ZM41.9784 60.2063C43.923 60.2063 44.9786 61.9175 44.9786 63.9246C44.9786 66.08 43.8858 67.6923 41.9784 67.6923C40.0894 67.6923 38.9411 66.1621 38.9411 63.974C38.9411 61.8188 40.0522 60.2063 41.9784 60.2063ZM67.9571 69.5023H70.7722V60.5189H74.18V58.4129H64.5865V60.5189H67.9571V69.5023ZM96.8807 58.2153C93.2136 58.2153 90.8061 60.6998 90.8061 64.0233C90.8061 67.1988 92.9914 69.6833 96.677 69.6833C100.344 69.6833 102.807 67.4949 102.807 63.8423C102.807 60.7657 100.714 58.2153 96.8807 58.2153ZM96.8252 60.2063C98.7695 60.2063 99.8255 61.9175 99.8255 63.9246C99.8255 66.08 98.7325 67.6923 96.8252 67.6923C94.936 67.6923 93.7879 66.1621 93.7879 63.974C93.7879 61.8188 94.899 60.2063 96.8252 60.2063ZM120.896 69.5023H123.693V65.1258H124.526C125.693 65.1422 126.23 65.5042 126.582 66.9082C126.934 68.2793 127.249 69.1705 127.434 69.5023H130.323C130.082 69.0718 129.712 67.6185 129.323 66.346C129.008 65.3232 128.527 64.5993 127.656 64.2867V64.2373C128.73 63.8919 129.86 62.9238 129.86 61.5308C129.86 60.5161 129.452 59.7292 128.693 59.2027C127.804 58.5774 126.508 58.3306 124.656 58.3306C123.137 58.3306 121.804 58.4293 120.896 58.561V69.5023ZM123.693 60.2857C123.896 60.2392 124.285 60.2063 124.971 60.2063C126.267 60.2063 127.045 60.73 127.045 61.728C127.045 62.6934 126.212 63.3159 124.804 63.3159H123.693V60.2857ZM147.634 68.9758C148.338 69.3213 149.746 69.6669 151.172 69.6669C154.598 69.6669 156.191 68.0873 156.191 66.2281C156.191 64.6651 155.172 63.6449 152.968 62.9211C151.338 62.378 150.653 62.0654 150.653 61.3579C150.653 60.7985 151.246 60.2886 152.468 60.2886C153.672 60.2886 154.579 60.6011 155.061 60.815L155.691 58.8079C154.95 58.495 153.931 58.2483 152.505 58.2483C149.579 58.2483 147.783 59.6798 147.783 61.5719C147.783 63.1844 149.153 64.2043 151.227 64.8625C152.727 65.3232 153.32 65.718 153.32 66.4091C153.32 67.1331 152.635 67.61 151.338 67.61C150.135 67.61 148.949 67.2648 148.209 66.9191L147.634 68.9758Z" fill="white"/>
</g>
<defs>
<clipPath id="clip0_473_4975">
<rect width="160" height="59.759" fill="white" transform="translate(0 10)"/>
</clipPath>
</defs>
</svg>
