<svg width="160" height="80" viewBox="0 0 160 80" fill="none" xmlns="http://www.w3.org/2000/svg">
<g clip-path="url(#clip0_473_4984)">
<path d="M20.4347 20C31.7003 20.0339 40.8309 29.1184 40.8239 40.4243C40.8171 51.7367 31.6607 60.841 20.3735 60.8171C8.98793 60.7927 -0.0158463 51.5422 2.09396e-05 40.3807C0.0158882 29.237 9.03129 20.0169 20.4347 20ZM2.60718 40.3934C2.57104 50.1529 10.4969 58.2015 20.3859 58.2172C30.2069 58.2327 38.1863 50.3037 38.2237 40.482C38.2614 30.5931 30.259 22.6082 20.4215 22.6052C10.5278 22.6022 2.59008 30.6386 2.60718 40.3934Z" fill="#FF894B"/>
<path d="M49.0257 31.343C49.0257 28.6514 49.0257 25.9599 49.026 23.2683C49.026 23.1625 49.0209 23.0561 49.0312 22.9513C49.0477 22.7846 49.1369 22.6968 49.3015 22.6797C49.3829 22.6712 49.4659 22.6747 49.548 22.6747C50.7353 22.6745 51.9223 22.6738 53.1095 22.6749C53.5763 22.6752 53.6115 22.7103 53.6115 23.1773C53.612 28.2078 53.6129 33.2382 53.6099 38.2688C53.6093 38.7583 53.6945 39.2263 53.8859 39.6754C54.0489 40.058 54.2716 40.401 54.575 40.6879C54.9577 41.0497 55.4046 41.2496 55.9399 41.2471C57.0097 41.2422 58.079 41.2411 59.1486 41.2478C59.6299 41.2508 60.053 41.1003 60.4126 40.7923C61.144 40.1655 61.5543 39.3737 61.5893 38.4012C61.5939 38.2722 61.5904 38.1426 61.5904 38.0134C61.5904 33.1004 61.5904 28.1875 61.5906 23.2745C61.5906 23.1571 61.5868 23.0386 61.602 22.9228C61.6213 22.7768 61.7129 22.6957 61.8615 22.6798C61.9432 22.6712 62.0259 22.6747 62.1083 22.6747C63.2953 22.6745 64.4826 22.6819 65.6695 22.671C66.1677 22.6664 66.1788 22.8015 66.1788 23.1729C66.1764 28.1447 66.1769 33.1164 66.1769 38.0881C66.1769 39.1655 66.0316 40.2198 65.6614 41.236C65.2104 42.4735 64.4771 43.4994 63.3745 44.2411C62.5815 44.7744 61.7018 45.0856 60.764 45.2406C60.1948 45.3347 59.6205 45.3693 59.0436 45.3686C57.88 45.367 56.7163 45.377 55.5529 45.3654C54.1965 45.3518 52.9268 45.0179 51.7821 44.2723C50.4668 43.4155 49.5868 42.239 49.2028 40.7069C49.0794 40.2147 49.0244 39.7142 49.0247 39.2063C49.0266 36.585 49.0257 33.9639 49.0257 31.343Z" fill="#E4E4E4"/>
<path d="M118.775 33.9924C118.775 30.4205 118.774 26.8485 118.775 23.2766C118.775 23.1593 118.772 23.0407 118.786 22.9248C118.805 22.7773 118.895 22.6987 119.044 22.6803C119.102 22.6731 119.161 22.6749 119.22 22.6749C120.207 22.6745 121.194 22.6747 122.181 22.6747C122.228 22.6747 122.275 22.6731 122.322 22.6766C122.531 22.6919 122.622 22.7771 122.637 22.9784C122.644 23.0719 122.639 23.1664 122.639 23.2603C122.639 24.9405 122.639 26.6209 122.639 28.301C122.639 28.4066 122.636 28.5131 122.646 28.6178C122.661 28.7647 122.747 28.8542 122.894 28.871C122.998 28.883 123.105 28.8784 123.21 28.8784C125.125 28.8788 127.041 28.8803 128.956 28.8779C129.535 28.8772 130.105 28.9443 130.66 29.1108C131.527 29.371 132.243 29.8675 132.839 30.5425C133.47 31.2581 133.9 32.0883 134.205 32.9859C134.471 33.7669 134.629 34.5707 134.717 35.3914C134.788 36.0599 134.801 36.729 134.766 37.3975C134.684 38.9467 134.368 40.4444 133.717 41.8613C133.377 42.6025 132.949 43.2873 132.387 43.8832C131.786 44.5205 131.081 44.9865 130.222 45.2028C129.798 45.3096 129.368 45.3655 128.933 45.366C125.713 45.3697 122.494 45.3685 119.274 45.3676C118.838 45.3674 118.775 45.301 118.775 44.8495C118.775 41.5008 118.775 38.1521 118.775 34.8034C118.775 34.5329 118.775 34.2627 118.775 33.9924ZM125.673 32.7424V32.7428C124.816 32.7428 123.959 32.7414 123.102 32.7433C122.682 32.7442 122.64 32.7867 122.64 33.2119C122.639 35.8189 122.639 38.4259 122.64 41.0327C122.64 41.1147 122.639 41.1979 122.651 41.2785C122.669 41.3948 122.748 41.4645 122.859 41.4911C122.915 41.5047 122.976 41.502 123.034 41.502C124.76 41.5025 126.486 41.5031 128.213 41.5011C128.317 41.501 128.424 41.4881 128.527 41.4687C129.049 41.3707 129.449 41.0785 129.772 40.6694C130.059 40.3056 130.256 39.894 130.401 39.4569C130.728 38.4726 130.812 37.4598 130.727 36.4323C130.676 35.811 130.558 35.201 130.335 34.6148C130.184 34.2172 129.995 33.8415 129.723 33.5116C129.304 33.0025 128.781 32.7243 128.104 32.7382C127.294 32.7551 126.484 32.7424 125.673 32.7424Z" fill="#E4E4E4"/>
<path d="M147.424 38.9669C145.568 38.9669 143.711 38.9669 141.855 38.9669C141.76 38.9669 141.666 38.9634 141.572 38.9685C141.326 38.9819 141.246 39.0683 141.242 39.3236C141.238 39.5871 141.299 39.8364 141.42 40.0697C141.558 40.3345 141.752 40.5517 141.988 40.7338C142.395 41.0483 142.86 41.238 143.354 41.3609C143.742 41.4575 144.137 41.5048 144.539 41.5043C146.936 41.5007 149.333 41.5025 151.731 41.5028C151.836 41.5028 151.943 41.4984 152.048 41.5085C152.195 41.5226 152.282 41.6063 152.306 41.7534C152.317 41.8223 152.315 41.8939 152.315 41.9642C152.316 42.9395 152.311 43.9148 152.319 44.8901C152.321 45.2078 152.27 45.3723 151.847 45.3708C150.002 45.3637 148.157 45.3764 146.312 45.3625C145.372 45.3554 144.434 45.3011 143.501 45.1671C142.768 45.0617 142.044 44.9155 141.347 44.6571C139.499 43.9718 138.315 42.6643 137.743 40.7895C137.547 40.1474 137.436 39.4889 137.371 38.8204C137.312 38.2106 137.302 37.6002 137.319 36.9897C137.348 36.0117 137.459 35.0429 137.771 34.1112C138.51 31.9049 139.976 30.3805 142.135 29.524C142.925 29.2107 143.749 29.033 144.594 28.9406C145.098 28.8854 145.603 28.8627 146.107 28.8815C148.089 28.9556 149.891 29.5439 151.439 30.8113C152.45 31.6403 153.126 32.6926 153.424 33.9756C153.526 34.4125 153.577 34.8561 153.581 35.3026C153.588 36.3601 153.584 37.4177 153.583 38.4754C153.582 38.9099 153.526 38.9665 153.1 38.9667C151.208 38.9674 149.316 38.9669 147.424 38.9669ZM145.616 35.2758C146.874 35.2758 148.132 35.276 149.389 35.2757C149.495 35.2757 149.602 35.281 149.706 35.2695C149.915 35.2466 149.995 35.1556 150.003 34.9491C150.004 34.9257 150.003 34.9021 150.002 34.8786C149.961 34.2089 149.737 33.6186 149.244 33.1468C148.969 32.8836 148.649 32.6909 148.298 32.5451C147.818 32.345 147.316 32.2359 146.8 32.1752C145.845 32.0633 144.9 32.0959 143.967 32.3383C143.313 32.5082 142.698 32.763 142.168 33.1928C141.805 33.4873 141.527 33.8453 141.366 34.2882C141.285 34.5107 141.236 34.7399 141.243 34.9779C141.247 35.1531 141.318 35.2367 141.492 35.2622C141.596 35.2774 141.703 35.2751 141.808 35.2753C143.078 35.2762 144.347 35.2758 145.616 35.2758Z" fill="#E4E4E4"/>
<path d="M110.298 45.3682C108.548 45.3682 106.797 45.3698 105.047 45.3661C104.837 45.3657 104.625 45.3474 104.416 45.3195C103.983 45.2617 103.613 45.0697 103.301 44.7647C102.883 44.3566 102.574 43.8749 102.339 43.3437C102.043 42.6717 101.884 41.9663 101.816 41.2351C101.715 40.1528 101.847 39.1014 102.209 38.0806C102.462 37.3644 102.842 36.7229 103.383 36.1786C103.9 35.6591 104.521 35.405 105.247 35.3937C105.423 35.3911 105.599 35.3926 105.776 35.3926C107.491 35.3926 109.206 35.3928 110.921 35.3921C111.05 35.3921 111.18 35.3907 111.308 35.381C111.696 35.3517 112.005 35.173 112.218 34.8505C112.562 34.3281 112.598 33.7712 112.33 33.2095C112.147 32.8253 111.829 32.5933 111.401 32.5373C111.238 32.5161 111.073 32.5108 110.909 32.5106C108.336 32.5091 105.763 32.5098 103.19 32.5087C103.062 32.5087 102.932 32.5045 102.804 32.4898C102.686 32.4764 102.615 32.3992 102.601 32.2804C102.592 32.1991 102.59 32.1164 102.59 32.0344C102.589 31.1417 102.589 30.2487 102.59 29.3559C102.59 29.2739 102.59 29.1909 102.602 29.1099C102.621 28.9772 102.699 28.901 102.833 28.8851C102.914 28.8756 102.997 28.8788 103.079 28.8788C105.993 28.8786 108.906 28.8793 111.82 28.8779C112.174 28.8777 112.523 28.9119 112.868 28.9927C113.728 29.1939 114.402 29.6835 114.947 30.3585C115.497 31.0385 115.82 31.8285 116.008 32.6753C116.153 33.3304 116.226 33.9941 116.225 34.667C116.221 38.0504 116.223 41.4338 116.223 44.8173C116.223 44.8994 116.227 44.9821 116.22 45.0639C116.206 45.2508 116.124 45.34 115.937 45.3615C115.832 45.3735 115.725 45.368 115.62 45.368C113.846 45.3684 112.072 45.3682 110.298 45.3682ZM109.255 41.6549C110.113 41.6549 110.97 41.6551 111.828 41.6547C111.922 41.6547 112.016 41.6583 112.109 41.6488C112.259 41.6334 112.335 41.553 112.354 41.3979C112.36 41.3515 112.36 41.3041 112.36 41.2572C112.36 40.4702 112.363 39.6831 112.359 38.896C112.358 38.5465 112.291 38.4845 111.949 38.476C111.937 38.4757 111.925 38.4758 111.913 38.4758C110.163 38.4758 108.413 38.4755 106.662 38.4773C106.558 38.4774 106.451 38.4854 106.349 38.5083C105.976 38.5925 105.725 38.8316 105.581 39.1735C105.331 39.7669 105.344 40.3676 105.609 40.9509C105.821 41.4176 106.175 41.6715 106.718 41.6595C107.563 41.6412 108.409 41.6549 109.255 41.6549Z" fill="#E4E4E4"/>
<path d="M74.4357 28.879C76.1041 28.879 77.7727 28.8769 79.441 28.8799C80.3161 28.8815 81.1042 29.1449 81.7862 29.6997C82.2242 30.056 82.5469 30.4979 82.7237 31.0373C82.9358 31.6847 82.8696 32.312 82.5624 32.9151C82.4064 33.2212 82.1957 33.4876 81.9525 33.7298C81.3529 34.3268 80.7555 34.9257 80.1572 35.5239C78.4289 37.2518 76.7001 38.9792 74.9735 40.7088C74.8666 40.816 74.7595 40.93 74.6831 41.0589C74.5442 41.2923 74.6489 41.4778 74.9187 41.4997C75.0237 41.5081 75.13 41.5028 75.2357 41.5028C77.4798 41.503 79.7241 41.5028 81.9682 41.503C82.074 41.503 82.1803 41.4988 82.2852 41.5072C82.4528 41.5208 82.5388 41.6045 82.5632 41.7708C82.5716 41.8285 82.5702 41.8879 82.5702 41.9466C82.5708 42.9335 82.5656 43.9205 82.5735 44.9074C82.5759 45.2205 82.5022 45.3831 82.1198 45.3691C81.9319 45.3623 81.7437 45.3681 81.5557 45.3681C78.3717 45.3681 75.1875 45.369 72.0035 45.3672C71.39 45.3669 70.7847 45.3025 70.1993 45.1045C69.8519 44.9871 69.5251 44.8297 69.2338 44.6061C68.7066 44.2015 68.3769 43.6814 68.3072 43.009C68.2698 42.6502 68.3351 42.3069 68.4515 41.9716C68.6117 41.5092 68.8813 41.1122 69.2097 40.7542C69.3447 40.6072 69.4879 40.4678 69.6295 40.3267C71.911 38.0551 74.1925 35.7837 76.474 33.5123C76.5488 33.4377 76.6304 33.368 76.6944 33.2848C76.7427 33.2221 76.7799 33.1445 76.7991 33.0676C76.8241 32.9686 76.7853 32.8769 76.692 32.8293C76.6207 32.793 76.5404 32.7637 76.4615 32.7558C76.3218 32.7417 76.1803 32.7432 76.0393 32.7432C73.8068 32.7425 71.5744 32.7429 69.342 32.7422C69.2246 32.7422 69.1058 32.7453 68.9903 32.7291C68.8368 32.7076 68.7658 32.6244 68.7487 32.4717C68.7422 32.4136 68.7435 32.3545 68.7435 32.2958C68.743 31.3088 68.743 30.3219 68.7433 29.335C68.7433 29.2762 68.7414 29.2172 68.7471 29.1588C68.7658 28.9698 68.8455 28.8937 69.0426 28.8808C69.1362 28.8746 69.2306 28.8789 69.3244 28.8789C71.028 28.8789 72.7319 28.8789 74.4355 28.8789L74.4357 28.879Z" fill="#E4E4E4"/>
<path d="M85.1233 34.0077C85.1233 30.4482 85.1233 26.8885 85.1233 23.3289C85.1233 23.235 85.1206 23.1408 85.1241 23.047C85.1347 22.7554 85.2096 22.6847 85.5119 22.6748C85.5355 22.6741 85.5591 22.6747 85.5824 22.6747C86.5576 22.6747 87.5325 22.6736 88.5077 22.6752C88.9167 22.6759 88.9804 22.7401 88.9858 23.1387C88.9864 23.1856 88.9858 23.2327 88.9858 23.2797C88.9858 30.4343 88.9858 37.5886 88.9858 44.7432C88.9858 44.8489 88.991 44.9553 88.9815 45.0602C88.9644 45.2491 88.8801 45.3362 88.6978 45.3623C88.6401 45.3706 88.5807 45.368 88.5218 45.3681C87.5466 45.3685 86.5717 45.3687 85.5965 45.368C85.5263 45.368 85.455 45.3688 85.3861 45.3574C85.2174 45.3292 85.1407 45.2467 85.1279 45.0744C85.1192 44.9575 85.1236 44.8396 85.1236 44.7222C85.1233 41.1505 85.1233 37.5791 85.1233 34.0077Z" fill="#E4E4E4"/>
<path d="M156.136 34.0315C156.136 30.4482 156.136 26.8648 156.136 23.2815C156.136 23.1641 156.132 23.0459 156.143 22.9294C156.157 22.7836 156.246 22.699 156.394 22.6815C156.475 22.672 156.558 22.6747 156.64 22.6747C157.592 22.6743 158.544 22.6743 159.495 22.6747C159.577 22.6747 159.66 22.6729 159.741 22.6817C159.874 22.696 159.953 22.7758 159.98 22.9042C159.993 22.9611 159.996 23.0204 159.998 23.0787C160.001 23.1609 159.999 23.2432 159.999 23.3254C159.999 30.4568 159.999 37.5883 159.999 44.7197C159.999 44.8486 160.001 44.9789 159.985 45.1061C159.965 45.2574 159.883 45.3345 159.731 45.3576C159.651 45.3699 159.568 45.3674 159.486 45.3674C158.557 45.368 157.629 45.3683 156.701 45.3676C156.163 45.3672 156.135 45.3383 156.135 44.781C156.135 41.1982 156.136 37.6149 156.136 34.0315Z" fill="#E4E4E4"/>
<path d="M100.461 45.3081C100.351 45.3354 100.286 45.3636 100.221 45.3654C99.9977 45.3713 99.7745 45.3682 99.5514 45.3682C98.5295 45.3682 97.5077 45.3682 96.4856 45.3682C96.3918 45.3682 96.2974 45.3721 96.2038 45.3659C95.9948 45.3523 95.8185 45.2689 95.6859 45.1035C95.6346 45.0396 95.5861 44.9731 95.5373 44.907C93.739 42.4689 91.9394 40.0317 90.1442 37.5916C90.0197 37.4224 89.9058 37.241 89.816 37.0515C89.5815 36.5562 89.5861 36.0531 89.8122 35.5532C89.9343 35.2835 90.1035 35.0453 90.299 34.8237C91.7048 33.229 93.1093 31.6333 94.5143 30.038C94.7627 29.7559 95.0193 29.4807 95.2577 29.1903C95.4356 28.9736 95.6452 28.874 95.9278 28.8756C97.2314 28.8826 98.5352 28.8781 99.8391 28.8797C99.94 28.8798 100.073 28.8421 100.118 28.9685C100.158 29.0817 100.054 29.161 99.9861 29.2391C99.367 29.9459 98.7467 30.6518 98.1268 31.3578C96.7858 32.8844 95.4445 34.4106 94.1038 35.9372C94.0726 35.9725 94.0403 36.0067 94.0121 36.0442C93.8817 36.2186 93.8814 36.3418 94.0151 36.5227C96.0229 39.2434 98.0319 41.9636 100.039 44.6852C100.177 44.8717 100.333 45.0473 100.461 45.3081Z" fill="#E4E4E4"/>
<path d="M94.9612 57.838C94.9672 57.5739 94.9354 57.3303 94.9848 57.0743C95.048 57.0833 95.0946 57.0827 95.1369 57.0963C95.5643 57.2335 96.0055 57.2973 96.4497 57.3423C96.8272 57.3805 97.2004 57.3496 97.5643 57.2368C98.008 57.099 98.2729 56.7945 98.3784 56.3481C98.4055 56.2342 98.424 56.1171 98.4332 56.0004C98.4424 55.8838 98.4351 55.7661 98.4351 55.623C98.3893 55.6438 98.3432 55.6512 98.319 55.678C97.8024 56.248 97.1353 56.3693 96.4186 56.2844C95.5708 56.184 95.007 55.7027 94.6968 54.9119C94.5666 54.5805 94.5067 54.235 94.4723 53.8836C94.4134 53.2834 94.43 52.6863 94.5745 52.0989C94.6192 51.9175 94.6794 51.7371 94.7573 51.5676C95.0941 50.8371 95.6736 50.4297 96.4649 50.3134C96.7573 50.2703 97.0483 50.2581 97.3414 50.3104C97.6831 50.3714 97.9974 50.4872 98.2626 50.7177C98.303 50.7527 98.3489 50.7817 98.4237 50.8365C98.4378 50.6971 98.4476 50.5968 98.4576 50.4975C98.7166 50.4419 99.1768 50.4411 99.477 50.4983C99.4813 50.5615 99.49 50.6296 99.49 50.6979C99.4908 52.2722 99.4941 53.8464 99.4881 55.4206C99.4868 55.8201 99.4469 56.2166 99.3211 56.6017C99.0662 57.383 98.5349 57.8657 97.746 58.0634C97.5315 58.1171 97.3059 58.1404 97.0843 58.1488C96.5197 58.1702 95.957 58.1455 95.4043 58.0105C95.2571 57.975 95.1082 57.943 94.9612 57.838ZM98.3836 53.227C98.3836 52.9927 98.3933 52.7573 98.3809 52.5236C98.3668 52.2529 98.3068 51.9907 98.1875 51.7436C98.0519 51.463 97.8336 51.2739 97.5396 51.188C97.2446 51.1017 96.9438 51.0773 96.6366 51.1541C96.2984 51.2384 96.0413 51.422 95.8616 51.716C95.7441 51.908 95.669 52.1173 95.6324 52.3394C95.5326 52.9458 95.5453 53.5541 95.6099 54.1626C95.6335 54.3861 95.6891 54.6006 95.7777 54.8067C95.8729 55.0274 96.0131 55.2113 96.2157 55.3444C96.8148 55.7377 97.6614 55.56 98.0495 54.9594C98.1783 54.7603 98.2572 54.5406 98.3144 54.3115C98.4031 53.9546 98.4023 53.591 98.3836 53.227Z" fill="#E4E4E4"/>
<path d="M147.058 55.7769C147.036 55.8664 147.049 55.9695 147.047 56.0701C147.045 56.1756 147.047 56.2813 147.047 56.3868C147.047 56.4926 147.047 56.5981 147.047 56.7038C147.047 56.8096 147.047 56.9151 147.047 57.0206C147.047 57.1263 147.047 57.2318 147.047 57.3376C147.047 57.4434 147.047 57.5489 147.047 57.6546C147.047 57.759 147.047 57.8629 147.047 57.9857C146.696 58.0454 146.361 58.0061 146.008 58.0129C145.996 57.938 145.978 57.8724 145.978 57.8067C145.977 55.4241 145.977 53.0415 145.977 50.6588C145.977 50.6021 145.983 50.5457 145.988 50.4758C146.159 50.4267 146.323 50.4552 146.483 50.4497C146.634 50.4448 146.785 50.4486 146.942 50.4486C147.024 50.6621 146.955 50.8839 147.064 51.1019C147.122 51.0328 147.163 50.9788 147.208 50.93C147.663 50.4435 148.221 50.2257 148.884 50.2897C149.059 50.3065 149.234 50.3345 149.403 50.3773C150.049 50.5411 150.501 50.9392 150.772 51.5429C150.897 51.8227 150.977 52.1173 150.999 52.4245C151.039 52.9872 151.04 53.5507 150.992 54.1126C150.961 54.4655 150.869 54.805 150.711 55.1239C150.418 55.7154 149.955 56.1004 149.311 56.2591C148.859 56.3703 148.407 56.3833 147.956 56.2534C147.681 56.1742 147.432 56.05 147.222 55.8526C147.188 55.8206 147.151 55.7924 147.114 55.7647C147.108 55.7601 147.093 55.7682 147.058 55.7769ZM149.913 53.2411C149.913 53.1993 149.918 53.1049 149.912 53.0114C149.89 52.6716 149.865 52.3318 149.732 52.0112C149.595 51.685 149.388 51.426 149.058 51.2774C148.524 51.0363 147.642 51.1152 147.177 51.803C147.096 51.9223 147.048 52.0435 147.049 52.1945C147.055 52.923 147.054 53.6514 147.051 54.3798C147.05 54.5758 147.102 54.754 147.212 54.9099C147.541 55.3715 148.004 55.564 148.556 55.5285C149.082 55.4949 149.458 55.2221 149.675 54.7402C149.727 54.623 149.769 54.4999 149.802 54.376C149.897 54.0218 149.918 53.6587 149.913 53.2411Z" fill="#E4E4E4"/>
<path d="M126.718 50.4531C127.012 50.4517 127.268 50.449 127.524 50.4495C127.58 50.4498 127.637 50.4604 127.704 50.4672C127.726 50.6765 127.746 50.8704 127.771 51.1131C127.843 51.0432 127.882 51.0095 127.916 50.9713C128.376 50.4495 128.952 50.2228 129.643 50.2912C129.783 50.305 129.924 50.318 130.061 50.3506C130.923 50.5567 131.434 51.1186 131.657 51.9576C131.711 52.1602 131.745 52.3731 131.749 52.5822C131.76 53.063 131.761 53.5449 131.739 54.0251C131.72 54.4506 131.604 54.8571 131.394 55.2327C131.036 55.8754 130.478 56.2204 129.759 56.3161C129.408 56.3628 129.058 56.3592 128.713 56.2578C128.427 56.1737 128.166 56.0476 127.95 55.8388C127.918 55.8079 127.882 55.7819 127.852 55.7567C127.768 55.7935 127.791 55.8597 127.791 55.9126C127.789 56.4994 127.79 57.0866 127.789 57.6734C127.789 57.7767 127.784 57.8798 127.782 57.9988C127.703 58.0059 127.647 58.0154 127.592 58.0154C127.313 58.0159 127.033 58.0135 126.782 58.0124C126.746 57.9796 126.735 57.9731 126.729 57.9636C126.724 57.9541 126.723 57.9411 126.723 57.9297C126.721 55.5468 126.719 53.1636 126.718 50.7807C126.718 50.6874 126.718 50.5941 126.718 50.4531ZM127.798 53.2794C127.798 53.6319 127.807 53.9847 127.795 54.3367C127.784 54.6695 127.921 54.9282 128.155 55.1443C128.425 55.393 128.751 55.5205 129.114 55.5321C129.713 55.5514 130.157 55.2989 130.413 54.7478C130.467 54.6315 130.515 54.5092 130.543 54.3845C130.695 53.7233 130.69 53.0559 130.586 52.3896C130.549 52.1575 130.463 51.9373 130.332 51.7377C130.199 51.5365 130.028 51.3824 129.808 51.2813C129.291 51.0429 128.422 51.1047 127.944 51.767C127.846 51.9039 127.789 52.046 127.795 52.2223C127.806 52.5743 127.798 52.9271 127.798 53.2794Z" fill="#E4E4E4"/>
<path d="M70.9708 56.2714C70.6261 56.2714 70.3213 56.2722 70.0168 56.2703C69.9837 56.27 69.9503 56.2516 69.8931 56.2342C69.8931 56.1217 69.8931 56.0059 69.8931 55.8904C69.8931 54.657 69.8937 53.4239 69.8926 52.1908C69.892 51.5923 69.652 51.3146 69.0652 51.2048C68.8621 51.1668 68.6679 51.188 68.4726 51.2338C68.1109 51.319 67.7914 51.4852 67.5227 51.7428C67.3646 51.8944 67.2835 52.0661 67.2859 52.3023C67.2984 53.4998 67.2919 54.698 67.2913 55.8958C67.2913 56.0113 67.2859 56.1266 67.2824 56.2622C66.925 56.2852 66.5876 56.2749 66.2489 56.27C66.1662 56.1412 66.2017 56.0089 66.2014 55.8847C66.1987 54.1111 66.1995 52.3378 66.1995 50.5643C66.1995 50.0241 66.199 49.4838 66.2001 48.9436C66.2004 48.8278 66.2069 48.7118 66.2112 48.5797C66.5621 48.5426 66.8968 48.5569 67.2515 48.5716C67.2607 48.6603 67.2759 48.7384 67.2762 48.8167C67.2781 49.4627 67.2767 50.1087 67.2778 50.7546C67.2781 50.8433 67.2661 50.9358 67.3098 51.0597C67.3865 50.9952 67.4367 50.954 67.4858 50.9114C68.1236 50.3582 68.8648 50.1813 69.6848 50.3272C70.369 50.449 70.8417 50.9567 70.948 51.6666C70.9741 51.8402 70.9884 52.0175 70.9887 52.193C70.9922 53.4849 70.9909 54.7769 70.9901 56.0688C70.9903 56.1244 70.9798 56.1805 70.9708 56.2714Z" fill="#E4E4E4"/>
<path d="M137.571 55.0632C137.592 55.0992 137.613 55.1185 137.613 55.1377C137.615 55.3956 137.614 55.6535 137.614 55.9036C137.537 56.0167 137.419 56.0503 137.312 56.091C136.527 56.3903 135.72 56.4882 134.892 56.3185C133.77 56.0882 133.012 55.2647 132.862 54.1238C132.776 53.4672 132.783 52.8126 132.934 52.1642C132.953 52.0845 132.977 52.0055 133.003 51.928C133.274 51.1055 133.912 50.3638 135.179 50.2591C135.521 50.2309 135.861 50.2621 136.192 50.3508C137.132 50.6027 137.686 51.2383 137.935 52.156C138.062 52.6228 138.088 53.1025 138.062 53.579C137.968 53.6796 137.856 53.6413 137.756 53.6416C136.605 53.6443 135.454 53.6432 134.303 53.6438C134.188 53.6438 134.073 53.6508 133.961 53.6543C133.886 54.667 134.498 55.4002 135.467 55.4824C136.063 55.5326 136.636 55.4263 137.191 55.2129C137.319 55.1635 137.446 55.1122 137.571 55.0632ZM136.945 52.763C136.969 52.5371 136.919 52.3198 136.855 52.1099C136.711 51.637 136.403 51.3278 135.914 51.2085C135.635 51.1407 135.353 51.1358 135.077 51.189C134.589 51.2831 134.261 51.5811 134.086 52.043C133.998 52.2735 133.959 52.5148 133.955 52.764C133.995 52.7784 134.028 52.7998 134.06 52.8001C134.986 52.802 135.912 52.8023 136.838 52.8004C136.87 52.8004 136.902 52.7787 136.945 52.763Z" fill="#E4E4E4"/>
<path d="M159.98 53.6287C159.629 53.658 159.291 53.6401 158.953 53.6431C158.613 53.646 158.272 53.6436 157.932 53.6436C157.591 53.6436 157.25 53.6409 156.91 53.6444C156.572 53.6482 156.233 53.6268 155.898 53.6596C155.787 54.5803 156.388 55.3616 157.283 55.4711C157.84 55.5395 158.384 55.4638 158.914 55.2856C159.111 55.2192 159.305 55.1405 159.517 55.0614C159.571 55.204 159.543 55.345 159.547 55.482C159.552 55.6225 159.548 55.7635 159.548 55.9189C159.48 55.9609 159.417 56.0121 159.344 56.0431C158.499 56.4056 157.619 56.5122 156.727 56.2974C155.696 56.0496 155.049 55.3768 154.829 54.3408C154.669 53.5872 154.681 52.8181 154.887 52.0715C155.125 51.2089 155.661 50.6077 156.544 50.3598C157.149 50.1898 157.754 50.215 158.346 50.4214C158.9 50.6147 159.318 50.9784 159.601 51.4947C159.755 51.7751 159.861 52.0737 159.915 52.3875C159.984 52.791 160.025 53.197 159.98 53.6287ZM155.876 52.7801C155.949 52.7913 155.994 52.804 156.039 52.804C156.931 52.8051 157.822 52.8056 158.713 52.8032C158.768 52.8029 158.822 52.7796 158.901 52.7612C158.863 52.541 158.845 52.3294 158.788 52.1288C158.648 51.6393 158.332 51.3133 157.825 51.2086C157.633 51.169 157.43 51.1587 157.233 51.1658C156.629 51.1875 156.195 51.521 155.997 52.0924C155.924 52.3048 155.896 52.5244 155.876 52.7801Z" fill="#E4E4E4"/>
<path d="M58.732 55.0476C58.732 55.3687 58.732 55.6488 58.732 55.9341C58.6545 55.9764 58.5856 56.0217 58.5107 56.0532C57.7221 56.3837 56.9034 56.4898 56.0635 56.3276C54.9034 56.1036 54.143 55.3172 53.9789 54.1456C53.8892 53.5059 53.8916 52.8556 54.0359 52.2186C54.0847 52.0033 54.1617 51.7896 54.2569 51.5897C54.569 50.9362 55.0881 50.521 55.7867 50.3414C56.2962 50.2107 56.8107 50.2202 57.3197 50.3555C58.06 50.5519 58.5791 51.0091 58.8923 51.7044C59.0336 52.0179 59.1084 52.3496 59.1513 52.688C59.1895 52.9904 59.1781 53.2941 59.173 53.622C59.0561 53.6299 58.9547 53.6423 58.8535 53.6426C57.7145 53.644 56.5753 53.6431 55.436 53.644C55.3208 53.644 55.2052 53.6505 55.0938 53.6534C54.9826 54.5945 55.5692 55.3608 56.4711 55.4709C57.09 55.5466 57.6871 55.4416 58.2683 55.2296C58.4101 55.1781 58.5492 55.1195 58.732 55.0476ZM55.0816 52.7645C55.3381 52.8144 57.2112 52.8396 57.9274 52.803C57.9702 52.8008 58.0123 52.7797 58.0508 52.7686C58.0728 52.5286 58.0351 52.3097 57.9675 52.0968C57.8401 51.6949 57.589 51.4004 57.1862 51.2543C56.8589 51.1355 56.5189 51.1263 56.182 51.1922C55.8235 51.2624 55.5304 51.4471 55.3384 51.7684C55.1548 52.0757 55.0626 52.4065 55.0816 52.7645Z" fill="#E4E4E4"/>
<path d="M144.678 53.3199C144.681 53.7321 144.652 54.1386 144.526 54.537C144.166 55.6716 143.2 56.3241 142.115 56.3876C141.738 56.4098 141.363 56.3927 140.999 56.2818C140.083 56.0028 139.489 55.3929 139.228 54.4814C139.018 53.7462 139.019 52.9948 139.21 52.2522C139.481 51.1976 140.356 50.3081 141.762 50.2547C142.081 50.2425 142.397 50.271 142.706 50.3447C143.703 50.5823 144.315 51.2152 144.572 52.2004C144.668 52.5676 144.681 52.9432 144.678 53.3199ZM143.589 53.3592C143.589 53.2068 143.597 53.0539 143.587 52.9017C143.569 52.5953 143.505 52.2964 143.375 52.0171C143.138 51.5059 142.733 51.2225 142.173 51.1653C142.034 51.1512 141.892 51.1493 141.751 51.1558C141.117 51.1854 140.666 51.491 140.41 52.0733C140.353 52.2013 140.309 52.3363 140.276 52.4724C140.16 52.9581 140.173 53.4514 140.228 53.9423C140.262 54.2341 140.347 54.5161 140.492 54.7762C140.717 55.18 141.054 55.4333 141.508 55.5192C141.656 55.5472 141.812 55.5469 141.963 55.5444C142.714 55.532 143.225 55.1491 143.457 54.4358C143.571 54.0852 143.603 53.7251 143.589 53.3592Z" fill="#E4E4E4"/>
<path d="M112.182 53.344C112.18 53.0031 112.19 52.6642 112.272 52.3295C112.548 51.2087 113.44 50.3111 114.838 50.2558C115.205 50.2414 115.565 50.2818 115.919 50.38C116.739 50.6069 117.293 51.1219 117.569 51.9235C117.652 52.1654 117.709 52.422 117.738 52.6764C117.805 53.2624 117.805 53.849 117.645 54.4244C117.324 55.5791 116.378 56.3328 115.179 56.3894C114.813 56.4065 114.45 56.393 114.097 56.2859C113.125 55.99 112.535 55.3299 112.278 54.3583C112.189 54.0255 112.18 53.6854 112.182 53.344ZM113.254 53.3169C113.282 53.5732 113.301 53.8308 113.341 54.0849C113.383 54.3531 113.482 54.6031 113.616 54.841C114.17 55.8227 115.826 55.7541 116.339 54.8762C116.439 54.7062 116.522 54.5196 116.573 54.3295C116.689 53.8962 116.719 53.452 116.682 53.0031C116.657 52.6981 116.617 52.3962 116.503 52.1096C116.311 51.6299 115.973 51.3134 115.464 51.197C115.163 51.1284 114.855 51.126 114.555 51.1878C114.118 51.2776 113.783 51.523 113.571 51.9195C113.5 52.0532 113.445 52.1972 113.4 52.342C113.303 52.6579 113.265 52.9839 113.254 53.3169Z" fill="#E4E4E4"/>
<path d="M93.3947 53.355C93.4015 53.7273 93.373 54.1338 93.2469 54.5322C92.9066 55.6069 91.9954 56.3144 90.8393 56.3874C90.4618 56.4113 90.087 56.3947 89.7226 56.2843C88.8209 56.011 88.2262 55.4157 87.959 54.5203C87.7334 53.7634 87.7337 52.9883 87.9373 52.2241C88.2243 51.1481 89.1314 50.2925 90.5106 50.254C90.8184 50.2453 91.123 50.2735 91.4196 50.344C92.4477 50.5881 93.0611 51.2465 93.3068 52.2643C93.3898 52.6103 93.3969 52.962 93.3947 53.355ZM88.9085 53.3349C88.9177 53.5106 88.9196 53.6872 88.9378 53.8618C88.9719 54.1916 89.0601 54.5067 89.2241 54.7972C89.4449 55.1879 89.7776 55.4298 90.2158 55.5177C90.3525 55.5451 90.496 55.5456 90.6362 55.5448C91.4535 55.5405 91.9813 55.138 92.2017 54.3448C92.3517 53.8052 92.3598 53.2541 92.2801 52.7044C92.2468 52.4747 92.1847 52.2431 92.0949 52.0292C91.9116 51.5917 91.578 51.31 91.1113 51.2015C90.7989 51.1288 90.4803 51.1247 90.1681 51.1925C89.7456 51.2845 89.4167 51.5212 89.2138 51.9071C89.1273 52.0715 89.0625 52.2496 89.0072 52.4278C88.9158 52.7223 88.9131 53.0287 88.9085 53.3349Z" fill="#E4E4E4"/>
<path d="M84.0921 53.3076C84.0891 53.7204 84.0653 54.1266 83.9394 54.5261C83.6072 55.5818 82.7131 56.3094 81.5359 56.3869C81.159 56.4116 80.7834 56.3956 80.4189 56.2861C79.5172 56.0149 78.9198 55.4218 78.651 54.5266C78.424 53.7697 78.4254 52.9952 78.6258 52.2302C78.9022 51.1758 79.7925 50.2958 81.1942 50.2546C81.5134 50.2451 81.8288 50.276 82.1374 50.3517C83.1516 50.5998 83.7515 51.2574 83.9942 52.2581C84.0246 52.3834 84.0512 52.5114 84.0612 52.6394C84.0788 52.8615 84.0826 53.085 84.0921 53.3076ZM79.5988 53.3171C79.6078 53.4928 79.6099 53.6691 79.6265 53.8443C79.659 54.1865 79.7501 54.513 79.9234 54.8122C80.1409 55.1886 80.4639 55.4269 80.8894 55.5126C81.0375 55.5425 81.1926 55.5422 81.3445 55.5449C81.9831 55.5563 82.638 55.2412 82.8786 54.3956C83.0388 53.8329 83.0543 53.2607 82.967 52.6869C82.9339 52.4688 82.8777 52.2481 82.7923 52.045C82.5678 51.5121 82.1515 51.2203 81.5766 51.1658C81.4022 51.149 81.2238 51.1487 81.0497 51.165C80.5488 51.2116 80.1602 51.4505 79.9129 51.8912C79.822 52.0531 79.7575 52.2324 79.7016 52.4103C79.6091 52.7045 79.6037 53.0109 79.5988 53.3171Z" fill="#E4E4E4"/>
<path d="M77.2454 56.2603C77.128 56.2657 77.0363 56.2733 76.9446 56.2733C76.6995 56.2733 76.4541 56.2701 76.1864 56.2682C76.1788 56.1467 76.1671 56.0455 76.1671 55.9444C76.1658 54.7457 76.1661 53.5471 76.1661 52.3487C76.1661 52.2546 76.159 52.16 76.1671 52.0667C76.2005 51.6697 75.9738 51.274 75.3951 51.1764C74.7605 51.069 74.2138 51.2724 73.7598 51.7263C73.621 51.8649 73.5589 52.0227 73.5605 52.2288C73.5694 53.4508 73.5651 54.6728 73.5646 55.895C73.5646 56.01 73.5583 56.125 73.5551 56.2454C73.4903 56.2568 73.445 56.2714 73.3997 56.2717C73.1071 56.2739 72.8147 56.2728 72.5053 56.2728C72.4917 56.2025 72.4714 56.1483 72.4714 56.0941C72.4701 54.2728 72.4703 52.4512 72.4711 50.6299C72.4711 50.5844 72.4809 50.5388 72.4882 50.4748C72.8169 50.4249 73.1393 50.4561 73.465 50.4528C73.5543 50.6676 73.4648 50.8919 73.5705 51.1056C73.6394 51.0416 73.6969 50.9865 73.756 50.9337C74.3971 50.3606 75.1456 50.1646 75.98 50.3398C76.6564 50.4819 77.1255 51.015 77.2248 51.7098C77.2478 51.872 77.2562 52.0377 77.2565 52.2017C77.2592 53.4945 77.2584 54.7869 77.2578 56.0797C77.2578 56.1255 77.2516 56.1719 77.2454 56.2603Z" fill="#E4E4E4"/>
<path d="M100.269 50.4517C100.669 50.4517 101.017 50.4517 101.386 50.4517C101.966 51.8998 102.546 53.3458 103.131 54.8083C103.26 54.7462 103.267 54.619 103.307 54.5233C103.829 53.2671 104.346 52.0086 104.864 50.7508C104.904 50.654 104.948 50.5588 104.993 50.4544C105.325 50.4248 105.65 50.4379 105.987 50.4463C106.033 50.5699 105.952 50.6581 105.915 50.7459C105.277 52.2461 104.635 53.7444 103.993 55.243C103.633 56.084 103.273 56.9249 102.912 57.7659C102.88 57.841 102.845 57.915 102.801 58.0099C102.468 58.0235 102.13 58.0162 101.761 58.0143C101.869 57.6631 102.027 57.3634 102.154 57.0518C102.278 56.7478 102.411 56.4479 102.552 56.1184C101.802 54.2553 101.044 52.3758 100.269 50.4517Z" fill="#E4E4E4"/>
<path d="M64.671 50.6444C64.671 50.973 64.671 51.3001 64.671 51.6299C64.563 51.6749 64.4942 51.5924 64.4179 51.5523C63.8937 51.2762 63.3362 51.1702 62.7493 51.2274C62.2471 51.2762 61.8696 51.5227 61.6209 51.9667C61.4924 52.1958 61.4173 52.444 61.3869 52.6997C61.3299 53.1789 61.3183 53.66 61.4303 54.1354C61.452 54.2265 61.4769 54.3173 61.5095 54.4049C61.7598 55.0831 62.2951 55.4574 63.0205 55.4487C63.4832 55.4433 63.9285 55.3462 64.348 55.1447C64.4415 55.0997 64.5354 55.0547 64.617 55.0156C64.6447 55.0243 64.6588 55.0246 64.6653 55.0316C64.6723 55.0395 64.6758 55.0533 64.6758 55.0644C64.6764 55.3573 64.6761 55.6499 64.6761 55.9423C64.5362 56.0662 64.3721 56.131 64.2078 56.1904C63.5019 56.4453 62.7824 56.473 62.0627 56.2723C61.2041 56.0328 60.6368 55.4674 60.3808 54.6221C60.1232 53.772 60.121 52.9036 60.3789 52.0529C60.7157 50.9427 61.6339 50.2737 62.7979 50.2463C63.2345 50.2362 63.666 50.2709 64.0879 50.3892C64.2908 50.4464 64.4876 50.5183 64.671 50.6444Z" fill="#E4E4E4"/>
<path d="M51.2388 49.4742C50.5904 49.4682 49.9819 49.4755 49.3798 49.4696C49.3185 49.1572 49.3207 48.8388 49.3823 48.5703C50.9866 48.5703 52.5934 48.5703 54.1972 48.5703C54.2623 48.8163 54.2677 49.0858 54.214 49.4579C53.6111 49.4937 53.0026 49.4533 52.3949 49.4796C52.301 49.5984 52.3452 49.7329 52.345 49.8563C52.3417 51.8538 52.3428 53.8514 52.3425 55.849C52.3425 55.9761 52.3387 56.1033 52.3368 56.2246C52.0361 56.2861 51.5865 56.2877 51.2597 56.2289C51.2328 55.6732 51.2507 55.1121 51.2475 54.5513C51.2445 53.9875 51.2469 53.4235 51.2469 52.8594C51.2469 52.3073 51.248 51.7549 51.2464 51.2027C51.2448 50.6406 51.2543 50.0784 51.2388 49.4742Z" fill="#E4E4E4"/>
<path d="M110.51 56.2311C110.217 56.2873 109.764 56.2889 109.456 56.2363C109.44 55.9133 109.451 55.586 109.449 55.2587C109.447 54.9297 109.449 54.6008 109.449 54.2718C109.449 53.9426 109.449 53.6136 109.449 53.2847C109.449 52.9557 109.449 52.6268 109.449 52.2978C109.448 51.9708 109.446 51.6437 109.445 51.3121C109.187 51.2226 108.934 51.3115 108.687 51.2437C108.643 51.0105 108.665 50.7814 108.671 50.5281C108.943 50.5178 109.195 50.5083 109.448 50.4985C109.474 50.2534 109.486 50.0302 109.523 49.8119C109.554 49.6399 109.601 49.4675 109.667 49.3061C109.839 48.8866 110.155 48.6108 110.595 48.5164C111.2 48.3865 111.783 48.4654 112.338 48.7781C112.324 48.9338 112.233 49.0455 112.178 49.17C112.127 49.2858 112.062 49.3953 111.993 49.5266C111.893 49.4843 111.81 49.4471 111.726 49.414C111.56 49.3492 111.387 49.3227 111.208 49.3281C110.908 49.337 110.705 49.4848 110.6 49.7736C110.527 49.9705 110.512 50.1574 110.543 50.4776C110.733 50.5473 110.934 50.5034 111.13 50.5113C111.316 50.5189 111.502 50.5129 111.682 50.5129C111.747 50.7909 111.749 50.9728 111.689 51.2757C111.314 51.3029 110.929 51.2695 110.526 51.2969C110.499 51.7251 110.515 52.1338 110.513 52.5416C110.51 52.9528 110.512 53.3641 110.512 53.7755C110.512 54.1867 110.512 54.5978 110.512 55.0092C110.511 55.4184 110.511 55.8276 110.51 56.2311Z" fill="#E4E4E4"/>
<path d="M123.122 51.9695C122.823 51.9695 122.534 51.9695 122.24 51.9695C122.217 51.8535 122.2 51.7504 122.174 51.6493C122.111 51.3979 121.944 51.2357 121.701 51.1758C121.212 51.0554 120.769 51.1503 120.397 51.5055C120.238 51.6574 120.149 51.831 120.156 52.065C120.17 52.5341 120.16 53.0044 120.16 53.4741C120.16 54.2727 120.16 55.0714 120.16 55.87C120.16 55.9869 120.16 56.1038 120.16 56.2152C119.917 56.2909 119.382 56.2982 119.064 56.2323C119.064 54.3234 119.064 52.4124 119.064 50.4818C119.236 50.4203 119.412 50.4531 119.583 50.449C119.745 50.4455 119.908 50.4368 120.091 50.4658C120.101 50.6277 120.11 50.7758 120.119 50.9187C120.202 50.967 120.228 50.9035 120.265 50.8634C120.792 50.2958 121.451 50.167 122.167 50.3489C122.717 50.4883 123.032 50.8889 123.136 51.4451C123.167 51.6146 123.195 51.7916 123.122 51.9695Z" fill="#E4E4E4"/>
<path d="M153.418 56.261C153.035 56.2816 152.699 56.2792 152.346 56.2643C152.346 53.7151 152.346 51.202 152.347 48.6889C152.347 48.6564 152.365 48.6241 152.38 48.5739C152.472 48.5691 152.563 48.5604 152.654 48.5601C152.898 48.5593 153.143 48.5558 153.395 48.5634C153.404 48.6461 153.417 48.7033 153.417 48.7605C153.418 51.2492 153.418 53.7379 153.418 56.261Z" fill="#E4E4E4"/>
<path d="M85.4806 48.5645C85.7771 48.5645 86.0821 48.564 86.387 48.5656C86.4073 48.5659 86.4274 48.5841 86.4629 48.6014C86.468 48.6361 86.4805 48.6803 86.4805 48.7248C86.4813 51.2246 86.4813 53.7247 86.4813 56.2334C86.2958 56.3018 86.1201 56.2679 85.949 56.2727C85.786 56.2774 85.623 56.2706 85.4872 56.2689C85.3944 56.1955 85.4139 56.1209 85.4139 56.0544C85.4128 53.6474 85.4126 51.2401 85.4142 48.8327C85.4142 48.7435 85.3846 48.6435 85.4806 48.5645Z" fill="#E4E4E4"/>
<path d="M27.4563 38.0138C27.4918 38.7143 26.9794 39.5836 25.9031 39.643C25.5716 39.6614 25.2534 39.558 24.9683 39.3749C24.6916 39.1972 24.4135 39.0216 24.1357 38.8453C21.3383 37.071 18.5407 35.2966 15.7431 33.5227C15.2273 33.1957 14.712 32.8675 14.1935 32.5446C13.7865 32.2912 13.503 31.952 13.3978 31.4739C13.2167 30.6527 13.6823 29.8417 14.4873 29.5899C14.9124 29.457 15.3239 29.4951 15.7139 29.7091C15.9092 29.8163 16.0973 29.9374 16.2858 30.0567C18.8258 31.6668 21.3651 33.2778 23.9049 34.8882C24.8275 35.4731 25.7497 36.0588 26.6741 36.6409C26.9287 36.8012 27.1333 37.0043 27.2757 37.27C27.4059 37.5138 27.4767 37.7711 27.4563 38.0138Z" fill="#FF894B"/>
<path d="M27.4592 43.845C27.4963 44.5423 26.9379 45.3709 25.9249 45.4404C25.5739 45.4645 25.2535 45.3475 24.9586 45.1625C24.5704 44.9192 24.1837 44.6735 23.7969 44.4281C21.2575 42.8174 18.7184 41.2065 16.1787 39.596C15.5042 39.1682 14.83 38.7398 14.1533 38.3153C13.812 38.1011 13.5726 37.8118 13.4388 37.429C13.1232 36.5271 13.7073 35.4021 14.8788 35.3118C15.2166 35.2857 15.5301 35.3829 15.8169 35.5611C16.1362 35.7594 16.4538 35.9608 16.7711 36.1619C19.8166 38.0932 22.862 40.0247 25.9074 41.9559C26.1454 42.1068 26.3859 42.2542 26.6222 42.408C26.7301 42.4782 26.8372 42.5524 26.9328 42.638C27.2848 42.9533 27.4616 43.3491 27.4592 43.845Z" fill="#FF894B"/>
<path d="M27.4596 49.7389C27.4981 50.8478 26.2084 51.7256 25.0769 51.0984C24.7794 50.9335 24.498 50.7393 24.2103 50.5571C21.6707 48.9468 19.1316 47.3354 16.5918 45.7254C15.8081 45.2286 15.0236 44.7328 14.2378 44.2392C13.955 44.0617 13.7082 43.8542 13.5472 43.5523C12.9934 42.5136 13.6979 41.3535 14.7111 41.2066C15.1278 41.1463 15.5031 41.229 15.8534 41.449C16.3109 41.7364 16.7663 42.0273 17.2228 42.3166C20.3287 44.2843 23.4346 46.2521 26.5402 48.22C26.6294 48.2764 26.7202 48.332 26.8041 48.3957C27.2334 48.7222 27.4629 49.151 27.4596 49.7389Z" fill="#FF894B"/>
<path d="M14.9661 51.3057C14.1025 51.3065 13.3813 50.6277 13.3531 49.7691C13.3395 49.3586 13.459 48.9816 13.7388 48.6687C13.8168 48.5813 13.9024 48.5005 13.9893 48.4221C14.3287 48.116 14.6695 47.8109 15.0112 47.5074C15.0988 47.4296 15.188 47.3529 15.2827 47.2842C16.1695 46.6404 17.5101 47.049 17.7858 48.2207C17.9209 48.7945 17.7658 49.294 17.3601 49.7038C17.0556 50.0116 16.7183 50.2868 16.395 50.5759C16.264 50.6931 16.1348 50.8127 15.9985 50.9236C15.6986 51.1679 15.3573 51.3054 14.9661 51.3057Z" fill="#FF894C"/>
<path d="M24.6082 33.8348C23.9185 33.8605 23.3298 33.4157 23.1141 32.8399C22.8732 32.1976 22.9744 31.6029 23.4688 31.1208C23.9224 30.6784 24.3947 30.2509 24.8903 29.8567C25.7818 29.1476 27.1158 29.5885 27.4064 30.6874C27.5637 31.2816 27.4376 31.8348 26.976 32.2726C26.6607 32.5716 26.3298 32.854 26.0054 33.1435C25.9002 33.2373 25.7923 33.3281 25.6875 33.4224C25.3771 33.7017 25.0162 33.8468 24.6082 33.8348Z" fill="#FF894C"/>
</g>
<defs>
<clipPath id="clip0_473_4984">
<rect width="160" height="40.9492" fill="white" transform="translate(0 20)"/>
</clipPath>
</defs>
</svg>
