<svg width="160" height="80" viewBox="0 0 160 80" fill="none" xmlns="http://www.w3.org/2000/svg">
<g clip-path="url(#clip0_473_4972)">
<path fill-rule="evenodd" clip-rule="evenodd" d="M146.415 34.2601L151.212 42.0082L156.006 34.2601L156.167 33.9994H160V45.7398H157.078V37.9911L152.232 45.4903L152.071 45.7398H150.352L150.191 45.4903L145.363 38.0148V45.7398H142.424V33.9994H146.252L146.415 34.2601ZM133.716 45.7398H133.7C132.604 45.7398 131.669 45.7029 130.895 45.629C130.65 45.6069 130.406 45.5782 130.162 45.5431C129.761 45.489 129.364 45.4017 128.977 45.2823H128.971C128.829 45.2367 128.691 45.1831 128.556 45.1217C128.426 45.0631 128.301 44.9962 128.18 44.9214C127.562 44.5442 127.11 43.9472 126.914 43.2503V43.2426C126.883 43.1389 126.857 43.0334 126.837 42.9268C126.814 42.8083 126.794 42.6844 126.777 42.5635C126.674 41.6252 126.63 40.6813 126.645 39.7374C126.645 38.8726 126.664 38.1507 126.704 37.5715C126.723 37.1178 126.788 36.6673 126.899 36.2269V36.2228C126.941 36.0861 126.992 35.9522 127.052 35.8222C127.109 35.6941 127.175 35.5702 127.249 35.4512C127.654 34.8312 128.268 34.3772 128.979 34.1718C129.61 33.9848 130.259 33.8656 130.915 33.8162C131.705 33.7396 132.64 33.7013 133.719 33.7013C134.817 33.7013 135.754 33.738 136.528 33.8115C137.179 33.8593 137.823 33.9767 138.449 34.1617C138.589 34.2073 138.726 34.2609 138.859 34.3223C138.99 34.3813 139.116 34.4488 139.237 34.5244C139.857 34.9064 140.311 35.5057 140.512 36.205C140.629 36.6542 140.7 37.1143 140.722 37.578C140.765 38.158 140.786 38.8754 140.786 39.7303C140.786 40.5852 140.767 41.3023 140.727 41.8814C140.708 42.3358 140.642 42.7869 140.53 43.2278C140.394 43.7118 140.136 44.1528 139.78 44.5084C139.41 44.8653 138.961 45.1293 138.469 45.2788H138.462C138.32 45.3246 138.167 45.3661 138.005 45.4032C137.843 45.4403 137.67 45.4743 137.484 45.5051C136.236 45.68 134.976 45.7573 133.716 45.7362L133.716 45.7398ZM133.716 42.9505C134.622 42.9618 135.528 42.9222 136.429 42.832C136.785 42.8223 137.135 42.7398 137.458 42.5896C137.608 42.3701 137.695 42.1144 137.712 41.8494C137.816 41.1492 137.861 40.4416 137.847 39.7339C137.86 39.0222 137.815 38.3107 137.711 37.6065C137.695 37.341 137.61 37.0844 137.464 36.8622C137.14 36.7149 136.79 36.6343 136.435 36.6251C135.531 36.5348 134.623 36.4952 133.715 36.5066C132.806 36.495 131.898 36.5346 130.993 36.6251C130.638 36.6343 130.289 36.7162 129.967 36.8657C129.953 36.8801 129.941 36.8962 129.931 36.9137C129.898 36.9702 129.871 37.0298 129.851 37.0915C129.63 37.9545 129.54 38.846 129.586 39.7357C129.572 40.4414 129.618 41.1471 129.721 41.8453C129.738 42.1114 129.826 42.3682 129.976 42.589C130.001 42.6075 130.029 42.6225 130.059 42.6334C130.143 42.6669 130.229 42.694 130.317 42.7146C131.438 42.9129 132.577 42.9923 133.715 42.9517L133.716 42.9505ZM115.096 39.7333C115.096 41.4151 115.219 42.3672 115.467 42.5896C115.49 42.608 115.515 42.6232 115.542 42.6346C115.613 42.6664 115.686 42.6926 115.761 42.7128C116.726 42.9096 117.712 42.9892 118.696 42.9499C119.639 42.9499 120.382 42.9303 120.921 42.8906C121.223 42.8844 121.524 42.8427 121.816 42.7662C121.84 42.7513 121.863 42.734 121.884 42.7146C121.915 42.6857 121.943 42.6533 121.966 42.618C122.196 42.16 122.295 41.6472 122.251 41.1365V40.5902H125.19V41.1419C125.21 41.9385 125.11 42.7335 124.894 43.5004C124.859 43.6106 124.822 43.7125 124.784 43.8044C124.609 44.2837 124.285 44.6947 123.86 44.9777H123.857C123.716 45.0642 123.569 45.1378 123.415 45.1976C123.244 45.2649 123.07 45.3219 122.892 45.3682C121.513 45.6575 120.104 45.7812 118.696 45.7368C117.598 45.7549 116.501 45.6719 115.418 45.4891C114.681 45.3915 113.983 45.1012 113.394 44.6477C112.89 44.1317 112.555 43.4744 112.433 42.7632C112.227 41.7658 112.133 40.7485 112.153 39.7303C112.133 38.7091 112.226 37.6887 112.431 36.688C112.55 35.9746 112.882 35.3138 113.383 34.7917C113.97 34.3328 114.67 34.0396 115.409 33.9425C116.494 33.7586 117.595 33.6757 118.696 33.6948H118.708C119.774 33.6815 120.841 33.7389 121.9 33.8666C122.06 33.8891 122.196 33.9093 122.3 33.9259C122.851 34.0002 123.382 34.1767 123.868 34.4462L123.88 34.4527C124.125 34.6121 124.333 34.8198 124.494 35.0631C124.669 35.3285 124.805 35.6177 124.897 35.9217C125.114 36.6926 125.214 37.4916 125.193 38.2921V38.8391H122.254V38.3016C122.254 37.3783 122.147 36.8628 121.932 36.7549C121.616 36.6468 121.285 36.5869 120.951 36.5771C120.403 36.5278 119.652 36.5033 118.699 36.5037C116.802 36.5037 115.724 36.6222 115.464 36.8592C115.324 37.0861 115.242 37.3446 115.227 37.6112C115.129 38.3153 115.086 39.026 115.099 39.7368L115.096 39.7333ZM99.9478 33.9994H110.687V36.7887H102.341V38.4H110.4V41.1893H102.341V42.9493H110.686V45.7386H99.4027V34H99.9461L99.9478 33.9994ZM87.7873 33.9994H90.1659V42.9475H98.0901V45.7327H87.2456V33.9994H87.789H87.7873ZM74.9375 33.9994H85.677V36.7887H77.3292V38.4H85.3884V41.1893H77.3333V42.9493H85.677V45.7386H74.3941V34L74.9375 33.9994ZM61.395 33.9994H73.04V36.7887H68.4219V45.7368H65.4815V36.7887H60.8504V33.9994H61.3926M35.8868 41.8808C35.8759 42.11 35.9107 42.3391 35.9893 42.5546C36.0198 42.6358 36.0803 42.7021 36.1582 42.7401C36.4864 42.832 36.8249 42.8824 37.1656 42.89C37.725 42.9295 38.4808 42.9493 39.4329 42.9493H39.4572C40.3899 42.9493 41.1465 42.928 41.7268 42.8853C41.8121 42.8794 41.8975 42.8722 41.9828 42.8651C42.2344 42.8527 42.4835 42.8097 42.7247 42.7371C42.7994 42.6975 42.8564 42.6313 42.8847 42.5517C42.9635 42.3351 42.9986 42.1051 42.9878 41.8749V33.8483H45.9259V41.8862C45.9435 42.5397 45.8636 43.1922 45.6889 43.8222C45.6575 43.92 45.6296 44.0029 45.5994 44.0711C45.456 44.4621 45.1828 44.7922 44.8255 45.0062C44.1971 45.3278 43.5105 45.5199 42.8065 45.5709C41.6862 45.6953 40.5594 45.7511 39.4323 45.738H39.4163C38.3085 45.7496 37.2008 45.7031 36.0978 45.5988C35.8359 45.5711 35.5751 45.5338 35.3156 45.4868C34.9165 45.4282 34.5298 45.3046 34.1707 45.1211C33.707 44.8324 33.3665 44.3824 33.2148 43.8577C33.02 43.2172 32.93 42.5495 32.9482 41.8802V33.8483H35.888V41.8797L35.8868 41.8808ZM47.4803 36.2435V34H59.5046V36.4148L59.3084 36.5795L51.7333 42.9505H59.5046V45.7404H47.1342V43.3238L47.3321 43.1585L54.9985 36.7899H47.4827V36.2429M0 42.5185C0.576156 42.3493 1.08202 41.998 1.44188 41.5173C1.80173 41.0366 1.9962 40.4523 1.9962 39.8518C1.9962 39.2513 1.80173 38.667 1.44188 38.1863C1.08202 37.7056 0.576156 37.3543 0 37.1851C0.41155 37.4973 0.745272 37.9005 0.975025 38.3631C1.20478 38.8257 1.32433 39.3353 1.32433 39.8518C1.32433 40.3683 1.20478 40.8779 0.975025 41.3405C0.745272 41.8031 0.41155 42.2063 0 42.5185ZM0.983109 43.9324C1.54036 43.9325 2.09173 43.8184 2.60324 43.5974C3.11476 43.3763 3.5756 43.0528 3.95737 42.6469C4.33915 42.241 4.63378 41.7612 4.82312 41.2371C5.01245 40.713 5.09249 40.1557 5.05829 39.5995C5.02409 39.0433 4.87638 38.5 4.62426 38.003C4.37214 37.5061 4.02094 37.066 3.5923 36.7099C3.16367 36.3538 2.66668 36.0892 2.13193 35.9325C1.59718 35.7757 1.03601 35.7301 0.482964 35.7985C1.47064 35.9217 2.37928 36.4014 3.03809 37.1475C3.69689 37.8936 4.06047 38.8547 4.06047 39.85C4.06047 40.8454 3.69689 41.8064 3.03809 42.5525C2.37928 43.2986 1.47064 43.7784 0.482964 43.9016C0.648896 43.922 0.815921 43.9323 0.983109 43.9324ZM2.41245 46.2957C4.12194 46.2957 5.76141 45.6166 6.9702 44.4078C8.17899 43.199 8.85807 41.5595 8.85807 39.85C8.85807 38.1405 8.17899 36.5011 6.9702 35.2923C5.76141 34.0835 4.12194 33.4044 2.41245 33.4044C2.14855 33.4042 1.88491 33.4209 1.62312 33.4542C3.18168 33.6496 4.61525 34.4073 5.65457 35.5851C6.69389 36.7628 7.26742 38.2796 7.26742 39.8503C7.26742 41.4211 6.69389 42.9378 5.65457 44.1156C4.61525 45.2933 3.18168 46.0511 1.62312 46.2465C1.88497 46.279 2.14859 46.2958 2.41245 46.2957ZM11.5556 51.7037C13.1704 51.6991 14.7673 51.3645 16.2482 50.7205C17.7291 50.0765 19.0627 49.1367 20.1673 47.9587C21.2719 46.7807 22.1241 45.3894 22.6716 43.8702C23.2192 42.351 23.4504 40.7359 23.3513 39.1241C23.2521 37.5123 22.8246 35.9377 22.095 34.4971C21.3654 33.0564 20.3491 31.7801 19.1084 30.7464C17.8678 29.7127 16.4289 28.9434 14.8803 28.4858C13.3316 28.0282 11.7058 27.8919 10.1025 28.0853C12.9696 28.4443 15.6069 29.8378 17.519 32.0042C19.431 34.1705 20.4861 36.9606 20.4861 39.85C20.4861 42.7395 19.431 45.5295 17.519 47.6959C15.6069 49.8622 12.9696 51.2558 10.1025 51.6148C10.5846 51.6737 11.0699 51.7033 11.5556 51.7037ZM4.47586 48.5161C5.65903 48.5166 6.82976 48.2749 7.91594 47.8057C9.00212 47.3365 9.98074 46.6499 10.7915 45.7882C11.6022 44.9264 12.2279 43.9078 12.63 42.795C13.032 41.6823 13.202 40.499 13.1294 39.318C13.0567 38.1371 12.7431 36.9835 12.2076 35.9285C11.6722 34.8734 10.9264 33.9391 10.0162 33.1832C9.106 32.4273 8.05063 31.8657 6.91515 31.5332C5.77966 31.2007 4.58811 31.1042 3.41392 31.2497C5.51007 31.5118 7.43834 32.5304 8.83635 34.1141C10.2344 35.6978 11.0059 37.7376 11.0059 39.85C11.0059 41.9625 10.2344 44.0022 8.83635 45.5859C7.43834 47.1696 5.51007 48.1882 3.41392 48.4503C3.76621 48.494 4.12087 48.516 4.47586 48.5161ZM7.37422 50.4432C10.1837 50.4432 12.8781 49.3271 14.8647 47.3405C16.8513 45.3539 17.9674 42.6595 17.9674 39.85C17.9674 37.0405 16.8513 34.3461 14.8647 32.3595C12.8781 30.3729 10.1837 29.2568 7.37422 29.2568C6.9402 29.2574 6.5066 29.2843 6.07585 29.3374C8.63785 29.6582 10.9946 30.9035 12.7031 32.8393C14.4117 34.7752 15.3546 37.2683 15.3546 39.8503C15.3546 42.4323 14.4117 44.9255 12.7031 46.8613C10.9946 48.7972 8.63785 50.0424 6.07585 50.3632C6.50661 50.4163 6.94021 50.443 7.37422 50.4432Z" fill="#01B4FF"/>
</g>
<defs>
<clipPath id="clip0_473_4972">
<rect width="160" height="23.7037" fill="white" transform="translate(0 28)"/>
</clipPath>
</defs>
</svg>
