<svg width="99" height="32" viewBox="0 0 99 32" fill="none" xmlns="http://www.w3.org/2000/svg">
<g clip-path="url(#clip0_1094_84)">
<path d="M6.26315 0H88.2142C89.1528 0 89.972 0.373872 90.4328 1.12161L98.6074 14.3261C99.2388 15.3627 99.1194 16.6203 98.232 17.6569L86.7124 30.8614C86.0809 31.5751 85.2618 32 84.3402 32H2.61102C0.989748 32 -0.170741 30.7424 0.0169849 29.162L3.05474 2.83802C3.24246 1.22358 4.64188 0 6.24608 0" fill="#878787"/>
<path d="M55.1573 22.6364L56.4202 12.5929C57.2735 12.0151 58.2463 11.5562 59.0654 11.5562C60.1406 11.5562 60.6696 12.3549 60.499 13.7315L59.3897 22.6534H63.2807L64.4924 12.9157L64.5266 12.6438C65.3799 12.066 66.3697 11.5732 67.2059 11.5732C68.2811 11.5732 68.8101 12.3719 68.6395 13.7485L67.5302 22.6704H71.4212L72.6329 12.9327C72.9572 10.2137 71.5578 8.56524 69.049 8.56524C67.3083 8.56524 65.4652 9.5509 64.2364 10.4516C63.7074 9.245 62.564 8.56524 60.9256 8.56524C59.2873 8.56524 57.7343 9.36396 56.4885 10.1797L56.6591 8.93911H53.0241L51.2833 22.6534H55.1744L55.1573 22.6364ZM78.1282 14.5132C78.5207 12.6948 79.8348 11.6412 81.456 11.6412C83.0773 11.6412 83.9648 12.5419 83.9648 14.0034C83.9648 14.1733 83.9647 14.3602 83.9477 14.5302H78.1282V14.5132ZM74.0494 16.3486C73.9982 19.7814 76.5069 22.9593 81.6267 22.9593C83.4528 22.9593 84.9887 22.6024 86.3711 21.7527L86.6441 18.5238C85.5178 19.2036 83.8112 19.6794 82.3264 19.6794C80.3638 19.6794 78.606 18.8297 78.1111 16.8584H87.6339C87.7705 16.5015 87.8899 15.6518 87.8899 14.8361C87.8899 11.2163 85.8761 8.58223 81.7462 8.58223C77.6162 8.58223 74.1177 11.0294 74.0665 16.3656M26.7594 18.6258C26.7594 17.1473 28.5002 16.5865 30.2921 16.5865H32.1182L31.8451 18.8127C31.0771 19.4245 29.6948 20.0533 28.5343 20.0533C27.4933 20.0533 26.7765 19.4755 26.7765 18.6258M22.8684 18.9317C22.8343 21.1579 24.6603 22.9593 27.4421 22.9593C29.4047 22.9593 30.8382 22.1266 31.6574 21.2259L31.4867 22.6194H35.2413L36.1458 15.193C36.5895 11.5222 35.3778 8.53125 30.6334 8.53125C28.705 8.53125 26.3669 8.9731 25.104 9.78882L24.7115 12.8648C25.7355 12.3209 27.7151 11.6412 29.5241 11.6412C31.7086 11.6412 32.4766 12.7288 32.3912 13.8674H30.0703C26.7082 13.8674 22.8855 15.159 22.8513 18.9147M12.0997 19.2886L12.953 12.5419C13.7893 11.8791 14.7108 11.6072 15.5471 11.6412C17.2025 11.6582 18.107 12.9837 18.107 15.04C18.107 17.7081 16.7076 19.9853 14.3354 19.9853C13.5845 19.9853 12.7312 19.7474 12.0997 19.3055M7.28711 27.1568H11.144L11.7755 21.9736C12.3899 22.4325 13.5162 22.9593 14.9498 22.9593C19.4211 22.9593 22.1346 19.0336 22.1346 14.7511C22.1346 11.0974 20.3938 8.54824 17.1513 8.54824C15.6153 8.54824 14.1988 9.04108 13.1237 9.92477L13.2602 8.90512H9.52276L7.28711 27.1399V27.1568ZM47.8189 8.92212L43.6377 18.4049L41.4533 8.92212H37.1527L40.9754 22.6704L38.7398 27.1738H42.9722L51.983 8.93911H47.8018L47.8189 8.92212Z" fill="white"/>
</g>
<defs>
<clipPath id="clip0_1094_84">
<rect width="99" height="32" fill="white"/>
</clipPath>
</defs>
</svg>
