<svg width="160" height="80" viewBox="0 0 160 80" fill="none" xmlns="http://www.w3.org/2000/svg">
<path d="M19.3335 35.3055C17.1319 25.5928 12.543 23.0072 11.3724 21.1794C10.8897 20.3742 10.4621 19.5373 10.0925 18.6743C10.0307 19.5372 9.91711 20.0807 9.1837 20.7351C7.71112 22.048 1.457 27.1445 0.930668 38.1802C0.44029 48.4695 8.49486 54.8142 9.55903 55.47C10.3773 55.8726 11.3739 55.4786 11.8599 55.109C15.7427 52.4443 21.0477 45.3403 19.3378 35.3055" fill="#10AA50"/>
<path d="M10.4258 49.9912C10.2231 52.538 10.0778 54.0178 9.56299 55.4731C9.56299 55.4731 9.90093 57.8977 10.1382 60.466H10.978C11.1784 58.6574 11.4842 56.8621 11.8941 55.0891C10.8069 54.5542 10.4675 52.226 10.4258 49.9912Z" fill="#B8C4C2"/>
<path d="M11.8926 55.0905C10.794 54.5828 10.4761 52.2057 10.4272 49.9911C10.699 46.338 10.7782 42.673 10.6645 39.0115C10.607 37.0903 10.6919 21.217 10.1914 18.8931C10.5337 19.6801 10.9282 20.4435 11.3721 21.1781C12.5426 23.0074 17.1329 25.593 19.3332 35.3056C21.0473 45.3232 15.7711 52.4085 11.8926 55.0905Z" fill="#12924F"/>
<path d="M156.705 51.5786C156.235 51.5786 155.775 51.4394 155.383 51.1787C154.992 50.918 154.686 50.5473 154.505 50.1133C154.323 49.6793 154.274 49.2013 154.363 48.7395C154.453 48.2776 154.677 47.8525 155.007 47.5175C155.337 47.1826 155.759 46.9528 156.22 46.8571C156.681 46.7613 157.159 46.8039 157.596 46.9794C158.032 47.1549 158.407 47.4555 158.673 47.8435C158.939 48.2314 159.085 48.6894 159.091 49.1598C159.1 49.477 159.044 49.7926 158.928 50.0878C158.811 50.3829 158.636 50.6515 158.413 50.8774C158.191 51.1033 157.924 51.2818 157.631 51.4023C157.337 51.5228 157.023 51.5828 156.705 51.5786ZM156.705 47.0228C156.275 47.02 155.854 47.1448 155.496 47.3814C155.137 47.618 154.856 47.9558 154.69 48.352C154.523 48.7482 154.477 49.1849 154.559 49.6069C154.641 50.029 154.846 50.4172 155.148 50.7226C155.451 51.0279 155.837 51.2366 156.258 51.3222C156.68 51.4078 157.117 51.3665 157.515 51.2035C157.912 51.0404 158.253 50.763 158.493 50.4064C158.733 50.0497 158.861 49.6299 158.862 49.2001C158.868 48.9143 158.816 48.6303 158.71 48.365C158.604 48.0996 158.446 47.8583 158.244 47.6552C158.043 47.4522 157.803 47.2916 157.539 47.183C157.275 47.0744 156.991 47.0199 156.705 47.0228ZM157.281 50.7014L156.665 49.3741H156.169V50.7014H155.808V47.6815H156.698C157.361 47.6815 157.637 47.9691 157.637 48.5256C157.637 48.9685 157.429 49.2446 157.04 49.3295L157.676 50.6971L157.281 50.7014ZM156.183 49.062H156.705C157.128 49.062 157.289 48.9182 157.289 48.5328C157.289 48.1474 157.135 48.0165 156.659 48.0165H156.183V49.062Z" fill="#21313C"/>
<path d="M121.198 49.4042C121.844 49.9204 123.134 50.1333 124.271 50.1333C125.745 50.1333 127.191 49.86 128.603 48.5845C130.041 47.2773 131.03 45.2769 131.03 42.083C131.03 39.0142 129.863 36.5235 127.467 35.0653C126.115 34.2154 124.363 33.8803 122.366 33.8803C121.791 33.8803 121.198 33.9105 120.862 34.063C120.724 34.1719 120.626 34.3237 120.584 34.4944C120.524 35.0408 120.524 39.2026 120.524 41.6631C120.524 44.1855 120.524 47.703 120.584 48.1344C120.616 48.4996 120.8 49.141 121.198 49.4099M115.066 32.5142C115.588 32.5142 117.573 32.6048 118.496 32.6048C120.222 32.6048 121.414 32.5142 124.639 32.5142C127.343 32.5142 129.618 33.2433 131.244 34.6396C133.212 36.3423 134.264 38.7108 134.264 41.5969C134.264 45.6983 132.395 48.0682 130.515 49.4042C128.646 50.802 126.214 51.5915 122.75 51.5915C120.906 51.5915 117.741 51.5311 115.099 51.5009H115.045C114.921 51.2578 115.271 50.3102 115.486 50.2857C116.205 50.2052 116.395 50.1764 116.726 50.0398C117.284 49.8111 117.415 49.5264 117.477 48.5241C117.569 46.6402 117.538 44.3925 117.538 41.84C117.538 40.018 117.569 36.4631 117.508 35.3385C117.415 34.398 117.018 34.155 116.214 33.9724C115.644 33.8513 115.068 33.7601 114.488 33.6991C114.428 33.5165 114.9 32.6925 115.053 32.5142" fill="#21313C"/>
<path d="M141.879 34.0558C141.757 34.086 141.603 34.3908 141.603 34.5418C141.571 35.6362 141.541 38.4908 141.541 40.4652C141.549 40.5029 141.568 40.5376 141.595 40.5647C141.622 40.5918 141.657 40.6102 141.695 40.6176C142.093 40.6478 143.077 40.6795 143.907 40.6795C145.074 40.6795 145.75 40.527 146.119 40.3444C147.102 39.8583 147.557 38.7942 147.557 37.6409C147.557 34.9977 145.713 33.9954 142.979 33.9954C142.61 33.9907 142.24 34.0109 141.873 34.0558M148.848 46.2074C148.848 43.534 146.881 42.0154 143.286 42.0154C143.133 42.0154 141.991 41.9852 141.719 42.0456C141.627 42.0758 141.535 42.1362 141.535 42.1981C141.535 44.1121 141.504 47.1795 141.597 48.3947C141.659 48.9109 142.029 49.64 142.487 49.8529C142.979 50.1261 144.085 50.1865 144.853 50.1865C146.973 50.1865 148.848 49.003 148.848 46.2074ZM136.328 32.5674C136.606 32.5674 137.423 32.658 139.512 32.658C141.478 32.658 143.076 32.5976 144.977 32.5976C147.342 32.5976 150.598 33.4489 150.598 36.9722C150.598 38.6978 149.37 40.1014 147.772 40.7701C147.68 40.8003 147.68 40.8607 147.772 40.8909C150.046 41.4661 152.042 42.8653 152.042 45.5387C152.042 48.1516 150.414 49.7925 148.048 50.825C146.61 51.4635 144.823 51.6749 143.015 51.6749C141.633 51.6749 137.929 51.5311 135.869 51.5541C135.654 51.4635 136.066 50.4899 136.251 50.3389C136.722 50.3244 137.19 50.251 137.644 50.1203C138.38 49.9391 138.468 49.7019 138.56 48.6075C138.622 47.6656 138.622 44.2933 138.622 41.8932C138.622 38.6115 138.654 36.3955 138.622 35.3011C138.592 34.4512 138.284 34.1766 137.7 34.0256C137.24 33.9335 136.472 33.8429 135.858 33.7523C135.704 33.5999 136.177 32.6882 136.33 32.5674" fill="#21313C"/>
<path d="M26.1365 51.5786C26.0574 51.3841 26.0254 51.1737 26.043 50.9645C26.0361 50.8219 26.0685 50.6802 26.1365 50.5547C26.5339 50.4974 26.9276 50.4172 27.3157 50.3145C27.8593 50.1793 28.0635 49.8831 28.0951 49.19C28.1843 47.552 28.1901 44.4789 28.1584 42.3189V42.2556C28.1584 42.0227 28.1584 41.7063 27.8708 41.4834C27.3653 41.1662 26.8165 40.924 26.2415 40.7644C25.9841 40.6881 25.8417 40.553 25.8489 40.3948C25.8561 40.2366 26.0186 40.0496 26.3537 39.9835C27.2438 39.8929 29.5763 39.3364 30.4924 38.9136C30.5867 39.0365 30.6304 39.1909 30.6146 39.345C30.6146 39.4399 30.6002 39.5406 30.5902 39.6441C30.5643 39.949 30.5355 40.2956 30.5355 40.6407C30.5412 40.6826 30.5584 40.7221 30.5853 40.7548C30.6121 40.7875 30.6476 40.812 30.6877 40.8256C30.7277 40.8392 30.7708 40.8413 30.812 40.8318C30.8532 40.8222 30.8909 40.8014 30.9209 40.7715C32.6653 39.404 34.2285 38.9165 35.0295 38.9165C36.3482 38.9165 37.3749 39.5463 38.1702 40.8435C38.1884 40.8748 38.2144 40.9009 38.2456 40.9193C38.2769 40.9376 38.3123 40.9477 38.3485 40.9484C38.3814 40.9481 38.4138 40.9399 38.4429 40.9243C38.4719 40.9088 38.4968 40.8865 38.5153 40.8593C40.1188 39.6427 41.7078 38.9165 42.772 38.9165C45.2857 38.9165 46.7885 40.7989 46.7885 43.9497C46.7885 44.8556 46.7799 46.0047 46.7712 47.076C46.764 48.0165 46.7568 48.898 46.7568 49.5078C46.7568 49.6516 46.9553 50.0657 47.253 50.1477C47.6211 50.3275 48.1518 50.4195 48.8233 50.5345H48.8492C48.8996 50.7157 48.7931 51.4189 48.691 51.5628C48.5242 51.5628 48.2941 51.5484 48.0065 51.534C47.4845 51.5081 46.7684 51.4722 45.9357 51.4722C44.2647 51.4722 43.3918 51.5038 42.5577 51.5584C42.4944 51.3499 42.4729 50.6769 42.5491 50.536C42.8945 50.482 43.2364 50.4075 43.573 50.3131C44.1051 50.1376 44.2589 49.896 44.292 49.19C44.305 48.6881 44.4013 44.266 44.2302 43.2163C44.072 42.1276 43.2523 40.8535 41.459 40.8535C40.7932 40.8535 39.719 41.1311 38.6951 41.9076C38.6316 41.9796 38.5959 42.0719 38.5944 42.1679V42.1895C38.7152 42.7561 38.7152 43.4176 38.7152 44.417C38.7152 44.9923 38.7152 45.5919 38.708 46.1916C38.7008 47.4111 38.6951 48.5615 38.7152 49.4315C38.7152 50.024 39.0733 50.1664 39.3623 50.28C39.5191 50.3145 39.6428 50.3447 39.7679 50.3735C40.008 50.4324 40.2583 50.4928 40.6307 50.5518C40.6858 50.8044 40.6809 51.0665 40.6163 51.3168C40.6011 51.4108 40.5642 51.4999 40.5085 51.5771C39.5795 51.5455 38.6261 51.5182 37.2498 51.5182C36.8328 51.5182 36.1526 51.5354 35.5515 51.5512C35.064 51.5642 34.6038 51.5771 34.3421 51.5786C34.2713 51.4115 34.2398 51.2305 34.25 51.0494C34.2353 50.8787 34.2687 50.7073 34.3464 50.5547L34.716 50.4871C35.0381 50.4296 35.3171 50.3807 35.5788 50.3145C36.0332 50.1707 36.2044 49.9234 36.2374 49.3438C36.3266 47.9921 36.3956 44.0963 36.2044 43.1213C35.8794 41.5567 34.9892 40.7629 33.5569 40.7629C32.7185 40.7629 31.6587 41.167 30.7929 41.8156C30.7097 41.8967 30.6441 41.9941 30.6003 42.1017C30.5565 42.2094 30.5354 42.325 30.5384 42.4411C30.5384 42.9056 30.5384 43.4578 30.5384 44.0503C30.5384 46.0061 30.5255 48.4407 30.5729 49.4934C30.6017 49.8184 30.7167 50.2038 31.325 50.3447C31.4588 50.3835 31.6889 50.4209 31.9563 50.4655C32.1102 50.4914 32.2785 50.5187 32.4525 50.5504C32.5078 50.8947 32.4797 51.2473 32.3705 51.5786C32.103 51.5786 31.7737 51.5613 31.3969 51.5455C30.8217 51.5196 30.1027 51.488 29.2902 51.488C28.3295 51.488 27.6608 51.5196 27.1245 51.5455C26.7635 51.5628 26.4514 51.5771 26.1394 51.5786" fill="#21313C"/>
<path d="M56.976 40.2167C56.457 40.2059 55.9464 40.3495 55.5092 40.6294C54.4422 41.278 53.8986 42.5737 53.8986 44.4776C53.8986 48.0412 55.6832 50.5304 58.2386 50.5304C58.9238 50.5522 59.5921 50.3155 60.111 49.8675C60.8962 49.2276 61.3132 47.9189 61.3132 46.0868C61.3132 42.5765 59.5688 40.2167 56.9731 40.2167M57.465 51.852C52.8488 51.852 51.2051 48.4654 51.2051 45.2973C51.2051 43.0842 52.1096 41.3542 53.8942 40.1534C55.1442 39.3796 56.579 38.9554 58.0488 38.9253C61.5706 38.9253 64.0311 41.4577 64.0311 45.0859C64.0311 47.5508 63.0489 49.4979 61.1895 50.7145C60.2965 51.261 58.7448 51.852 57.465 51.852Z" fill="#21313C"/>
<path d="M103.972 40.2167C103.452 40.2049 102.94 40.3486 102.502 40.6294C101.435 41.278 100.891 42.5737 100.891 44.4776C100.891 48.0412 102.676 50.5304 105.231 50.5304C105.919 50.5536 106.589 50.3169 107.11 49.8675C107.895 49.2276 108.31 47.9189 108.31 46.0868C108.31 42.5765 106.567 40.2167 103.972 40.2167ZM104.463 51.852C99.8473 51.852 98.2036 48.4654 98.2036 45.2988C98.2036 43.0827 99.1081 41.3542 100.894 40.1534C102.143 39.3791 103.578 38.9549 105.047 38.9253C108.569 38.9253 111.03 41.4592 111.03 45.0845C111.03 47.5522 110.047 49.4979 108.188 50.7131C107.295 51.261 105.743 51.852 104.463 51.852Z" fill="#21313C"/>
<path d="M88.4292 40.0957C87.0069 40.0957 86.0866 41.2188 86.0866 42.9574C86.0866 44.696 86.879 46.7625 89.1065 46.7625C89.489 46.7625 90.1822 46.5928 90.5259 46.2146C91.0436 45.7386 91.3887 44.755 91.3887 43.7167C91.3887 41.4489 90.2843 40.0957 88.4364 40.0957M88.2523 52.0948C87.8505 52.0905 87.4543 52.1895 87.1019 52.3824C85.9759 53.1015 85.4538 53.8205 85.4538 54.656C85.4538 55.4383 85.7573 56.061 86.4101 56.6132C87.2011 57.2834 88.2681 57.6098 89.6702 57.6098C92.4299 57.6098 93.6666 56.1257 93.6666 54.656C93.6666 53.6321 93.1532 52.9462 92.0962 52.5579C91.2823 52.2602 89.9219 52.0963 88.2566 52.0963M88.4407 59.1428C86.784 59.1428 85.5905 58.7933 84.5709 58.0081C83.5786 57.2431 83.1328 56.107 83.1328 55.3218C83.1435 54.8158 83.3366 54.3307 83.6764 53.9557C83.964 53.6278 84.6327 53.0138 86.1786 51.951C86.2026 51.9408 86.223 51.9238 86.2373 51.9021C86.2517 51.8803 86.2592 51.8548 86.2592 51.8288C86.2596 51.7997 86.2502 51.7714 86.2325 51.7484C86.2147 51.7254 86.1896 51.7091 86.1614 51.7022C84.8887 51.2147 84.5047 50.408 84.3882 49.9766C84.3882 49.9608 84.3882 49.9363 84.3753 49.909C84.3393 49.7393 84.3048 49.5782 84.5364 49.4129C84.7147 49.2863 84.9994 49.1166 85.3043 48.9369C85.7346 48.6986 86.1475 48.43 86.5396 48.133C86.5607 48.1103 86.5763 48.0832 86.5852 48.0535C86.5942 48.0239 86.5962 47.9926 86.5912 47.9621C86.5862 47.9316 86.5743 47.9026 86.5564 47.8774C86.5385 47.8521 86.515 47.8314 86.4878 47.8166C84.6039 47.1839 83.6548 45.7846 83.6548 43.6462C83.649 42.9794 83.8042 42.321 84.1071 41.727C84.41 41.1329 84.8518 40.6207 85.3949 40.2337C86.1527 39.634 88.0553 38.9136 89.2877 38.9136H89.3596C90.6265 38.9438 91.3413 39.2098 92.3306 39.5751C92.8934 39.7786 93.4898 39.8733 94.088 39.8541C95.1363 39.8541 95.595 39.5219 95.9891 39.135C96.053 39.3093 96.087 39.4931 96.0897 39.6786C96.1138 40.1208 95.9937 40.5588 95.7475 40.9269C95.5332 41.2245 95.0284 41.4402 94.5668 41.4402C94.5194 41.4402 94.4733 41.4402 94.423 41.4331C94.1801 41.416 93.9394 41.376 93.704 41.3137L93.5861 41.3554C93.5487 41.41 93.5731 41.4704 93.6033 41.5481C93.6107 41.5633 93.6165 41.5792 93.6206 41.5956C93.7048 41.9794 93.7619 42.3686 93.7917 42.7604C93.7917 44.9966 92.9102 45.9701 91.9567 46.692C91.0349 47.3837 89.9402 47.8077 88.793 47.9173C88.7686 47.9173 88.6492 47.9273 88.4249 47.9475C88.2811 47.9604 88.0941 47.9777 88.0668 47.9777H88.0395C87.8324 48.0352 87.2917 48.2926 87.2917 48.7715C87.2917 49.1684 87.5362 49.6616 88.7053 49.7508L89.4617 49.804C91.0033 49.9119 92.9289 50.0456 93.8349 50.3519C94.4358 50.5632 94.9549 50.9587 95.3181 51.482C95.6814 52.0054 95.8704 52.6299 95.8582 53.2669C95.8582 55.2729 94.4316 57.1597 92.043 58.313C90.9166 58.851 89.6832 59.1278 88.4349 59.1226" fill="#21313C"/>
<path d="M81.3738 50.5088C80.698 50.4182 80.2047 50.3262 79.6223 50.053C79.508 49.9346 79.4327 49.784 79.4066 49.6215C79.3447 48.6796 79.3447 45.9459 79.3447 44.1569C79.3447 42.6973 79.1003 41.4246 78.4819 40.5114C77.7442 39.4775 76.7001 38.8706 75.3484 38.8706C74.1505 38.8706 72.5528 39.6903 71.2326 40.8149C71.201 40.8451 70.9982 41.0378 71.0026 40.7386C71.0069 40.4395 71.0529 39.8327 71.0816 39.4444C71.0944 39.3412 71.0829 39.2365 71.0479 39.1386C71.0129 39.0407 70.9556 38.9524 70.8803 38.8807C70.0175 39.3121 67.5972 39.8873 66.7013 39.975C66.0484 40.1016 65.8831 40.73 66.5805 40.9472H66.5906C67.1489 41.1011 67.6818 41.3356 68.1724 41.6432C68.4486 41.856 68.4184 42.1594 68.4184 42.4025C68.4486 44.4373 68.4486 47.5666 68.3565 49.2678C68.3263 49.9365 68.1408 50.1795 67.649 50.3017L67.695 50.2859C67.3205 50.3798 66.9406 50.4509 66.5575 50.4988C66.4036 50.6498 66.4036 51.5313 66.5575 51.7139C66.8653 51.7139 68.427 51.6233 69.7212 51.6233C71.5016 51.6233 72.4234 51.7139 72.885 51.7139C73.0705 51.5011 73.1309 50.6814 73.0086 50.4988C72.5833 50.4795 72.1608 50.4183 71.7475 50.3161C71.2571 50.1953 71.1334 49.9509 71.1032 49.4058C71.0428 47.9764 71.0428 44.9392 71.0428 42.8727C71.0428 42.2975 71.1953 42.0228 71.3793 41.8661C71.9934 41.3196 73.0086 40.9558 73.8988 40.9558C74.7616 40.9558 75.3369 41.229 75.7683 41.5929C76.2708 42.0313 76.5858 42.6459 76.6484 43.3099C76.7706 44.4603 76.739 46.7742 76.739 48.7745C76.739 49.8689 76.6484 50.1436 76.2486 50.2644C76.0645 50.355 75.5727 50.447 74.9889 50.5074C74.8048 50.69 74.8652 51.5399 74.9889 51.7225C75.787 51.7225 76.7145 51.6319 78.0606 51.6319C79.7503 51.6319 80.8259 51.7225 81.2559 51.7225C81.44 51.5097 81.5018 50.7159 81.3796 50.5074" fill="#21313C"/>
</svg>
