<svg width="118" height="80" viewBox="0 0 118 80" fill="none" xmlns="http://www.w3.org/2000/svg">
<g clip-path="url(#clip0_221_1105)">
<g clip-path="url(#clip1_221_1105)">
<path d="M47.9017 52.8469C46.0555 62.8885 43.6215 70.194 40.5994 74.7326C38.2445 78.2408 35.6651 79.9949 32.8563 79.9949C32.1075 79.9949 31.1845 79.7688 30.0878 79.3194V76.8983C30.6231 76.9769 31.2513 77.0188 31.9728 77.0188C33.2832 77.0188 34.339 76.6557 35.1434 75.931C36.1055 75.0478 36.587 74.0557 36.587 72.9558C36.587 72.2044 36.2115 70.6622 35.4637 68.3299L30.4889 52.8419H34.9419L38.5115 64.426C39.3136 67.0555 39.6481 68.892 39.5142 69.9386C41.467 64.7087 42.8318 59.0103 43.6071 52.85H47.9002M28.2435 72.8783H23.7113C23.5519 65.2078 23.1099 57.9944 22.3878 51.2348H22.3479L15.4462 72.8783H11.9945L5.13485 51.2348H5.09444C4.58549 57.7246 4.2652 64.9364 4.13179 72.8783H-0.00146484C0.265525 63.2227 0.934048 54.1745 2.00298 45.7271H7.62058L14.1605 65.6746H14.2006L20.7808 45.7271H26.1562C27.3331 55.6217 28.0282 64.6731 28.2414 72.8783" fill="#00758F"/>
<path d="M108.245 72.8755H95.3668V45.7242H99.7003V69.532H108.245V72.8722M75.8602 67.4404C74.7634 65.6701 74.2144 62.8306 74.2144 58.9138C74.2144 52.0768 76.2883 48.6558 80.4328 48.6558C82.6004 48.6558 84.1914 49.4741 85.2073 51.1093C86.3029 52.8795 86.8516 55.6964 86.8516 59.5583C86.8516 66.4503 84.7777 69.8987 80.6331 69.8987C78.4671 69.8987 76.8746 69.0814 75.8602 67.4436M91.9878 73.5296L87.0098 71.0681C87.4531 70.7037 87.874 70.3104 88.255 69.8552C90.3693 67.3646 91.4256 63.6772 91.4256 58.7945C91.4256 49.8108 87.9077 45.3174 80.8736 45.3174C77.4236 45.3174 74.7343 46.4566 72.809 48.7383C70.6947 51.2322 69.6384 54.9067 69.6384 59.7603C69.6384 64.5332 70.5739 68.0349 72.4456 70.259C74.1512 72.2699 76.7307 73.2762 80.1855 73.2762C81.474 73.2762 82.6568 73.1171 83.7309 72.7989L90.2126 76.5817L91.9796 73.529M67.7519 65.3481C67.7519 67.6513 66.9081 69.5411 65.2257 71.0206C63.5427 72.4933 61.2798 73.2318 58.4484 73.2318C55.7995 73.2318 53.233 72.382 50.7456 70.6959L51.909 68.3636C54.0491 69.4363 55.9857 69.9719 57.7237 69.9719C59.355 69.9719 60.631 69.608 61.5549 68.8889C62.4764 68.1646 63.0286 67.1542 63.0286 65.8733C63.0286 64.2611 61.9072 62.8836 59.8499 61.7272C57.9505 60.682 54.1548 58.5 54.1548 58.5C52.0986 56.9956 51.0665 55.3811 51.0665 52.7225C51.0665 50.5226 51.8355 48.7443 53.3714 47.3924C54.9108 46.0369 56.8974 45.3589 59.3298 45.3589C61.8447 45.3589 64.1301 46.0316 66.1895 47.373L65.1437 49.7037C63.3815 48.9548 61.6452 48.5789 59.9315 48.5789C58.5416 48.5789 57.4699 48.9136 56.7237 49.5866C55.9728 50.2539 55.5086 51.1127 55.5086 52.1596C55.5086 53.7677 56.6544 55.1622 58.7697 56.3413C60.6934 57.387 64.5827 59.6121 64.5827 59.6121C66.6986 61.1137 67.7533 62.7148 67.7533 65.3524" fill="#F29111"/>
<path d="M111.33 72.8756H112.048V70.1137H112.987V69.5493H110.353V70.1137H111.329L111.33 72.8756ZM116.794 72.8756H117.471V69.5483H116.453L115.624 71.8161L114.722 69.5483H113.742V72.8756H114.382V70.343H114.418L115.363 72.8756H115.851L116.794 70.343L116.794 72.8756Z" fill="#F29111"/>
<path d="M72.2264 -4.61368e-05C71.0814 -0.0171186 70.083 0.415379 69.5678 1.68297C68.6841 3.81663 70.8767 5.91475 71.6304 6.99854C72.1862 7.75219 72.9065 8.60662 73.2973 9.45846C73.5266 10.0165 73.5928 10.6082 73.8228 11.198C74.3458 12.6413 74.8356 14.2491 75.5236 15.5962C75.8824 16.2852 76.2745 17.0075 76.7326 17.6281C76.9968 17.9911 77.4533 18.153 77.552 18.7453C77.0954 19.4007 77.0597 20.3847 76.7983 21.2068C75.621 24.9137 76.0781 29.5072 77.7477 32.2304C78.2699 33.0505 79.5147 34.8551 81.1848 34.1654C82.6572 33.5759 82.3298 31.7055 82.755 30.0661C82.8528 29.6696 82.7874 29.4095 82.9832 29.1474V29.2136C83.4411 30.1309 83.9006 31.0145 84.3257 31.9368C85.3415 33.5428 87.1071 35.2156 88.5801 36.3301C89.3632 36.9229 89.9856 37.9383 90.9674 38.3006V38.2013H90.9029C90.7057 37.9068 90.4119 37.7749 90.1497 37.5463C89.561 36.9553 88.9085 36.233 88.449 35.5774C87.0752 33.741 85.8631 31.7058 84.7857 29.6061C84.2606 28.5866 83.8034 27.4724 83.3776 26.4565C83.1818 26.0646 83.1817 25.4724 82.8538 25.2759C82.3617 25.997 81.6437 26.6209 81.2843 27.5033C80.6622 28.9158 80.5971 30.6545 80.3663 32.4587C80.2362 32.4929 80.3019 32.459 80.2362 32.5243C79.1904 32.262 78.8304 31.1793 78.4369 30.263C77.4553 27.9307 77.2903 24.1899 78.1424 21.5007C78.3703 20.8129 79.355 18.6482 78.9605 17.9909C78.7627 17.3648 78.1087 17.0072 77.7493 16.513C77.325 15.8898 76.8645 15.1037 76.573 14.4132C75.7872 12.5768 75.3923 10.5416 74.5443 8.70517C74.1513 7.85074 73.4625 6.96562 72.9081 6.17903C72.2851 5.29294 71.599 4.6698 71.1072 3.62058C70.945 3.25894 70.7158 2.66762 70.9765 2.27513C71.0409 2.01218 71.1738 1.91365 71.4359 1.84776C71.8589 1.48676 73.0705 1.94517 73.4953 2.1422C74.7068 2.63289 75.721 3.09435 76.7337 3.78161C77.1923 4.1103 77.6833 4.73409 78.2714 4.89948H78.9601C80.0067 5.12738 81.1858 4.96297 82.1678 5.25951C83.9009 5.81674 85.4709 6.63693 86.8793 7.52238C91.1644 10.2456 94.6984 14.1188 97.0857 18.7431C97.4793 19.4967 97.6443 20.1859 98.0037 20.972C98.691 22.5828 99.543 24.2234 100.229 25.7966C100.916 27.3387 101.571 28.9122 102.554 30.1931C103.043 30.8808 105.007 31.2418 105.891 31.603C106.544 31.8973 107.559 32.1601 108.149 32.5204C109.261 33.2081 110.371 33.9968 111.419 34.7526C111.942 35.1464 113.577 35.9657 113.676 36.623C111.058 36.5573 109.03 36.8198 107.329 37.5423C106.838 37.7389 106.053 37.7387 105.986 38.3622C106.25 38.6241 106.282 39.0507 106.512 39.4132C106.904 40.0692 107.589 40.9537 108.213 41.4144C108.9 41.9396 109.587 42.4626 110.308 42.9218C111.583 43.7126 113.023 44.17 114.265 44.9569C114.987 45.4157 115.705 46.0058 116.426 46.4993C116.785 46.7616 117.012 47.1888 117.472 47.3511V47.2512C117.241 46.9568 117.177 46.5307 116.949 46.2007C116.623 45.8751 116.295 45.5781 115.967 45.2513C115.018 43.9719 113.838 42.8576 112.565 41.9386C111.517 41.2148 109.225 40.2297 108.802 39.0199C108.802 39.0199 108.767 38.9854 108.735 38.9531C109.455 38.8866 110.308 38.6236 110.995 38.4247C112.106 38.1302 113.12 38.1964 114.266 37.9021C114.79 37.7699 115.314 37.6053 115.839 37.4441V37.1467C115.247 36.5575 114.824 35.7685 114.203 35.2117C112.536 33.7687 110.701 32.3593 108.804 31.1754C107.788 30.519 106.479 30.0947 105.399 29.536C105.008 29.3388 104.354 29.2417 104.124 28.9117C103.535 28.1902 103.206 27.24 102.782 26.3856C101.834 24.583 100.916 22.5818 100.099 20.6759C99.5101 19.3973 99.1501 18.1191 98.4303 16.9368C95.0578 11.3579 91.3946 7.98056 85.7673 4.66621C84.5564 3.97636 83.1168 3.68175 81.5807 3.32076C80.7614 3.28641 79.9446 3.22236 79.1257 3.19013C78.6014 2.95948 78.0766 2.33537 77.6193 2.04028C76.4532 1.30246 74.137 0.0261436 72.2295 -0.00292969L72.2264 -4.61368e-05ZM80.2991 8.10979C79.7439 8.10979 79.3523 8.17727 78.9572 8.2747V8.34032H79.021C79.2853 8.86396 79.7441 9.22786 80.0685 9.68641C80.3321 10.2115 80.5613 10.7343 80.8228 11.2601C80.8549 11.2278 80.886 11.1939 80.886 11.1939C81.3475 10.8673 81.5765 10.3427 81.5765 9.55447C81.3787 9.32318 81.3478 9.09527 81.1827 8.86463C80.987 8.53723 80.5614 8.37258 80.2991 8.10979Z" fill="#00758F"/>
</g>
</g>
<defs>
<clipPath id="clip0_221_1105">
<rect width="118" height="80" fill="white"/>
</clipPath>
<clipPath id="clip1_221_1105">
<rect width="117.482" height="80" fill="white"/>
</clipPath>
</defs>
</svg>
