<svg width="78" height="80" viewBox="0 0 78 80" fill="none" xmlns="http://www.w3.org/2000/svg">
<g clip-path="url(#clip0_221_1079)">
<g clip-path="url(#clip1_221_1079)">
<path d="M58.0543 58.2383C58.5632 53.9991 58.4107 53.3774 61.5683 54.0641L62.3699 54.1345C64.7978 54.245 67.9739 53.744 69.8398 52.8772C73.8565 51.0134 76.2382 47.9017 72.2776 48.7193C63.2432 50.583 62.6221 47.5239 62.6221 47.5239C72.1619 33.3693 76.1499 15.4013 72.7076 11.0031C63.3188 -0.993607 47.0671 4.67935 46.7952 4.82664L46.7086 4.84263C44.9235 4.47225 42.9258 4.25096 40.6816 4.21467C36.5933 4.1475 33.491 5.28647 31.1378 7.07136C31.1378 7.07136 2.1456 -4.87305 3.49437 22.0927C3.78123 27.8291 11.7169 65.4989 21.1816 54.1208C24.6409 49.9603 27.984 46.4424 27.984 46.4424C29.6441 47.5453 31.6316 48.1079 33.7161 47.9058L33.8772 47.7684C33.8267 48.285 33.849 48.7902 33.9417 49.3884C31.5039 52.1127 32.2202 52.591 27.3455 53.5944C22.4136 54.6109 25.3111 56.4205 27.2023 56.8935C29.4957 57.467 34.8012 58.2794 38.3869 53.2608L38.2442 53.8335C39.2006 54.5986 39.136 59.3333 39.2716 62.7161C39.4074 66.099 39.6339 69.2559 40.3234 71.1171C41.013 72.978 41.8267 77.772 48.2332 76.399C53.5875 75.2516 57.6813 73.6004 58.0543 58.2383Z" fill="black" stroke="black" stroke-width="6"/>
<path d="M72.2784 48.7187C63.2431 50.5825 62.622 47.5233 62.622 47.5233C72.1618 33.3678 76.1498 15.3994 72.7082 11.0018C63.3195 -0.994197 47.067 4.67912 46.7958 4.82641L46.7085 4.84204C44.9234 4.47148 42.9257 4.25073 40.6804 4.21409C36.5921 4.14709 33.4909 5.28588 31.1377 7.07041C31.1377 7.07041 2.14496 -4.87346 3.49337 22.0921C3.78023 27.8288 11.7157 65.4987 21.1808 54.1206C24.6403 49.9601 27.9829 46.4422 27.9829 46.4422C29.6431 47.5451 31.6306 48.1076 33.7142 47.9056L33.876 47.7682C33.8257 48.2847 33.8487 48.79 33.9409 49.3882C31.5025 52.1125 32.219 52.5908 27.3447 53.5941C22.4125 54.6106 25.3099 56.4203 27.2017 56.8932C29.4951 57.4668 34.8009 58.2792 38.3859 53.2606L38.243 53.8332C39.1984 54.5984 39.8693 58.8107 39.7568 62.6291C39.6444 66.4476 39.5693 69.0692 40.3221 71.1169C41.0749 73.1645 41.8251 77.7718 48.2329 76.3988C53.5872 75.2514 56.3619 72.2779 56.7479 67.3181C57.0218 63.7919 57.6416 64.3132 57.6808 61.1607L58.178 59.6682C58.7513 54.8883 58.2691 53.3463 61.5678 54.0635L62.3694 54.1339C64.7974 54.2444 67.975 53.7434 69.84 52.8766C73.856 51.0128 76.2381 47.9011 72.2784 48.7187Z" fill="#336791"/>
<path d="M38.7743 51.4585C38.5255 60.3526 38.8368 69.3087 39.7071 71.4853C40.5779 73.6619 42.4414 77.8956 48.8498 76.5228C54.2035 75.375 56.1515 73.1538 56.9968 68.2511C57.6194 64.6439 58.8196 54.6261 58.9735 52.5736" stroke="white" stroke-width="2" stroke-linecap="round" stroke-linejoin="round"/>
<path d="M31.0931 6.87186C31.0931 6.87186 2.08063 -4.98599 3.4294 21.9796C3.71625 27.7163 11.6523 65.3874 21.1172 54.0088C24.576 49.8477 27.7041 46.5842 27.7041 46.5842" stroke="white" stroke-width="2" stroke-linecap="round" stroke-linejoin="round"/>
<path d="M46.7639 4.70751C45.7597 5.02238 62.9025 -1.55928 72.6449 10.8895C76.0863 15.2873 72.0983 33.2557 62.5587 47.4116" stroke="white" stroke-width="2" stroke-linecap="round" stroke-linejoin="round"/>
<path d="M62.5587 47.4116C62.5587 47.4116 63.1804 50.4716 72.2159 48.6066C76.1747 47.789 73.7922 50.9011 69.7771 52.7657C66.482 54.295 59.0944 54.6869 58.9737 52.5737C58.6631 47.1213 62.8618 48.7778 62.5587 47.4116ZM62.5587 47.4116C62.2848 46.1812 60.4072 44.9736 59.1652 41.9622C58.0808 39.3339 44.2933 19.1775 62.9887 22.1711C63.6736 22.0294 58.1128 4.38829 40.6164 4.10144C23.1241 3.81459 23.698 25.6132 23.698 25.6132" stroke="white" stroke-width="2" stroke-linecap="round" stroke-linejoin="bevel"/>
<path d="M33.8774 49.2765C31.4387 52.0006 32.1559 52.4789 27.2812 53.4826C22.349 54.4993 25.2468 56.3086 27.138 56.7814C29.4314 57.3553 34.7372 58.1677 38.3223 53.1478C39.414 51.6194 38.3158 49.1807 36.8161 48.5591C36.0916 48.2589 35.1227 47.8828 33.8774 49.2765Z" stroke="white" stroke-width="2" stroke-linecap="round" stroke-linejoin="round"/>
<path d="M33.7175 49.2286C33.4718 47.627 34.2438 45.721 35.0712 43.4912C36.3145 40.1456 39.1832 36.7994 36.8884 26.1867C35.1779 18.2782 23.7049 24.5408 23.6978 25.6132C23.6908 26.6852 24.2167 31.0485 23.5061 36.1296C22.5789 42.76 27.725 48.3675 33.6509 47.7938" stroke="white" stroke-width="2" stroke-linecap="round" stroke-linejoin="round"/>
<path d="M30.9875 25.4525C30.9357 25.8187 31.658 26.796 32.5998 26.9266C33.5399 27.0577 34.3446 26.294 34.3956 25.9281C34.4466 25.5618 33.7253 25.1584 32.7831 25.0273C31.8425 24.896 31.0374 25.0871 30.9877 25.4525H30.9875Z" fill="white" stroke="white"/>
<path d="M59.6237 24.7058C59.6747 25.072 58.9534 26.0494 58.0114 26.1799C57.0706 26.3111 56.2659 25.5473 56.2143 25.1814C56.1646 24.8152 56.8861 24.4118 57.8272 24.2806C58.7682 24.1495 59.5727 24.3405 59.6237 24.706V24.7058Z" fill="white" stroke="white"/>
<path d="M62.9889 22.1709C63.1439 25.0438 62.3701 27.0005 62.2726 30.0588C62.1282 34.504 64.392 39.592 60.981 44.6862" stroke="white" stroke-width="2" stroke-linecap="round" stroke-linejoin="round"/>
</g>
</g>
<defs>
<clipPath id="clip0_221_1079">
<rect width="78" height="80" fill="white"/>
</clipPath>
<clipPath id="clip1_221_1079">
<rect width="77.6089" height="80" fill="white"/>
</clipPath>
</defs>
</svg>
