<svg width="160" height="80" viewBox="0 0 160 80" fill="none" xmlns="http://www.w3.org/2000/svg">
<g clip-path="url(#clip0_221_1093)">
<path d="M60.8603 39.1406C58.7333 39.1406 57.0037 39.7702 55.6778 41.0289C54.3518 42.2887 53.6792 43.94 53.6792 45.9633C53.6792 47.0119 53.8463 47.968 54.1754 48.844C54.5046 49.7219 55.0168 50.5351 55.7054 51.2699C56.394 52.0054 57.7723 53.0044 59.8266 54.2746C62.3472 55.8135 63.9968 57.0623 64.7885 58.0375C65.5808 59.0118 65.9739 60.0328 65.9739 61.0974C65.9739 62.5227 65.5047 63.6604 64.5404 64.5156C63.5745 65.3712 62.2827 65.7974 60.6811 65.7974C58.9918 65.7974 57.5203 65.202 56.2567 64.0194C54.993 62.8351 54.3552 61.2688 54.3408 59.3055H53.5552V66.4315H54.3408C54.5807 65.7567 54.9126 65.4115 55.347 65.4115C55.556 65.4115 56.0455 65.5556 56.808 65.825C58.6633 66.4851 60.1866 66.8036 61.3841 66.8036C63.4477 66.8036 65.2092 66.0809 66.6768 64.6121C68.1423 63.1439 68.8822 61.373 68.8822 59.3055C68.8822 57.7024 68.3937 56.276 67.4349 55.0327C66.4762 53.7879 64.6116 52.34 61.8251 50.6772C59.4274 49.2366 57.871 48.0634 57.1526 47.1487C56.4331 46.2354 56.0637 45.2251 56.0637 44.1164C56.0637 42.9172 56.5042 41.9541 57.3731 41.2357C58.242 40.5167 59.3805 40.1606 60.8052 40.1606C62.4084 40.1606 63.7449 40.6364 64.8023 41.594C65.8587 42.5534 66.4695 43.8827 66.6493 45.5912H67.4349V39.4163H66.7044C66.6151 39.7311 66.5324 39.9323 66.4563 40.0228C66.3824 40.1126 66.2402 40.1606 66.029 40.1606C65.7749 40.1606 65.3217 40.0536 64.6783 39.8436C63.2999 39.3794 62.0291 39.1406 60.8603 39.1406ZM86.5385 39.1406C83.9467 39.1406 81.5936 39.7515 79.4677 40.9738C77.3385 42.1939 75.653 43.8881 74.4092 46.046C73.166 48.2038 72.5485 50.4954 72.5485 52.9377C72.5485 56.2187 73.6225 59.1418 75.7876 61.7038C77.9537 64.2643 80.5494 65.8597 83.5613 66.4728C84.2499 66.8316 85.2352 67.7579 86.5247 69.257C87.978 70.9489 89.2075 72.1692 90.2186 72.8958C91.2287 73.6229 92.3192 74.1557 93.4715 74.5085C94.6249 74.8597 95.872 75.0322 97.2205 75.0322C98.8536 75.0322 100.316 74.7484 101.604 74.1639L101.314 73.4472C100.567 73.7168 99.7693 73.8469 98.9297 73.8469C97.7901 73.8469 96.6383 73.4711 95.4838 72.7166C94.331 71.9603 92.8893 70.5173 91.1697 68.3887C90.3614 67.3687 89.8035 66.7252 89.4881 66.4728C92.7834 65.8293 95.4932 64.2322 97.6065 61.6762C99.7192 59.1214 100.777 56.2056 100.777 52.9377C100.777 49.0575 99.3961 45.7965 96.6554 43.1378C93.9126 40.4788 90.5395 39.1406 86.5385 39.1406ZM102.568 39.1406L102.61 39.9814C104.335 39.9814 105.302 40.4897 105.518 41.5113C105.599 41.8769 105.635 42.5518 105.642 43.5237L105.628 62.1173C105.614 63.506 105.416 64.3927 105.036 64.7775C104.655 65.1596 104.011 65.3988 103.078 65.4942L103.037 66.335H120.239L120.68 62.1173H119.894C119.67 63.2663 119.155 64.0894 118.337 64.5569C117.516 65.028 116.064 65.2599 113.967 65.2599H112.341C110.454 65.2599 109.363 64.5778 109.074 63.2062C109.015 62.9348 108.994 62.6439 108.991 62.3241L109.06 43.5237C109.06 42.1372 109.235 41.2081 109.598 40.7533C109.965 40.3001 110.626 40.0465 111.583 39.9814L111.541 39.1406H102.568ZM86.8142 40.1606C89.7373 40.1606 92.124 41.3119 93.9677 43.634C95.8108 45.9569 96.7243 49.1406 96.7243 53.172C96.7243 56.9921 95.7976 60.0509 93.9401 62.3516C92.0827 64.6517 89.6105 65.7974 86.5385 65.7974C83.5872 65.7974 81.1939 64.6159 79.3574 62.2414C77.5226 59.8668 76.6146 56.7839 76.6146 52.9928C76.6146 49.0971 77.5336 45.9786 79.385 43.6478C81.2353 41.3194 83.7129 40.1606 86.8142 40.1606ZM126.372 44.1577C125.953 44.1577 125.633 44.2994 125.394 44.585C125.149 44.8695 125.074 45.2141 125.159 45.6325C125.242 46.0385 125.471 46.3943 125.835 46.6939C126.196 46.9932 126.587 47.1487 127.006 47.1487C127.412 47.1487 127.721 46.9932 127.943 46.6939C128.166 46.3943 128.233 46.0385 128.15 45.6325C128.065 45.2141 127.844 44.8695 127.502 44.585C127.157 44.2994 126.778 44.1577 126.372 44.1577ZM137.716 47.0109C137.003 49.7533 135.458 51.2374 133.085 51.4766L133.112 52.2623H135.883L135.827 61.5522C135.832 63.1405 135.88 64.1979 135.993 64.7361C136.266 66.0246 137.107 66.6796 138.515 66.6796C140.552 66.6796 142.689 65.4386 144.924 62.9581L144.249 62.3792C142.635 64.0127 141.208 64.8326 139.962 64.8326C139.197 64.8326 138.722 64.3922 138.543 63.5232C138.494 63.3122 138.474 63.0655 138.474 62.7789L138.501 52.2623H142.733L142.692 51.008H138.515V47.0109H137.716ZM154.076 50.5118C151.71 50.5118 149.784 51.6608 148.288 53.9438C146.798 56.2308 146.337 58.7645 146.923 61.5522C147.268 63.1851 147.954 64.4506 149.004 65.3426C150.053 66.2342 151.383 66.6796 152.974 66.6796C154.455 66.6796 156.517 66.3046 157.384 65.5493C158.254 64.7945 159.056 63.5717 159.797 61.8968L159.204 61.2765C158.023 63.4493 155.64 64.5432 153.842 64.5432C151.371 64.5432 149.858 63.1874 149.294 60.4909C149.22 60.1467 149.166 59.7769 149.128 59.3882C152.068 58.9228 154.296 58.0986 155.799 56.9072C157.302 55.7152 158.81 54.4517 158.528 53.1168C158.361 52.3236 157.949 51.7 157.316 51.2285C156.674 50.7573 155.008 50.5118 154.076 50.5118ZM128.205 50.6083L123.105 51.7799V52.6896L124.87 52.469C125.724 52.469 126.227 52.856 126.386 53.6268C126.439 53.8848 126.473 54.2471 126.482 54.7019L126.427 63.0408C126.413 64.1947 126.285 64.8655 126.028 65.0669C125.768 65.2687 125.083 65.3702 123.974 65.3702L123.946 66.1558H132.037L132.023 65.3702C130.899 65.3702 130.17 65.2815 129.846 65.1083C129.526 64.9362 129.306 64.6231 129.212 64.1435C129.138 63.7978 129.106 63.2023 129.101 62.3792L129.129 50.6083H128.205ZM152.781 52.152C153.273 52.152 153.749 52.3422 154.228 52.7171C154.701 53.0908 154.988 53.5063 155.083 53.9576C155.544 56.1746 153.579 57.7073 149.156 58.5612C149.03 56.9447 149.31 55.4772 150.024 54.1506C150.733 52.8252 151.657 52.152 152.781 52.152Z" fill="#003B57"/>
<path d="M49.4369 7.30322H5.54832C2.60686 7.30322 0.200195 9.71033 0.200195 12.6517V61.0525C0.200195 63.9937 2.60686 66.4004 5.54832 66.4004H34.4545C34.1264 52.0177 39.0379 24.1052 49.4369 7.30322Z" fill="#0F80CC"/>
<path d="M47.8421 8.86377H5.54801C3.45941 8.86377 1.75977 10.563 1.75977 12.652V57.5215C11.3385 53.8452 25.7149 50.6731 35.6554 50.8172C37.6529 40.3724 43.5237 19.9028 47.8421 8.86377Z" fill="url(#paint0_linear_221_1093)"/>
<path d="M59.674 5.71916C56.6682 3.0386 53.0289 4.11534 49.4369 7.30314C48.9038 7.77673 48.3718 8.30215 47.8425 8.8634C41.6979 15.3818 35.9944 27.4559 34.2224 36.6769C34.9127 38.0767 35.4519 39.8631 35.807 41.2276C35.8979 41.5777 35.9801 41.9063 36.0457 42.1858C36.2017 42.8474 36.2855 43.2763 36.2855 43.2763C36.2855 43.2763 36.2304 43.0679 36.0043 42.4124C35.9613 42.2867 35.9134 42.1494 35.8566 41.9879C35.8323 41.9212 35.7987 41.8401 35.7617 41.7536C35.3609 40.8218 34.2522 38.8552 33.7643 37.999C33.3469 39.2301 32.9781 40.3819 32.6693 41.4239C34.078 44.0012 34.9364 48.4182 34.9364 48.4182C34.9364 48.4182 34.862 48.1319 34.508 47.1328C34.1938 46.2492 32.6285 43.5068 32.2578 42.8657C31.6235 45.207 31.3715 46.7878 31.5988 47.1727C32.04 47.9185 32.4602 49.2053 32.8292 50.6284C33.6628 53.8343 34.2423 57.7371 34.2423 57.7371C34.2423 57.7371 34.261 57.9958 34.2925 58.3938C34.1767 61.086 34.2461 63.8773 34.4545 66.4003C34.7308 69.7402 35.2507 72.6093 35.9134 74.1448L36.3632 73.8995C35.3902 70.8743 34.9948 66.9097 35.168 62.3375C35.4298 55.3488 37.0381 46.9207 40.0097 38.1363C45.0302 24.8757 51.9957 14.2361 58.3707 9.15505C52.5602 14.4026 44.6961 31.3886 42.3419 37.6787C39.706 44.7225 37.8381 51.3324 36.7122 57.6654C38.6546 51.7283 44.9348 49.1762 44.9348 49.1762C44.9348 49.1762 48.0151 45.3774 51.6147 39.9502C49.4584 40.4419 45.9178 41.2838 44.7319 41.7822C42.9825 42.5161 42.5111 42.7664 42.5111 42.7664C42.5111 42.7664 48.1777 39.3156 53.0393 37.7531C59.7253 27.2227 67.0095 12.2629 59.674 5.71916Z" fill="#003B57"/>
</g>
<defs>
<linearGradient id="paint0_linear_221_1093" x1="28.3316" y1="9.85952" x2="28.3316" y2="54.8155" gradientUnits="userSpaceOnUse">
<stop stop-color="#97D9F6"/>
<stop offset="0.920245" stop-color="#0F80CC"/>
<stop offset="1" stop-color="#0F80CC"/>
</linearGradient>
<clipPath id="clip0_221_1093">
<rect width="160" height="71.5789" fill="white" transform="translate(0 4)"/>
</clipPath>
</defs>
</svg>
