<svg width="100" height="80" viewBox="0 0 100 80" fill="none" xmlns="http://www.w3.org/2000/svg">
<g clip-path="url(#clip0_221_1099)">
<g clip-path="url(#clip1_221_1099)">
<path d="M67.6754 25.4741L56.754 29.0514L47.2418 33.2519L44.586 33.9565C43.9085 34.6069 43.2039 35.2573 42.418 35.9077C41.5779 36.6394 40.792 37.2898 40.1957 37.7776C39.5182 38.3197 38.5426 39.2953 38.0277 39.9186C37.2689 40.8671 36.6727 41.8698 36.4288 42.6286C35.9681 44.0107 36.1849 45.4199 37.0792 46.7207C38.1903 48.3738 40.4396 50.0541 43.0413 51.1923C44.3692 51.7885 46.6185 52.5202 48.2987 52.9538C51.0901 53.6584 56.5101 54.4443 59.4911 54.5527C60.0873 54.5798 60.9004 54.5798 60.9275 54.5527C60.9817 54.4985 61.4695 53.6313 61.9844 52.5202C63.8272 48.7804 65.128 45.2573 65.8597 42.2763C66.2933 40.4606 66.6185 38.0486 66.8624 35.176C66.9166 34.363 66.9437 31.6801 66.8895 30.7858C66.8082 29.2953 66.6727 28.1028 66.483 26.9104C66.4559 26.7478 66.4288 26.5852 66.4559 26.5852C66.483 26.5581 66.5914 26.531 67.9464 26.1516L67.6754 25.4741ZM65.1822 26.9375C65.2906 26.9375 65.5345 29.485 65.6158 31.0839C65.6429 31.4091 65.6158 31.653 65.6158 31.653C65.5616 31.653 64.2337 30.8671 63.2581 30.2709C62.4451 29.756 60.8733 28.6991 60.6293 28.5094C60.548 28.4552 60.5481 28.4552 61.2256 28.2113C62.3638 27.8047 65.0738 26.9375 65.1822 26.9375ZM59.5995 28.7804C59.6808 28.7804 59.8705 28.8888 60.3312 29.1598C62.0386 30.2167 64.3421 31.5175 65.3448 31.9511C65.6429 32.0866 65.67 32.0324 64.9925 32.5202C63.502 33.55 61.605 34.5527 59.3285 35.5554C58.922 35.7451 58.5968 35.8806 58.5697 35.8806C58.5426 35.8806 58.5968 35.6638 58.6781 35.4199C59.2201 33.3603 59.5453 31.2736 59.5724 29.6205C59.5182 28.7804 59.5182 28.7804 59.5995 28.7804ZM58.4613 29.214C58.5155 29.2682 58.4884 31.111 58.4071 31.6259C58.2716 32.8183 58.0277 33.9565 57.6483 35.2302C57.567 35.5283 57.4857 35.7993 57.4586 35.7993C57.4315 35.8535 56.2933 34.7424 55.9139 34.3088C55.2635 33.5771 54.7757 32.8183 54.3963 32.0866C54.2066 31.7072 53.9085 30.9755 53.9356 30.9755C54.0711 30.8671 58.4342 29.1869 58.4613 29.214ZM53.0684 31.3278C53.1226 31.3549 53.1768 31.4904 53.2039 31.6259C53.4749 32.3576 54.0711 33.4145 54.586 34.0649C55.1551 34.7966 55.8868 35.6096 56.483 36.1245C56.6727 36.2871 56.8624 36.4497 56.8895 36.4768C56.9437 36.531 56.9437 36.531 55.6158 37.0188C54.044 37.615 52.3638 38.2112 50.4125 38.8346C49.9518 38.9972 49.4911 39.1327 49.0304 39.2953C48.9491 39.3224 48.9762 39.2682 49.193 38.943C50.1686 37.4253 51.6321 34.4714 52.4451 32.3576C52.5806 32.0053 52.7161 31.6259 52.7432 31.5446C52.7703 31.4362 52.8245 31.382 52.9329 31.3278C52.9871 31.3549 53.0413 31.3278 53.0684 31.3278ZM51.4153 32.0053C51.4424 32.0324 51.0088 32.8996 50.6022 33.7126C49.7892 35.2844 48.922 36.802 47.7567 38.672C47.567 38.9972 47.3773 39.2953 47.3502 39.3224C47.296 39.3766 47.296 39.3766 47.1605 39.1056C46.8895 38.5636 46.6456 37.8318 46.5372 37.1814C46.4017 36.531 46.4288 35.4199 46.5914 34.7153C46.6998 34.2004 46.6998 34.2004 46.9437 34.092C47.9464 33.5771 51.3611 31.9782 51.4153 32.0053ZM65.6429 32.6015V32.9538C65.6429 34.7966 65.4532 37.3169 65.1551 39.1598C65.1009 39.485 65.0738 39.756 65.0467 39.756C65.0467 39.756 64.8028 39.7018 64.5318 39.6205C63.2852 39.2411 61.9573 38.672 60.7377 37.9944C59.9247 37.5608 58.7594 36.8291 58.8136 36.802C58.8136 36.802 59.1659 36.6123 59.5724 36.3955C61.1985 35.5554 62.7432 34.634 64.0982 33.7397C64.6131 33.4145 65.3719 32.8454 65.5345 32.7099L65.6429 32.6015ZM45.1822 35.0405C45.2093 35.0405 45.2093 35.0947 45.1551 35.3928C45.128 35.6096 45.0738 36.0161 45.0738 36.2871C45.0196 37.4795 45.2093 38.3739 45.8055 39.5934C45.9681 39.9186 46.1036 40.2167 46.1036 40.2167C46.0494 40.2709 40.5751 41.8698 38.8678 42.3305C38.3529 42.466 37.9193 42.6015 37.8651 42.6015C37.8109 42.6286 37.8109 42.6015 37.8109 42.466C38.0006 41.2465 38.922 39.6747 40.2228 38.3197C41.0901 37.4253 41.7676 36.9104 42.9329 36.2329C43.773 35.7993 45.0467 35.0676 45.1822 35.0405C45.1551 35.0405 45.1551 35.0405 45.1822 35.0405ZM58.0548 37.344C58.0548 37.344 58.2716 37.4524 58.4884 37.5879C60.2499 38.6178 62.7161 39.5663 64.8028 40.0541L64.9925 40.1083L64.7215 40.2438C63.6104 40.8671 60.006 42.3576 56.3204 43.7397C55.7784 43.9294 55.2635 44.1462 55.1551 44.1733C55.0467 44.2275 54.9654 44.2275 54.9654 44.2275C54.9654 44.2275 55.1009 43.9294 55.2906 43.5771C56.3204 41.653 57.3502 39.2953 57.8922 37.6692C58.0006 37.4795 58.0548 37.344 58.0548 37.344ZM56.754 37.7776C56.754 37.7776 56.6998 37.9673 56.6185 38.157C55.8868 39.8915 54.9654 41.7885 53.7459 43.9294C53.4478 44.4714 53.1768 44.905 53.1768 44.905C53.1768 44.905 52.9329 44.7695 52.6348 44.5798C50.8733 43.4958 49.3285 42.195 48.3258 40.8942L48.1903 40.7045L48.9491 40.4877C51.6321 39.756 53.9356 38.9701 56.212 37.9944C56.4559 37.886 56.7269 37.7776 56.754 37.7776ZM64.9112 40.6232C64.9112 40.8129 64.5047 42.5202 64.1524 43.7397C63.8543 44.7695 63.6104 45.5825 63.1497 47.0188C62.96 47.6421 62.7703 48.1571 62.7703 48.1571C62.7703 48.1571 62.7161 48.157 62.6619 48.1299C60.2228 47.6963 58.0006 47.073 55.941 46.2329C55.3719 45.989 54.5318 45.6367 54.4776 45.5825C54.4505 45.5554 54.9654 45.3386 55.5887 45.0676C59.3556 43.4145 63.231 41.5717 64.586 40.7587C64.7486 40.6774 64.8841 40.6232 64.9112 40.6232ZM46.0765 41.2736C46.1036 41.3007 45.0467 42.7912 43.5833 44.8508C43.0684 45.5825 42.4722 46.4226 42.2554 46.7207C42.0386 47.0459 41.6863 47.5337 41.4966 47.8318L41.1443 48.3738L40.7648 48.0487C40.3312 47.6963 39.5724 46.9104 39.2201 46.4768C38.5155 45.5825 38.0277 44.6611 37.838 43.821C37.7567 43.4145 37.7567 43.2248 37.838 43.1977C37.9735 43.1706 40.1686 42.6557 42.2283 42.1679C43.3665 41.8969 44.6944 41.5988 45.1822 41.4633C45.67 41.3549 46.0494 41.2736 46.0765 41.2736ZM47.1334 41.6801L47.4044 41.9782C48.5968 43.3061 49.8163 44.2817 51.2798 45.1489C51.5508 45.2844 51.7405 45.4199 51.7134 45.447C51.6592 45.5012 46.6185 47.2898 44.2608 48.0757C42.96 48.5364 41.876 48.9159 41.8489 48.9159L41.6863 48.8075L41.5508 48.6991L41.7947 48.3467C42.5806 47.2356 43.5562 45.989 45.67 43.4416L47.1334 41.6801ZM53.7188 46.3955C53.7188 46.3955 54.0982 46.531 54.5318 46.6936C55.6158 47.1001 56.4559 47.344 57.5941 47.6421C59.0033 47.9945 61.0359 48.3468 62.2283 48.4552C62.418 48.4823 62.4993 48.4823 62.4722 48.5094C62.418 48.5365 61.1985 48.943 60.3041 49.2411C58.8949 49.6747 54.5589 50.9755 51.0088 51.9782C50.3583 52.1679 49.7892 52.3305 49.7621 52.3305C49.6808 52.3576 49.4098 52.2763 49.4098 52.2492C49.4098 52.2221 49.5995 51.9782 49.8434 51.7072C51.0359 50.298 52.2012 48.6991 53.2039 47.2085C53.4749 46.7207 53.7188 46.3955 53.7188 46.3955ZM52.2554 46.4226C52.2554 46.4226 51.6863 47.3711 50.6564 48.9972C50.2228 49.6747 49.735 50.4606 49.5453 50.7316C49.3827 51.0026 49.1388 51.4091 49.0033 51.653L48.7594 52.0866L48.6239 52.0595C48.3258 51.9782 46.2391 51.2465 45.6971 51.0297C45.0196 50.7587 44.315 50.4335 43.773 50.1354C43.1226 49.7831 42.2825 49.2411 42.3638 49.2411C42.3909 49.2411 43.502 48.9159 44.8841 48.5636C48.4884 47.5879 50.4938 47.0188 51.8218 46.5852C52.0386 46.4768 52.2554 46.4226 52.2554 46.4226ZM62.5264 48.8346C62.5806 48.9159 61.2256 52.6286 60.7377 53.7939C60.6293 54.0649 60.6023 54.1191 60.521 54.1191C60.3854 54.1191 58.4342 53.8481 57.2689 53.6584C55.2093 53.3332 51.7676 52.737 50.9004 52.5473L50.7106 52.4931L51.9302 52.2221C54.586 51.6259 55.8326 51.3007 57.1334 50.9213C58.7594 50.4335 60.3583 49.8102 61.9844 49.0514C62.2554 48.943 62.4722 48.8346 62.5264 48.8346Z" fill="url(#paint0_linear_221_1099)"/>
<path d="M56.4021 0.0268781C56.2124 -0.000222221 53.2856 1.05669 51.3886 1.8155C48.8412 2.84531 46.8629 3.84802 45.6433 4.71523C45.1826 5.04043 44.6135 5.60953 44.5322 5.82634C44.5051 5.90764 44.478 6.01604 44.478 6.09734L45.5891 7.15425L48.2179 7.99436L54.478 9.10547L61.6325 10.325L61.7138 9.70167H61.6596L60.7111 9.56617L60.5214 9.24097C59.5458 7.53365 58.4618 5.39273 57.8385 3.95642C57.3507 2.84531 56.8899 1.54449 56.646 0.623083C56.5105 0.0539775 56.4834 0.0268781 56.4021 0.0268781ZM56.2666 0.433382C56.2937 0.433382 56.3209 0.677285 56.348 0.948288C56.4835 2.1136 56.7545 3.22471 57.161 4.41712C57.4591 5.33853 57.4591 5.28433 57.1068 5.17593C56.2666 4.93203 52.4997 4.28162 49.7626 3.90222C49.329 3.84802 48.9496 3.79382 48.9496 3.76672C48.9225 3.73962 50.9279 2.68271 51.7951 2.2762C52.9333 1.7613 56.0498 0.487583 56.2666 0.433382ZM48.2992 4.14612L48.6244 4.25452C50.3859 4.85073 54.7761 5.69083 57.2152 5.88054C57.4862 5.90764 57.7301 5.93474 57.7301 5.93474C57.7301 5.93474 57.5133 6.07024 57.2152 6.20574C56.0498 6.80195 54.749 7.50655 53.8547 8.07566C53.5837 8.23826 53.3398 8.37376 53.3127 8.37376C53.2856 8.37376 53.0959 8.34666 52.9333 8.31956L52.6081 8.26536L51.7951 7.45235C50.3317 6.04314 49.1935 4.95913 48.7599 4.52552L48.2992 4.14612ZM47.974 4.39002L49.1393 5.85344C49.7626 6.66644 50.413 7.42525 50.5485 7.61495C50.684 7.77756 50.7924 7.94016 50.7924 7.94016C50.7653 7.96726 49.1122 7.64205 48.245 7.45235C47.3507 7.23555 46.9713 7.15425 46.4293 6.96455L45.9685 6.82905V6.72064C45.9685 6.17864 46.6731 5.33853 47.8656 4.49842L47.974 4.39002ZM57.8656 6.36834C57.8927 6.36834 57.9469 6.44964 58.0282 6.66644C58.2992 7.28975 59.1935 8.94287 59.4103 9.26807C59.4645 9.37647 59.6 9.37647 58.4347 9.18677C55.6433 8.72607 54.749 8.59056 54.749 8.56346C54.749 8.56346 54.8303 8.50926 54.9387 8.42796C55.8059 7.94016 56.6731 7.34395 57.4591 6.69354C57.6488 6.53094 57.8114 6.39544 57.8656 6.36834Z" fill="url(#paint1_linear_221_1099)"/>
<path d="M44.5863 5.69092C44.5863 5.69092 44.3966 5.98902 44.5863 6.42262C44.6947 6.69363 45.0199 7.01883 45.3722 7.34403C45.3722 7.34403 49.0578 10.9213 49.4914 11.4362C51.524 13.7939 52.4183 16.0974 52.4996 19.2682C52.5538 21.3278 52.1744 23.1164 51.1988 25.2031C49.4914 28.9429 45.86 33.0893 40.2773 37.6692L41.0904 37.3982C41.6053 36.9917 42.337 36.5852 44.0172 35.6638C47.9196 33.5229 52.2828 31.5717 57.6486 29.5663C65.3722 26.6665 78.0822 23.2519 85.318 22.1408L86.0768 22.0324L85.9684 21.8427C85.318 20.8129 84.8573 20.1896 84.3153 19.5121C82.7435 17.5337 80.8193 15.9619 78.4616 14.634C75.2367 12.8183 71.0361 11.4091 65.7245 10.3522C64.7218 10.1625 62.5267 9.78306 60.738 9.51206C56.944 8.91585 54.505 8.50935 51.8221 8.04864C50.8464 7.88604 49.4101 7.64214 48.4616 7.42534C47.9738 7.31693 47.0253 7.10013 46.2665 6.82913C45.6161 6.63943 44.776 6.39552 44.5863 5.69092ZM46.7272 7.77764C46.7272 7.77764 46.8627 7.83184 47.0524 7.88604C47.3776 7.99444 47.7841 8.12994 48.2448 8.23834C48.5971 8.34675 48.9765 8.42804 49.3288 8.53644C49.8166 8.67195 50.2502 8.78035 50.2502 8.78035C50.3044 8.83455 51.1446 11.5175 51.4156 12.5202C51.524 12.8996 51.6053 13.2519 51.6053 13.2519C51.6053 13.2519 51.4969 13.1164 51.3885 12.9267C50.4128 11.2194 48.8952 9.51206 47.1337 8.10284C46.8898 7.91314 46.7272 7.77764 46.7272 7.77764ZM50.7922 8.88875C50.8464 8.88875 51.0091 8.91585 51.2259 8.97005C52.6351 9.29525 55.1554 9.75596 56.7543 10.027C57.0253 10.0812 57.2421 10.1083 57.2421 10.1354C57.2421 10.1625 57.1337 10.2167 57.0253 10.2709C56.7543 10.4064 55.6432 11.0568 55.2909 11.3007C54.3695 11.924 53.5565 12.5744 52.9603 13.1706L52.5267 13.6042C52.5267 13.6042 52.4725 13.4687 52.4454 13.279C52.1473 12.1408 51.524 10.4335 50.9549 9.24105C50.8465 9.07845 50.7651 8.88875 50.7922 8.88875C50.7651 8.88875 50.7651 8.88875 50.7922 8.88875ZM57.9196 10.2438C57.9738 10.2709 58.0551 10.5419 58.2177 11.1652C58.5158 12.3576 58.6513 13.7126 58.6242 14.9592C58.5971 15.3115 58.5971 15.6367 58.57 15.6638L58.5429 15.7451L58.1093 15.6096C57.215 15.3386 55.7787 14.905 54.5592 14.5527C53.8546 14.363 53.2855 14.2004 53.2855 14.1733C53.2855 14.1191 54.3153 13.0893 54.7489 12.7099C55.589 11.9782 57.8654 10.2167 57.9196 10.2438ZM58.4887 10.3251C58.5158 10.298 61.9034 10.8942 63.4481 11.1923C64.5863 11.4091 66.2665 11.7614 66.3749 11.8156C66.4291 11.8427 66.2394 11.924 65.6974 12.1679C63.5294 13.1435 61.9034 14.0378 60.2773 15.0947C59.8437 15.3657 59.4914 15.6096 59.4914 15.6096C59.4914 15.6096 59.4643 15.3657 59.4643 15.0947C59.4643 13.5229 59.1391 11.9511 58.57 10.5961C58.5429 10.4606 58.4887 10.3522 58.4887 10.3251ZM67.2692 12.0595C67.2963 12.0866 67.1879 12.7641 67.0795 13.1435C66.7814 14.363 65.9684 16.2058 64.9928 17.9131C64.8302 18.2112 64.6676 18.4551 64.6405 18.4822C64.6134 18.4822 64.3966 18.3738 64.1527 18.2112C63.2042 17.6421 62.0931 17.1272 60.9278 16.6394C60.6025 16.5039 60.3044 16.3955 60.3044 16.3684C60.2502 16.3142 62.9061 14.5527 64.3153 13.7126C65.4264 13.0351 67.2421 12.0324 67.2692 12.0595ZM67.8925 12.1679C67.9738 12.1679 69.4643 12.5744 70.2502 12.8183C72.2015 13.3874 74.4237 14.2004 75.86 14.8779L76.4562 15.1489L76.0226 15.2573C72.4725 16.0703 69.4372 17.0188 66.5104 18.2112C66.2665 18.3196 66.0497 18.4009 66.0497 18.4009C66.0226 18.4009 66.1039 18.2112 66.2123 17.9673C67.1066 16.0974 67.6757 14.1462 67.8112 12.466C67.8654 12.3034 67.8925 12.1679 67.8925 12.1679ZM52.9332 15.6096C52.9603 15.5825 54.0985 15.8535 54.7218 16.0432C55.6703 16.3142 57.6486 16.9646 57.6486 17.0188C57.6486 17.0188 57.4318 17.2085 57.1608 17.4524C56.0768 18.3467 55.047 19.2953 53.8004 20.5148C53.421 20.8671 53.1229 21.1652 53.0958 21.1652C53.0687 21.1652 53.0687 21.111 53.0687 21.0568C53.2584 19.6747 53.2042 17.886 52.9603 16.0703C52.9603 15.7993 52.9332 15.6096 52.9332 15.6096ZM77.0524 15.6367C77.0795 15.6638 76.5104 16.5039 76.1852 16.9917C75.6974 17.6963 74.9657 18.6448 73.3126 20.7045C72.4454 21.7885 71.4698 23.0351 71.1445 23.4416C70.8193 23.8481 70.5483 24.2004 70.5212 24.2004C70.5212 24.2004 70.4128 24.0649 70.2773 23.8752C69.3559 22.4931 68.2448 21.2736 66.944 20.1896C66.7001 19.9728 66.4291 19.756 66.3207 19.7018C66.2394 19.6476 66.1581 19.5663 66.1581 19.5663C66.1581 19.5392 67.5673 18.9429 68.6242 18.5093C70.4941 17.7505 73.0416 16.8291 74.9386 16.26C75.9684 15.9077 77.0524 15.6096 77.0524 15.6367ZM77.7028 15.7993C77.7299 15.7993 77.9467 15.8806 78.1635 16.0432C80.1689 17.1814 82.1473 18.6719 83.692 20.1896C84.1256 20.6232 85.2096 21.7343 85.1825 21.7614C85.1825 21.7614 84.8031 21.7885 84.3695 21.8156C80.9007 22.0866 76.4562 22.8183 72.1744 23.8481C71.8763 23.9023 71.6324 23.9836 71.6053 23.9836C71.5782 23.9836 71.9034 23.6584 72.3099 23.279C74.8302 20.8671 75.9684 19.3224 77.3234 16.6123C77.5131 16.1516 77.6757 15.8264 77.7028 15.7993C77.6757 15.7993 77.6757 15.7993 77.7028 15.7993ZM59.3017 17.6692C59.4101 17.6963 60.4941 18.2112 61.3072 18.5906C62.0389 18.97 63.1771 19.5663 63.2313 19.5934C63.2313 19.5934 62.8519 19.8102 62.3641 20.0541C60.8193 20.84 59.4914 21.5717 58.0822 22.4118C57.6757 22.6557 57.3505 22.8454 57.3505 22.8454C57.3234 22.8454 57.3234 22.8183 57.5402 22.4118C58.2719 21.0568 58.8681 19.4308 59.2204 17.8589C59.2475 17.7505 59.2746 17.6692 59.3017 17.6692ZM58.2448 17.886C58.2719 17.9131 58.0009 18.9159 57.8112 19.485C57.486 20.5419 56.8898 21.8427 56.3478 22.8454C56.2123 23.0893 56.0226 23.4145 55.9142 23.6042L55.6974 23.9294L55.2367 23.4958C54.6947 22.9809 54.2611 22.6557 53.692 22.3576C53.4752 22.2492 53.2855 22.1408 53.2855 22.1137C53.2855 22.0595 54.6947 20.7587 55.7787 19.8373C56.5646 19.1598 58.2177 17.8589 58.2448 17.886ZM64.8031 20.569L65.2096 20.84C66.131 21.4362 67.215 22.2492 68.0551 22.9538C68.5158 23.3332 69.4372 24.1462 69.6269 24.363L69.7353 24.4714L69.0578 24.6611C65.2638 25.718 62.3641 26.6394 58.9494 27.886C58.57 28.0215 58.2448 28.1299 58.2177 28.1299C58.1635 28.1299 58.1364 28.1841 58.9765 27.3982C61.1446 25.3928 63.0958 23.1706 64.5321 21.0297L64.8031 20.569ZM63.0687 21.0026C63.0958 21.0297 61.9576 22.6015 61.2801 23.5229C60.467 24.6069 59.0307 26.3955 58.0551 27.5608C57.6486 28.0486 57.2963 28.4551 57.2692 28.4551C57.2421 28.4551 57.2421 28.3467 57.2421 28.157C57.2421 27.1543 56.9982 26.0974 56.5375 25.176C56.3478 24.7966 56.3207 24.7153 56.3478 24.6611C56.5104 24.5256 58.8952 23.1435 60.4399 22.3305C61.4427 21.7885 63.0416 20.9755 63.0687 21.0026ZM52.6351 23.55C52.6622 23.55 52.8519 23.6584 53.0687 23.7668C53.5836 24.0649 54.0714 24.3901 54.4779 24.7153C54.505 24.7424 54.2882 24.905 53.9901 25.1218C53.2042 25.6909 52.0118 26.5852 51.3343 27.1272C50.6025 27.6963 50.5754 27.7234 50.6567 27.5879C51.1988 26.7478 51.4698 26.2871 51.7679 25.6909C52.0118 25.1489 52.2828 24.5256 52.4725 23.9565C52.5267 23.7397 52.608 23.55 52.6351 23.55ZM55.4264 25.7451C55.4806 25.7451 55.5077 25.7993 55.7516 26.1516C56.2123 26.8562 56.5917 27.8047 56.673 28.5635L56.7001 28.7261L55.5619 29.1598C53.5294 29.9457 51.6595 30.7316 50.4128 31.3007C50.0605 31.4633 49.4372 31.7614 49.0307 31.9511C48.6242 32.1679 48.299 32.3034 48.299 32.3034C48.299 32.3034 48.5429 32.1137 48.8681 31.8698C51.3343 30.0812 53.4752 28.1028 55.0741 26.1516C55.2367 25.9348 55.3993 25.7451 55.4264 25.7451ZM54.1527 26.0432C54.1798 26.0703 53.2313 27.1543 52.608 27.8047C51.009 29.4308 49.4372 30.7045 47.486 31.9511C47.2421 32.1137 47.0253 32.2492 46.9982 32.2763C46.944 32.3034 47.0253 32.2221 47.8654 31.3007C48.4074 30.7045 48.8139 30.2167 49.3017 29.6205C49.6269 29.214 49.6811 29.1598 50.1147 28.8345C51.3072 27.9131 54.0985 26.0161 54.1527 26.0432Z" fill="url(#paint2_radial_221_1099)"/>
<path d="M18.3804 60.2441C18.2178 60.2441 18.0823 60.2712 17.9197 60.2712C14.8303 60.4338 12.7707 61.7888 11.5512 64.4446C10.5214 66.8294 10.6298 69.9731 11.5512 72.3579C12.6352 74.7156 14.3967 75.9622 17.3235 76.4229C17.9468 76.5313 18.3533 76.8565 19.5728 78.2658L21.0634 80.0002H23.7463L21.9577 78.2116C20.9821 77.2359 20.1691 76.3687 20.1691 76.2874C20.1691 76.2061 20.5485 76.0435 21.0092 75.908C22.5268 75.4473 23.7734 74.282 24.6406 72.4934C25.3452 71.0571 25.4536 70.6235 25.562 68.8349C25.833 63.5232 23.0417 60.217 18.3804 60.2441ZM20.7382 74.1194C19.4373 74.7427 17.5403 74.8782 16.2937 74.4175C15.02 73.9568 13.7734 72.6289 13.2043 71.1113C12.581 69.4582 12.6623 66.4229 13.394 65.0679C14.5322 62.8999 16.0498 61.8972 18.2449 61.8972C21.497 61.8972 23.3669 63.9026 23.6108 67.6425C23.8005 70.7861 22.7436 73.1438 20.7382 74.1194ZM67.1067 64.7698C65.9685 64.7698 65.1284 65.2305 64.5322 66.1248L64.0715 66.8294V64.9866H62.1203V76.0706H64.0715V72.5205C64.0715 69.2685 64.0986 68.8891 64.5593 68.0219C65.1826 66.8023 66.2666 66.2061 67.2964 66.4771L68.001 66.6668V64.7427L67.1067 64.7698ZM55.6704 64.6614C55.291 64.6614 54.8845 64.7156 54.478 64.7969C51.8764 65.4744 50.413 67.9677 50.4943 70.5422C50.4943 72.6831 50.9008 73.7671 51.9577 74.9053C54.0715 76.6397 55.9956 76.7752 58.5972 75.8538C59.0308 75.6641 59.5186 75.4473 59.5186 75.4473V73.7129L58.5972 74.2007C56.5105 75.1221 54.9116 75.1221 53.6379 74.0381C52.8249 73.2251 52.4726 72.2224 52.31 71.1113H60.169V69.6208C60.169 66.5584 58.3262 64.6343 55.6704 64.6614ZM52.4997 69.5395C52.4997 69.5395 52.7978 67.6425 53.8547 66.8836C54.3696 66.5313 54.9658 66.3416 55.562 66.3416C56.1582 66.3416 56.7273 66.5313 57.2151 66.9107C58.1907 67.6695 58.3804 69.5395 58.3804 69.5395H52.4997ZM5.50781 67.5341C3.39399 66.2603 2.44548 65.3389 2.58098 64.2549C2.90618 61.2468 6.61892 61.6533 8.67854 62.7915L8.70564 60.759C8.70564 60.759 7.56743 60.2712 5.94141 60.2441C3.44819 60.217 1.82217 61.03 1.06336 62.7102C-0.0477493 65.1763 0.927862 67.0462 4.5051 69.1059C6.51052 70.2712 7.40483 71.2739 7.40483 72.385C7.40483 74.6614 4.6677 75.4473 1.82217 74.0381C1.22596 73.74 0.73816 73.4961 0.71106 73.4961C0.602658 74.1465 0.656858 75.6912 0.656858 75.6912C0.656858 75.6912 1.52407 76.0435 2.82488 76.3145C6.07691 76.9649 9.00374 75.4473 9.30184 72.9812C9.51865 70.6506 8.67854 69.4311 5.50781 67.5341ZM84.3696 64.6614C83.9902 64.6614 83.5837 64.7156 83.1772 64.7969C80.5756 65.4744 79.1121 67.9677 79.1934 70.5422C79.1934 72.6831 79.5999 73.7671 80.6569 74.8782C82.7707 76.6126 84.6948 76.7752 87.3235 75.8267C87.7571 75.637 88.2449 75.4202 88.2449 75.4202V73.6858L87.3235 74.1736C85.2097 75.095 83.6379 75.095 82.3642 74.011C81.5512 73.198 81.1989 72.2224 81.0363 71.0842H88.8682V69.5937C88.8682 66.5313 87.0254 64.6072 84.3696 64.6614ZM81.1718 69.5124C81.1718 69.5124 81.4699 67.6154 82.5268 66.8565C83.0417 66.4771 83.6379 66.3145 84.207 66.3145C84.7761 66.3145 85.3723 66.5042 85.8601 66.8836C86.8357 67.6425 87.0254 69.5124 87.0254 69.5124H81.1718ZM45.4536 67.5612C43.3398 66.2874 42.4184 65.366 42.5268 64.282C42.852 61.2739 46.5647 61.6804 48.6243 62.8186L48.6514 60.7861C48.6514 60.7861 47.5132 60.2983 45.8872 60.2712C43.394 60.2441 41.768 61.0571 41.0092 62.7373C39.8981 65.2034 40.9008 67.0733 44.4509 69.133C46.4563 70.2983 47.3235 71.301 47.3235 72.385C47.3235 74.6614 44.5864 75.4744 41.7409 74.0381C41.1718 73.74 40.6569 73.4961 40.6298 73.4961C40.5214 74.1465 40.5756 75.6912 40.5756 75.6912C40.5756 75.6912 41.4428 76.0435 42.7436 76.3145C45.9956 76.9649 48.9224 75.4473 49.2205 72.9812C49.4644 70.6777 48.6243 69.4582 45.4536 67.5612ZM95.8059 64.7427C94.6677 64.7427 93.8005 65.2034 93.2314 66.0977L92.7707 66.8023V64.9595H90.8195V76.0435H92.7707V72.5205C92.7707 69.2685 92.7978 68.8891 93.2585 68.0219C93.8818 66.8023 94.9658 66.2061 95.9956 66.5042L96.7002 66.6939V64.7698L95.8059 64.7427ZM29.9523 67.507V60.4338H28.001V76.0706H36.2666V74.2278H29.9794L29.9523 67.507ZM75.3994 69.7021L73.7734 73.9026L72.2287 69.675L70.6569 64.9866H68.6514C69.9522 68.6723 71.3615 72.4392 72.7978 76.0706C73.4211 76.0977 74.0444 76.0706 74.6677 76.0706L76.8628 70.5693L79.085 64.9595H77.1609C77.1338 64.9866 76.2937 67.2088 75.3994 69.7021ZM34.5051 56.179C34.8303 56.179 35.0742 56.0706 35.291 55.8538C35.5078 55.637 35.6162 55.3931 35.6162 55.0679C35.6162 54.7427 35.5078 54.4988 35.291 54.282C35.0742 54.0923 34.8303 53.9839 34.5051 53.9839C34.1799 53.9839 33.9089 54.0923 33.7192 54.3091C33.5024 54.5259 33.394 54.7969 33.394 55.095C33.394 55.4202 33.5024 55.6912 33.7192 55.8809C33.9089 56.0706 34.1799 56.179 34.5051 56.179ZM33.8005 54.3633C33.9902 54.1736 34.207 54.0923 34.5051 54.0923C34.7761 54.0923 35.02 54.1736 35.2097 54.3633C35.3994 54.553 35.5078 54.7698 35.5078 55.0679C35.5078 55.3389 35.3994 55.5828 35.2097 55.7725C35.02 55.9622 34.7761 56.0435 34.5051 56.0435C34.2341 56.0435 33.9902 55.9622 33.8005 55.7725C33.6108 55.5828 33.5024 55.3389 33.5024 55.0679C33.5295 54.7969 33.6108 54.553 33.8005 54.3633ZM34.2612 55.1763H34.3967C34.478 55.1763 34.5864 55.2576 34.6406 55.4202L34.8032 55.7725H35.0471L34.8574 55.3931C34.7761 55.2305 34.6948 55.1492 34.6135 55.1221C34.7219 55.095 34.8032 55.0679 34.8845 54.9866C34.9387 54.9324 34.9658 54.824 34.9658 54.7427C34.9658 54.6343 34.9387 54.553 34.8574 54.4717C34.7761 54.3904 34.6406 54.3633 34.4509 54.3633H34.0444V55.7725H34.2341L34.2612 55.1763ZM34.2612 54.5259H34.4509C34.5864 54.5259 34.6677 54.553 34.7219 54.5801C34.7761 54.6072 34.7761 54.6614 34.7761 54.7698C34.7761 54.9324 34.6677 55.0137 34.478 55.0137H34.2612V54.5259ZM1.82217 55.0408C1.82217 54.553 1.79507 54.1736 1.79507 53.9568C1.84927 54.2007 1.90347 54.3904 1.95767 54.5259L3.85469 58.7265H4.17989L6.07691 54.4717C6.13111 54.3633 6.18531 54.1736 6.23952 53.9297H6.26662C6.23951 54.3633 6.21241 54.7156 6.21241 55.0137V58.7265H6.86282V53.198H6.04981L4.28829 57.0733C4.23409 57.2359 4.12569 57.4528 4.01729 57.7509H3.99019C3.96309 57.5883 3.85469 57.3715 3.74629 57.1004L2.03897 53.2251H1.17176V58.7536H1.79507L1.82217 55.0408ZM8.24493 55.0679H8.81404V58.5097H8.24493V55.0679ZM8.51594 53.7942C8.62434 53.7942 8.73274 53.7671 8.81404 53.6858C8.89534 53.6045 8.94954 53.5232 8.94954 53.3877C8.94954 53.2793 8.92244 53.1709 8.81404 53.0896C8.73274 53.0083 8.62434 52.9812 8.51594 52.9812C8.40754 52.9812 8.29913 53.0083 8.21783 53.0896C8.13653 53.1709 8.08233 53.2793 8.08233 53.3877C8.08233 53.5232 8.10943 53.6045 8.21783 53.6858C8.29913 53.7671 8.40754 53.7942 8.51594 53.7942ZM12.7707 58.5639V57.9677C12.4726 58.1845 12.1474 58.32 11.7951 58.32C11.3886 58.32 11.0634 58.1845 10.8195 57.9135C10.5756 57.6425 10.4401 57.2902 10.4401 56.8294C10.4401 56.3416 10.5756 55.9622 10.8195 55.6912C11.0634 55.4202 11.4157 55.2847 11.7951 55.2847C12.1203 55.2847 12.4455 55.3931 12.7436 55.5828V54.9053C12.4726 54.7698 12.1745 54.7156 11.8222 54.7156C11.1989 54.7156 10.684 54.9053 10.3317 55.3118C9.97935 55.6912 9.78965 56.2332 9.78965 56.8836C9.78965 57.4527 9.95225 57.9406 10.3046 58.2929C10.6569 58.6723 11.1176 58.862 11.6596 58.862C12.1203 58.8349 12.4726 58.7536 12.7707 58.5639ZM14.3696 56.7481C14.3696 56.2874 14.478 55.9351 14.6677 55.6641C14.8574 55.4473 15.0471 55.3118 15.3181 55.3118C15.5349 55.3118 15.6975 55.3389 15.8059 55.4473V54.7969C15.7246 54.7698 15.5891 54.7427 15.4265 54.7427C15.2097 54.7427 14.9929 54.824 14.8303 54.9595C14.6406 55.1221 14.478 55.3389 14.3967 55.637H14.3696V54.824H13.7463V58.7807H14.3696V56.7481ZM18.001 58.8349C18.5972 58.8349 19.085 58.6452 19.4373 58.2658C19.7896 57.8864 19.9794 57.3714 19.9794 56.7481C19.9794 56.0977 19.8167 55.6099 19.4915 55.2305C19.1663 54.8511 18.7056 54.6885 18.1094 54.6885C17.5132 54.6885 17.0254 54.8782 16.6731 55.2034C16.2937 55.5828 16.104 56.1248 16.104 56.8023C16.104 57.3986 16.2666 57.8864 16.6189 58.2658C16.9441 58.6452 17.4048 58.8349 18.001 58.8349ZM17.1067 55.637C17.3506 55.3931 17.6758 55.2576 18.0552 55.2576C18.4617 55.2576 18.7598 55.3931 19.0037 55.637C19.2205 55.908 19.356 56.2874 19.356 56.7752C19.356 57.263 19.2476 57.6425 19.0308 57.8864C18.814 58.1574 18.4888 58.2929 18.0823 58.2929C17.6758 58.2929 17.3506 58.1574 17.1067 57.8864C16.8628 57.6154 16.7544 57.263 16.7544 56.7752C16.7273 56.2874 16.8357 55.908 17.1067 55.637ZM22.7165 58.5097C22.9604 58.2929 23.0959 58.0219 23.0959 57.6967C23.0959 57.3985 22.9875 57.1546 22.7978 56.9649C22.6352 56.8023 22.4184 56.6668 22.0661 56.5313C21.768 56.3958 21.5783 56.2874 21.4699 56.2061C21.3615 56.0977 21.3073 55.9893 21.3073 55.7996C21.3073 55.637 21.3615 55.5015 21.497 55.4202C21.6325 55.3118 21.7951 55.2576 22.0119 55.2576C22.3642 55.2576 22.6352 55.3389 22.9062 55.5286V54.9053C22.6623 54.7698 22.3642 54.7156 22.0661 54.7156C21.6596 54.7156 21.3073 54.824 21.0634 55.0408C20.7924 55.2576 20.684 55.5286 20.684 55.8538C20.684 56.1519 20.7653 56.3958 20.9279 56.5584C21.0634 56.721 21.3073 56.8565 21.6325 56.992C21.9577 57.1276 22.1745 57.2631 22.2829 57.3715C22.3913 57.4799 22.4455 57.5883 22.4455 57.7509C22.4455 58.1303 22.2016 58.32 21.6867 58.32C21.3073 58.32 20.955 58.1845 20.6569 57.9406V58.6181C20.9279 58.7807 21.2531 58.862 21.6325 58.862C22.0932 58.8349 22.4726 58.7265 22.7165 58.5097ZM25.7246 54.7156C25.1284 54.7156 24.6406 54.9053 24.2883 55.2305C23.9089 55.6099 23.7192 56.1519 23.7192 56.8294C23.7192 57.4257 23.8818 57.9135 24.2341 58.2929C24.5864 58.6723 25.0471 58.862 25.6433 58.862C26.2395 58.862 26.7273 58.6723 27.0796 58.2929C27.4319 57.9135 27.6216 57.3985 27.6216 56.7752C27.6216 56.1248 27.459 55.637 27.1338 55.2576C26.7815 54.8782 26.3208 54.7156 25.7246 54.7156ZM26.9712 56.7752C26.9712 57.263 26.8628 57.6425 26.646 57.8864C26.4292 58.1574 26.104 58.2929 25.6975 58.2929C25.291 58.2929 24.9658 58.1574 24.7219 57.8864C24.478 57.6154 24.3696 57.263 24.3696 56.7752C24.3696 56.2603 24.5051 55.8809 24.749 55.6099C24.9929 55.366 25.3181 55.2305 25.6975 55.2305C26.0769 55.2305 26.4021 55.366 26.6189 55.6099C26.8628 55.8809 26.9712 56.2603 26.9712 56.7752ZM28.6785 58.7536H29.3018V55.3389H30.2233V54.7969H29.3018V54.2007C29.3018 53.6587 29.5186 53.3606 29.9523 53.3606C30.1149 53.3606 30.2504 53.3877 30.3588 53.469V52.8999C30.2504 52.8457 30.0878 52.8457 29.8981 52.8457C29.5457 52.8457 29.2747 52.9541 29.0579 53.1709C28.7869 53.4148 28.6514 53.74 28.6514 54.2007V54.8511H27.9739V55.3931H28.6514L28.6785 58.7536ZM31.2802 57.6696C31.2802 58.4284 31.6325 58.8349 32.31 58.8349C32.5539 58.8349 32.7436 58.8078 32.9062 58.6994V58.1574C32.7978 58.2387 32.6623 58.2929 32.4997 58.2929C32.2829 58.2929 32.1474 58.2387 32.039 58.1303C31.9577 58.0219 31.9035 57.8322 31.9035 57.5611V55.3389H32.9062V54.7969H31.9035V53.6316C31.6867 53.7129 31.4699 53.7671 31.2802 53.8213V54.7698H30.6027V55.3118H31.2802V57.6696ZM99.1663 64.9595C98.9495 64.7698 98.7056 64.6614 98.3804 64.6614C98.0552 64.6614 97.7842 64.7698 97.5945 64.9866C97.3777 65.2034 97.2693 65.4744 97.2693 65.7725C97.2693 66.0977 97.3777 66.3416 97.5945 66.5584C97.8113 66.7481 98.0823 66.8565 98.3804 66.8565C98.7056 66.8565 98.9495 66.7481 99.1663 66.5313C99.3831 66.3145 99.4915 66.0706 99.4915 65.7454C99.5186 65.4202 99.3831 65.1492 99.1663 64.9595ZM99.085 66.45C98.8953 66.6397 98.6785 66.721 98.3804 66.721C98.1094 66.721 97.8655 66.6397 97.6758 66.45C97.4861 66.2603 97.3777 66.0164 97.3777 65.7454C97.3777 65.4744 97.459 65.2305 97.6487 65.0408C97.8384 64.8511 98.0552 64.7698 98.3533 64.7698C98.6243 64.7698 98.8682 64.8511 99.0579 65.0408C99.2476 65.2305 99.356 65.4744 99.356 65.7454C99.356 66.0164 99.2747 66.2603 99.085 66.45ZM98.5159 65.7996C98.6243 65.7725 98.7056 65.7183 98.7869 65.6641C98.8411 65.6099 98.8682 65.5015 98.8682 65.4202C98.8682 65.3118 98.8411 65.2305 98.7598 65.1492C98.6785 65.0679 98.543 65.0408 98.3533 65.0408H97.9468V66.45H98.1365V65.8538H98.272C98.3533 65.8538 98.4346 65.9351 98.5159 66.0977L98.6785 66.45H98.9224L98.7327 66.0706C98.6514 65.908 98.5701 65.8267 98.5159 65.7996ZM98.3804 65.6641H98.1636V65.2034H98.3533C98.4888 65.2034 98.5701 65.2305 98.6243 65.2576C98.6785 65.2847 98.6785 65.3389 98.6785 65.4473C98.6514 65.6099 98.5701 65.6641 98.3804 65.6641ZM63.0688 54.6343H63.2585V53.2251H63.7192V53.0354H62.6081V53.2251H63.0688V54.6343ZM64.1257 53.5774V53.2522C64.1257 53.3335 64.1528 53.3877 64.1799 53.4148L64.7219 54.6343H64.8032L65.3452 53.4148C65.3723 53.3877 65.3723 53.3335 65.3994 53.2522V54.6343H65.5891V53.0354H65.3723L64.8845 54.1465C64.8845 54.1736 64.8303 54.2549 64.8032 54.3633H64.7761C64.7761 54.3091 64.749 54.2549 64.6948 54.1736L64.207 53.0625H63.9631V54.6614H64.1528L64.1257 53.5774Z" fill="#231F1F"/>
</g>
</g>
<defs>
<linearGradient id="paint0_linear_221_1099" x1="44.4213" y1="49.1581" x2="48.3709" y2="46.8244" gradientUnits="userSpaceOnUse">
<stop stop-color="#909CA9"/>
<stop offset="1" stop-color="#EDEDEE"/>
</linearGradient>
<linearGradient id="paint1_linear_221_1099" x1="44.5101" y1="5.18595" x2="47.6881" y2="5.18595" gradientUnits="userSpaceOnUse">
<stop stop-color="#939FAB"/>
<stop offset="1" stop-color="#DCDEE1"/>
</linearGradient>
<radialGradient id="paint2_radial_221_1099" cx="0" cy="0" r="1" gradientUnits="userSpaceOnUse" gradientTransform="translate(60.5315 19.7414) rotate(-171.457) scale(4.09727 8.19657)">
<stop stop-color="#EE352C"/>
<stop offset="1" stop-color="#A91D22"/>
</radialGradient>
<clipPath id="clip0_221_1099">
<rect width="100" height="80" fill="white"/>
</clipPath>
<clipPath id="clip1_221_1099">
<rect width="100" height="80" fill="white"/>
</clipPath>
</defs>
</svg>
