<svg width="48" height="48" viewBox="0 0 48 48" fill="none" xmlns="http://www.w3.org/2000/svg">
<path fill-rule="evenodd" clip-rule="evenodd" d="M13.3723 8.7206C10.1752 11.0042 7.34221 14.718 5.42343 20.4743C5.16146 21.2603 4.31198 21.685 3.52607 21.423C2.74015 21.1611 2.31541 20.3116 2.57738 19.5257C4.6586 13.282 7.82558 8.99581 11.6285 6.2794C15.428 3.56548 19.7482 2.5 24.0004 2.5C28.2527 2.5 32.5728 3.56548 36.3723 6.2794C40.1752 8.99581 43.3422 13.282 45.4234 19.5257C45.6854 20.3116 45.2607 21.1611 44.4748 21.423C43.6888 21.685 42.8394 21.2603 42.5774 20.4743C40.6586 14.718 37.8256 11.0042 34.6286 8.7206C31.428 6.43452 27.7482 5.5 24.0004 5.5C20.2527 5.5 16.5728 6.43452 13.3723 8.7206Z" fill="#212121"/>
<path fill-rule="evenodd" clip-rule="evenodd" d="M4 10.5C4.82843 10.5 5.5 11.1716 5.5 12V16.7974L9.03972 13.8477C9.67614 13.3173 10.622 13.4033 11.1523 14.0397C11.6827 14.6761 11.5967 15.622 10.9603 16.1523L4.96028 21.1523C4.51315 21.5249 3.89084 21.6053 3.36377 21.3584C2.83669 21.1115 2.5 20.582 2.5 20V12C2.5 11.1716 3.17157 10.5 4 10.5Z" fill="#212121"/>
<path fill-rule="evenodd" clip-rule="evenodd" d="M34.6277 39.2794C37.8248 36.9958 40.6578 33.282 42.5766 27.5257C42.8385 26.7397 43.688 26.315 44.4739 26.577C45.2598 26.8389 45.6846 27.6884 45.4226 28.4743C43.3414 34.718 40.1744 39.0042 36.3715 41.7206C32.572 44.4345 28.2518 45.5 23.9996 45.5C19.7473 45.5 15.4272 44.4345 11.6277 41.7206C7.82477 39.0042 4.65778 34.718 2.57657 28.4743C2.31459 27.6884 2.73933 26.8389 3.52525 26.577C4.31116 26.315 5.16064 26.7397 5.42262 27.5257C7.3414 33.282 10.1744 36.9958 13.3714 39.2794C16.572 41.5655 20.2518 42.5 23.9996 42.5C27.7473 42.5 31.4272 41.5655 34.6277 39.2794Z" fill="#212121"/>
<path fill-rule="evenodd" clip-rule="evenodd" d="M44 37.5C43.1716 37.5 42.5 36.8284 42.5 36V31.2026L38.9603 34.1523C38.3239 34.6827 37.378 34.5967 36.8477 33.9603C36.3173 33.3239 36.4033 32.378 37.0397 31.8477L43.0397 26.8477C43.4868 26.4751 44.1092 26.3947 44.6362 26.6416C45.1633 26.8885 45.5 27.418 45.5 28V36C45.5 36.8284 44.8284 37.5 44 37.5Z" fill="#212121"/>
</svg>
