<svg width="32" height="32" viewBox="0 0 32 32" fill="none" xmlns="http://www.w3.org/2000/svg">
<path fill-rule="evenodd" clip-rule="evenodd" d="M1.6665 2.6665C1.6665 2.11422 2.11422 1.6665 2.6665 1.6665H29.3332C29.8855 1.6665 30.3332 2.11422 30.3332 2.6665V29.3332C30.3332 29.8855 29.8855 30.3332 29.3332 30.3332H2.6665C2.11422 30.3332 1.6665 29.8855 1.6665 29.3332V2.6665ZM3.6665 3.6665V28.3332H28.3332V3.6665H3.6665Z" fill="#212121"/>
<path fill-rule="evenodd" clip-rule="evenodd" d="M14.6665 11.6665H6.6665V9.6665H14.6665V11.6665Z" fill="#212121"/>
<path fill-rule="evenodd" clip-rule="evenodd" d="M23.9596 14.7073L17.293 8.04068L18.7072 6.62646L25.3738 13.2931L23.9596 14.7073Z" fill="#212121"/>
<path fill-rule="evenodd" clip-rule="evenodd" d="M17.2927 13.2931L23.9593 6.62646L25.3735 8.04068L18.7069 14.7073L17.2927 13.2931Z" fill="#212121"/>
<path fill-rule="evenodd" clip-rule="evenodd" d="M25.3335 20.3335H17.3335V18.3335H25.3335V20.3335Z" fill="#212121"/>
<path fill-rule="evenodd" clip-rule="evenodd" d="M25.3335 24.3335L17.3335 24.3335V22.3335L25.3335 22.3335V24.3335Z" fill="#212121"/>
<path fill-rule="evenodd" clip-rule="evenodd" d="M14.6665 22.3335H6.6665V20.3335H14.6665V22.3335Z" fill="#212121"/>
<path fill-rule="evenodd" clip-rule="evenodd" d="M9.6665 25.3335V17.3335H11.6665L11.6665 25.3335H9.6665Z" fill="#212121"/>
</svg>
