<svg width="32" height="32" viewBox="0 0 32 32" fill="none" xmlns="http://www.w3.org/2000/svg">
<path fill-rule="evenodd" clip-rule="evenodd" d="M5.6665 6.6665C5.6665 6.11422 6.11422 5.6665 6.6665 5.6665H25.3332C25.8855 5.6665 26.3332 6.11422 26.3332 6.6665V25.3332C26.3332 25.8855 25.8855 26.3332 25.3332 26.3332H6.6665C6.11422 26.3332 5.6665 25.8855 5.6665 25.3332V6.6665ZM7.6665 7.6665V24.3332H24.3332V7.6665H7.6665Z" fill="#212121"/>
<path fill-rule="evenodd" clip-rule="evenodd" d="M1.6665 16C1.6665 15.4477 2.11422 15 2.6665 15H6.6665C7.21879 15 7.6665 15.4477 7.6665 16C7.6665 16.5523 7.21879 17 6.6665 17H2.6665C2.11422 17 1.6665 16.5523 1.6665 16Z" fill="#212121"/>
<path fill-rule="evenodd" clip-rule="evenodd" d="M16 1.6665C16.5523 1.6665 17 2.11422 17 2.6665V6.6665C17 7.21879 16.5523 7.6665 16 7.6665C15.4477 7.6665 15 7.21879 15 6.6665V2.6665C15 2.11422 15.4477 1.6665 16 1.6665Z" fill="#212121"/>
<path fill-rule="evenodd" clip-rule="evenodd" d="M20.2847 15L16.8944 21.7806C16.6474 22.2746 16.0467 22.4748 15.5527 22.2278C15.0587 21.9808 14.8585 21.3802 15.1055 20.8862L17.0486 17H11.7152L15.1055 10.2195C15.3525 9.72553 15.9532 9.52531 16.4472 9.7723C16.9411 10.0193 17.1414 10.62 16.8944 11.1139L14.9513 15H20.2847Z" fill="#212121"/>
<path fill-rule="evenodd" clip-rule="evenodd" d="M16 24.3335C16.5523 24.3335 17 24.7812 17 25.3335V29.3335C17 29.8858 16.5523 30.3335 16 30.3335C15.4477 30.3335 15 29.8858 15 29.3335V25.3335C15 24.7812 15.4477 24.3335 16 24.3335Z" fill="#212121"/>
<path fill-rule="evenodd" clip-rule="evenodd" d="M20 3C20.5523 3 21 3.44772 21 4V6.66667C21 7.21895 20.5523 7.66667 20 7.66667C19.4477 7.66667 19 7.21895 19 6.66667V4C19 3.44772 19.4477 3 20 3Z" fill="#212121"/>
<path fill-rule="evenodd" clip-rule="evenodd" d="M20 24.3335C20.5523 24.3335 21 24.7812 21 25.3335V28.0002C21 28.5524 20.5523 29.0002 20 29.0002C19.4477 29.0002 19 28.5524 19 28.0002V25.3335C19 24.7812 19.4477 24.3335 20 24.3335Z" fill="#212121"/>
<path fill-rule="evenodd" clip-rule="evenodd" d="M12 3C12.5523 3 13 3.44772 13 4V6.66667C13 7.21895 12.5523 7.66667 12 7.66667C11.4477 7.66667 11 7.21895 11 6.66667V4C11 3.44772 11.4477 3 12 3Z" fill="#212121"/>
<path fill-rule="evenodd" clip-rule="evenodd" d="M12 24.3335C12.5523 24.3335 13 24.7812 13 25.3335V28.0002C13 28.5524 12.5523 29.0002 12 29.0002C11.4477 29.0002 11 28.5524 11 28.0002V25.3335C11 24.7812 11.4477 24.3335 12 24.3335Z" fill="#212121"/>
<path fill-rule="evenodd" clip-rule="evenodd" d="M24.3335 16C24.3335 15.4477 24.7812 15 25.3335 15H29.3335C29.8858 15 30.3335 15.4477 30.3335 16C30.3335 16.5523 29.8858 17 29.3335 17H25.3335C24.7812 17 24.3335 16.5523 24.3335 16Z" fill="#212121"/>
<path fill-rule="evenodd" clip-rule="evenodd" d="M3 12C3 11.4477 3.44772 11 4 11L6.66667 11C7.21895 11 7.66667 11.4477 7.66667 12C7.66667 12.5523 7.21895 13 6.66667 13H4C3.44772 13 3 12.5523 3 12Z" fill="#212121"/>
<path fill-rule="evenodd" clip-rule="evenodd" d="M24.3335 12C24.3335 11.4477 24.7812 11 25.3335 11L28.0002 11C28.5524 11 29.0002 11.4477 29.0002 12C29.0002 12.5523 28.5524 13 28.0002 13H25.3335C24.7812 13 24.3335 12.5523 24.3335 12Z" fill="#212121"/>
<path fill-rule="evenodd" clip-rule="evenodd" d="M3 20C3 19.4477 3.44772 19 4 19H6.66667C7.21895 19 7.66667 19.4477 7.66667 20C7.66667 20.5523 7.21895 21 6.66667 21H4C3.44772 21 3 20.5523 3 20Z" fill="#212121"/>
<path fill-rule="evenodd" clip-rule="evenodd" d="M24.3335 20C24.3335 19.4477 24.7812 19 25.3335 19H28.0002C28.5524 19 29.0002 19.4477 29.0002 20C29.0002 20.5523 28.5524 21 28.0002 21H25.3335C24.7812 21 24.3335 20.5523 24.3335 20Z" fill="#212121"/>
</svg>
