<svg width="96" height="96" viewBox="0 0 96 96" fill="none" xmlns="http://www.w3.org/2000/svg">
<path d="M48 16C30.32 16 16 30.32 16 48C16 65.68 30.32 80 48 80C65.68 80 80 65.68 80 48C80 30.32 65.68 16 48 16ZM50 66H46V62H50V66ZM52 48H44V32H52V48Z" fill="#E0E0E0"/>
<path d="M47.96 8C25.88 8 8 25.92 8 48C8 70.08 25.88 88 47.96 88C70.08 88 88 70.08 88 48C88 25.92 70.08 8 47.96 8ZM48 80C30.32 80 16 65.68 16 48C16 30.32 30.32 16 48 16C65.68 16 80 30.32 80 48C80 65.68 65.68 80 48 80Z" fill="#757575"/>
<path d="M52 64C52 61.7909 50.2091 60 48 60C45.7909 60 44 61.7909 44 64C44 66.2091 45.7909 68 48 68C50.2091 68 52 66.2091 52 64Z" fill="#212121"/>
<path d="M52 32C52 29.7909 50.2091 28 48 28C45.7909 28 44 29.7909 44 32V48C44 50.2091 45.7909 52 48 52C50.2091 52 52 50.2091 52 48V32Z" fill="#212121"/>
</svg>
