<svg width="48" height="48" viewBox="0 0 48 48" fill="none" xmlns="http://www.w3.org/2000/svg">
<path d="M20 6C20 4.89543 20.8954 4 22 4H26C27.1046 4 28 4.89543 28 6V44H20V6Z" fill="#212121"/>
<path d="M32 26C32 24.8954 32.8954 24 34 24H38C39.1046 24 40 24.8954 40 26V44H32V26Z" fill="#212121"/>
<path d="M8 18C8 16.8954 8.89543 16 10 16H14C15.1046 16 16 16.8954 16 18V44H8V18Z" fill="#212121"/>
<path fill-rule="evenodd" clip-rule="evenodd" d="M2.5 44C2.5 43.1716 3.17157 42.5 4 42.5H44C44.8284 42.5 45.5 43.1716 45.5 44C45.5 44.8284 44.8284 45.5 44 45.5H4C3.17157 45.5 2.5 44.8284 2.5 44Z" fill="#212121"/>
</svg>
