<svg width="32" height="32" viewBox="0 0 32 32" fill="none" xmlns="http://www.w3.org/2000/svg">
<path fill-rule="evenodd" clip-rule="evenodd" d="M1.6665 5.3335C1.6665 4.78121 2.11422 4.3335 2.6665 4.3335H13.3332C13.5984 4.3335 13.8527 4.43885 14.0403 4.62639L16.414 7.00016H29.3332C29.8855 7.00016 30.3332 7.44788 30.3332 8.00016V26.6668C30.3332 27.2191 29.8855 27.6668 29.3332 27.6668H2.6665C2.11422 27.6668 1.6665 27.2191 1.6665 26.6668V5.3335ZM3.6665 6.3335V25.6668H28.3332V9.00016H15.9998C15.7346 9.00016 15.4803 8.89481 15.2927 8.70727L12.919 6.3335H3.6665Z" fill="#212121"/>
<path fill-rule="evenodd" clip-rule="evenodd" d="M10.6665 13.6665C11.2188 13.6665 11.6665 14.1142 11.6665 14.6665V21.3332C11.6665 21.8855 11.2188 22.3332 10.6665 22.3332C10.1142 22.3332 9.6665 21.8855 9.6665 21.3332V14.6665C9.6665 14.1142 10.1142 13.6665 10.6665 13.6665Z" fill="#212121"/>
<path fill-rule="evenodd" clip-rule="evenodd" d="M21.3335 12.3335C21.8858 12.3335 22.3335 12.7812 22.3335 13.3335V20.0002C22.3335 20.5524 21.8858 21.0002 21.3335 21.0002C20.7812 21.0002 20.3335 20.5524 20.3335 20.0002L20.3335 13.3335C20.3335 12.7812 20.7812 12.3335 21.3335 12.3335Z" fill="#212121"/>
<path fill-rule="evenodd" clip-rule="evenodd" d="M12.0807 13.3332L7.99984 17.414L6.58562 15.9998L10.6665 11.9189L12.0807 13.3332Z" fill="#212121"/>
<path fill-rule="evenodd" clip-rule="evenodd" d="M22.7477 21.3333L18.6668 17.2525L17.2526 18.6667L21.3335 22.7476L22.7477 21.3333Z" fill="#212121"/>
<path fill-rule="evenodd" clip-rule="evenodd" d="M9.25229 13.3332L13.3332 17.414L14.7474 15.9998L10.6665 11.9189L9.25229 13.3332Z" fill="#212121"/>
<path fill-rule="evenodd" clip-rule="evenodd" d="M19.9193 21.3333L24.0002 17.2525L25.4144 18.6667L21.3335 22.7476L19.9193 21.3333Z" fill="#212121"/>
</svg>
