<svg width="32" height="32" viewBox="0 0 32 32" fill="none" xmlns="http://www.w3.org/2000/svg">
<path fill-rule="evenodd" clip-rule="evenodd" d="M11 12C11 11.4477 11.4477 11 12 11H29.3333C29.8856 11 30.3333 11.4477 30.3333 12V29.3333C30.3333 29.8856 29.8856 30.3333 29.3333 30.3333H12C11.4477 30.3333 11 29.8856 11 29.3333V12ZM13 13V28.3333H28.3333V13H13Z" fill="#212121"/>
<path fill-rule="evenodd" clip-rule="evenodd" d="M1.6665 12C1.6665 11.4477 2.11422 11 2.6665 11H7.99984C8.55212 11 8.99984 11.4477 8.99984 12V29.3333C8.99984 29.8856 8.55212 30.3333 7.99984 30.3333H2.6665C2.11422 30.3333 1.6665 29.8856 1.6665 29.3333V12ZM3.6665 13V28.3333H6.99984V13H3.6665Z" fill="#212121"/>
<path fill-rule="evenodd" clip-rule="evenodd" d="M1.6665 2.6665C1.6665 2.11422 2.11422 1.6665 2.6665 1.6665H29.3332C29.8855 1.6665 30.3332 2.11422 30.3332 2.6665V7.99984C30.3332 8.55212 29.8855 8.99984 29.3332 8.99984H2.6665C2.11422 8.99984 1.6665 8.55212 1.6665 7.99984V2.6665ZM3.6665 3.6665V6.99984H28.3332V3.6665H3.6665Z" fill="#212121"/>
</svg>
