<svg width="48" height="48" viewBox="0 0 48 48" fill="none" xmlns="http://www.w3.org/2000/svg">
<path fill-rule="evenodd" clip-rule="evenodd" d="M6.5 20C6.5 19.1716 7.17157 18.5 8 18.5H40C40.8284 18.5 41.5 19.1716 41.5 20V44C41.5 44.8284 40.8284 45.5 40 45.5H8C7.17157 45.5 6.5 44.8284 6.5 44V20ZM9.5 21.5V42.5H38.5V21.5H9.5Z" fill="#212121"/>
<path fill-rule="evenodd" clip-rule="evenodd" d="M23.9997 5.5C16.3993 5.5 13.4996 9.19994 13.4992 12.0001C13.4989 14.4999 13.499 16.4998 13.4992 17.8747L13.4994 18.5H34.4996L34.4995 17.5001C34.4994 16 34.4994 13.9999 34.4997 11.9998C34.5001 9.20024 31.6004 5.5 23.9997 5.5ZM37.4997 19.9998L37.4995 17.4999C37.4994 16 37.4994 14.0001 37.4997 12.0003C37.5005 6.80013 32.4002 2.5 23.9997 2.5C15.599 2.5 10.4999 6.80006 10.4992 11.9998C10.4989 14.4998 10.499 16.5 10.4992 17.8752L10.4997 20.0005C10.5 20.8287 11.1715 21.5 11.9997 21.5H35.9997C36.3976 21.5 36.7791 21.342 37.0604 21.0606C37.3418 20.7793 37.4998 20.3976 37.4997 19.9998Z" fill="#212121"/>
<path d="M28 30C28 32.2091 26.2091 34 24 34C21.7909 34 20 32.2091 20 30C20 27.7909 21.7909 26 24 26C26.2091 26 28 27.7909 28 30Z" fill="#212121"/>
<path d="M22 32C22 30.8954 22.8954 30 24 30C25.1046 30 26 30.8954 26 32V36C26 37.1046 25.1046 38 24 38C22.8954 38 22 37.1046 22 36V32Z" fill="#212121"/>
</svg>
