<svg width="48" height="48" viewBox="0 0 48 48" fill="none" xmlns="http://www.w3.org/2000/svg">
<path fill-rule="evenodd" clip-rule="evenodd" d="M15.3482 26.3968C14.4938 27.1309 13.6934 27.9678 13.3419 28.6708C12.8515 29.6516 12.7964 31.2683 12.968 32.8901C13.0011 33.2025 13.041 33.5022 13.0836 33.7813L19.3295 30.6584L20.6711 33.3416L11.0278 38.1633L10.5516 36.3888L12.0003 36C10.5516 36.3888 10.5516 36.3891 10.5516 36.3888L10.5507 36.3857L10.5494 36.3806L10.5452 36.3649L10.5314 36.3113C10.5199 36.2661 10.5039 36.202 10.4844 36.121C10.4455 35.9589 10.3927 35.7284 10.3345 35.4446C10.2183 34.8789 10.0784 34.0914 9.98467 33.2057C9.80696 31.5261 9.75188 29.1427 10.6586 27.3292C11.2951 26.0563 12.4947 24.8932 13.3933 24.1212C13.8653 23.7158 14.3021 23.3783 14.6213 23.1419C14.7814 23.0232 14.9133 22.929 15.0068 22.8634C15.0536 22.8305 15.0908 22.8047 15.1174 22.7865L15.149 22.7649L15.1585 22.7585L15.1616 22.7564C15.1618 22.7562 15.1636 22.755 16.0003 24C16.8369 25.245 16.8371 25.2449 16.8373 25.2448L16.8342 25.2468L16.8151 25.2599C16.797 25.2723 16.7686 25.292 16.7311 25.3183C16.656 25.371 16.5448 25.4504 16.4071 25.5524C16.1307 25.7572 15.7528 26.0493 15.3482 26.3968Z" fill="#212121"/>
<path fill-rule="evenodd" clip-rule="evenodd" d="M32.6518 26.3968C33.5062 27.1309 34.3066 27.9678 34.6581 28.6708C35.1485 29.6516 35.2036 31.2683 35.032 32.8901C34.9989 33.2025 34.959 33.5022 34.9164 33.7813L28.6705 30.6584L27.3289 33.3416L36.9722 38.1633L37.4484 36.3888L35.9997 36C37.4484 36.3888 37.4484 36.3891 37.4484 36.3888L37.4493 36.3857L37.4506 36.3806L37.4548 36.3649L37.4686 36.3113C37.4801 36.2661 37.4961 36.202 37.5156 36.121C37.5545 35.9589 37.6073 35.7284 37.6655 35.4446C37.7817 34.8789 37.9216 34.0914 38.0153 33.2057C38.193 31.5261 38.2481 29.1427 37.3414 27.3292C36.7049 26.0563 35.5053 24.8932 34.6067 24.1212C34.1347 23.7158 33.6979 23.3783 33.3787 23.1419C33.2186 23.0232 33.0867 22.929 32.9932 22.8634C32.9464 22.8305 32.9092 22.8047 32.8826 22.7865L32.851 22.7649L32.8415 22.7585L32.8384 22.7564C32.8382 22.7562 32.8364 22.755 31.9997 24C31.1631 25.245 31.1629 25.2449 31.1627 25.2448L31.1658 25.2468L31.1849 25.2599C31.203 25.2723 31.2314 25.292 31.2689 25.3183C31.344 25.371 31.4552 25.4504 31.5929 25.5524C31.8693 25.7572 32.2472 26.0493 32.6518 26.3968Z" fill="#212121"/>
<path d="M21.001 38L24.0008 44L27.001 38L24.0008 39L21.001 38Z" fill="#212121"/>
<path fill-rule="evenodd" clip-rule="evenodd" d="M28.1342 37.0173C27.7367 36.5589 27.1022 36.3852 26.5266 36.577L24.0008 37.4189L21.4753 36.577C20.8998 36.3852 20.2653 36.5589 19.8678 37.0172C19.4703 37.4756 19.388 38.1282 19.6593 38.6709L22.6591 44.6709C22.9132 45.179 23.4326 45.5 24.0007 45.5001C24.5689 45.5001 25.0883 45.1791 25.3424 44.6709L28.3426 38.6709C28.6139 38.1283 28.5317 37.4756 28.1342 37.0173ZM24.0747 40.4982L24.0009 40.646L23.927 40.4982C23.9762 40.5007 24.0255 40.5007 24.0747 40.4982Z" fill="#212121"/>
<path fill-rule="evenodd" clip-rule="evenodd" d="M19.9048 11.5267C18.4586 15.3832 17.5003 20.2047 17.5 24.0001C17.4999 25.281 18.2791 26.9627 19.2635 28.5016C19.7308 29.2322 20.2007 29.8644 20.5543 30.3142C20.7304 30.5384 20.8761 30.7152 20.9761 30.8341C21.0097 30.874 21.0381 30.9074 21.0607 30.9338C21.0624 30.9351 21.064 30.9365 21.0657 30.9379C21.1195 30.9832 21.2015 31.0508 21.3063 31.1332C21.5176 31.2992 21.8136 31.5191 22.1533 31.7364C22.9105 32.2207 23.5923 32.5 24 32.5C24.4077 32.5 25.0895 32.2207 25.8467 31.7364C26.1864 31.5191 26.4824 31.2992 26.6937 31.1332C26.7985 31.0508 26.8805 30.9832 26.9343 30.9379C26.936 30.9365 26.9376 30.9351 26.9392 30.9338C26.9618 30.9074 26.9902 30.8741 27.0239 30.8341C27.1238 30.7152 27.2695 30.5384 27.4457 30.3143C27.7992 29.8644 28.2691 29.2322 28.7364 28.5016C29.7207 26.9627 30.5 25.281 30.5 24C30.5 20.2047 29.5417 15.3832 28.0955 11.5267C27.372 9.59728 26.5568 7.99237 25.7375 6.9C24.8595 5.72937 24.2501 5.5 24 5.5C23.7499 5.5 23.1405 5.72934 22.2626 6.89997C21.4434 7.99233 20.6283 9.59724 19.9048 11.5267ZM28 32C29.1219 32.9957 29.1221 32.9954 29.1223 32.9952L29.1241 32.9932L29.1278 32.989L29.1395 32.9757L29.1793 32.9299C29.2129 32.8911 29.2605 32.8356 29.3199 32.7649C29.4387 32.6237 29.6055 32.4211 29.8043 32.1681C30.2008 31.6637 30.7309 30.9509 31.2636 30.1181C32.2793 28.5302 33.5 26.212 33.5 24C33.5 19.7953 32.4583 14.6168 30.9045 10.4733C30.128 8.40272 29.1932 6.50763 28.1375 5.1C27.1405 3.77063 25.7499 2.5 24 2.5C22.2501 2.5 20.8595 3.77066 19.8626 5.10003C18.8069 6.50767 17.8722 8.40276 17.0958 10.4733C15.542 14.6168 14.5004 19.7953 14.5 23.9999C14.4998 26.2119 15.7206 28.5303 16.7363 30.1181C17.269 30.9509 17.7992 31.6638 18.1957 32.1682C18.3945 32.4212 18.5613 32.6237 18.6801 32.765C18.7396 32.8357 18.7871 32.8911 18.8207 32.93L18.8606 32.9757L18.8722 32.989L18.8759 32.9932L18.8777 32.9952C18.8779 32.9955 18.8781 32.9957 20 32L18.8777 32.9952C18.9172 33.0398 18.9598 33.0824 19.0043 33.1219L20 32C19.0043 33.1219 19.0041 33.1217 19.0043 33.1219L19.0064 33.1238L19.0094 33.1264L19.0178 33.1337L19.0443 33.1568C19.0663 33.1758 19.0967 33.2019 19.1348 33.234C19.211 33.2981 19.3188 33.3867 19.4525 33.4918C19.7183 33.7008 20.0949 33.9809 20.5368 34.2636C21.343 34.7793 22.6613 35.5 24 35.5C25.3387 35.5 26.657 34.7793 27.4632 34.2636C27.9051 33.9809 28.2817 33.7008 28.5475 33.4918C28.6812 33.3867 28.789 33.2981 28.8652 33.234C28.9033 33.2019 28.9337 33.1758 28.9557 33.1568L28.9822 33.1337L28.9906 33.1264L28.9936 33.1238L28.9952 33.1223C28.9955 33.1221 28.9957 33.1219 28 32ZM28 32L28.9952 33.1223C29.0398 33.0828 29.0828 33.0397 29.1223 32.9952L28 32Z" fill="#212121"/>
<path d="M28 20C28 22.2091 26.2091 24 24 24C21.7909 24 20 22.2091 20 20C20 17.7909 21.7909 16 24 16C26.2091 16 28 17.7909 28 20Z" fill="#212121"/>
</svg>
