<svg width="25" height="24" viewBox="0 0 25 24" fill="none" xmlns="http://www.w3.org/2000/svg">
<g clip-path="url(#clip0_470_4191)">
<path d="M24.25 18C24.25 18.7073 23.969 19.3856 23.469 19.8857C22.9689 20.3858 22.2906 20.6667 21.5833 20.6667H2.91667C2.20942 20.6667 1.53115 20.3858 1.03105 19.8857C0.530952 19.3856 0.25 18.7073 0.25 18V15.3334H24.25V18Z" fill="#CE2028"/>
<path d="M0.25 8.66663H24.25V15.3333H0.25V8.66663Z" fill="#22408C"/>
<path d="M21.5833 3.33337H2.91667C2.20942 3.33337 1.53115 3.61433 1.03105 4.11442C0.530952 4.61452 0.25 5.2928 0.25 6.00004L0.25 8.66671H24.25V6.00004C24.25 5.2928 23.969 4.61452 23.469 4.11442C22.9689 3.61433 22.2906 3.33337 21.5833 3.33337Z" fill="#EEEEEE"/>
</g>
<defs>
<clipPath id="clip0_470_4191">
<rect width="24" height="24" fill="white" transform="translate(0.25)"/>
</clipPath>
</defs>
</svg>
