<svg width="32" height="32" viewBox="0 0 32 32" fill="none" xmlns="http://www.w3.org/2000/svg">
<path fill-rule="evenodd" clip-rule="evenodd" d="M15.9998 1.6665C16.4587 1.6665 16.8587 1.9788 16.97 2.42397L19.4911 12.5085L29.5757 15.0297C30.0209 15.141 30.3332 15.541 30.3332 15.9998C30.3332 16.4587 30.0209 16.8587 29.5757 16.97L19.4911 19.4911L16.97 29.5757C16.8587 30.0209 16.4587 30.3332 15.9998 30.3332C15.541 30.3332 15.141 30.0209 15.0297 29.5757L12.5085 19.4911L2.42397 16.97C1.9788 16.8587 1.6665 16.4587 1.6665 15.9998C1.6665 15.541 1.9788 15.141 2.42397 15.0297L12.5085 12.5085L15.0297 2.42397C15.141 1.9788 15.541 1.6665 15.9998 1.6665ZM15.9998 6.78961L14.3033 13.5757C14.2137 13.934 13.934 14.2137 13.5757 14.3033L6.78961 15.9998L13.5757 17.6964C13.934 17.7859 14.2137 18.0657 14.3033 18.424L15.9998 25.2101L17.6964 18.424C17.7859 18.0657 18.0657 17.7859 18.424 17.6964L25.2101 15.9998L18.424 14.3033C18.0657 14.2137 17.7859 13.934 17.6964 13.5757L15.9998 6.78961Z" fill="#212121"/>
<path d="M24.5335 5.8665L25.3335 2.6665L26.1335 5.8665L29.3335 6.6665L26.1335 7.4665L25.3335 10.6665L24.5335 7.4665L21.3335 6.6665L24.5335 5.8665Z" fill="#212121"/>
<path fill-rule="evenodd" clip-rule="evenodd" d="M25.3335 1.6665C25.7924 1.6665 26.1923 1.9788 26.3036 2.42397L26.9581 5.04188L29.576 5.69636C30.0212 5.80765 30.3335 6.20764 30.3335 6.6665C30.3335 7.12537 30.0212 7.52535 29.576 7.63665L26.9581 8.29113L26.3036 10.909C26.1923 11.3542 25.7924 11.6665 25.3335 11.6665C24.8746 11.6665 24.4746 11.3542 24.3634 10.909L23.7089 8.29113L21.091 7.63665C20.6458 7.52535 20.3335 7.12537 20.3335 6.6665C20.3335 6.20764 20.6458 5.80765 21.091 5.69636L23.7089 5.04188L24.3634 2.42397C24.4746 1.9788 24.8746 1.6665 25.3335 1.6665ZM25.3335 6.46652C25.2766 6.5423 25.2093 6.60965 25.1335 6.6665C25.2093 6.72335 25.2766 6.79071 25.3335 6.86649C25.3903 6.79071 25.4577 6.72335 25.5335 6.6665C25.4577 6.60965 25.3903 6.5423 25.3335 6.46652Z" fill="#212121"/>
<path d="M5.33317 25.3332L5.99984 22.6665L6.6665 25.3332L9.33317 25.9998L6.6665 26.6665L5.99984 29.3332L5.33317 26.6665L2.6665 25.9998L5.33317 25.3332Z" fill="#212121"/>
<path fill-rule="evenodd" clip-rule="evenodd" d="M5.99984 21.6665C6.4587 21.6665 6.85869 21.9788 6.96998 22.424L7.49112 24.5085L9.57571 25.0297C10.0209 25.141 10.3332 25.541 10.3332 25.9998C10.3332 26.4587 10.0209 26.8587 9.57571 26.97L7.49112 27.4911L6.96998 29.5757C6.85869 30.0209 6.4587 30.3332 5.99984 30.3332C5.54097 30.3332 5.14099 30.0209 5.0297 29.5757L4.50855 27.4911L2.42397 26.97C1.9788 26.8587 1.6665 26.4587 1.6665 25.9998C1.6665 25.541 1.9788 25.141 2.42397 25.0297L4.50855 24.5085L5.0297 22.424C5.14099 21.9788 5.54097 21.6665 5.99984 21.6665Z" fill="#212121"/>
</svg>
