<svg width="96" height="96" viewBox="0 0 96 96" fill="none" xmlns="http://www.w3.org/2000/svg">
<path fill-rule="evenodd" clip-rule="evenodd" d="M43.3011 18.012C34.4851 13.512 26.8211 12.604 23.0372 16.4C16.5172 22.92 23.8931 40.868 39.5171 56.488C55.1371 72.108 73.0851 79.488 79.6051 72.968C83.3971 69.176 82.4851 61.516 77.9891 52.7C77.1771 52.84 76.2811 52.86 75.3211 52.684C71.5411 52.004 65.5811 49.1 56.2411 39.764C46.9011 30.428 43.9971 24.46 43.3171 20.68C43.1545 19.7985 43.1491 18.8953 43.3011 18.012ZM50.8211 50.828C50.4542 51.2187 50.0126 51.5317 49.5223 51.7483C49.0321 51.965 48.5033 52.081 47.9674 52.0893C47.4315 52.0976 46.8994 51.9981 46.4026 51.7968C45.9059 51.5954 45.4547 51.2963 45.0759 50.9172C44.697 50.5381 44.3982 50.0867 44.1972 49.5898C43.9962 49.0929 43.8971 48.5607 43.9058 48.0248C43.9145 47.4889 44.0308 46.9602 44.2479 46.4701C44.4649 45.9801 44.7782 45.5386 45.1691 45.172C45.9236 44.4433 46.934 44.0402 47.9827 44.0493C49.0315 44.0584 50.0348 44.4791 50.7764 45.2207C51.5181 45.9623 51.9387 46.9656 51.9478 48.0144C51.957 49.0631 51.5498 50.0736 50.8211 50.828ZM33.8571 33.856C34.2241 34.2467 34.6657 34.5597 35.156 34.7763C35.6462 34.993 36.175 35.109 36.7109 35.1173C37.2468 35.1256 37.7789 35.0261 38.2757 34.8248C38.7724 34.6234 39.2236 34.3243 39.6024 33.9452C39.9813 33.5661 40.2801 33.1147 40.4811 32.6178C40.6821 32.1209 40.7812 31.5887 40.7725 31.0528C40.7638 30.5169 40.6475 29.9882 40.4304 29.4981C40.2134 29.0081 39.9001 28.5666 39.5091 28.2C38.7547 27.4713 37.7443 27.0682 36.6955 27.0773C35.6468 27.0864 34.6435 27.5071 33.9019 28.2487C33.1602 28.9903 32.7396 29.9936 32.7305 31.0424C32.7213 32.0911 33.1245 33.1016 33.8531 33.856M67.7971 62.14C67.4258 62.5116 66.9848 62.8065 66.4995 63.0077C66.0142 63.2089 65.494 63.3126 64.9686 63.3128C64.4432 63.313 63.9229 63.2097 63.4374 63.0088C62.9519 62.8079 62.5108 62.5133 62.1391 62.142C61.7675 61.7706 61.4727 61.3296 61.2714 60.8443C61.0702 60.359 60.9665 59.8388 60.9663 59.3134C60.9662 58.788 61.0695 58.2677 61.2703 57.7822C61.4712 57.2968 61.7658 56.8556 62.1371 56.484C62.8872 55.7334 63.9046 55.3115 64.9657 55.3112C66.0268 55.3108 67.0446 55.7319 67.7951 56.482C68.5457 57.232 68.9676 58.2495 68.968 59.3105C68.9683 60.3716 68.5472 61.3894 67.7971 62.14Z" fill="#212121"/>
<path d="M33.146 67.092C33.6759 66.5233 33.9644 65.7712 33.9507 64.994C33.937 64.2168 33.6222 63.4752 33.0725 62.9256C32.5229 62.3759 31.7813 62.0611 31.0041 62.0473C30.2269 62.0336 29.4747 62.3221 28.906 62.852L12.418 79.332C12.1394 79.6107 11.9183 79.9415 11.7675 80.3056C11.6167 80.6697 11.5391 81.06 11.5391 81.454C11.5391 81.8481 11.6167 82.2384 11.7675 82.6025C11.9183 82.9666 12.1394 83.2974 12.418 83.576C12.9808 84.1388 13.7441 84.455 14.54 84.455C14.9341 84.455 15.3243 84.3774 15.6884 84.2266C16.0525 84.0758 16.3834 83.8547 16.662 83.576L33.146 67.092Z" fill="#757575"/>
<path d="M49.2127 19.1601C52.843 16.8679 57.145 15.8786 61.4119 16.3548C65.6788 16.8309 69.6569 18.7441 72.6927 21.7801L74.2287 23.3121C77.2641 26.3484 79.1766 30.3267 79.652 34.5936C80.1273 38.8605 79.1374 43.1622 76.8447 46.7921C76.6914 46.809 76.5365 46.8036 76.3847 46.7761C74.4007 46.4161 69.5127 44.5361 60.4887 35.5161C51.4687 26.4921 49.5887 21.6081 49.2287 19.6201C49.2012 19.4683 49.1959 19.3134 49.2127 19.1601Z" fill="#757575"/>
<path d="M19.7565 46.0433C19.642 46.4204 19.4545 46.7714 19.2044 47.076L10.3204 57.904C10.0724 58.2145 9.76512 58.4726 9.4165 58.6634C9.06787 58.8541 8.68483 58.9737 8.2896 59.0152C7.89438 59.0566 7.49485 59.0192 7.11423 58.9049C6.7336 58.7907 6.37947 58.602 6.07239 58.3497C5.76531 58.0975 5.5114 57.7868 5.32541 57.4356C5.13942 57.0844 5.02506 56.6998 4.98896 56.304C4.95287 55.9083 4.99576 55.5093 5.11515 55.1303C5.23454 54.7512 5.42804 54.3997 5.68442 54.096L14.5644 43.268C14.8145 42.9634 15.1221 42.7109 15.4697 42.5252C15.8172 42.3394 16.198 42.2239 16.5903 42.1852C16.9825 42.1466 17.3785 42.1856 17.7557 42.3C18.1328 42.4144 18.4838 42.602 18.7884 42.852C19.0931 43.1021 19.3455 43.4097 19.5313 43.7573C19.7171 44.1049 19.8326 44.4857 19.8712 44.8779C19.9099 45.2701 19.8709 45.6661 19.7565 46.0433Z" fill="#E0E0E0"/>
<path d="M53.8138 79.4081C53.8918 78.6169 53.6525 77.827 53.1484 77.212C52.8982 76.9075 52.5904 76.6513 52.2427 76.4658C51.8949 76.2803 51.5141 76.1651 51.1218 76.1268C50.7295 76.0886 50.3336 76.128 49.9565 76.2428C49.5795 76.3576 49.2288 76.5456 48.9244 76.7961L38.0964 85.676C37.4811 86.181 37.0916 86.9097 37.0136 87.7019C36.9356 88.494 37.1754 89.2847 37.6804 89.9C38.1854 90.5154 38.9141 90.9049 39.7063 90.9829C40.0985 91.0215 40.4945 90.9825 40.8717 90.8681C41.2488 90.7537 41.5998 90.5661 41.9044 90.316L52.7324 81.432C53.3468 80.9274 53.7358 80.1994 53.8138 79.4081Z" fill="#E0E0E0"/>
</svg>
