<svg width="25" height="24" viewBox="0 0 25 24" fill="none" xmlns="http://www.w3.org/2000/svg">
<g clip-path="url(#clip0_470_4195)">
<path d="M0.25 6.00004V8.66671H24.25V6.00004C24.25 5.2928 23.969 4.61452 23.469 4.11442C22.9689 3.61433 22.2906 3.33337 21.5833 3.33337H2.91667C2.20942 3.33337 1.53115 3.61433 1.03105 4.11442C0.530952 4.61452 0.25 5.2928 0.25 6.00004Z" fill="#0099B5"/>
<path d="M24.25 18V15.3334H0.25V18C0.25 18.7073 0.530952 19.3856 1.03105 19.8857C1.53115 20.3858 2.20942 20.6667 2.91667 20.6667H21.5833C22.2906 20.6667 22.9689 20.3858 23.469 19.8857C23.969 19.3856 24.25 18.7073 24.25 18Z" fill="#1EB53A"/>
<path d="M0.25 8.66663H24.25V9.66663H0.25V8.66663ZM0.25 14.3333H24.25V15.3333H0.25V14.3333Z" fill="#CE1126"/>
<path d="M0.25 12V14.3333H24.25V9.66663H0.25V12Z" fill="#EEEEEE"/>
<path d="M3.04998 6.10661C3.05004 5.61511 3.22415 5.1395 3.54143 4.76413C3.85872 4.38875 4.29868 4.13786 4.78331 4.05594C4.48497 4.0053 4.17918 4.02037 3.88726 4.10009C3.59534 4.17981 3.32433 4.32227 3.09314 4.51752C2.86195 4.71277 2.67615 4.95612 2.5487 5.23058C2.42125 5.50504 2.35522 5.804 2.35522 6.10661C2.35522 6.40922 2.42125 6.70818 2.5487 6.98264C2.67615 7.2571 2.86195 7.50045 3.09314 7.6957C3.32433 7.89096 3.59534 8.03341 3.88726 8.11313C4.17918 8.19285 4.48497 8.20792 4.78331 8.15728C4.29868 8.07536 3.85872 7.82447 3.54143 7.4491C3.22415 7.07372 3.05004 6.59812 3.04998 6.10661ZM6.17198 7.64194L6.07865 7.35461L5.98531 7.64194H5.68265L5.92731 7.81994L5.83398 8.10728L6.07865 7.92928L6.32265 8.10728L6.22931 7.81994L6.47398 7.64194H6.17198ZM7.97331 7.64194L7.87998 7.35461L7.78665 7.64194H7.48465L7.72931 7.81994L7.63598 8.10728L7.87998 7.92928L8.12465 8.10728L8.03131 7.81994L8.27598 7.64194H7.97331ZM7.87998 5.69061L7.78665 5.97794H7.48465L7.72931 6.15594L7.63598 6.44328L7.87998 6.26528L8.12465 6.44328L8.03131 6.15594L8.27598 5.97794H7.97331L7.87998 5.69061ZM9.77531 7.64194L9.68198 7.35461L9.58865 7.64194H9.28665L9.53065 7.81994L9.43731 8.10728L9.68198 7.92928L9.92665 8.10728L9.83331 7.81994L10.0773 7.64194H9.77531ZM9.68198 5.69061L9.58865 5.97794H9.28665L9.53065 6.15594L9.43731 6.44328L9.68198 6.26528L9.92665 6.44328L9.83331 6.15594L10.0773 5.97794H9.77531L9.68198 5.69061ZM9.68198 4.02661L9.58865 4.31394H9.28665L9.53065 4.49194L9.43731 4.77928L9.68198 4.60128L9.92665 4.77928L9.83331 4.49194L10.0773 4.31394H9.77531L9.68198 4.02661ZM11.5773 7.64194L11.484 7.35461L11.3906 7.64194H11.088L11.3326 7.81994L11.2393 8.10728L11.484 7.92928L11.728 8.10728L11.6346 7.81994L11.8793 7.64194H11.5773ZM11.484 5.69061L11.3906 5.97794H11.088L11.3326 6.15594L11.2393 6.44328L11.484 6.26528L11.728 6.44328L11.6346 6.15594L11.8793 5.97794H11.5773L11.484 5.69061ZM11.484 4.02661L11.3906 4.31394H11.088L11.3326 4.49194L11.2393 4.77928L11.484 4.60128L11.728 4.77928L11.6346 4.49194L11.8793 4.31394H11.5773L11.484 4.02661ZM13.3786 7.64194L13.2853 7.35461L13.192 7.64194H12.89L13.1346 7.81994L13.0413 8.10728L13.2853 7.92928L13.53 8.10728L13.4366 7.81994L13.6813 7.64194H13.3786ZM13.2853 5.69061L13.192 5.97794H12.89L13.1346 6.15594L13.0413 6.44328L13.2853 6.26528L13.53 6.44328L13.4366 6.15594L13.6813 5.97794H13.3786L13.2853 5.69061ZM13.2853 4.02661L13.192 4.31394H12.89L13.1346 4.49194L13.0413 4.77928L13.2853 4.60128L13.53 4.77928L13.4366 4.49194L13.6813 4.31394H13.3786L13.2853 4.02661Z" fill="white"/>
</g>
<defs>
<clipPath id="clip0_470_4195">
<rect width="24" height="24" fill="white" transform="translate(0.25)"/>
</clipPath>
</defs>
</svg>
