<svg width="418" height="256" viewBox="0 0 418 256" fill="none" xmlns="http://www.w3.org/2000/svg">
<g opacity="0.75" clip-path="url(#clip0_773_129)">
<path d="M221.804 191.409C220.908 196.822 216.19 200.967 210.522 200.967C204.853 200.967 200.13 196.822 199.24 191.409H170.369V253.892H250.674V191.409L221.804 191.409Z" fill="#E0E0E0" fill-opacity="0.933333"/>
<path d="M179.702 253.66H171.766V255.06H179.702V253.66Z" fill="#757575"/>
<path d="M249.97 253.892H242.033V255.292H249.97V253.892Z" fill="#757575"/>
<path d="M372.022 193.041H49.0204C46.5504 193.041 44.541 191.035 44.541 188.568V4.47358C44.541 2.00679 46.5504 0 49.0204 0H372.022C374.492 0 376.501 2.00679 376.501 4.47358V188.573C376.501 191.04 374.492 193.046 372.022 193.046L372.022 193.041Z" fill="#212121"/>
<path d="M368.794 7.92603H52.7109V186.045H368.794V7.92603Z" fill="white"/>
<path d="M0 255.54C0 255.793 0.202453 256 0.460592 256H417.539C417.792 256 418 255.798 418 255.54C418 255.282 417.798 255.08 417.539 255.08H0.460592C0.20752 255.08 0 255.282 0 255.54Z" fill="#212121"/>
<path d="M93.1779 51.5597H84.6563C82.6098 51.5597 80.9453 49.8709 80.9453 47.7947V39.149C80.9453 37.0728 82.6098 35.384 84.6563 35.384H93.1779C95.2244 35.384 96.8889 37.0728 96.8889 39.149V47.7947C96.8889 49.8709 95.2244 51.5597 93.1779 51.5597Z" fill="#FFD700"/>
<path d="M132.658 51.5597H124.137C122.09 51.5597 120.426 49.8709 120.426 47.7947V39.149C120.426 37.0728 122.09 35.384 124.137 35.384H132.658C134.705 35.384 136.369 37.0728 136.369 39.149V47.7947C136.369 49.8709 134.705 51.5597 132.658 51.5597Z" fill="#FFD700"/>
<path d="M172.643 51.5597H164.121C162.075 51.5597 160.41 49.8709 160.41 47.7947V39.149C160.41 37.0728 162.075 35.384 164.121 35.384H172.643C174.689 35.384 176.354 37.0728 176.354 39.149V47.7947C176.354 49.8709 174.689 51.5597 172.643 51.5597Z" fill="#FFD700"/>
<path d="M213.135 51.5597H204.613C202.567 51.5597 200.902 49.8709 200.902 47.7947V39.149C200.902 37.0728 202.567 35.384 204.613 35.384H213.135C215.181 35.384 216.846 37.0728 216.846 39.149V47.7947C216.846 49.8709 215.181 51.5597 213.135 51.5597Z" fill="#212121"/>
<path d="M252.615 51.5597H244.094C242.047 51.5597 240.383 49.8709 240.383 47.7947V39.149C240.383 37.0728 242.047 35.384 244.094 35.384H252.615C254.662 35.384 256.326 37.0728 256.326 39.149V47.7947C256.326 49.8709 254.662 51.5597 252.615 51.5597Z" fill="#212121"/>
<path d="M292.6 51.5597H284.078C282.032 51.5597 280.367 49.8709 280.367 47.7947V39.149C280.367 37.0728 282.032 35.384 284.078 35.384H292.6C294.646 35.384 296.311 37.0728 296.311 39.149V47.7947C296.311 49.8709 294.646 51.5597 292.6 51.5597Z" fill="#757575"/>
<path d="M332.08 51.5597H323.559C321.512 51.5597 319.848 49.8709 319.848 47.7947V39.149C319.848 37.0728 321.512 35.384 323.559 35.384H332.08C334.127 35.384 335.791 37.0728 335.791 39.149V47.7947C335.791 49.8709 334.127 51.5597 332.08 51.5597Z" fill="#E0E0E0"/>
<path d="M93.1779 82.3947H84.6563C82.6098 82.3947 80.9453 80.7059 80.9453 78.6297V69.984C80.9453 67.9077 82.6098 66.219 84.6563 66.219H93.1779C95.2244 66.219 96.8889 67.9077 96.8889 69.984V78.6297C96.8889 80.7059 95.2244 82.3947 93.1779 82.3947Z" fill="#E0E0E0"/>
<path d="M132.658 82.3947H124.137C122.09 82.3947 120.426 80.7059 120.426 78.6297V69.984C120.426 67.9077 122.09 66.219 124.137 66.219H132.658C134.705 66.219 136.369 67.9077 136.369 69.984V78.6297C136.369 80.7059 134.705 82.3947 132.658 82.3947Z" fill="#E0E0E0"/>
<path d="M172.643 82.3947H164.121C162.075 82.3947 160.41 80.7059 160.41 78.6297V69.984C160.41 67.9077 162.075 66.219 164.121 66.219H172.643C174.689 66.219 176.354 67.9077 176.354 69.984V78.6297C176.354 80.7059 174.689 82.3947 172.643 82.3947Z" fill="#E0E0E0"/>
<path d="M213.135 82.3947H204.613C202.567 82.3947 200.902 80.7059 200.902 78.6297V69.984C200.902 67.9077 202.567 66.219 204.613 66.219H213.135C215.181 66.219 216.846 67.9077 216.846 69.984V78.6297C216.846 80.7059 215.181 82.3947 213.135 82.3947Z" fill="#E0E0E0"/>
<path d="M252.615 82.3947H244.094C242.047 82.3947 240.383 80.7059 240.383 78.6297V69.984C240.383 67.9077 242.047 66.219 244.094 66.219H252.615C254.662 66.219 256.326 67.9077 256.326 69.984V78.6297C256.326 80.7059 254.662 82.3947 252.615 82.3947Z" fill="#E0E0E0"/>
<path d="M292.6 82.3947H284.078C282.032 82.3947 280.367 80.7059 280.367 78.6297V69.984C280.367 67.9077 282.032 66.219 284.078 66.219H292.6C294.646 66.219 296.311 67.9077 296.311 69.984V78.6297C296.311 80.7059 294.646 82.3947 292.6 82.3947Z" fill="#E0E0E0"/>
<path d="M332.08 82.3947H323.559C321.512 82.3947 319.848 80.7059 319.848 78.6297V69.984C319.848 67.9077 321.512 66.219 323.559 66.219H332.08C334.127 66.219 335.791 67.9077 335.791 69.984V78.6297C335.791 80.7059 334.127 82.3947 332.08 82.3947Z" fill="#E0E0E0"/>
<path d="M93.1779 113.229H84.6563C82.6098 113.229 80.9453 111.541 80.9453 109.464V100.819C80.9453 98.7425 82.6098 97.0537 84.6563 97.0537H93.1779C95.2244 97.0537 96.8889 98.7425 96.8889 100.819V109.464C96.8889 111.541 95.2244 113.229 93.1779 113.229Z" fill="#E0E0E0"/>
<path d="M132.658 113.229H124.137C122.09 113.229 120.426 111.541 120.426 109.464V100.819C120.426 98.7425 122.09 97.0537 124.137 97.0537H132.658C134.705 97.0537 136.369 98.7425 136.369 100.819V109.464C136.369 111.541 134.705 113.229 132.658 113.229Z" fill="#E0E0E0"/>
<path d="M172.643 113.229H164.121C162.075 113.229 160.41 111.541 160.41 109.464V100.819C160.41 98.7425 162.075 97.0537 164.121 97.0537H172.643C174.689 97.0537 176.354 98.7425 176.354 100.819V109.464C176.354 111.541 174.689 113.229 172.643 113.229Z" fill="#E0E0E0"/>
<path d="M213.135 113.229H204.613C202.567 113.229 200.902 111.541 200.902 109.464V100.819C200.902 98.7425 202.567 97.0537 204.613 97.0537H213.135C215.181 97.0537 216.846 98.7425 216.846 100.819V109.464C216.846 111.541 215.181 113.229 213.135 113.229Z" fill="#E0E0E0"/>
<path d="M252.615 113.229H244.094C242.047 113.229 240.383 111.541 240.383 109.464V100.819C240.383 98.7425 242.047 97.0537 244.094 97.0537H252.615C254.662 97.0537 256.326 98.7425 256.326 100.819V109.464C256.326 111.541 254.662 113.229 252.615 113.229Z" fill="#E0E0E0"/>
<path d="M292.6 113.229H284.078C282.032 113.229 280.367 111.541 280.367 109.464V100.819C280.367 98.7425 282.032 97.0537 284.078 97.0537H292.6C294.646 97.0537 296.311 98.7425 296.311 100.819V109.464C296.311 111.541 294.646 113.229 292.6 113.229Z" fill="#E0E0E0"/>
<path d="M332.08 113.229H323.559C321.512 113.229 319.848 111.541 319.848 109.464V100.819C319.848 98.7425 321.512 97.0537 323.559 97.0537H332.08C334.127 97.0537 335.791 98.7425 335.791 100.819V109.464C335.791 111.541 334.127 113.229 332.08 113.229Z" fill="#E0E0E0"/>
<path d="M135.307 71.3747C137.263 71.3747 138.85 69.7905 138.85 67.8363C138.85 65.8821 137.263 64.2979 135.307 64.2979C133.35 64.2979 131.764 65.8821 131.764 67.8363C131.764 69.7905 133.35 71.3747 135.307 71.3747Z" fill="#FFD700"/>
</g>
<defs>
<clipPath id="clip0_773_129">
<rect width="418" height="256" fill="white"/>
</clipPath>
</defs>
</svg>
