<svg width="418" height="152" viewBox="0 0 418 152" fill="none" xmlns="http://www.w3.org/2000/svg">
<g opacity="0.75" clip-path="url(#clip0_773_205)">
<path d="M346.556 141.543H178.08C177.186 141.542 176.329 141.187 175.697 140.557C175.066 139.927 174.71 139.072 174.709 138.18V106.502H176.057V138.18C176.058 138.715 176.271 139.228 176.65 139.606C177.03 139.985 177.544 140.197 178.08 140.198H346.556C347.092 140.197 347.606 139.985 347.986 139.606C348.365 139.228 348.578 138.715 348.579 138.18V106.281H349.927V138.18C349.926 139.072 349.571 139.927 348.939 140.557C348.307 141.187 347.45 141.542 346.556 141.543Z" fill="#E0E0E0"/>
<path d="M407.628 105.83H11.7285V107.175H407.628V105.83Z" fill="#E0E0E0"/>
<path d="M11.7576 117.967C18.1627 117.967 23.3551 112.787 23.3551 106.397C23.3551 100.008 18.1627 94.8279 11.7576 94.8279C5.35252 94.8279 0.160156 100.008 0.160156 106.397C0.160156 112.787 5.35252 117.967 11.7576 117.967Z" fill="#FFD700"/>
<path d="M129.611 117.967C136.016 117.967 141.209 112.787 141.209 106.397C141.209 100.008 136.016 94.8279 129.611 94.8279C123.206 94.8279 118.014 100.008 118.014 106.397C118.014 112.787 123.206 117.967 129.611 117.967Z" fill="#FFD700"/>
<path d="M209.59 151.972C215.995 151.972 221.187 146.793 221.187 140.403C221.187 134.013 215.995 128.833 209.59 128.833C203.185 128.833 197.992 134.013 197.992 140.403C197.992 146.793 203.185 151.972 209.59 151.972Z" fill="#757575"/>
<path d="M272.597 151.972C279.003 151.972 284.195 146.793 284.195 140.403C284.195 134.013 279.003 128.833 272.597 128.833C266.192 128.833 261 134.013 261 140.403C261 146.793 266.192 151.972 272.597 151.972Z" fill="#212121"/>
<path d="M240.93 117.967C247.335 117.967 252.527 112.787 252.527 106.397C252.527 100.008 247.335 94.8279 240.93 94.8279C234.524 94.8279 229.332 100.008 229.332 106.397C229.332 112.787 234.524 117.967 240.93 117.967Z" fill="#FFD700"/>
<path d="M406.039 117.967C412.444 117.967 417.636 112.787 417.636 106.397C417.636 100.008 412.444 94.8279 406.039 94.8279C399.634 94.8279 394.441 100.008 394.441 106.397C394.441 112.787 399.634 117.967 406.039 117.967Z" fill="#FFD700"/>
<path d="M349.252 117.967C355.657 117.967 360.849 112.787 360.849 106.397C360.849 100.008 355.657 94.8279 349.252 94.8279C342.847 94.8279 337.654 100.008 337.654 106.397C337.654 112.787 342.847 117.967 349.252 117.967Z" fill="#FFD700"/>
<path d="M283.511 0H262V14.7896H283.511V0Z" fill="#212121"/>
<path d="M22.5971 0H1.08594V14.7896H22.5971V0Z" fill="#FFD700"/>
<path d="M95.4603 0H73.9492V14.7896H95.4603V0Z" fill="#757575"/>
<path d="M47.7211 107.175C47.5423 107.175 47.3708 107.104 47.2444 106.978C47.1179 106.852 47.0469 106.681 47.0469 106.502V73.3028C47.0479 72.4112 47.4034 71.5565 48.0354 70.926C48.6673 70.2956 49.5241 69.941 50.4178 69.9399H83.2341C83.4129 69.9399 83.5844 70.0108 83.7108 70.1369C83.8373 70.2631 83.9083 70.4341 83.9083 70.6125C83.9083 70.7909 83.8373 70.962 83.7108 71.0881C83.5844 71.2142 83.4129 71.2851 83.2341 71.2851H50.4178C49.8816 71.2857 49.3675 71.4984 48.9883 71.8767C48.6091 72.255 48.3958 72.7678 48.3953 73.3028V106.502C48.3953 106.681 48.3242 106.852 48.1978 106.978C48.0714 107.104 47.8999 107.175 47.7211 107.175Z" fill="#E0E0E0"/>
<path d="M84.7772 81.9307C91.1823 81.9307 96.3746 76.7509 96.3746 70.3612C96.3746 63.9716 91.1823 58.7917 84.7772 58.7917C78.3721 58.7917 73.1797 63.9716 73.1797 70.3612C73.1797 76.7509 78.3721 81.9307 84.7772 81.9307Z" fill="#757575"/>
<path d="M307.284 106.502H305.936V73.3028C305.937 72.4112 306.292 71.5565 306.924 70.926C307.556 70.2956 308.413 69.941 309.307 69.9399H342.123V71.2851H309.307C308.77 71.2857 308.256 71.4984 307.877 71.8767C307.498 72.255 307.285 72.7678 307.284 73.3028V106.502Z" fill="#E0E0E0"/>
<path d="M349.097 81.9307C355.503 81.9307 360.695 76.7509 360.695 70.3612C360.695 63.9716 355.503 58.7917 349.097 58.7917C342.692 58.7917 337.5 63.9716 337.5 70.3612C337.5 76.7509 342.692 81.9307 349.097 81.9307Z" fill="#757575"/>
</g>
<defs>
<clipPath id="clip0_773_205">
<rect width="418" height="152" fill="white"/>
</clipPath>
</defs>
</svg>
