<svg width="418" height="236" viewBox="0 0 418 236" fill="none" xmlns="http://www.w3.org/2000/svg">
<g opacity="0.75" clip-path="url(#clip0_773_265)">
<path d="M413.921 234.779H4.07702C2.16472 234.779 0.609375 233.223 0.609375 231.311V4.46861C0.609375 2.55578 2.16472 1 4.07702 1H413.921C415.834 1 417.389 2.55578 417.389 4.46861V231.311C417.389 233.223 415.834 234.779 413.921 234.779Z" stroke="#E0E0E0" stroke-width="2" stroke-miterlimit="10"/>
<path d="M33.909 24.8053H17.9599C15.7955 24.8053 14.0352 23.0445 14.0352 20.8795V18.9649C14.0352 16.7999 15.7955 15.0391 17.9599 15.0391H33.909C36.0734 15.0391 37.8337 16.7999 37.8337 18.9649V20.8795C37.8337 23.0445 36.0734 24.8053 33.909 24.8053Z" fill="#FFD700"/>
<path d="M360.945 23.5845H352.402C350.215 23.5845 348.436 21.8046 348.436 19.6169C348.436 17.4293 350.215 15.6494 352.402 15.6494H360.945C363.132 15.6494 364.911 17.4293 364.911 19.6169C364.911 21.8046 363.132 23.5845 360.945 23.5845Z" fill="#212121"/>
<path d="M380.472 23.5845H371.929C369.742 23.5845 367.963 21.8046 367.963 19.6169C367.963 17.4293 369.742 15.6494 371.929 15.6494H380.472C382.659 15.6494 384.439 17.4293 384.439 19.6169C384.439 21.8046 382.659 23.5845 380.472 23.5845Z" fill="#212121"/>
<path d="M399.998 23.5845H391.455C389.268 23.5845 387.488 21.8046 387.488 19.6169C387.488 17.4293 389.268 15.6494 391.455 15.6494H399.998C402.185 15.6494 403.964 17.4293 403.964 19.6169C403.964 21.8046 402.185 23.5845 399.998 23.5845Z" fill="#212121"/>
<path d="M399.075 178.623H153.781C151.086 178.623 148.893 176.43 148.893 173.733V40.6825C148.893 37.9858 151.086 35.7922 153.781 35.7922H399.075C401.771 35.7922 403.964 37.9858 403.964 40.6825V173.733C403.964 176.43 401.771 178.623 399.075 178.623Z" fill="#FFD700"/>
<path d="M73.2256 90.7273H18.9161C16.561 90.7273 14.6445 88.8103 14.6445 86.4546C14.6445 84.0989 16.561 82.1819 18.9161 82.1819H73.2256C75.5806 82.1819 77.4971 84.0989 77.4971 86.4546C77.4971 88.8103 75.5806 90.7273 73.2256 90.7273Z" fill="#E0E0E0"/>
<path d="M104.958 104.156H17.0863C15.404 104.156 14.0352 102.787 14.0352 101.104C14.0352 99.4212 15.404 98.052 17.0863 98.052H104.958C106.64 98.052 108.009 99.4212 108.009 101.104C108.009 102.787 106.64 104.156 104.958 104.156Z" fill="#E0E0E0"/>
<path d="M104.958 117.584H17.0863C15.404 117.584 14.0352 116.215 14.0352 114.532C14.0352 112.85 15.404 111.48 17.0863 111.48H104.958C106.64 111.48 108.009 112.85 108.009 114.532C108.009 116.215 106.64 117.584 104.958 117.584Z" fill="#E0E0E0"/>
<path d="M74.1423 206.701C69.5996 206.701 65.9043 203.005 65.9043 198.461C65.9043 193.917 69.5996 190.221 74.1423 190.221C78.6849 190.221 82.3802 193.917 82.3802 198.461C82.3802 203.005 78.6849 206.701 74.1423 206.701Z" fill="#757575"/>
<path d="M132.418 218.604H16.1709C14.9934 218.604 14.0352 217.646 14.0352 216.468C14.0352 215.29 14.9934 214.331 16.1709 214.331H132.418C133.595 214.331 134.553 215.29 134.553 216.468C134.553 217.646 133.595 218.604 132.418 218.604Z" fill="#E0E0E0"/>
<path d="M132.418 226.539H16.1709C14.9934 226.539 14.0352 225.581 14.0352 224.403C14.0352 223.225 14.9934 222.266 16.1709 222.266H132.418C133.595 222.266 134.553 223.225 134.553 224.403C134.553 225.581 133.595 226.539 132.418 226.539Z" fill="#E0E0E0"/>
<path d="M209 206.701C204.457 206.701 200.762 203.005 200.762 198.461C200.762 193.917 204.457 190.221 209 190.221C213.542 190.221 217.238 193.917 217.238 198.461C217.238 203.005 213.542 206.701 209 206.701Z" fill="#757575"/>
<path d="M267.275 218.604H151.028C149.851 218.604 148.893 217.646 148.893 216.468C148.893 215.29 149.851 214.331 151.028 214.331H267.275C268.453 214.331 269.411 215.29 269.411 216.468C269.411 217.646 268.453 218.604 267.275 218.604Z" fill="#E0E0E0"/>
<path d="M267.275 226.539H151.028C149.851 226.539 148.893 225.581 148.893 224.403C148.893 223.225 149.851 222.266 151.028 222.266H267.275C268.453 222.266 269.411 223.225 269.411 224.403C269.411 225.581 268.453 226.539 267.275 226.539Z" fill="#E0E0E0"/>
<path d="M343.248 206.701C338.705 206.701 335.01 203.005 335.01 198.461C335.01 193.917 338.705 190.221 343.248 190.221C347.79 190.221 351.486 193.917 351.486 198.461C351.486 203.005 347.79 206.701 343.248 206.701Z" fill="#757575"/>
<path d="M401.523 218.604H285.276C284.099 218.604 283.141 217.646 283.141 216.468C283.141 215.29 284.099 214.331 285.276 214.331H401.523C402.701 214.331 403.659 215.29 403.659 216.468C403.659 217.646 402.701 218.604 401.523 218.604Z" fill="#E0E0E0"/>
<path d="M401.523 226.539H285.276C284.099 226.539 283.141 225.581 283.141 224.403C283.141 223.225 284.099 222.266 285.276 222.266H401.523C402.701 222.266 403.659 223.225 403.659 224.403C403.659 225.581 402.701 226.539 401.523 226.539Z" fill="#E0E0E0"/>
<path d="M35.6974 134.065H19.8317C17.6446 134.065 15.8652 132.285 15.8652 130.097C15.8652 127.91 17.6446 126.13 19.8317 126.13H35.6974C37.8844 126.13 39.6638 127.91 39.6638 130.097C39.6638 132.285 37.8844 134.065 35.6974 134.065Z" fill="#E0E0E0"/>
</g>
<defs>
<clipPath id="clip0_773_265">
<rect width="418" height="236" fill="white"/>
</clipPath>
</defs>
</svg>
