<svg width="418" height="215" viewBox="0 0 418 215" fill="none" xmlns="http://www.w3.org/2000/svg">
<g opacity="0.75" clip-path="url(#clip0_773_158)">
<path d="M275.792 203.356C275.488 203.356 275.197 203.235 274.982 203.021C274.767 202.806 274.646 202.515 274.646 202.212V155.33C274.646 155.027 274.767 154.736 274.982 154.522C275.197 154.307 275.488 154.187 275.792 154.187C276.095 154.187 276.387 154.307 276.602 154.522C276.816 154.736 276.937 155.027 276.937 155.33V202.212C276.937 202.515 276.816 202.806 276.601 203.021C276.387 203.235 276.095 203.356 275.792 203.356Z" fill="#E0E0E0"/>
<path d="M274.221 137.035C274.019 137.035 273.821 136.982 273.646 136.88L208.581 99.0267C208.319 98.8737 208.128 98.6233 208.051 98.3302C207.974 98.0372 208.017 97.7256 208.169 97.4638C208.322 97.202 208.573 97.0114 208.866 96.9338C209.159 96.8563 209.471 96.8981 209.734 97.0502L274.799 134.903C275.017 135.03 275.186 135.225 275.282 135.457C275.378 135.69 275.394 135.947 275.328 136.19C275.262 136.433 275.118 136.647 274.918 136.8C274.718 136.953 274.473 137.035 274.221 137.035Z" fill="#E0E0E0"/>
<path d="M144.094 137.035C143.842 137.035 143.597 136.952 143.397 136.8C143.197 136.647 143.053 136.433 142.987 136.19C142.921 135.947 142.937 135.69 143.033 135.457C143.129 135.224 143.298 135.03 143.516 134.903L208.581 97.05C208.843 96.8988 209.155 96.8577 209.448 96.9354C209.74 97.0132 209.99 97.2036 210.143 97.465C210.295 97.7264 210.338 98.0374 210.261 98.3301C210.185 98.6227 209.995 98.8731 209.734 99.0265L144.669 136.88C144.494 136.981 144.296 137.035 144.094 137.035Z" fill="#E0E0E0"/>
<path d="M341.788 194.208C341.586 194.208 341.387 194.155 341.212 194.053L276.147 156.2C275.885 156.047 275.695 155.796 275.618 155.503C275.541 155.21 275.583 154.899 275.736 154.637C275.889 154.375 276.139 154.184 276.432 154.107C276.726 154.029 277.038 154.071 277.3 154.223L342.365 192.076C342.583 192.203 342.753 192.398 342.848 192.63C342.944 192.863 342.96 193.12 342.894 193.363C342.829 193.606 342.685 193.82 342.484 193.973C342.284 194.126 342.04 194.208 341.788 194.208Z" fill="#E0E0E0"/>
<path d="M211.66 194.208C211.408 194.208 211.163 194.125 210.963 193.973C210.763 193.82 210.619 193.606 210.553 193.363C210.488 193.12 210.504 192.863 210.599 192.63C210.695 192.397 210.865 192.203 211.082 192.076L276.147 154.223C276.41 154.072 276.721 154.031 277.014 154.109C277.307 154.186 277.557 154.377 277.709 154.638C277.862 154.899 277.904 155.211 277.828 155.503C277.751 155.796 277.561 156.046 277.3 156.2L212.235 194.053C212.061 194.154 211.862 194.208 211.66 194.208Z" fill="#E0E0E0"/>
<path d="M174.802 79.5699H111.319C111.015 79.5699 110.724 79.4494 110.509 79.235C110.294 79.0205 110.174 78.7297 110.174 78.4264C110.174 78.1232 110.294 77.8323 110.509 77.6179C110.724 77.4034 111.015 77.283 111.319 77.283H174.802C175.105 77.283 175.397 77.4034 175.612 77.6179C175.826 77.8323 175.947 78.1232 175.947 78.4264C175.947 78.7297 175.826 79.0205 175.612 79.235C175.397 79.4494 175.105 79.5699 174.802 79.5699Z" fill="#E0E0E0"/>
<path d="M209.264 63.2376C208.961 63.2376 208.669 63.1171 208.455 62.9026C208.24 62.6882 208.119 62.3974 208.119 62.0941V22.5158C208.119 22.2125 208.24 21.9217 208.455 21.7072C208.669 21.4928 208.961 21.3723 209.264 21.3723C209.568 21.3723 209.859 21.4928 210.074 21.7072C210.289 21.9217 210.41 22.2125 210.41 22.5158V62.0941C210.41 62.3974 210.289 62.6882 210.074 62.9026C209.859 63.1171 209.568 63.2376 209.264 63.2376Z" fill="#E0E0E0"/>
<path d="M86.6186 79.5701C86.4135 79.5702 86.2122 79.515 86.0358 79.4104L24.4065 42.9386C24.1461 42.7836 23.9578 42.5317 23.883 42.2383C23.8082 41.9448 23.8531 41.6338 24.0077 41.3733C24.1623 41.1128 24.414 40.9242 24.7077 40.8488C25.0014 40.7734 25.3131 40.8173 25.5744 40.971L87.2037 77.4428C87.4197 77.5707 87.5876 77.7659 87.6816 77.9983C87.7756 78.2308 87.7905 78.4876 87.724 78.7293C87.6575 78.9711 87.5133 79.1843 87.3136 79.3362C87.1139 79.4881 86.8697 79.5703 86.6186 79.5701Z" fill="#E0E0E0"/>
<path d="M24.992 116.042C24.7409 116.042 24.4967 115.96 24.297 115.808C24.0973 115.656 23.9531 115.443 23.8866 115.201C23.8201 114.959 23.835 114.702 23.929 114.47C24.023 114.238 24.191 114.042 24.4069 113.915L86.0362 77.4428C86.2975 77.2881 86.6097 77.2435 86.904 77.3186C87.1982 77.3938 87.4506 77.5826 87.6054 77.8435C87.7603 78.1044 87.805 78.416 87.7298 78.7099C87.6545 79.0037 87.4654 79.2557 87.2041 79.4103L25.5748 115.882C25.3984 115.987 25.1971 116.042 24.992 116.042Z" fill="#E0E0E0"/>
<path d="M106.738 98.0136H91.4132C90.0469 98.0121 88.7369 97.4695 87.7708 96.5048C86.8047 95.5402 86.2613 94.2323 86.2598 92.8681V63.0789C86.2613 61.7147 86.8047 60.4068 87.7708 59.4421C88.7369 58.4775 90.0469 57.9349 91.4132 57.9333H106.738C108.104 57.9349 109.414 58.4775 110.38 59.4421C111.346 60.4068 111.89 61.7147 111.891 63.0789V92.8681C111.89 94.2323 111.346 95.5402 110.38 96.5048C109.414 97.4695 108.104 98.0121 106.738 98.0136Z" fill="#212121"/>
<path d="M224.182 25.5927H194.347C192.98 25.5912 191.671 25.0486 190.704 24.084C189.738 23.1193 189.195 21.8114 189.193 20.4472V5.14557C189.195 3.78135 189.738 2.47347 190.704 1.50882C191.671 0.544169 192.98 0.00153745 194.347 0H224.182C225.548 0.00153745 226.858 0.544169 227.824 1.50882C228.79 2.47347 229.334 3.78135 229.335 5.14557V20.4472C229.334 21.8114 228.79 23.1193 227.824 24.084C226.858 25.0486 225.548 25.5912 224.182 25.5927Z" fill="#212121"/>
<path d="M20.8471 62.5664H5.52256C4.15626 62.5648 2.84632 62.0222 1.88019 61.0576C0.914065 60.0929 0.370656 58.785 0.369141 57.4208V27.6317C0.370656 26.2674 0.914065 24.9595 1.88019 23.9949C2.84632 23.0302 4.15626 22.4876 5.52256 22.4861H20.8471C22.2134 22.4876 23.5233 23.0302 24.4894 23.9949C25.4556 24.9595 25.999 26.2674 26.0005 27.6317V57.4208C25.999 58.785 25.4556 60.0929 24.4894 61.0576C23.5233 62.0222 22.2134 62.5648 20.8471 62.5664Z" fill="#757575"/>
<path d="M20.8471 134.604H5.52256C4.15626 134.603 2.84632 134.06 1.88019 133.096C0.914065 132.131 0.370656 130.823 0.369141 129.459V99.6697C0.370656 98.3055 0.914065 96.9976 1.88019 96.033C2.84632 95.0683 4.15626 94.5257 5.52256 94.5242H20.8471C22.2134 94.5257 23.5233 95.0683 24.4894 96.033C25.4556 96.9976 25.999 98.3055 26.0005 99.6697V129.459C25.999 130.823 25.4556 132.131 24.4894 133.096C23.5233 134.06 22.2134 134.603 20.8471 134.604Z" fill="#757575"/>
<path d="M307.208 79.5699H243.725C243.422 79.5699 243.13 79.4494 242.915 79.235C242.701 79.0205 242.58 78.7297 242.58 78.4264C242.58 78.1232 242.701 77.8323 242.915 77.6179C243.13 77.4034 243.422 77.283 243.725 77.283H307.208C307.512 77.283 307.803 77.4034 308.018 77.6179C308.233 77.8323 308.353 78.1232 308.353 78.4264C308.353 78.7297 308.233 79.0205 308.018 79.235C307.803 79.4494 307.512 79.5699 307.208 79.5699Z" fill="#E0E0E0"/>
<path d="M331.908 79.5698C331.657 79.57 331.413 79.4879 331.213 79.336C331.013 79.1841 330.869 78.9708 330.803 78.729C330.736 78.4873 330.751 78.2304 330.845 77.9979C330.939 77.7655 331.107 77.5703 331.323 77.4425L392.952 40.9707C393.082 40.8942 393.225 40.8439 393.374 40.8226C393.523 40.8013 393.674 40.8095 393.82 40.8467C393.966 40.884 394.103 40.9495 394.223 41.0395C394.343 41.1296 394.445 41.2424 394.521 41.3716C394.598 41.5008 394.649 41.6438 394.67 41.7925C394.691 41.9412 394.683 42.0925 394.646 42.238C394.608 42.3835 394.543 42.5202 394.453 42.6404C394.362 42.7605 394.249 42.8618 394.12 42.9383L332.491 79.4101C332.314 79.5147 332.113 79.5699 331.908 79.5698Z" fill="#E0E0E0"/>
<path d="M393.535 116.042C393.33 116.042 393.129 115.987 392.952 115.882L331.323 79.4102C331.062 79.2556 330.873 79.0038 330.797 78.7099C330.722 78.4161 330.767 78.1045 330.922 77.8436C331.077 77.5826 331.329 77.3938 331.623 77.3187C331.917 77.2435 332.229 77.2881 332.491 77.4427L394.12 113.914C394.336 114.042 394.504 114.237 394.598 114.47C394.692 114.702 394.707 114.959 394.641 115.201C394.574 115.443 394.43 115.656 394.23 115.808C394.03 115.96 393.786 116.042 393.535 116.042Z" fill="#E0E0E0"/>
<path d="M327.113 98.0136H311.788C310.422 98.0121 309.112 97.4695 308.146 96.5048C307.18 95.5402 306.636 94.2323 306.635 92.8681V63.0789C306.636 61.7147 307.18 60.4068 308.146 59.4422C309.112 58.4775 310.422 57.9349 311.788 57.9333H327.113C328.479 57.9349 329.789 58.4775 330.755 59.4422C331.721 60.4068 332.264 61.7147 332.266 63.0789V92.8681C332.264 94.2323 331.721 95.5402 330.755 96.5048C329.789 97.4695 328.479 98.0121 327.113 98.0136Z" fill="#212121"/>
<path d="M413.003 62.5664H397.679C396.313 62.5648 395.003 62.0222 394.037 61.0576C393.07 60.0929 392.527 58.785 392.525 57.4208V27.6317C392.527 26.2674 393.07 24.9595 394.037 23.9949C395.003 23.0303 396.313 22.4876 397.679 22.4861H413.003C414.37 22.4876 415.679 23.0303 416.646 23.9949C417.612 24.9595 418.155 26.2674 418.157 27.6317V57.4208C418.155 58.785 417.612 60.0929 416.646 61.0576C415.679 62.0222 414.37 62.5648 413.003 62.5664Z" fill="#757575"/>
<path d="M413.003 134.604H397.679C396.313 134.603 395.003 134.06 394.037 133.096C393.07 132.131 392.527 130.823 392.525 129.459V99.6697C392.527 98.3055 393.07 96.9976 394.037 96.033C395.003 95.0683 396.313 94.5257 397.679 94.5242H413.003C414.37 94.5257 415.679 95.0683 416.646 96.033C417.612 96.9976 418.155 98.3055 418.157 99.6697V129.459C418.155 130.823 417.612 132.131 416.646 133.096C415.679 134.06 414.37 134.603 413.003 134.604Z" fill="#757575"/>
<path d="M157.76 158.664H127.925C126.559 158.663 125.249 158.12 124.283 157.156C123.316 156.191 122.773 154.883 122.771 153.519V138.218C122.773 136.854 123.316 135.546 124.283 134.581C125.249 133.616 126.559 133.074 127.925 133.072H157.76C159.126 133.074 160.436 133.616 161.402 134.581C162.368 135.546 162.912 136.854 162.913 138.218V153.519C162.912 154.883 162.368 156.191 161.402 157.156C160.436 158.12 159.126 158.663 157.76 158.664Z" fill="#212121"/>
<path d="M290.391 158.664H260.556C259.189 158.663 257.88 158.12 256.913 157.156C255.947 156.191 255.404 154.883 255.402 153.519V138.218C255.404 136.854 255.947 135.546 256.913 134.581C257.88 133.616 259.189 133.074 260.556 133.072H290.391C291.757 133.074 293.067 133.616 294.033 134.581C294.999 135.546 295.543 136.854 295.544 138.218V153.519C295.543 154.883 294.999 156.191 294.033 157.156C293.067 158.12 291.757 158.663 290.391 158.664Z" fill="#212121"/>
<path d="M229.695 214.694H199.86C198.494 214.692 197.184 214.15 196.218 213.185C195.252 212.221 194.709 210.913 194.707 209.548V194.247C194.709 192.883 195.252 191.575 196.218 190.611C197.184 189.646 198.494 189.103 199.86 189.102H229.695C231.062 189.103 232.372 189.646 233.338 190.611C234.304 191.575 234.847 192.883 234.849 194.247V209.548C234.847 210.913 234.304 212.221 233.338 213.185C232.372 214.15 231.062 214.692 229.695 214.694Z" fill="#757575"/>
<path d="M356.813 214.694H326.978C325.611 214.692 324.301 214.15 323.335 213.185C322.369 212.221 321.826 210.913 321.824 209.548V194.247C321.826 192.883 322.369 191.575 323.335 190.611C324.301 189.646 325.611 189.103 326.978 189.102H356.813C358.179 189.103 359.489 189.646 360.455 190.611C361.421 191.575 361.964 192.883 361.966 194.247V209.548C361.964 210.913 361.421 212.221 360.455 213.185C359.489 214.15 358.179 214.692 356.813 214.694Z" fill="#757575"/>
<path d="M290.391 214.694H260.556C259.189 214.692 257.88 214.15 256.913 213.185C255.947 212.221 255.404 210.913 255.402 209.548V194.247C255.404 192.883 255.947 191.575 256.913 190.611C257.88 189.646 259.189 189.103 260.556 189.102H290.391C291.757 189.103 293.067 189.646 294.033 190.611C294.999 191.575 295.543 192.883 295.544 194.247V209.548C295.543 210.913 294.999 212.221 294.033 213.185C293.067 214.15 291.757 214.692 290.391 214.694Z" fill="#757575"/>
<path d="M245.531 98.3179H172.995C171.629 98.3164 170.319 97.7738 169.353 96.8091C168.387 95.8445 167.843 94.5366 167.842 93.1723V63.6802C167.843 62.316 168.387 61.0081 169.353 60.0435C170.319 59.0788 171.629 58.5362 172.995 58.5347H245.531C246.897 58.5362 248.207 59.0788 249.173 60.0435C250.139 61.0081 250.683 62.316 250.684 63.6802V93.1723C250.683 94.5366 250.139 95.8445 249.173 96.8091C248.207 97.7738 246.897 98.3164 245.531 98.3179Z" fill="#FFD700"/>
</g>
<defs>
<clipPath id="clip0_773_158">
<rect width="418" height="215" fill="white"/>
</clipPath>
</defs>
</svg>
