<svg width="71" height="80" viewBox="0 0 71 80" fill="none" xmlns="http://www.w3.org/2000/svg">
<g clip-path="url(#clip0_221_1001)">
<path d="M70.9914 23.459C70.9908 22.1173 70.7039 20.9318 70.1236 19.9143C69.5536 18.9137 68.7 18.0751 67.555 17.4121C58.1036 11.9623 48.6431 6.52927 39.1947 1.07399C36.6475 -0.396562 34.1778 -0.342951 31.6494 1.14872C27.8875 3.36733 9.05278 14.1582 3.44028 17.409C1.12889 18.747 0.00416667 20.7948 0.00361111 23.4565C0 34.4162 0.00361111 45.3757 0 56.3357C0 57.6479 0.275278 58.8104 0.83 59.8126C1.40028 60.8434 2.26583 61.7051 3.43722 62.3832C9.05 65.634 27.8872 76.424 31.6483 78.6432C34.1778 80.1357 36.6475 80.189 39.1956 78.7179C48.6442 73.2623 58.1053 67.8296 67.5581 62.3798C68.7294 61.7021 69.595 60.8398 70.1653 59.8098C70.7192 58.8076 70.995 57.6451 70.995 56.3326C70.995 56.3326 70.995 34.419 70.9914 23.459Z" fill="#A179DC"/>
<path d="M35.6062 39.7891L0.830078 59.8124C1.40036 60.8432 2.26591 61.7049 3.4373 62.383C9.05008 65.6338 27.8873 76.4238 31.6484 78.643C34.1779 80.1355 36.6476 80.1888 39.1956 78.7177C48.6442 73.2621 58.1054 67.8293 67.5581 62.3796C68.7295 61.7018 69.5951 60.8396 70.1654 59.8096L35.6062 39.7891Z" fill="#280068"/>
<path d="M70.9912 23.4588C70.9907 22.1171 70.7037 20.9316 70.1235 19.9141L35.606 39.7891L70.1651 59.8096C70.719 58.8074 70.9943 57.6449 70.9948 56.3324C70.9948 56.3324 70.9948 34.4188 70.9912 23.4588Z" fill="#390091"/>
<path d="M56.0813 32.3037V36.0464H59.824V32.3037H61.6954V36.0464H65.438V37.9177H61.6954V41.6604H65.438V43.5318H61.6954V47.2745H59.824V43.5318H56.0813V47.2745H54.21V43.5318H50.4673V41.6604H54.21V37.9177H50.4673V36.0464H54.21V32.3037H56.0813ZM59.824 37.9177H56.0813V41.6604H59.824V37.9177Z" fill="white"/>
<path d="M35.6825 13.5073C45.4447 13.5073 53.9678 18.8091 58.533 26.6896L58.4885 26.6137L47.0027 33.2271C44.7398 29.3956 40.5912 26.8099 35.8324 26.7566L35.6825 26.7558C28.4254 26.7558 22.5419 32.639 22.5419 39.8961C22.5419 42.2693 23.1746 44.4939 24.275 46.4154C26.54 50.3696 30.798 53.0366 35.6825 53.0366C40.5972 53.0366 44.8794 50.3357 47.1329 46.3392L47.0782 46.4351L58.5467 53.079C54.0315 60.8928 45.6251 66.1782 35.9765 66.2835L35.6825 66.2851C25.8896 66.2851 17.3422 60.9507 12.7885 53.0286C10.5654 49.1611 9.29346 44.6773 9.29346 39.8961C9.29346 25.3222 21.108 13.5073 35.6825 13.5073Z" fill="white"/>
</g>
<defs>
<clipPath id="clip0_221_1001">
<rect width="71" height="80" fill="white"/>
</clipPath>
</defs>
</svg>
