<svg width="44" height="80" viewBox="0 0 44 80" fill="none" xmlns="http://www.w3.org/2000/svg">
<g clip-path="url(#clip0_221_1013)">
<g clip-path="url(#clip1_221_1013)">
<path d="M41.4698 62.6829H41.1733V62.5171H41.9713V62.6829H41.6769V63.5103H41.4698V62.6829ZM43.0613 62.7261H43.0567L42.763 63.5104H42.6286L42.3368 62.7261H42.3332V63.5104H42.138V62.5172H42.4253L42.6958 63.2205L42.9655 62.5172H43.2517V63.5104H43.0612L43.0613 62.7261Z" fill="#5382A1"/>
<path d="M14.9355 42.3745C14.9355 42.3745 12.8732 43.5738 16.4031 43.9796C20.6795 44.4675 22.8651 44.3975 27.5776 43.5056C27.5776 43.5056 28.8166 44.2824 30.5469 44.9553C19.9826 49.483 6.63771 44.6931 14.9355 42.3745Z" fill="#5382A1"/>
<path d="M13.6447 36.4658C13.6447 36.4658 11.3317 38.178 14.8642 38.5433C19.4324 39.0146 23.0399 39.0532 29.2824 37.8511C29.2824 37.8511 30.1458 38.7265 31.5035 39.2052C18.7305 42.9401 4.50377 39.4997 13.6447 36.4658Z" fill="#5382A1"/>
<path d="M24.5272 26.4435C27.1303 29.4404 23.8433 32.1373 23.8433 32.1373C23.8433 32.1373 30.4529 28.7252 27.4174 24.4525C24.5823 20.4679 22.4082 18.4881 34.178 11.6621C34.178 11.6621 15.7034 16.2762 24.5272 26.4435Z" fill="#F8981D"/>
<path d="M38.4995 46.7445C38.4995 46.7445 40.0257 48.002 36.8188 48.9748C30.7209 50.822 11.4388 51.3799 6.08224 49.0484C4.15672 48.2107 7.76762 47.0482 8.90348 46.8043C10.0881 46.5474 10.765 46.5953 10.765 46.5953C8.62363 45.0868 -3.07601 49.5573 4.82217 50.8376C26.3617 54.3307 44.0866 49.2647 38.4995 46.7445Z" fill="#5382A1"/>
<path d="M15.9273 30.3442C15.9273 30.3442 6.11913 32.6738 12.454 33.5198C15.1287 33.8779 20.4608 33.7969 25.4275 33.3807C29.4865 33.0383 33.5623 32.3103 33.5623 32.3103C33.5623 32.3103 32.1311 32.9233 31.0956 33.6303C21.1356 36.2498 1.89469 35.0312 7.43389 32.3518C12.1184 30.0874 15.9273 30.3442 15.9273 30.3442Z" fill="#5382A1"/>
<path d="M33.5219 40.1789C43.6467 34.9176 38.9653 29.8616 35.6978 30.5428C34.897 30.7095 34.5399 30.8539 34.5399 30.8539C34.5399 30.8539 34.8372 30.3882 35.405 30.1866C41.8692 27.914 46.8405 36.8893 33.3184 40.444C33.3184 40.444 33.475 40.3041 33.5219 40.1789Z" fill="#5382A1"/>
<path d="M27.4175 0.639648C27.4175 0.639648 33.0248 6.24881 22.0993 14.8741C13.3381 21.7931 20.1014 25.7381 22.0956 30.2455C16.9816 25.6314 13.2286 21.5695 15.7464 17.7892C19.442 12.2399 29.6799 9.54947 27.4175 0.639648Z" fill="#F8981D"/>
<path d="M16.922 54.4359C26.6406 55.058 41.5645 54.0907 41.9179 49.4922C41.9179 49.4922 41.2385 51.2355 33.8861 52.6199C25.5911 54.1809 15.3604 53.9987 9.29248 52.9982C9.29248 52.9982 10.5347 54.0263 16.922 54.4359Z" fill="#5382A1"/>
<path d="M15.3292 72.0071C14.4124 72.8023 13.4441 73.2487 12.5752 73.2487C11.3349 73.2487 10.6648 72.5049 10.6648 71.3121C10.6648 70.0217 11.3828 69.0783 14.2632 69.0783H15.3291L15.3292 72.0071ZM17.859 74.8613V66.0261C17.859 63.7691 16.5717 62.2798 13.468 62.2798C11.6561 62.2798 10.0689 62.7272 8.77883 63.2978L9.15119 64.8617C10.1669 64.489 11.4817 64.1419 12.7721 64.1419C14.5601 64.1419 15.3292 64.8617 15.3292 66.35V67.4667H14.4369C10.0929 67.4667 8.1333 69.1529 8.1333 71.684C8.1333 73.8683 9.42465 75.1099 11.8561 75.1099C13.419 75.1099 14.5857 74.4647 15.6763 73.5204L15.8742 74.8615L17.859 74.8613Z" fill="#5382A1"/>
<path d="M26.302 74.8612H23.1468L19.3496 62.5034H22.105L24.4612 70.0961L24.985 72.3796C26.177 69.0781 27.02 65.7286 27.4417 62.5034H30.122C29.4039 66.5728 28.1116 71.0394 26.302 74.8612Z" fill="#5382A1"/>
<path d="M38.4053 72.0071C37.4868 72.8023 36.5168 73.2487 35.6478 73.2487C34.4097 73.2487 33.7378 72.5049 33.7378 71.3121C33.7378 70.0217 34.4576 69.0783 37.3377 69.0783H38.4053V72.0071ZM40.9348 74.8613V66.0261C40.9348 63.7691 39.6443 62.2798 36.5442 62.2798C34.731 62.2798 33.1432 62.7272 31.8538 63.2978L32.2256 64.8617C33.2417 64.489 34.5589 64.1419 35.8484 64.1419C37.635 64.1419 38.4053 64.8617 38.4053 66.35V67.4667H37.5115C33.1662 67.4667 31.2075 69.1529 31.2075 71.684C31.2075 73.8683 32.4978 75.1099 34.9288 75.1099C36.4926 75.1099 37.6589 74.4647 38.7514 73.5204L38.9501 74.8615L40.9348 74.8613Z" fill="#5382A1"/>
<path d="M5.3594 76.9597C4.63824 78.0127 3.47344 78.8457 2.19824 79.317L0.949219 77.8472C1.91984 77.3491 2.75227 76.5448 3.13904 75.7955C3.47358 75.1292 3.61205 74.2704 3.61205 72.2168V58.1084H6.29976V72.0235C6.29962 74.7691 6.08013 75.8781 5.3594 76.9597Z" fill="#5382A1"/>
</g>
</g>
<defs>
<clipPath id="clip0_221_1013">
<rect width="44" height="80" fill="white"/>
</clipPath>
<clipPath id="clip1_221_1013">
<rect width="43.6364" height="80" fill="white"/>
</clipPath>
</defs>
</svg>
