<svg width="80" height="80" viewBox="0 0 80 80" fill="none" xmlns="http://www.w3.org/2000/svg">
<g clip-path="url(#clip0_221_1009)">
<g clip-path="url(#clip1_221_1009)">
<path d="M80 0H0V80H80V0Z" fill="#F7DF1E"/>
<path d="M53.7395 62.5005C55.351 65.1316 57.4475 67.0656 61.1554 67.0656C64.2703 67.0656 66.2602 65.5088 66.2602 63.3577C66.2602 60.7799 64.2157 59.8669 60.7871 58.3672L58.9078 57.5609C53.483 55.2497 49.8792 52.3545 49.8792 46.2339C49.8792 40.5958 54.1751 36.3037 60.8887 36.3037C65.6684 36.3037 69.1046 37.9672 71.5808 42.3228L65.7268 46.0815C64.4379 43.7704 63.0475 42.8599 60.8887 42.8599C58.6868 42.8599 57.2913 44.2567 57.2913 46.0815C57.2913 48.3367 58.6881 49.2497 61.9135 50.6466L63.7929 51.4516C70.1802 54.1907 73.7865 56.9831 73.7865 63.2612C73.7865 70.0294 68.4697 73.7374 61.3294 73.7374C54.3478 73.7374 49.8373 70.4104 47.6303 66.0497L53.7395 62.5005ZM27.1833 63.152C28.3643 65.2472 29.4386 67.0186 32.0214 67.0186C34.4913 67.0186 36.0494 66.0523 36.0494 62.2948V36.7329H43.5668V62.3964C43.5668 70.1805 39.003 73.7234 32.3414 73.7234C26.3224 73.7234 22.8367 70.6085 21.064 66.8567L27.1833 63.152Z" fill="black"/>
</g>
</g>
<defs>
<clipPath id="clip0_221_1009">
<rect width="80" height="80" fill="white"/>
</clipPath>
<clipPath id="clip1_221_1009">
<rect width="80" height="80" fill="white"/>
</clipPath>
</defs>
</svg>
