<svg width="128" height="128" viewBox="0 0 128 128" fill="none" xmlns="http://www.w3.org/2000/svg">
<path d="M22 14C22 11.7909 23.7909 10 26 10H106C108.209 10 110 11.7909 110 14V118C110 120.209 108.209 122 106 122H26C23.7909 122 22 120.209 22 118V14Z" fill="black" fill-opacity="0.25"/>
<path d="M18 10C18 7.79086 19.7909 6 22 6H102C104.209 6 106 7.79086 106 10V114C106 116.209 104.209 118 102 118H22C19.7909 118 18 116.209 18 114V10Z" fill="#ECEFF1"/>
<path d="M26 18C26 15.7909 27.7909 14 30 14H94C96.2091 14 98 15.7909 98 18V26C98 28.2091 96.2091 30 94 30H30C27.7909 30 26 28.2091 26 26V18Z" fill="#424242"/>
<path d="M28 44C28 41.7909 29.7909 40 32 40H56C58.2091 40 60 41.7909 60 44V68C60 70.2091 58.2091 72 56 72H32C29.7909 72 28 70.2091 28 68V44Z" fill="black" fill-opacity="0.25"/>
<path d="M68 44C68 41.7909 69.7909 40 72 40H96C98.2091 40 100 41.7909 100 44V68C100 70.2091 98.2091 72 96 72H72C69.7909 72 68 70.2091 68 68V44Z" fill="black" fill-opacity="0.25"/>
<path d="M28 84C28 81.7909 29.7909 80 32 80H56C58.2091 80 60 81.7909 60 84V108C60 110.209 58.2091 112 56 112H32C29.7909 112 28 110.209 28 108V84Z" fill="black" fill-opacity="0.25"/>
<path d="M68 84C68 81.7909 69.7909 80 72 80H96C98.2091 80 100 81.7909 100 84V108C100 110.209 98.2091 112 96 112H72C69.7909 112 68 110.209 68 108V84Z" fill="black" fill-opacity="0.25"/>
<path d="M26 42C26 39.7909 27.7909 38 30 38H54C56.2091 38 58 39.7909 58 42V66C58 68.2091 56.2091 70 54 70H30C27.7909 70 26 68.2091 26 66V42Z" fill="#ECEFF1"/>
<path d="M66 42C66 39.7909 67.7909 38 70 38H94C96.2091 38 98 39.7909 98 42V66C98 68.2091 96.2091 70 94 70H70C67.7909 70 66 68.2091 66 66V42Z" fill="#ECEFF1"/>
<path d="M26 82C26 79.7909 27.7909 78 30 78H54C56.2091 78 58 79.7909 58 82V106C58 108.209 56.2091 110 54 110H30C27.7909 110 26 108.209 26 106V82Z" fill="#ECEFF1"/>
<path d="M66 82C66 79.7909 67.7909 78 70 78H94C96.2091 78 98 79.7909 98 82V106C98 108.209 96.2091 110 94 110H70C67.7909 110 66 108.209 66 106V82Z" fill="#FFD700"/>
<path fill-rule="evenodd" clip-rule="evenodd" d="M32 52H52V56H32V52Z" fill="#212121"/>
<path fill-rule="evenodd" clip-rule="evenodd" d="M32 92H52V96H32V92Z" fill="#212121"/>
<path fill-rule="evenodd" clip-rule="evenodd" d="M72 88H92V92H72V88Z" fill="#212121"/>
<path fill-rule="evenodd" clip-rule="evenodd" d="M72 96H92V100H72V96Z" fill="#212121"/>
<path fill-rule="evenodd" clip-rule="evenodd" d="M73.5146 59.6567L87.6568 45.5146L90.4852 48.343L76.3431 62.4852L73.5146 59.6567Z" fill="#212121"/>
<path fill-rule="evenodd" clip-rule="evenodd" d="M44 44V64H40V44H44Z" fill="#212121"/>
<path fill-rule="evenodd" clip-rule="evenodd" d="M76.3431 45.5148L90.4852 59.657L87.6568 62.4854L73.5146 48.3433L76.3431 45.5148Z" fill="#212121"/>
</svg>
