<svg width="128" height="128" viewBox="0 0 128 128" fill="none" xmlns="http://www.w3.org/2000/svg">
<path d="M22 14C22 11.7909 23.7909 10 26 10H106C108.209 10 110 11.7909 110 14V118C110 120.209 108.209 122 106 122H26C23.7909 122 22 120.209 22 118V14Z" fill="black" fill-opacity="0.25"/>
<path d="M18 10C18 7.79086 19.7909 6 22 6H102C104.209 6 106 7.79086 106 10V114C106 116.209 104.209 118 102 118H22C19.7909 118 18 116.209 18 114V10Z" fill="#ECEFF1"/>
<path fill-rule="evenodd" clip-rule="evenodd" d="M81.9998 67.8918L95.5809 72.4189L100.108 86L95.5809 99.5812L81.9998 104.108L68.4186 99.5812L63.8916 86L68.4186 72.4189L81.9998 67.8918ZM71.5809 75.5812L68.108 86L71.5809 96.4189L81.9998 99.8918L92.4186 96.4189L95.8916 86L92.4186 75.5812L81.9998 72.1082L71.5809 75.5812Z" fill="#E5C100"/>
<path fill-rule="evenodd" clip-rule="evenodd" d="M38 68C38.9177 68 39.7177 68.6246 39.9403 69.5149L42.629 80.2698L44.2111 77.1056C44.5499 76.428 45.2425 76 46 76C46.7575 76 47.4501 76.428 47.7889 77.1056L51.2361 84H58C59.1046 84 60 84.8954 60 86C60 87.1046 59.1046 88 58 88H50C49.2425 88 48.5499 87.572 48.2111 86.8944L46 82.4721L43.7889 86.8944C43.4146 87.643 42.6137 88.0794 41.7818 87.9881C40.9498 87.8967 40.2627 87.297 40.0597 86.4851L38 78.2462L35.9403 86.4851C35.7177 87.3754 34.9177 88 34 88H26C24.8954 88 24 87.1046 24 86C24 84.8954 24.8954 84 26 84H32.4384L36.0597 69.5149C36.2823 68.6246 37.0823 68 38 68Z" fill="#212121"/>
<path fill-rule="evenodd" clip-rule="evenodd" d="M42 18L82 18V26L42 26V18Z" fill="#424242"/>
<path fill-rule="evenodd" clip-rule="evenodd" d="M24 36L44 36V40L24 40V36Z" fill="#424242"/>
<path fill-rule="evenodd" clip-rule="evenodd" d="M24 44L60 44V48L24 48V44Z" fill="#424242"/>
<path fill-rule="evenodd" clip-rule="evenodd" d="M24 52H36V56H24V52Z" fill="#424242"/>
<path fill-rule="evenodd" clip-rule="evenodd" d="M48 36H60V40H48V36Z" fill="#424242"/>
<path fill-rule="evenodd" clip-rule="evenodd" d="M40 52H52V56H40V52Z" fill="#424242"/>
<path fill-rule="evenodd" clip-rule="evenodd" d="M64 36L100 36V40L64 40V36Z" fill="#424242"/>
<path fill-rule="evenodd" clip-rule="evenodd" d="M88 44H100V48H88V44Z" fill="#424242"/>
<path fill-rule="evenodd" clip-rule="evenodd" d="M64 44L84 44V48L64 48V44Z" fill="#424242"/>
<path fill-rule="evenodd" clip-rule="evenodd" d="M56 52H68V56H56V52Z" fill="#424242"/>
<path fill-rule="evenodd" clip-rule="evenodd" d="M72 52L100 52V56L72 56V52Z" fill="#424242"/>
<path fill-rule="evenodd" clip-rule="evenodd" d="M84 82C80.6863 82 78 84.6863 78 88C78 91.3137 80.6863 94 84 94C87.3137 94 90 91.3137 90 88C90 84.6863 87.3137 82 84 82ZM74 88C74 82.4772 78.4772 78 84 78C89.5228 78 94 82.4772 94 88C94 93.5228 89.5228 98 84 98C78.4772 98 74 93.5228 74 88Z" fill="black" fill-opacity="0.25"/>
<path fill-rule="evenodd" clip-rule="evenodd" d="M78 84C78 82.8954 78.8954 82 80 82H88C89.1046 82 90 82.8954 90 84V115.348L84 112.118L78 115.348V84ZM82 86V108.652L84 107.575L86 108.652V86H82Z" fill="black" fill-opacity="0.25"/>
<path fill-rule="evenodd" clip-rule="evenodd" d="M76 82C76 80.8954 76.8954 80 78 80H86C87.1046 80 88 80.8954 88 82V113.348L82 110.118L76 113.348V82ZM80 84V106.652L82 105.575L84 106.652V84H80Z" fill="#FF5252"/>
<path d="M78 82H86V110L82 107.846L78 110V82Z" fill="#FF5252"/>
<path d="M90 86C90 90.4183 86.4183 94 82 94C77.5817 94 74 90.4183 74 86C74 81.5817 77.5817 78 82 78C86.4183 78 90 81.5817 90 86Z" fill="#FFDF33"/>
<path fill-rule="evenodd" clip-rule="evenodd" d="M82 80C78.6863 80 76 82.6863 76 86C76 89.3137 78.6863 92 82 92C85.3137 92 88 89.3137 88 86C88 82.6863 85.3137 80 82 80ZM72 86C72 80.4772 76.4772 76 82 76C87.5228 76 92 80.4772 92 86C92 91.5228 87.5228 96 82 96C76.4772 96 72 91.5228 72 86Z" fill="#FFD700"/>
</svg>
