<svg width="128" height="128" viewBox="0 0 128 128" fill="none" xmlns="http://www.w3.org/2000/svg">
<path d="M12 14C12 11.7909 13.7909 10 16 10H80L90 20L100 30V118C100 120.209 98.2091 122 96 122H16C13.7909 122 12 120.209 12 118V14Z" fill="black" fill-opacity="0.25"/>
<path d="M8 10C8 7.79086 9.79086 6 12 6H76L86 16L96 26V114C96 116.209 94.2091 118 92 118H12C9.79086 118 8 116.209 8 114V10Z" fill="#ECEFF1"/>
<path d="M78 8L88 18L98 28H82C79.7909 28 78 26.2091 78 24V8Z" fill="black" fill-opacity="0.25"/>
<path d="M76 6L86 16L96 26H80C77.7909 26 76 24.2091 76 22V6Z" fill="#CFD8DC"/>
<path fill-rule="evenodd" clip-rule="evenodd" d="M50 40H34V36H50V40Z" fill="#424242"/>
<path fill-rule="evenodd" clip-rule="evenodd" d="M86 40L54 40V36L86 36V40Z" fill="#424242"/>
<path fill-rule="evenodd" clip-rule="evenodd" d="M58 60H34V56H58V60Z" fill="#424242"/>
<path fill-rule="evenodd" clip-rule="evenodd" d="M86 60H62V56H86V60Z" fill="#424242"/>
<path fill-rule="evenodd" clip-rule="evenodd" d="M50 80H34V76H50V80Z" fill="#424242"/>
<path fill-rule="evenodd" clip-rule="evenodd" d="M86 80H54V76H86V80Z" fill="#424242"/>
<path fill-rule="evenodd" clip-rule="evenodd" d="M66 100H34V96H66V100Z" fill="#424242"/>
<path fill-rule="evenodd" clip-rule="evenodd" d="M86 100H70V96H86V100Z" fill="#424242"/>
<path fill-rule="evenodd" clip-rule="evenodd" d="M20 44.8284L14.5858 39.4142C13.8047 38.6331 13.8047 37.3668 14.5858 36.5857C15.3668 35.8047 16.6332 35.8047 17.4142 36.5857L20 39.1715L26.5858 32.5857C27.3668 31.8047 28.6332 31.8047 29.4142 32.5857C30.1953 33.3668 30.1953 34.6331 29.4142 35.4142L20 44.8284Z" fill="#212121"/>
<path fill-rule="evenodd" clip-rule="evenodd" d="M20 64.8284L14.5858 59.4142C13.8047 58.6331 13.8047 57.3668 14.5858 56.5857C15.3668 55.8047 16.6332 55.8047 17.4142 56.5857L20 59.1715L26.5858 52.5857C27.3668 51.8047 28.6332 51.8047 29.4142 52.5857C30.1953 53.3668 30.1953 54.6331 29.4142 55.4142L20 64.8284Z" fill="#212121"/>
<path fill-rule="evenodd" clip-rule="evenodd" d="M20 84.8284L14.5858 79.4142C13.8047 78.6331 13.8047 77.3668 14.5858 76.5857C15.3668 75.8047 16.6332 75.8047 17.4142 76.5857L20 79.1715L26.5858 72.5857C27.3668 71.8047 28.6332 71.8047 29.4142 72.5857C30.1953 73.3668 30.1953 74.6331 29.4142 75.4142L20 84.8284Z" fill="#212121"/>
<path fill-rule="evenodd" clip-rule="evenodd" d="M20 104.828L14.5858 99.4142C13.8047 98.6331 13.8047 97.3668 14.5858 96.5857C15.3668 95.8047 16.6332 95.8047 17.4142 96.5857L20 99.1715L26.5858 92.5857C27.3668 91.8047 28.6332 91.8047 29.4142 92.5857C30.1953 93.3668 30.1953 94.6331 29.4142 95.4142L20 104.828Z" fill="#212121"/>
<path fill-rule="evenodd" clip-rule="evenodd" d="M16 18H56V26H16V18Z" fill="#424242"/>
<path d="M108 46H120V94L114 106L108 94V46Z" fill="black" fill-opacity="0.25"/>
<path d="M108 42H120V46H108V42Z" fill="black" fill-opacity="0.25"/>
<path d="M108 38C108 35.7909 109.791 34 112 34H116C118.209 34 120 35.7909 120 38V42H108V38Z" fill="black" fill-opacity="0.25"/>
<path d="M104 42H116V90L110 102L104 90V42Z" fill="#FFD700"/>
<path d="M108 98H112L110 102L108 98Z" fill="#212121"/>
<path d="M104 38H116V42H104V38Z" fill="#CFD8DC"/>
<path d="M104 34C104 31.7909 105.791 30 108 30H112C114.209 30 116 31.7909 116 34V38H104V34Z" fill="#FF5252"/>
</svg>
