<svg width="128" height="128" viewBox="0 0 128 128" fill="none" xmlns="http://www.w3.org/2000/svg">
<path d="M10 32C10 29.7909 11.7909 28 14 28H118C120.209 28 122 29.7909 122 32V104C122 106.209 120.209 108 118 108H14C11.7909 108 10 106.209 10 104V32Z" fill="black" fill-opacity="0.25"/>
<path d="M6 28C6 25.7909 7.79086 24 10 24H114C116.209 24 118 25.7909 118 28V100C118 102.209 116.209 104 114 104H10C7.79086 104 6 102.209 6 100V28Z" fill="#212121"/>
<path d="M16 22C16 19.7909 17.7909 18 20 18H60C62.2091 18 64 19.7909 64 22V94C64 96.2091 62.2091 98 60 98H20C17.7909 98 16 96.2091 16 94V22Z" fill="black" fill-opacity="0.25"/>
<path d="M64 22C64 19.7909 65.7909 18 68 18H108C110.209 18 112 19.7909 112 22V94C112 96.2091 110.209 98 108 98H68C65.7909 98 64 96.2091 64 94V22Z" fill="black" fill-opacity="0.25"/>
<path d="M14 20C14 17.7909 15.7909 16 18 16H58C60.2091 16 62 17.7909 62 20V92C62 94.2091 60.2091 96 58 96H18C15.7909 96 14 94.2091 14 92V20Z" fill="#ECEFF1"/>
<path d="M62 20C62 17.7909 63.7909 16 66 16H106C108.209 16 110 17.7909 110 20V92C110 94.2091 108.209 96 106 96H66C63.7909 96 62 94.2091 62 92V20Z" fill="#ECEFF1"/>
<path fill-rule="evenodd" clip-rule="evenodd" d="M20 22H32V26H20V22Z" fill="#424242"/>
<path fill-rule="evenodd" clip-rule="evenodd" d="M20 54H32V58H20V54Z" fill="#424242"/>
<path fill-rule="evenodd" clip-rule="evenodd" d="M20 30H40V34H20V30Z" fill="#424242"/>
<path fill-rule="evenodd" clip-rule="evenodd" d="M20 62H40V66H20V62Z" fill="#424242"/>
<path fill-rule="evenodd" clip-rule="evenodd" d="M20 38H56V42H20V38Z" fill="#424242"/>
<path fill-rule="evenodd" clip-rule="evenodd" d="M20 70H36V74H20V70Z" fill="#424242"/>
<path fill-rule="evenodd" clip-rule="evenodd" d="M40 70H56V74H40V70Z" fill="#424242"/>
<path fill-rule="evenodd" clip-rule="evenodd" d="M20 46H32V50H20V46Z" fill="#424242"/>
<path fill-rule="evenodd" clip-rule="evenodd" d="M20 78H32V82H20V78Z" fill="#424242"/>
<path fill-rule="evenodd" clip-rule="evenodd" d="M20 86H28V90H20V86Z" fill="#424242"/>
<path fill-rule="evenodd" clip-rule="evenodd" d="M32 86H56V90H32V86Z" fill="#424242"/>
<path fill-rule="evenodd" clip-rule="evenodd" d="M36 46H44V50H36V46Z" fill="#424242"/>
<path fill-rule="evenodd" clip-rule="evenodd" d="M36 78H44V82H36V78Z" fill="#424242"/>
<path fill-rule="evenodd" clip-rule="evenodd" d="M48 46H56V50H48V46Z" fill="#424242"/>
<path fill-rule="evenodd" clip-rule="evenodd" d="M48 78H56V82H48V78Z" fill="#424242"/>
<path fill-rule="evenodd" clip-rule="evenodd" d="M36 22H56V26H36V22Z" fill="#424242"/>
<path fill-rule="evenodd" clip-rule="evenodd" d="M36 54H56V58H36V54Z" fill="#424242"/>
<path fill-rule="evenodd" clip-rule="evenodd" d="M44 30L56 30V34H44V30Z" fill="#424242"/>
<path fill-rule="evenodd" clip-rule="evenodd" d="M44 62H56V66H44V62Z" fill="#424242"/>
<path fill-rule="evenodd" clip-rule="evenodd" d="M104 22H92V26H104V22Z" fill="#424242"/>
<path fill-rule="evenodd" clip-rule="evenodd" d="M104 54H92V58H104V54Z" fill="#424242"/>
<path fill-rule="evenodd" clip-rule="evenodd" d="M104 30H84V34H104V30Z" fill="#424242"/>
<path fill-rule="evenodd" clip-rule="evenodd" d="M104 62H84V66H104V62Z" fill="#424242"/>
<path fill-rule="evenodd" clip-rule="evenodd" d="M104 38H68V42H104V38Z" fill="#424242"/>
<path fill-rule="evenodd" clip-rule="evenodd" d="M104 70H88V74H104V70Z" fill="#424242"/>
<path fill-rule="evenodd" clip-rule="evenodd" d="M84 70H68V74H84V70Z" fill="#424242"/>
<path fill-rule="evenodd" clip-rule="evenodd" d="M104 46H92V50H104V46Z" fill="#424242"/>
<path fill-rule="evenodd" clip-rule="evenodd" d="M104 78H92V82H104V78Z" fill="#424242"/>
<path fill-rule="evenodd" clip-rule="evenodd" d="M104 86H96V90H104V86Z" fill="#424242"/>
<path fill-rule="evenodd" clip-rule="evenodd" d="M92 86H68V90H92V86Z" fill="#424242"/>
<path fill-rule="evenodd" clip-rule="evenodd" d="M88 46H80V50H88V46Z" fill="#424242"/>
<path fill-rule="evenodd" clip-rule="evenodd" d="M88 78H80V82H88V78Z" fill="#424242"/>
<path fill-rule="evenodd" clip-rule="evenodd" d="M76 46H68V50H76V46Z" fill="#424242"/>
<path fill-rule="evenodd" clip-rule="evenodd" d="M76 78H68V82H76V78Z" fill="#424242"/>
<path fill-rule="evenodd" clip-rule="evenodd" d="M88 22H68V26H88V22Z" fill="#424242"/>
<path fill-rule="evenodd" clip-rule="evenodd" d="M88 54H68V58H88V54Z" fill="#424242"/>
<path fill-rule="evenodd" clip-rule="evenodd" d="M80 30L68 30V34H80V30Z" fill="#424242"/>
<path fill-rule="evenodd" clip-rule="evenodd" d="M80 62H68V66H80V62Z" fill="#424242"/>
<path fill-rule="evenodd" clip-rule="evenodd" d="M82 16H94V113.316L88 103.162L82 113.316V16ZM86 20V98.684L88 95.2994L90 98.684V20H86Z" fill="black" fill-opacity="0.25"/>
<path d="M82 16H90V104L86 97.2308L82 104V16Z" fill="#FF5252"/>
<path fill-rule="evenodd" clip-rule="evenodd" d="M80 14H92V111.316L86 101.162L80 111.316V14ZM84 18V96.684L86 93.2994L88 96.684V18H84Z" fill="#FF5252"/>
</svg>
