<svg width="150" height="80" viewBox="0 0 150 80" fill="none" xmlns="http://www.w3.org/2000/svg">
<rect width="150" height="80" rx="8" fill="#EDF1F7"/>
<path d="M80.9427 48.5143H82.6569C83.7712 48.5143 84.4569 48.4572 84.7427 48.3715C85.0284 48.2857 85.2284 48.1143 85.3998 47.8857C85.5427 47.6572 85.6284 47.3715 85.6284 47.0286C85.6284 46.6286 85.5141 46.3429 85.3141 46.0857C85.1141 45.8572 84.8284 45.6857 84.4569 45.6286C84.2569 45.6 83.7141 45.6 82.7712 45.6H80.9712V48.5143H80.9427ZM78.6284 55.1143H71.8284C70.0855 55.1143 68.6569 54.5715 67.5427 53.4572C66.4284 52.3429 65.8855 50.9715 65.8855 49.2857C65.8855 47.5715 66.4284 46.1715 67.5427 45.0286C69.7712 42.7429 73.7427 42.7429 75.9712 45.0286C77.0855 46.1715 77.6284 47.6572 77.6284 49.4857V50.0286H68.5998C68.7998 51.2857 69.7141 52.4 71.0569 52.4286L78.6569 52.5143V43.6857H83.5141C84.7427 43.6857 85.6284 43.8 86.1712 44C86.7141 44.2 87.1712 44.5715 87.5141 45.0857C87.8569 45.6 87.9998 46.2 87.9998 46.8857C87.9998 47.7429 87.7427 48.4572 87.2569 49C86.7427 49.5429 86.2284 50.0857 85.2284 50.2286C85.7998 50.8572 86.3712 51.5143 86.9427 52.1429C87.4855 52.7429 87.5712 52.6857 88.3998 52.6857H96.5712V55.0857H88.9427C87.2855 55.0857 86.2855 55.2857 85.2284 53.9143L82.9141 51.1143C82.7141 50.8572 82.4855 50.6286 82.2284 50.6286H80.9712V55.0857H78.6284V55.1143ZM74.7998 47.8286C74.5998 47.2 74.2569 46.6857 73.7141 46.3143C72.5712 45.4857 70.8855 45.5429 69.7712 46.4C69.3998 46.6857 69.0569 47.1715 68.7427 47.8572L74.7998 47.8286ZM45.0284 39.2857V27.4572H40.5712C39.2569 26.2286 37.7427 25.8 36.1141 25V24.8857H96.5712V27.4572H47.0855V39.2857H45.0284ZM91.3141 35.4C91.3141 36.2 91.4569 36.7715 91.7712 37.1429C92.0855 37.5143 92.4569 37.6857 92.9141 37.6857C93.3998 37.6857 93.7998 37.4857 94.1427 37.1143C94.4855 36.7429 94.6284 36.1715 94.6284 35.4286C94.6284 34.6572 94.4569 34.0857 94.1427 33.7143C93.8284 33.3429 93.4284 33.1429 92.9427 33.1429C92.4569 33.1429 92.0855 33.3143 91.7712 33.6857C91.4855 34.0857 91.3141 34.6572 91.3141 35.4ZM62.2284 55.1143V42.9143H41.2569L41.3427 40.8H89.7141H92.8569V40.7715C92.8855 40.7715 92.9141 40.7715 92.9427 40.7715C93.4569 40.7715 93.8284 40.6857 94.1141 40.5429C94.2855 40.4286 94.4284 40.2857 94.5141 40.0572C94.5712 39.8857 94.5998 39.6 94.5998 39.1429V38.0572C93.9998 38.8572 93.2569 39.2572 92.3712 39.2572C91.3712 39.2572 90.5712 38.8286 89.9998 38C89.5427 37.3429 89.3141 36.5143 89.3141 35.5143C89.3141 34.2572 89.6284 33.3143 90.2284 32.6572C90.8284 32 91.5712 31.6572 92.4569 31.6572C93.3712 31.6572 94.1427 32.0572 94.7427 32.8572V31.8286H96.5712V39.1429C96.5712 40.0286 96.4855 40.6857 96.3427 41.1143C95.6855 43.1143 93.4569 42.9143 91.7141 42.9429H87.0284H64.9712V55.1143H62.2284ZM52.5712 39.2857H50.5998V31.8572H52.4284V32.9143C52.7427 32.4286 53.0284 32.0857 53.2855 31.9143C53.5427 31.7429 53.8284 31.6857 54.1427 31.6857C54.5998 31.6857 55.0284 31.8 55.4284 32.0572L54.8284 33.7715C54.4855 33.5715 54.1998 33.4572 53.9141 33.4572C53.6284 33.4572 53.3998 33.5429 53.1998 33.6857C52.9998 33.8286 52.8569 34.1143 52.7427 34.5143C52.6284 34.9143 52.5712 35.7429 52.5712 37V39.2857ZM57.7427 34.1143L55.9427 33.8C56.1427 33.0857 56.4855 32.5429 56.9712 32.2C57.4569 31.8572 58.1998 31.6857 59.1712 31.6857C60.0569 31.6857 60.7141 31.8 61.1427 32C61.5712 32.2 61.8855 32.4572 62.0569 32.8C62.2284 33.1143 62.3141 33.7143 62.3141 34.5715L62.2855 36.8572C62.2855 37.5143 62.3141 38 62.3712 38.3143C62.4284 38.6286 62.5427 38.9715 62.7141 39.3143H60.7712C60.7141 39.1715 60.6569 39 60.5712 38.7429C60.5427 38.6286 60.5141 38.5429 60.5141 38.5143C60.1712 38.8286 59.8284 39.0857 59.4284 39.2572C59.0569 39.4286 58.6284 39.5143 58.1998 39.5143C57.4284 39.5143 56.8284 39.3143 56.3998 38.8857C55.9712 38.4572 55.7427 37.9429 55.7427 37.3143C55.7427 36.8857 55.8569 36.5143 56.0569 36.2C56.2569 35.8572 56.5427 35.6286 56.9141 35.4572C57.2855 35.2857 57.7998 35.1429 58.4855 35C59.3998 34.8286 60.0569 34.6572 60.3998 34.5143V34.3143C60.3998 33.9429 60.3141 33.6572 60.1141 33.5143C59.9141 33.3429 59.5712 33.2857 59.0569 33.2857C58.7141 33.2857 58.4284 33.3429 58.2284 33.4857C57.9998 33.5143 57.8569 33.7429 57.7427 34.1143ZM60.3712 35.6857C60.1141 35.7715 59.7141 35.8572 59.1712 36C58.6284 36.1143 58.2569 36.2286 58.0855 36.3429C57.8284 36.5143 57.7141 36.7429 57.7141 37.0286C57.7141 37.3143 57.8284 37.5429 58.0284 37.7429C58.2284 37.9429 58.4855 38.0572 58.7998 38.0572C59.1427 38.0572 59.4855 37.9429 59.8284 37.7143C60.0569 37.5429 60.2284 37.3143 60.2855 37.0572C60.3427 36.8857 60.3712 36.5715 60.3712 36.0857V35.6857ZM64.2284 39.2857V31.8572H66.1998V39.2857H64.2284ZM74.9998 39.2857H73.0284V35.4857C73.0284 34.6857 72.9712 34.1715 72.9141 33.9143C72.8284 33.6857 72.6855 33.4857 72.5141 33.3715C72.3141 33.2286 72.0855 33.1715 71.8284 33.1715C71.4855 33.1715 71.1712 33.2572 70.9141 33.4572C70.6569 33.6572 70.4569 33.8857 70.3427 34.2C70.2284 34.5143 70.1998 35.0857 70.1998 35.9143V39.2857H68.2284V31.8572H70.0569V32.9429C70.7141 32.1143 71.5141 31.6857 72.5141 31.6857C72.9427 31.6857 73.3427 31.7715 73.7141 31.9143C74.0855 32.0857 74.3427 32.2572 74.5427 32.5143C74.7141 32.7715 74.8569 33.0286 74.9141 33.3429C74.9998 33.6572 75.0284 34.0857 75.0284 34.6572V39.2857H74.9998ZM76.9998 39.2857V31.8572H78.9712V39.2857H76.9998ZM87.7427 39.2857H85.7712V35.4857C85.7712 34.6857 85.7141 34.1715 85.6569 33.9143C85.5712 33.6857 85.4284 33.4857 85.2569 33.3715C85.0569 33.2286 84.8284 33.1715 84.5712 33.1715C84.2284 33.1715 83.9141 33.2572 83.6569 33.4572C83.3998 33.6572 83.1998 33.8857 83.0855 34.2C82.9712 34.5143 82.9427 35.0857 82.9427 35.9143V39.2857H80.9712V31.8572H82.7998V32.9429C83.4569 32.1143 84.2569 31.6857 85.2569 31.6857C85.6855 31.6857 86.0855 31.7715 86.4569 31.9143C86.8284 32.0857 87.0855 32.2572 87.2855 32.5143C87.4569 32.7715 87.5998 33.0286 87.6569 33.3429C87.7427 33.6572 87.7712 34.0857 87.7712 34.6572V39.2857H87.7427ZM35.1712 33.1429C34.7998 33.4286 34.5427 33.5715 33.9712 33.5429C32.3141 33.5429 30.6569 33.5429 28.9998 33.5429C28.5141 33.5429 27.8569 33.7429 27.5712 34.1715C26.5141 35.5143 25.4569 36.8572 24.3998 38.2C24.6855 38.5715 24.9998 38.9715 25.2855 39.3429C25.6569 38.8857 25.9998 38.4286 26.3712 37.9715C26.7712 37.5429 27.1998 37.3715 27.7427 37.3715C28.7712 37.3715 29.8284 37.3715 30.8569 37.3715C32.3712 37.4 34.3998 34.0572 35.1712 33.1429ZM36.8569 42.9429C36.3712 43.5143 35.9712 43.8 35.2284 43.9143C32.5141 43.9143 29.7998 43.9143 27.0569 43.9143C26.6569 43.7143 26.5998 43.4 27.0569 43.2286C28.5998 43.2286 30.1427 43.2286 31.6569 43.2286C32.0855 43.2 32.4569 43.0857 32.7141 42.7143C34.1141 40.8857 35.6569 39.1429 36.8569 37.2C36.3141 37.6857 35.9998 37.9715 35.1998 38.1143C33.3141 38.1143 31.4284 38.1143 29.5427 38.1143C28.9998 38.1143 28.5427 38.2857 28.1712 38.8C27.0284 40.2286 25.9141 41.6857 24.7712 43.1143C21.8855 46.5715 19.8569 38.8572 23.7998 40.0857C23.2569 39.4 22.7141 38.7429 22.1712 38.0572C21.7427 37.6286 21.1427 37.6 20.6855 38.0572C18.2569 41.1715 18.1998 45.9715 23.3427 46.4572C26.9998 46.4572 30.6569 46.4572 34.3141 46.4572C35.1712 45.2857 36.0284 44.1143 36.8569 42.9429ZM36.5712 30.3143C35.9141 29.8 35.1998 29.3715 34.4569 29.0286C32.6855 28.1715 30.7141 27.7429 28.5998 27.7429C26.2569 27.7429 24.1141 28.2857 22.1427 29.4286C20.1712 30.5429 18.6284 32.0572 17.5427 33.9429C16.4569 35.8286 15.9141 37.9429 15.9141 40.3143C15.9141 43.8857 17.1427 46.8572 19.5712 49.2286C21.9998 51.6 25.0855 52.8 28.7998 52.8C31.6855 52.8 34.2284 52 36.4284 50.4286C36.3712 49.9715 36.3427 49.4857 36.3998 49C36.7427 45.8286 39.8569 43.3715 43.0284 43.7429C44.5998 43.9429 45.9427 44.7715 47.1141 46.2286L47.4284 46.6572L40.3427 52.2286C41.7141 53.4857 42.9141 53.1143 44.2855 52.1715C45.3141 51.4572 47.8569 49.4572 50.4855 47.2572V44.0286H53.2855V45.1715C53.9141 44.6286 54.5141 44.2572 55.0284 44.0572C55.5427 43.8572 56.0855 43.7429 56.6284 43.7429C57.7427 43.7429 58.6855 44.1429 59.4569 44.9143C60.1141 45.5715 60.4284 46.5429 60.4284 47.8286V55.2286H57.6569V50.3143C57.6569 48.9715 57.5998 48.0857 57.4855 47.6572C57.3712 47.2286 57.1427 46.8857 56.8569 46.6572C56.5712 46.4286 56.1998 46.3143 55.7427 46.3143C55.1712 46.3143 54.6855 46.5143 54.2855 46.8857C53.8855 47.2572 53.5998 47.8 53.4284 48.4572C53.3427 48.8 53.3141 49.5715 53.3141 50.7429V55.2286H50.5141V50.3715L46.0284 54.2C43.6569 56.2286 39.7712 55.8572 37.7427 53.3143C37.6855 53.2286 37.6284 53.1715 37.5712 53.0857C37.0284 53.4286 36.4855 53.7143 35.8855 54C33.7141 55.0286 31.2855 55.5143 28.5998 55.5143C23.4855 55.5143 19.4569 53.8 16.5141 50.4C14.0284 47.5429 12.7998 44.0572 12.7998 40C12.7998 35.7143 14.2855 32.1429 17.2855 29.2286C20.2855 26.3143 24.0569 24.8572 28.5712 24.8572C31.3141 24.8572 33.7712 25.4 35.9427 26.4857C37.8569 27.4286 39.4855 28.7143 40.7998 30.3143H36.5712ZM43.8284 46.6286C43.2855 46.2572 42.6855 46.0857 42.0284 46.1143C40.5998 46.1715 39.3427 47.2572 38.9712 48.6286C38.8569 49.0857 38.8855 49.6572 39.0569 50.4L43.8284 46.6286Z" fill="#00427D"/>
<path d="M122 28L107.333 36L112.667 38.9067V46.9067L122 52L131.333 46.9067V38.9067L134 37.4533V46.6667H136.667V36L122 28ZM131.093 36L122 40.96L112.907 36L122 31.04L131.093 36ZM128.667 45.3333L122 48.96L115.333 45.3333V40.36L122 44L128.667 40.36V45.3333Z" fill="#00427D"/>
</svg>
