<svg width="80" height="80" viewBox="0 0 80 80" fill="none" xmlns="http://www.w3.org/2000/svg">
<rect width="80" height="80" rx="8" fill="#FFD700"/>
<path d="M10 49C11.1046 49 12 48.1046 12 47C12 45.8954 11.1046 45 10 45C8.89543 45 8 45.8954 8 47C8 48.1046 8.89543 49 10 49Z" fill="#212121"/>
<path d="M19.5 54.9999C17.9885 54.9975 16.4992 54.6356 15.1551 53.9441C13.8111 53.2526 12.6508 52.2513 11.77 51.0229L13.396 49.8589C14.0911 50.8293 15.0073 51.6204 16.0687 52.1665C17.1301 52.7127 18.3063 52.9984 19.5 52.9999C23.469 52.9999 26.758 49.8999 26.987 45.9419L28.984 46.0579C28.694 51.0719 24.527 54.9999 19.5 54.9999Z" fill="#212121"/>
<path d="M34 50C35.1046 50 36 49.1046 36 48C36 46.8954 35.1046 46 34 46C32.8954 46 32 46.8954 32 48C32 49.1046 32.8954 50 34 50Z" fill="#212121"/>
<path d="M36.641 44.095L34.717 43.55C34.9056 42.8831 35.0008 42.1932 35 41.5C35 37.365 31.636 34 27.5 34C26.4349 33.9962 25.3816 34.2224 24.412 34.663L23.588 32.841C24.8165 32.2832 26.1508 31.9964 27.5 32C32.738 32 37 36.262 37 41.5C37 42.38 36.88 43.254 36.641 44.095ZM26.414 39.585L23.414 36.585C23.037 36.209 22.534 36 22 36C21.466 36 20.963 36.208 20.586 36.586L17.586 39.586C17.196 39.976 17 40.488 17 41C17 41.512 17.196 42.024 17.586 42.414L20.586 45.414C20.963 45.792 21.466 46 22 46C22.534 46 23.037 45.792 23.414 45.414L26.414 42.414C26.804 42.024 27 41.512 27 41C27 40.488 26.804 39.976 26.414 39.586M22 44L19 41L22 38L25 41L22 44Z" fill="#212121"/>
<path d="M22 30C23.1046 30 24 29.1046 24 28C24 26.8954 23.1046 26 22 26C20.8954 26 20 26.8954 20 28C20 29.1046 20.8954 30 22 30Z" fill="#212121"/>
<path d="M14.025 44.8821C12.5059 44.0721 11.2358 42.8642 10.3506 41.3877C9.46542 39.9111 8.99855 38.2216 9 36.5001C9 31.4731 12.928 27.3071 17.942 27.0161L18.058 29.0131C16.4267 29.1105 14.8718 29.7379 13.6298 30.7999C12.3877 31.862 11.5264 33.3005 11.1768 34.8969C10.8272 36.4932 11.0084 38.1601 11.6929 39.644C12.3774 41.128 13.5277 42.3478 14.969 43.1181L14.025 44.8821Z" fill="#212121"/>
<path d="M43.0635 36V26.2H47.7535C48.9015 26.2 49.7368 26.4287 50.2595 26.886C50.7821 27.334 51.0435 27.978 51.0435 28.818C51.0435 29.322 50.9128 29.756 50.6515 30.12C50.3901 30.4747 50.0401 30.7313 49.6015 30.89C50.1708 31.0207 50.6235 31.2867 50.9595 31.688C51.2955 32.08 51.4635 32.5933 51.4635 33.228C51.4635 33.7973 51.3375 34.292 51.0855 34.712C50.8428 35.1227 50.4601 35.44 49.9375 35.664C49.4148 35.888 48.7335 36 47.8935 36H43.0635ZM45.5835 34.068H47.3335C47.9401 34.068 48.3601 33.9793 48.5935 33.802C48.8268 33.6153 48.9435 33.3307 48.9435 32.948C48.9435 32.5653 48.8221 32.2807 48.5795 32.094C48.3461 31.9073 47.9168 31.814 47.2915 31.814H45.5835V34.068ZM45.5835 30.106H47.1375C47.6788 30.106 48.0428 30.022 48.2295 29.854C48.4255 29.6767 48.5235 29.4293 48.5235 29.112C48.5235 28.7853 48.4255 28.5427 48.2295 28.384C48.0428 28.216 47.6835 28.132 47.1515 28.132H45.5835V30.106ZM57.6262 36.182C57.0382 36.182 56.4922 36.1213 55.9882 36C55.4842 35.8693 55.0409 35.6687 54.6582 35.398C54.2849 35.118 53.9815 34.754 53.7482 34.306C53.5242 33.8487 53.3935 33.2933 53.3562 32.64H55.9602C56.0255 33.144 56.2029 33.5127 56.4922 33.746C56.7815 33.97 57.1689 34.082 57.6542 34.082C57.8875 34.082 58.1069 34.0493 58.3122 33.984C58.5175 33.9093 58.7042 33.7927 58.8722 33.634C59.0402 33.4753 59.1802 33.2607 59.2922 32.99C59.4042 32.7193 59.4835 32.388 59.5302 31.996H56.5762V30.064H59.5162C59.4602 29.588 59.3435 29.2053 59.1662 28.916C58.9982 28.6267 58.7835 28.4213 58.5222 28.3C58.2702 28.1787 57.9715 28.118 57.6262 28.118C57.2622 28.118 56.9122 28.23 56.5762 28.454C56.2402 28.678 56.0349 29.0467 55.9602 29.56H53.3562C53.4029 28.916 53.5429 28.37 53.7762 27.922C54.0095 27.474 54.3175 27.11 54.7002 26.83C55.0829 26.55 55.5215 26.3447 56.0162 26.214C56.5202 26.0833 57.0569 26.018 57.6262 26.018C58.2609 26.018 58.8535 26.1113 59.4042 26.298C59.9549 26.4753 60.4355 26.7647 60.8462 27.166C61.2662 27.558 61.5929 28.062 61.8262 28.678C62.0595 29.294 62.1762 30.0313 62.1762 30.89V31.156C62.1762 32.0613 62.0642 32.836 61.8402 33.48C61.6255 34.1147 61.3129 34.6327 60.9022 35.034C60.5009 35.4353 60.0202 35.7293 59.4602 35.916C58.9095 36.0933 58.2982 36.182 57.6262 36.182ZM63.6265 37.82V33.928H64.7465C64.8679 33.62 64.9659 33.2607 65.0405 32.85C65.1245 32.43 65.1899 31.982 65.2365 31.506C65.2832 31.03 65.3159 30.5447 65.3345 30.05C65.3625 29.546 65.3765 29.056 65.3765 28.58V26.2H72.5725V33.928H73.5665V37.82H71.3825V36H65.8105V37.82H63.6265ZM67.1685 33.928H70.0525V28.272H67.7285V28.86C67.7285 29.9987 67.6819 30.9833 67.5885 31.814C67.5045 32.6353 67.3645 33.34 67.1685 33.928Z" fill="#212121"/>
<path d="M43.0566 55V45.2H47.0466C47.9613 45.2 48.7126 45.3353 49.3006 45.606C49.8886 45.8673 50.3226 46.25 50.6026 46.754C50.892 47.2487 51.0366 47.846 51.0366 48.546C51.0366 49.2367 50.892 49.834 50.6026 50.338C50.3226 50.842 49.8886 51.2293 49.3006 51.5C48.7126 51.7613 47.9613 51.892 47.0466 51.892H45.5766V55H43.0566ZM45.5766 49.82H46.7666C47.4106 49.82 47.8633 49.7127 48.1246 49.498C48.386 49.2833 48.5166 48.966 48.5166 48.546C48.5166 48.126 48.386 47.8087 48.1246 47.594C47.8633 47.3793 47.4106 47.272 46.7666 47.272H45.5766V49.82ZM53.4155 55V45.2H57.6855C58.5069 45.2 59.1882 45.3353 59.7295 45.606C60.2802 45.8767 60.6955 46.2547 60.9755 46.74C61.2555 47.2253 61.3955 47.804 61.3955 48.476C61.3955 49.176 61.2275 49.778 60.8915 50.282C60.5649 50.7767 60.0702 51.1407 59.4075 51.374L61.6755 55H58.8755L56.9715 51.64H55.9355V55H53.4155ZM55.9355 49.68H57.1255C57.7975 49.68 58.2549 49.582 58.4975 49.386C58.7495 49.1807 58.8755 48.8773 58.8755 48.476C58.8755 48.0747 58.7495 47.776 58.4975 47.58C58.2549 47.3747 57.7975 47.272 57.1255 47.272H55.9355V49.68ZM68.5399 55.182C67.8959 55.182 67.2846 55.0887 66.7059 54.902C66.1366 54.7153 65.6326 54.4213 65.1939 54.02C64.7553 53.6187 64.4099 53.1007 64.1579 52.466C63.9059 51.822 63.7799 51.0567 63.7799 50.17V49.89C63.7799 49.0313 63.9059 48.294 64.1579 47.678C64.4099 47.062 64.7553 46.558 65.1939 46.166C65.6326 45.774 66.1366 45.4847 66.7059 45.298C67.2846 45.1113 67.8959 45.018 68.5399 45.018C69.1933 45.018 69.8046 45.1113 70.3739 45.298C70.9433 45.4847 71.4473 45.774 71.8859 46.166C72.3246 46.558 72.6699 47.062 72.9219 47.678C73.1739 48.294 73.2999 49.0313 73.2999 49.89V50.17C73.2999 51.0567 73.1739 51.822 72.9219 52.466C72.6699 53.1007 72.3246 53.6187 71.8859 54.02C71.4473 54.4213 70.9433 54.7153 70.3739 54.902C69.8046 55.0887 69.1933 55.182 68.5399 55.182ZM68.5259 53.082C68.9086 53.082 69.2633 52.998 69.5899 52.83C69.9166 52.6527 70.1779 52.3587 70.3739 51.948C70.5793 51.528 70.6819 50.9353 70.6819 50.17V49.89C70.6819 49.162 70.5793 48.5973 70.3739 48.196C70.1779 47.7947 69.9166 47.5147 69.5899 47.356C69.2633 47.1973 68.9086 47.118 68.5259 47.118C68.1619 47.118 67.8166 47.1973 67.4899 47.356C67.1633 47.5147 66.8973 47.7947 66.6919 48.196C66.4866 48.5973 66.3839 49.162 66.3839 49.89V50.17C66.3839 50.9353 66.4866 51.528 66.6919 51.948C66.8973 52.3587 67.1633 52.6527 67.4899 52.83C67.8166 52.998 68.1619 53.082 68.5259 53.082Z" fill="#212121"/>
<line x1="43" y1="40.5" x2="74" y2="40.5" stroke="#212121"/>
</svg>
