<svg width="80" height="80" viewBox="0 0 80 80" fill="none" xmlns="http://www.w3.org/2000/svg">
<g clip-path="url(#clip0_221_1042)">
<g clip-path="url(#clip1_221_1042)">
<path d="M80 0H0V80H80V0Z" fill="#512BD4"/>
<path d="M14.2585 51.111C13.6929 51.111 13.2121 50.9226 12.8161 50.5456C12.4202 50.1589 12.2222 49.6998 12.2222 49.1682C12.2222 48.6268 12.4202 48.163 12.8161 47.7763C13.2121 47.3896 13.6929 47.1963 14.2585 47.1963C14.8336 47.1963 15.3192 47.3896 15.7151 47.7763C16.1205 48.163 16.3232 48.6268 16.3232 49.1682C16.3232 49.6998 16.1205 50.1589 15.7151 50.5456C15.3192 50.9226 14.8336 51.111 14.2585 51.111Z" fill="white"/>
<path d="M36.8714 50.7921H33.1946L23.5077 35.5098C23.2627 35.1232 23.0599 34.7219 22.8997 34.3063H22.8148C22.8902 34.7511 22.9279 35.7032 22.9279 37.1626V50.7921H19.6753V30H23.5925L32.9542 44.9198C33.3502 45.5386 33.6048 45.9639 33.7179 46.1958H33.7744C33.6802 45.6449 33.633 44.7121 33.633 43.3974V30H36.8714V50.7921Z" fill="white"/>
<path d="M52.7105 50.7921H41.3267V30H52.2581V32.9289H44.6924V38.8156H51.6642V41.73H44.6924V47.8777H52.7105V50.7921Z" fill="white"/>
<path d="M68.889 32.9289H63.0627V50.7921H59.6969V32.9289H53.8848V30H68.889V32.9289Z" fill="white"/>
</g>
</g>
<defs>
<clipPath id="clip0_221_1042">
<rect width="80" height="80" fill="white"/>
</clipPath>
<clipPath id="clip1_221_1042">
<rect width="80" height="80" fill="white"/>
</clipPath>
</defs>
</svg>
