<svg width="80" height="80" viewBox="0 0 80 80" fill="none" xmlns="http://www.w3.org/2000/svg">
<g clip-path="url(#clip0_221_1030)">
<g clip-path="url(#clip1_221_1030)">
<path d="M40 80C62.0914 80 80 62.0914 80 40C80 17.9086 62.0914 0 40 0C17.9086 0 0 17.9086 0 40C0 62.0914 17.9086 80 40 80Z" fill="#5C2D91"/>
<path opacity="0.1" d="M12.2751 11.25C8.20884 14.8735 4.92538 19.2893 2.62603 24.2267C0.326677 29.164 -0.94013 34.519 -1.09674 39.9632C-1.25335 45.4075 -0.296467 50.8264 1.71526 55.8878C3.72699 60.9492 6.75117 65.5464 10.6025 69.3977C14.4537 73.249 19.0509 76.2731 24.1123 78.2849C29.1737 80.2966 34.5926 81.2535 40.0369 81.0969C45.4812 80.9403 50.8361 79.6735 55.7735 77.3741C60.7108 75.0748 65.1266 71.7913 68.7501 67.725L12.2751 11.25Z" fill="white"/>
<path d="M9.24996 46.5626C9.01663 46.5663 8.78507 46.5215 8.56991 46.4312C8.35476 46.3408 8.16069 46.2068 7.99996 46.0376C7.83482 45.8745 7.70431 45.6797 7.61625 45.4649C7.52818 45.2501 7.48438 45.0197 7.48746 44.7876C7.48579 44.5557 7.53024 44.3258 7.61822 44.1112C7.7062 43.8966 7.83596 43.7016 7.99996 43.5376C8.15911 43.3656 8.3526 43.2288 8.56792 43.1362C8.78324 43.0436 9.01559 42.9973 9.24996 43.0001C9.48398 42.9996 9.71564 43.0469 9.93063 43.1394C10.1456 43.2318 10.3394 43.3674 10.5 43.5376C10.6668 43.7002 10.7992 43.8946 10.8894 44.1093C10.9796 44.324 11.0257 44.5547 11.025 44.7876C11.0271 45.0207 10.9817 45.2518 10.8914 45.4668C10.8012 45.6817 10.6679 45.876 10.5 46.0376C10.3379 46.205 10.1435 46.3378 9.9287 46.4281C9.71386 46.5183 9.48297 46.5641 9.24996 46.5626Z" fill="white"/>
<path d="M34.0873 46.2499H30.8123L19.0998 28.0749C18.8081 27.6271 18.565 27.1494 18.3748 26.6499H18.2748C18.3861 27.6876 18.4279 28.7316 18.3998 29.7749V46.2499H15.7373V23.4624H19.1998L30.5998 41.3124C31.0748 42.0541 31.3831 42.5624 31.5248 42.8374H31.5873C31.4554 41.7259 31.4011 40.6065 31.4248 39.4874V23.4624H34.0873V46.2499Z" fill="white"/>
<path d="M52.1125 46.2499H40V23.4624H51.55V25.8749H42.725V33.4499H50.95V35.8499H42.725V43.7499H52.125L52.1125 46.2499Z" fill="white"/>
<path d="M70.0001 25.8749H63.3751V46.2499H60.7126V25.8749H54.1626V23.4624H70.0001V25.8749Z" fill="white"/>
<path d="M32.6498 61.75C31.7474 62.187 30.7519 62.3973 29.7498 62.3625C29.0839 62.3925 28.4193 62.2797 27.8005 62.0318C27.1818 61.7839 26.6232 61.4065 26.1623 60.925C25.2438 59.8969 24.7599 58.5526 24.8123 57.175C24.7787 56.4291 24.8952 55.684 25.155 54.984C25.4149 54.284 25.8126 53.6433 26.3248 53.1C26.8239 52.5887 27.4239 52.1868 28.0867 51.92C28.7496 51.6531 29.4606 51.5271 30.1748 51.55C31.0295 51.5208 31.8808 51.6698 32.6748 51.9875V53.2375C31.9104 52.8143 31.0484 52.5988 30.1748 52.6125C29.624 52.597 29.0764 52.7006 28.5694 52.9164C28.0624 53.1321 27.608 53.4548 27.2373 53.8625C26.4577 54.7506 26.0543 55.9072 26.1123 57.0875C26.0539 58.2056 26.4302 59.3029 27.1623 60.15C27.5135 60.5276 27.9422 60.8248 28.419 61.0211C28.8959 61.2175 29.4095 61.3083 29.9248 61.2875C30.8846 61.3126 31.8324 61.0702 32.6623 60.5875L32.6498 61.75Z" fill="#F2F2F2"/>
<path d="M37.7623 62.3626C37.2647 62.3787 36.7695 62.2877 36.3101 62.0957C35.8508 61.9038 35.438 61.6154 35.0998 61.2501C34.4163 60.4873 34.0614 59.4855 34.1123 58.4626C34.0811 57.9266 34.1568 57.3898 34.3349 56.8834C34.513 56.377 34.79 55.911 35.1498 55.5126C35.517 55.1542 35.9539 54.875 36.4334 54.6922C36.9128 54.5095 37.4247 54.427 37.9373 54.4501C38.4219 54.4243 38.9062 54.5036 39.3572 54.6827C39.8081 54.8618 40.215 55.1364 40.5498 55.4876C41.2142 56.2882 41.5493 57.3115 41.4873 58.3501C41.5398 59.4041 41.1762 60.4365 40.4748 61.2251C40.1302 61.5975 39.7098 61.8917 39.2419 62.088C38.774 62.2842 38.2695 62.3778 37.7623 62.3626ZM37.8498 55.5251C37.506 55.5106 37.1633 55.5739 36.8473 55.7102C36.5313 55.8466 36.2502 56.0525 36.0248 56.3126C35.5438 56.9319 35.304 57.7047 35.3498 58.4876C35.3062 59.2471 35.5468 59.9957 36.0248 60.5876C36.2525 60.844 36.5344 61.0465 36.85 61.1806C37.1657 61.3146 37.5072 61.3768 37.8498 61.3626C38.1853 61.3824 38.5208 61.3251 38.8306 61.1951C39.1405 61.065 39.4164 60.8658 39.6373 60.6126C40.0918 59.9916 40.313 59.2304 40.2623 58.4626C40.3117 57.691 40.0907 56.9263 39.6373 56.3001C39.4195 56.0416 39.1448 55.837 38.8346 55.7026C38.5245 55.5681 38.1874 55.5074 37.8498 55.5251Z" fill="#F2F2F2"/>
<path d="M47.3249 55.9C47.0549 55.7232 46.7344 55.6397 46.4124 55.6625C46.1606 55.6717 45.9149 55.7426 45.6969 55.869C45.4789 55.9954 45.2954 56.1735 45.1624 56.3875C44.7904 56.9766 44.6112 57.6669 44.6499 58.3625V62.1875H43.3999V54.6875H44.6499V56.25C44.7873 55.7666 45.0606 55.3327 45.4374 55C45.7634 54.7171 46.1808 54.5617 46.6124 54.5625C46.854 54.5517 47.0956 54.5856 47.3249 54.6625V55.9Z" fill="#F2F2F2"/>
<path d="M54.6502 58.75H49.3627C49.3272 59.4488 49.5547 60.1356 50.0002 60.675C50.2319 60.9061 50.5098 61.0857 50.8156 61.202C51.1215 61.3183 51.4485 61.3688 51.7752 61.35C52.6226 61.3416 53.4421 61.0464 54.1002 60.5125V61.6375C53.3274 62.1469 52.4122 62.3965 51.4877 62.35C51.0213 62.3736 50.5554 62.2939 50.1232 62.1167C49.6911 61.9396 49.3034 61.6692 48.9877 61.325C48.337 60.5133 48.0117 59.4884 48.0752 58.45C48.0303 57.4091 48.3834 56.39 49.0627 55.6C49.3719 55.2429 49.7566 54.9589 50.1889 54.7687C50.6213 54.5785 51.0905 54.4867 51.5627 54.5C51.9891 54.4761 52.4153 54.5492 52.8093 54.7138C53.2033 54.8783 53.555 55.13 53.8377 55.45C54.4133 56.209 54.6972 57.1494 54.6377 58.1L54.6502 58.75ZM53.4002 57.7375C53.4256 57.1583 53.2488 56.5883 52.9002 56.125C52.7292 55.9318 52.5166 55.7797 52.2785 55.6801C52.0404 55.5805 51.7829 55.5361 51.5252 55.55C51.2562 55.5467 50.9895 55.5995 50.742 55.7049C50.4945 55.8104 50.2717 55.9662 50.0877 56.1625C49.6763 56.5978 49.4175 57.1549 49.3502 57.75L53.4002 57.7375Z" fill="#F2F2F2"/>
</g>
</g>
<defs>
<clipPath id="clip0_221_1030">
<rect width="80" height="80" fill="white"/>
</clipPath>
<clipPath id="clip1_221_1030">
<rect width="80" height="80" fill="white"/>
</clipPath>
</defs>
</svg>
