<svg width="131" height="80" viewBox="0 0 131 80" fill="none" xmlns="http://www.w3.org/2000/svg">
<g clip-path="url(#clip0_221_1049)">
<g clip-path="url(#clip1_221_1049)">
<path d="M64.5622 80.0001C64.1311 80.0001 63.7029 79.887 63.325 79.6694L59.3868 77.3379C58.7986 77.0089 59.0856 76.8926 59.2796 76.8255C60.0639 76.5509 60.2231 76.4889 61.0602 76.0135C61.1482 75.9633 61.2633 75.981 61.3534 76.0342L64.3788 77.8295C64.4881 77.8886 64.6431 77.8886 64.7444 77.8295L76.5408 71.0203C76.6501 70.9583 76.721 70.8314 76.721 70.7014V57.089C76.721 56.9532 76.6501 56.8321 76.5385 56.7642L64.7468 49.9609C64.6375 49.896 64.4928 49.896 64.3836 49.9609L52.5942 56.7642C52.4799 56.8292 52.4073 56.9561 52.4073 57.0861V70.6985C52.4073 70.8284 52.4782 70.9524 52.5904 71.0144L55.8207 72.8806C57.5747 73.7576 58.6466 72.7241 58.6466 71.6847V58.2495C58.6466 58.0575 58.7972 57.9099 58.9891 57.9099H60.4832C60.6692 57.9099 60.8228 58.0575 60.8228 58.2495V71.6906C60.8228 74.0292 59.5472 75.3728 57.3296 75.3728C56.6475 75.3728 56.1101 75.3728 54.6101 74.6346L51.5155 72.8511C50.7508 72.4082 50.2783 71.5814 50.2783 70.6985V57.0861C50.2783 56.2002 50.7508 55.3734 51.5155 54.9364L63.3238 48.1243C64.0709 47.7021 65.063 47.7021 65.8042 48.1243L77.5977 54.9394C78.3595 55.3793 78.8349 56.2032 78.8349 57.089V70.7014C78.8349 71.5843 78.3595 72.4082 77.5977 72.8511L65.8042 79.6632C65.4262 79.8817 64.998 79.9939 64.561 79.9939" fill="#689F63"/>
<path d="M68.2061 70.6206C63.0446 70.6206 61.9624 68.2512 61.9624 66.264C61.9624 66.075 62.1148 65.9244 62.304 65.9244H63.8277C63.996 65.9244 64.1377 66.047 64.1643 66.2132C64.3946 67.7658 65.0797 68.5489 68.2008 68.5489C70.687 68.5489 71.7442 67.9873 71.7442 66.6688C71.7442 65.91 71.443 65.346 67.5807 64.968C64.3503 64.6491 62.3542 63.9375 62.3542 61.3538C62.3542 58.9738 64.3621 57.5565 67.7254 57.5565C71.502 57.5565 73.3741 58.8675 73.6103 61.6845C73.6192 61.7819 73.5838 61.8764 73.5188 61.9473C73.4538 62.0152 73.3623 62.0566 73.2678 62.0566H71.7353C71.5758 62.0566 71.4371 61.9443 71.4046 61.7908C71.0355 60.1579 70.1437 59.6353 67.7195 59.6353C65.0059 59.6353 64.6899 60.5802 64.6899 61.2888C64.6899 62.1481 65.062 62.3991 68.7234 62.8833C72.3495 63.3646 74.071 64.0438 74.071 66.5921C74.071 69.161 71.9272 70.6344 68.189 70.6344M82.5573 56.1982H82.953C83.2778 56.1982 83.3398 55.9708 83.3398 55.838C83.3398 55.4895 83.1006 55.4895 82.9678 55.4895H82.5603L82.5573 56.1982ZM82.076 55.082H82.953C83.2542 55.082 83.8447 55.082 83.8447 55.7553C83.8447 56.2248 83.5436 56.3222 83.3634 56.3813C83.7148 56.4049 83.7384 56.6352 83.7857 56.96C83.8093 57.1638 83.8477 57.5151 83.9186 57.6333H83.3782C83.3634 57.5151 83.2808 56.8655 83.2808 56.8301C83.2453 56.6854 83.1951 56.6145 83.015 56.6145H82.5691V57.6362H82.076V55.082ZM81.0219 56.3517C81.0219 57.4088 81.8752 58.2652 82.9235 58.2652C83.9806 58.2652 84.8339 57.3911 84.8339 56.3517C84.8339 55.2917 83.9688 54.4501 82.9205 54.4501C81.887 54.4501 81.0189 55.2799 81.0189 56.3488M85.2001 56.3576C85.2001 57.6096 84.1755 58.6313 82.9264 58.6313C81.6862 58.6313 80.6528 57.6214 80.6528 56.3576C80.6528 55.0702 81.7099 54.084 82.9264 54.084C84.1518 54.084 85.1971 55.0732 85.1971 56.3576" fill="#689F63"/>
<path fill-rule="evenodd" clip-rule="evenodd" d="M28.0327 26.7376C28.0327 26.1943 27.7463 25.6952 27.2774 25.425L14.7705 18.2291C14.5594 18.105 14.3229 18.0401 14.0831 18.0312H13.9538C13.714 18.0401 13.4775 18.105 13.2628 18.2291L0.756508 25.425C0.290556 25.6967 0 26.1957 0 26.739L0.0274611 46.1212C0.0274611 46.39 0.166243 46.6409 0.402467 46.7738C0.632786 46.9155 0.92216 46.9155 1.15248 46.7738L8.58764 42.5159C9.05713 42.2365 9.34355 41.7428 9.34355 41.2048V32.1501C9.34355 31.6097 9.62998 31.1107 10.098 30.842L13.2634 29.0189C13.4984 28.8831 13.7565 28.8158 14.0193 28.8158C14.278 28.8158 14.542 28.8825 14.7705 29.0186L17.9344 30.8411C18.4028 31.1098 18.6904 31.6088 18.6904 32.1492V41.2034C18.6904 41.7408 18.9806 42.2368 19.4478 42.5144L26.8782 46.7694C27.1115 46.9082 27.4017 46.9082 27.6341 46.7694C27.8632 46.6365 28.0085 46.3855 28.0085 46.1168L28.0327 26.7376ZM87.0498 36.8291C87.0498 36.964 86.9781 37.0889 86.8608 37.1556L82.5651 39.6319C82.4485 39.6989 82.3044 39.6989 82.188 39.6319L77.8917 37.1556C77.7736 37.0886 77.7027 36.9637 77.7027 36.8291V31.8695C77.7027 31.7343 77.7736 31.6097 77.8887 31.5418L82.1821 29.0614C82.3002 28.9935 82.4449 28.9935 82.563 29.0614L86.8594 31.5418C86.9775 31.6097 87.0483 31.7343 87.0483 31.8695L87.0498 36.8291ZM88.2103 0.0956069C87.9758 -0.034907 87.6906 -0.0313636 87.4591 0.103579C87.2288 0.239408 87.0864 0.487444 87.0864 0.756149V19.9494C87.0864 20.1383 86.986 20.3126 86.8224 20.4071C86.66 20.5015 86.4578 20.5015 86.2939 20.4071L83.161 18.6026C82.6944 18.3327 82.1198 18.3327 81.6515 18.6026L69.1405 25.8231C68.673 26.0918 68.3846 26.5908 68.3846 27.1282V41.5733C68.3846 42.1137 68.673 42.6098 69.1405 42.8814L81.6515 50.1069C82.1186 50.3756 82.6938 50.3756 83.1625 50.1069L95.6735 42.8785C96.14 42.6068 96.4294 42.1107 96.4294 41.5704V5.56981C96.4294 5.02177 96.1312 4.51772 95.6528 4.24991L88.2103 0.0956069ZM129.872 31.739C130.337 31.4691 130.623 30.9707 130.623 30.4333V26.9325C130.623 26.3939 130.337 25.8969 129.871 25.6258L117.44 18.4092C116.97 18.1375 116.394 18.1375 115.925 18.4092L103.417 25.6288C102.947 25.9004 102.661 26.3965 102.661 26.9369V41.3761C102.661 41.9194 102.953 42.4214 103.423 42.6901L115.851 49.7739C116.309 50.0367 116.87 50.0396 117.333 49.7827L124.851 45.6045C125.088 45.4716 125.238 45.2206 125.238 44.949C125.238 44.6773 125.093 44.4234 124.857 44.2905L112.272 37.068C112.036 36.9351 111.891 36.6841 111.891 36.4154V31.8858C111.891 31.6153 112.033 31.3661 112.269 31.2314L116.185 28.9725C116.418 28.8367 116.705 28.8367 116.938 28.9725L120.856 31.2314C121.089 31.3643 121.234 31.6153 121.234 31.884V35.4451C121.234 35.7138 121.379 35.9648 121.612 36.1006C121.845 36.2335 122.135 36.2335 122.368 36.0977L129.872 31.739Z" fill="#333333"/>
<path fill-rule="evenodd" clip-rule="evenodd" d="M116.499 31.0636C116.588 31.0113 116.699 31.0113 116.789 31.0636L119.189 32.4485C119.279 32.5004 119.334 32.5961 119.334 32.6995V35.4721C119.334 35.5755 119.279 35.6712 119.189 35.7231L116.789 37.108C116.699 37.1603 116.588 37.1603 116.499 37.108L114.1 35.7231C114.009 35.6712 113.953 35.5755 113.953 35.4721V32.6995C113.953 32.5961 114.006 32.5004 114.097 32.4485L116.499 31.0636Z" fill="#689F63"/>
<mask id="mask0_221_1049" style="mask-type:luminance" maskUnits="userSpaceOnUse" x="34" y="18" width="29" height="33">
<path d="M47.4585 18.4811L35.0184 25.6614C34.5524 25.9301 34.2666 26.4262 34.2666 26.9624V41.3331C34.2666 41.8696 34.5524 42.3654 35.0184 42.6341L47.4594 49.82C47.9245 50.0879 48.4979 50.0879 48.9624 49.82L61.4014 42.6341C61.865 42.3654 62.1514 41.8693 62.1514 41.3331V26.9624C62.1514 26.4262 61.865 25.9301 61.3984 25.6614L48.9612 18.4811C48.728 18.3473 48.4681 18.2803 48.2083 18.2803C47.9484 18.2803 47.6886 18.3473 47.4553 18.4811" fill="white"/>
</mask>
<g mask="url(#mask0_221_1049)">
<path d="M74.7227 24.4421L39.6685 7.25977L21.6948 43.9259L56.7481 61.1092L74.7227 24.4421Z" fill="url(#paint0_linear_221_1049)"/>
</g>
<mask id="mask1_221_1049" style="mask-type:luminance" maskUnits="userSpaceOnUse" x="34" y="18" width="28" height="33">
<path d="M34.5752 42.246C34.6942 42.4004 34.843 42.5342 35.0181 42.6346L45.6895 48.7985L47.4671 49.8202C47.7329 49.9737 48.0358 50.0387 48.3335 50.0166C48.4327 50.0086 48.5319 49.99 48.6288 49.9625L61.7493 25.9385C61.6489 25.8293 61.5313 25.7377 61.3996 25.661L53.254 20.9571L48.9483 18.4797C48.826 18.4089 48.6934 18.3587 48.5585 18.3232L34.5752 42.246Z" fill="white"/>
</mask>
<g mask="url(#mask1_221_1049)">
<path d="M19.4189 29.5247L44.1708 63.0251L76.9056 38.8399L52.1522 5.34033L19.4189 29.5247Z" fill="url(#paint1_linear_221_1049)"/>
</g>
<mask id="mask2_221_1049" style="mask-type:luminance" maskUnits="userSpaceOnUse" x="35" y="18" width="28" height="33">
<path d="M48.0598 18.2888C47.8511 18.3095 47.647 18.3744 47.4589 18.4813L35.0542 25.641L48.4304 50.0046C48.6164 49.978 48.7995 49.916 48.9649 49.8203L61.405 42.6344C61.7889 42.4117 62.0517 42.035 62.1314 41.608L48.4954 18.3133C48.395 18.2935 48.2946 18.2832 48.1912 18.2832C48.1499 18.2832 48.1085 18.2853 48.0672 18.2891" fill="white"/>
</mask>
<g mask="url(#mask2_221_1049)">
<path d="M35.0537 18.2832V50.0052H62.1259V18.2832H35.0537Z" fill="url(#paint2_linear_221_1049)"/>
</g>
</g>
</g>
<defs>
<linearGradient id="paint0_linear_221_1049" x1="57.1851" y1="15.8239" x2="39.2126" y2="52.4876" gradientUnits="userSpaceOnUse">
<stop offset="0.3" stop-color="#3E863D"/>
<stop offset="0.5" stop-color="#55934F"/>
<stop offset="0.8" stop-color="#5AAD45"/>
</linearGradient>
<linearGradient id="paint1_linear_221_1049" x1="31.9432" y1="46.4669" x2="64.6793" y2="22.2789" gradientUnits="userSpaceOnUse">
<stop offset="0.57" stop-color="#3E863D"/>
<stop offset="0.72" stop-color="#619857"/>
<stop offset="1" stop-color="#76AC64"/>
</linearGradient>
<linearGradient id="paint2_linear_221_1049" x1="35.0628" y1="34.1451" x2="62.131" y2="34.1451" gradientUnits="userSpaceOnUse">
<stop offset="0.16" stop-color="#6BBF47"/>
<stop offset="0.38" stop-color="#79B461"/>
<stop offset="0.47" stop-color="#75AC64"/>
<stop offset="0.7" stop-color="#659E5A"/>
<stop offset="0.9" stop-color="#3E863D"/>
</linearGradient>
<clipPath id="clip0_221_1049">
<rect width="131" height="80" fill="white"/>
</clipPath>
<clipPath id="clip1_221_1049">
<rect width="130.623" height="80" fill="white"/>
</clipPath>
</defs>
</svg>
