<svg width="122" height="48" viewBox="0 0 122 48" fill="none" xmlns="http://www.w3.org/2000/svg">
<g clip-path="url(#clip0_195_284)">
<path fill-rule="evenodd" clip-rule="evenodd" d="M17.8125 25.1026V8.33827C17.8125 7.48061 17.3554 6.6954 16.631 5.97285C15.9334 5.27704 15.1434 4.86427 14.2549 4.86427C13.2705 4.86427 12.4833 5.2842 11.7928 5.97285C11.2169 6.54728 11.0625 7.25692 11.0625 8.33827V25.1026C11.0625 26.2799 11.2201 26.9846 11.7928 27.5558C12.5089 28.2701 13.2972 28.7357 14.2549 28.7357C15.1171 28.7357 15.907 28.278 16.631 27.5558C17.347 26.8417 17.8125 26.056 17.8125 25.1026ZM19.3125 8.33827V25.1026C19.3125 26.6069 18.5583 27.7522 17.6903 28.6179C16.8303 29.4756 15.6807 30.2357 14.2549 30.2357C12.7486 30.2357 11.6015 29.4835 10.7336 28.6179C9.72225 27.6092 9.5625 26.383 9.5625 25.1026V8.33827C9.5625 7.1376 9.72548 5.91626 10.7336 4.91081C11.6271 4.01959 12.7752 3.36429 14.2549 3.36429C15.6544 3.36429 16.8039 4.02675 17.6903 4.91081C18.5499 5.76818 19.3125 6.91391 19.3125 8.33827ZM18 38.4C18 39.2284 17.3284 39.9 16.5 39.9H1.58447C1.55291 39.9 1.52481 39.9011 1.5 39.9026V46.1677C1.5 46.308 1.54872 46.3875 1.5899 46.4299C1.63296 46.4738 1.68937 46.5 1.76172 46.5H23.23C24.6684 46.5 25.5341 46.0024 26.0947 45.108C26.0981 45.1024 26.1015 45.0971 26.105 45.0915C26.1095 45.0848 26.1141 45.0776 26.1186 45.0709C26.9322 43.854 27.375 42.7654 27.375 41.7791V6.84619C27.375 5.39231 26.7093 4.05128 25.8899 2.81619C25.2269 1.99826 24.2768 1.5 22.8808 1.5H6.50978C5.17226 1.5 3.96214 2.02625 2.99288 2.99301C2.98067 3.00518 2.96826 3.01714 2.95565 3.02888C1.96795 3.94834 1.5 5.11702 1.5 6.49508V29.2279C1.5 30.71 1.98249 31.8957 2.90694 32.8177C3.80573 33.7142 4.97888 34.1571 6.50978 34.1571H15.6621C16.7578 34.1571 18 34.9951 18 36.4251V38.4ZM27.1025 1.93097C27.9825 3.24754 28.875 4.9152 28.875 6.84619V41.7791C28.875 43.2 28.2457 44.5879 27.3657 45.9045C26.4857 47.3089 25.0938 48 23.23 48H1.76172C0.793717 48 0 47.2211 0 46.1677V39.8483C0 38.7949 0.704471 38.4 1.58447 38.4H16.5V36.4251C16.5 35.9863 16.1021 35.6571 15.6621 35.6571H6.50978C4.66178 35.6571 3.07966 35.1086 1.84766 33.8798C0.615656 32.651 0 31.0711 0 29.2279V6.49508C0 4.73966 0.613594 3.15977 1.93359 1.93097C3.16559 0.702173 4.74975 0 6.50978 0H22.8808C24.7288 0 26.1345 0.702173 27.1025 1.93097Z" fill="#212121"/>
<path fill-rule="evenodd" clip-rule="evenodd" d="M86.25 46.5V1.5H76.875V46.5H86.25ZM87.75 46.5188C87.75 47.3966 87.0791 48 86.2871 48H76.5191C75.7271 48 75.375 47.3966 75.375 46.5188V1.14102C75.375 0.438855 75.7271 0 76.5191 0H86.3749C87.0791 0 87.75 0.438855 87.75 1.14102V46.5188Z" fill="#212121"/>
<path fill-rule="evenodd" clip-rule="evenodd" d="M109.63 40.8971C110.347 40.1828 110.812 39.3971 110.812 38.4439V21.6795C110.812 20.8221 110.355 20.0369 109.63 19.3141C109.052 18.7375 108.337 18.5786 107.256 18.5786C106.079 18.5786 105.369 18.7408 104.794 19.3141C104.217 19.8888 104.062 20.5987 104.062 21.6795V38.4439C104.062 39.6206 104.221 40.3256 104.794 40.8971C105.405 41.5069 106.158 41.7641 107.256 41.7641C108.258 41.7641 109.014 41.5114 109.63 40.8971ZM112.312 38.4439C112.312 39.9484 111.557 41.0936 110.689 41.9591C109.722 42.9248 108.542 43.2641 107.256 43.2641C105.89 43.2641 104.707 42.9292 103.734 41.9591C102.723 40.9507 102.562 39.7249 102.562 38.4439V21.6795C102.562 20.4783 102.726 19.2573 103.734 18.2521C104.743 17.2455 105.969 17.0786 107.256 17.0786C108.463 17.0786 109.684 17.2488 110.689 18.2521C111.549 19.1092 112.312 20.2549 112.312 21.6795V38.4439ZM95.958 44.8065C95.9708 44.8181 95.9831 44.8301 95.9951 44.8425C97.038 45.8824 98.2624 46.5 99.5119 46.5H120.368H120.367C120.367 46.5 120.37 46.4996 120.375 46.4989V1.50012C120.372 1.50004 120.37 1.5 120.368 1.5H111V11.4103C111 12.6458 110.047 13.8429 108.664 13.8429H99.5119C97.9282 13.8429 96.7763 14.2388 95.9074 15.1054C94.9755 16.0349 94.5 17.2244 94.5 18.6075V41.3404C94.5 42.7931 94.9613 43.8787 95.958 44.8065ZM94.9361 45.9045C93.6161 44.6756 93 43.1835 93 41.3404V18.6075C93 16.8521 93.6161 15.2722 94.848 14.0434C96.0799 12.8146 97.6639 12.3429 99.5119 12.3429H108.664C109.104 12.3429 109.5 11.9369 109.5 11.4103V1.14102C109.5 0.438855 109.72 0 110.512 0H120.368C121.072 0 121.875 0.438855 121.875 1.14102V46.6065C121.875 47.4844 121.072 48 120.368 48H99.5119C97.752 48 96.168 47.1334 94.9361 45.9045Z" fill="#212121"/>
<path d="M34.125 45.6952H35.0899C35.0899 45.9682 35.1794 46.194 35.3677 46.3822C35.556 46.5705 35.7819 46.6601 36.0549 46.6601H38.9452C39.2134 46.6601 39.4395 46.5705 39.6278 46.3822C39.816 46.194 39.9101 45.9682 39.9101 45.6952C39.9101 45.4267 39.816 45.201 39.6278 45.0124C39.4395 44.829 39.2134 44.7349 38.9452 44.7349H36.0549C35.796 44.7349 35.5513 44.6876 35.3159 44.5841C35.0805 44.4855 34.8734 44.349 34.6945 44.1746C34.5157 44.0051 34.3792 43.7981 34.2756 43.5626C34.1721 43.3275 34.125 43.0778 34.125 42.8048C34.125 42.5509 34.1721 42.306 34.2709 42.0754C34.3698 41.8447 34.5063 41.6423 34.6805 41.4634C34.8546 41.2845 35.0617 41.1431 35.2971 41.0351C35.5324 40.9316 35.7819 40.875 36.0549 40.875H38.9452C39.1991 40.875 39.444 40.9268 39.6746 41.0258C39.9053 41.1293 40.1078 41.2658 40.2818 41.4353C40.4561 41.6093 40.5971 41.8117 40.701 42.0472C40.8045 42.2824 40.8656 42.5366 40.875 42.8048H39.9101C39.9101 42.5366 39.816 42.3105 39.6278 42.1222C39.4395 41.934 39.2134 41.8399 38.9452 41.8399H36.0549C35.7819 41.8399 35.556 41.934 35.3677 42.1222C35.1794 42.3105 35.0899 42.5366 35.0899 42.8048C35.0899 43.0778 35.1794 43.3039 35.3677 43.4921C35.556 43.6804 35.7819 43.77 36.0549 43.77H38.9452C39.1946 43.77 39.4346 43.8218 39.6701 43.9204C39.9053 44.0194 40.1078 44.1559 40.2866 44.3299C40.4655 44.5042 40.6069 44.7068 40.7149 44.9419C40.8184 45.1774 40.875 45.4267 40.875 45.6952C40.875 45.954 40.8233 46.1989 40.7243 46.4295C40.6208 46.6646 40.4843 46.8671 40.3103 47.0415C40.1359 47.2204 39.9338 47.3614 39.6983 47.4649C39.4628 47.5732 39.2134 47.625 38.9452 47.625H36.0549C35.7913 47.625 35.5418 47.5778 35.3112 47.4791C35.0759 47.3801 34.8734 47.2436 34.704 47.0696C34.5298 46.8952 34.3933 46.6883 34.2897 46.4528C34.1862 46.2176 34.1297 45.9682 34.125 45.6952Z" fill="#212121"/>
<path fill-rule="evenodd" clip-rule="evenodd" d="M33.8579 45.4328H35.3524V45.6953C35.3524 45.9027 35.417 46.0609 35.5533 46.197C35.6896 46.3332 35.8475 46.398 36.0549 46.398H38.9452C39.147 46.398 39.3052 46.3339 39.4421 46.197C39.5805 46.0583 39.6476 45.8993 39.6476 45.6953C39.6476 45.4973 39.5816 45.3387 39.4432 45.1995C39.3037 45.0642 39.1436 44.9978 38.9452 44.9978H36.0549C35.7636 44.9978 35.4831 44.9445 35.2122 44.8257C34.9486 44.7147 34.7149 44.5609 34.5127 44.3644C34.3048 44.1672 34.1501 43.9298 34.0354 43.6688C33.9152 43.3958 33.8625 43.1097 33.8625 42.8052C33.8625 42.5179 33.9158 42.2378 34.0296 41.9723C34.1415 41.7113 34.2962 41.4822 34.4924 41.2804C34.6914 41.076 34.926 40.917 35.1874 40.797L35.1913 40.7952C35.4585 40.6774 35.7439 40.6129 36.0549 40.6129H38.9452C39.2355 40.6129 39.5156 40.6722 39.7781 40.7847L39.7822 40.7865C40.0399 40.902 40.2679 41.0558 40.4651 41.2474L40.4674 41.2497C40.6642 41.4465 40.824 41.6757 40.941 41.9415C41.0576 42.2063 41.1266 42.4932 41.1375 42.7962L41.1469 43.0677H39.6476V42.8052C39.6476 42.6068 39.5812 42.4474 39.4421 42.3083C39.303 42.1692 39.1436 42.1028 38.9452 42.1028H36.0549C35.8509 42.1028 35.6919 42.1695 35.5533 42.3083C35.4165 42.4452 35.3524 42.6034 35.3524 42.8052C35.3524 43.0125 35.417 43.1704 35.5533 43.3069C35.6896 43.443 35.8475 43.5075 36.0549 43.5075H38.9452C39.2321 43.5075 39.5066 43.5675 39.7717 43.6789C40.0384 43.7907 40.2682 43.9459 40.4696 44.1424C40.6729 44.34 40.8322 44.5695 40.9534 44.8324L40.9552 44.8365C41.0726 45.1035 41.1375 45.3889 41.1375 45.6953C41.1375 45.9904 41.0782 46.2702 40.9657 46.533L40.9646 46.5353C40.8491 46.7982 40.695 47.0277 40.497 47.226C40.3001 47.4282 40.0706 47.5879 39.8059 47.7045C39.5344 47.8294 39.2479 47.8879 38.9452 47.8879H36.0549C35.7599 47.8879 35.4751 47.835 35.2086 47.721C34.9434 47.6097 34.7119 47.454 34.5171 47.2542C34.3179 47.0547 34.1643 46.8199 34.0495 46.5589C33.9319 46.2919 33.8678 46.008 33.8625 45.6998L33.8579 45.4328ZM34.7039 47.0697C34.8734 47.2437 35.0758 47.3802 35.3112 47.4792C35.5418 47.5778 35.7913 47.625 36.0549 47.625H38.9452C39.2134 47.625 39.4627 47.5733 39.6982 47.4649C39.9337 47.3614 40.1359 47.2204 40.3102 47.0415C40.4842 46.8672 40.6207 46.6647 40.7242 46.4295C40.8232 46.1989 40.875 45.954 40.875 45.6953C40.875 45.4268 40.8184 45.1774 40.7149 44.9419C40.6069 44.7068 40.4655 44.5043 40.2866 44.3299C40.1077 44.1559 39.9052 44.0194 39.6701 43.9204C39.4346 43.8218 39.1946 43.77 38.9452 43.77H36.0549C35.7819 43.77 35.5559 43.6804 35.3677 43.4922C35.1794 43.3039 35.0899 43.0778 35.0899 42.8048C35.0899 42.5367 35.1794 42.3105 35.3677 42.1223C35.5559 41.934 35.7819 41.8399 36.0549 41.8399H38.9452C39.2134 41.8399 39.4395 41.934 39.6277 42.1223C39.816 42.3105 39.9101 42.5367 39.9101 42.8048H40.875C40.872 42.7159 40.863 42.6285 40.8487 42.5427C40.8202 42.3702 40.77 42.2044 40.701 42.0473C40.5971 41.8118 40.4561 41.6093 40.2817 41.4353C40.1077 41.2658 39.9052 41.1293 39.6746 41.0258C39.444 40.9268 39.1991 40.875 38.9452 40.875H36.0549C35.7819 40.875 35.5324 40.9317 35.297 41.0352C35.0617 41.1432 34.8546 41.2845 34.6804 41.4634C34.5062 41.6423 34.3697 41.8448 34.2709 42.0754C34.172 42.306 34.125 42.5509 34.125 42.8048C34.125 43.0778 34.172 43.3275 34.2756 43.5627C34.3792 43.7982 34.5157 44.0052 34.6945 44.1747C34.8734 44.349 35.0805 44.4855 35.3159 44.5842C35.5513 44.6877 35.796 44.7349 36.0549 44.7349H38.9452C39.2134 44.7349 39.4395 44.829 39.6277 45.0124C39.816 45.201 39.9101 45.4268 39.9101 45.6953C39.9101 45.9683 39.816 46.194 39.6277 46.3823C39.4395 46.5705 39.2134 46.6602 38.9452 46.6602H36.0549C35.7819 46.6602 35.5559 46.5705 35.3677 46.3823C35.1794 46.194 35.0899 45.9683 35.0899 45.6953H34.125C34.1265 45.7849 34.1337 45.8727 34.1463 45.9578C34.172 46.1314 34.2203 46.2953 34.2897 46.4528C34.3933 46.6883 34.5298 46.8953 34.7039 47.0697Z" fill="#212121"/>
<path d="M43.875 45.6952V42.8048C43.875 42.5415 43.9223 42.2966 44.0258 42.0611C44.1293 41.826 44.2657 41.6235 44.4397 41.4491C44.6141 41.2751 44.8211 41.1338 45.0566 41.0303C45.2918 40.9268 45.5415 40.875 45.8048 40.875H48.6953C48.9491 40.875 49.194 40.9268 49.4246 41.0303C49.6552 41.1338 49.8578 41.2751 50.0366 41.4491C50.2155 41.6235 50.3569 41.826 50.4649 42.0611C50.5684 42.2966 50.625 42.5415 50.625 42.8048V45.6952C50.625 45.9585 50.5733 46.2082 50.4698 46.4434C50.3663 46.6789 50.2249 46.8859 50.0509 47.0554C49.8765 47.2298 49.674 47.3662 49.4389 47.4697C49.2034 47.5732 48.9585 47.625 48.6953 47.625H45.8048C45.5318 47.625 45.2824 47.5778 45.0473 47.4791C44.8117 47.3801 44.6048 47.2436 44.4304 47.0696C44.2564 46.8952 44.1199 46.6883 44.0209 46.4528C43.9222 46.2176 43.875 45.9682 43.875 45.6952ZM44.8399 45.6952C44.8399 45.9682 44.9295 46.194 45.1178 46.3822C45.306 46.5705 45.5318 46.6601 45.8048 46.6601H48.6953C48.9634 46.6601 49.1895 46.5705 49.3777 46.3822C49.566 46.194 49.6601 45.9682 49.6601 45.6952V42.8048C49.6601 42.5366 49.566 42.3105 49.3777 42.1222C49.1895 41.934 48.9634 41.8399 48.6953 41.8399H45.8048C45.5318 41.8399 45.306 41.934 45.1178 42.1222C44.9295 42.3105 44.8399 42.5366 44.8399 42.8048V45.6952Z" fill="#212121"/>
<path fill-rule="evenodd" clip-rule="evenodd" d="M50.7051 41.9558C50.8221 42.2217 50.8873 42.5022 50.8873 42.8052V45.6953C50.8873 45.9945 50.8284 46.2799 50.7099 46.5495C50.5941 46.8128 50.4343 47.0483 50.2348 47.2425C50.0368 47.4405 49.8073 47.5947 49.5444 47.7102C49.2756 47.8287 48.9947 47.8879 48.6951 47.8879H45.8046C45.5004 47.8879 45.2158 47.835 44.9454 47.7214C44.6807 47.6104 44.4444 47.4552 44.2446 47.2557C44.0451 47.0558 43.8898 46.8195 43.7788 46.5548C43.6652 46.2844 43.6123 45.9998 43.6123 45.6953V42.8052C43.6123 42.5089 43.6656 42.2277 43.7852 41.9558C43.9011 41.6925 44.0556 41.4627 44.2539 41.2639C44.4519 41.0663 44.6863 40.9065 44.9507 40.7903C45.2199 40.6718 45.5057 40.6129 45.8046 40.6129H48.6951C48.9857 40.6129 49.2669 40.6722 49.5321 40.791C49.7923 40.908 50.0199 41.0674 50.2194 41.2617C50.4227 41.4593 50.5821 41.6888 50.7032 41.9517L50.7051 41.9558ZM45.1022 45.6953C45.1022 45.9027 45.1667 46.0609 45.3032 46.197C45.4393 46.3332 45.5972 46.398 45.8046 46.398H48.6951C48.8968 46.398 49.0551 46.3339 49.1919 46.197C49.3303 46.0583 49.3974 45.8993 49.3974 45.6953V42.8052C49.3974 42.6068 49.3311 42.4474 49.1919 42.3083C49.0528 42.1692 48.8934 42.1028 48.6951 42.1028H45.8046C45.6009 42.1028 45.4419 42.1695 45.3032 42.3083C45.1663 42.4452 45.1022 42.6034 45.1022 42.8052V45.6953ZM43.8748 42.8048V45.6953C43.8748 45.9683 43.9221 46.2177 44.0207 46.4528C44.1197 46.6883 44.2562 46.8953 44.4302 47.0697C44.6046 47.2437 44.8116 47.3802 45.0471 47.4792C45.2822 47.5778 45.5316 47.625 45.8046 47.625H48.6951C48.9583 47.625 49.2032 47.5733 49.4387 47.4698C49.6738 47.3663 49.8763 47.2298 50.0507 47.0554C50.2247 46.8859 50.3661 46.6789 50.4696 46.4434C50.5731 46.2083 50.6248 45.9585 50.6248 45.6953V42.8048C50.6248 42.5415 50.5682 42.2967 50.4647 42.0612C50.3567 41.826 50.2153 41.6235 50.0364 41.4492C49.8576 41.2752 49.6551 41.1338 49.4244 41.0303C49.1938 40.9268 48.9489 40.875 48.6951 40.875H45.8046C45.5413 40.875 45.2916 40.9268 45.0564 41.0303C44.8209 41.1338 44.6139 41.2752 44.4396 41.4492C44.2656 41.6235 44.1291 41.826 44.0256 42.0612C43.9221 42.2967 43.8748 42.5415 43.8748 42.8048ZM45.1176 46.3823C44.9293 46.194 44.8397 45.9683 44.8397 45.6953V42.8048C44.8397 42.5367 44.9293 42.3105 45.1176 42.1223C45.3058 41.934 45.5316 41.8399 45.8046 41.8399H48.6951C48.9632 41.8399 49.1893 41.934 49.3776 42.1223C49.5658 42.3105 49.6599 42.5367 49.6599 42.8048V45.6953C49.6599 45.9683 49.5658 46.194 49.3776 46.3823C49.1893 46.5705 48.9632 46.6602 48.6951 46.6602H45.8046C45.5316 46.6602 45.3058 46.5705 45.1176 46.3823Z" fill="#212121"/>
<path d="M53.625 47.625V40.875H60.375V41.8399H54.5899V43.77H59.4101V44.7349H54.5899V47.625H53.625Z" fill="#212121"/>
<path fill-rule="evenodd" clip-rule="evenodd" d="M53.3623 47.8879V40.6129H60.6373V42.1028H54.8522V43.5075H59.6724V44.9978H54.8522V47.8879H53.3623ZM54.5897 44.7349H59.4099V43.77H54.5897V41.8399H60.3748V40.875H53.6248V47.625H54.5897V44.7349Z" fill="#212121"/>
<path d="M63.375 41.8399V40.875H70.125V41.8399H67.23V47.625H66.2651V41.8399H63.375Z" fill="#212121"/>
<path fill-rule="evenodd" clip-rule="evenodd" d="M63.1123 42.1028V40.6129H70.3873V42.1028H67.4923V47.8879H66.0024V42.1028H63.1123ZM66.2649 41.8399V47.625H67.2298V41.8399H70.1248V40.875H63.3748V41.8399H66.2649Z" fill="#212121"/>
<path fill-rule="evenodd" clip-rule="evenodd" d="M46.0826 14.9877L36.6609 12.2331C35.9911 14.0282 35.625 15.9714 35.625 18C35.625 20.0023 35.9817 21.9213 36.6349 23.6969L46.0826 21.012C45.6296 20.1053 45.375 19.0824 45.375 18C45.375 16.9174 45.63 15.8944 46.0826 14.9877ZM38.364 8.89249L47.1435 13.4449C48.378 12.096 50.1525 11.25 52.125 11.25C55.4404 11.25 58.1977 13.6405 58.7674 16.7919L67.6991 12.537C65.4446 6.10912 59.3231 1.5 52.125 1.5C46.3789 1.5 41.3186 4.43738 38.364 8.89249ZM58.8574 17.5089C58.869 17.6711 58.875 17.8349 58.875 18C58.875 18.1357 58.8709 18.2705 58.863 18.4042L68.4922 20.1035C68.58 19.4147 68.625 18.7126 68.625 18C68.625 17.2577 68.5759 16.5269 68.481 15.8106L58.8574 17.5089ZM52.125 24.75C55.4689 24.75 58.245 22.3184 58.7812 19.1269L67.7254 23.3875C65.4922 29.8548 59.3512 34.5 52.125 34.5C46.3789 34.5 41.3186 31.5626 38.364 27.1075L47.1435 22.5551C48.378 23.904 50.1525 24.75 52.125 24.75ZM64.7993 5.21854C63.9274 4.3539 62.9674 3.57787 61.9343 2.90505C62.9471 3.55806 63.9079 4.3287 64.7993 5.21854ZM57.375 18C57.375 20.8995 55.0245 23.25 52.125 23.25C49.2255 23.25 46.875 20.8995 46.875 18C46.875 15.1005 49.2255 12.75 52.125 12.75C55.0245 12.75 57.375 15.1005 57.375 18ZM52.125 21.375C53.9891 21.375 55.5 19.864 55.5 18C55.5 16.136 53.9891 14.625 52.125 14.625C50.2609 14.625 48.75 16.136 48.75 18C48.75 19.864 50.2609 21.375 52.125 21.375Z" fill="#FFD700"/>
<path fill-rule="evenodd" clip-rule="evenodd" d="M52.125 36C62.0662 36 70.125 27.9411 70.125 18C70.125 13.0022 68.088 8.48006 64.7993 5.21854C63.9274 4.3539 62.9674 3.57787 61.9343 2.90505C59.1124 1.06763 55.7434 0 52.125 0C42.1838 0 34.125 8.05886 34.125 18C34.125 27.9411 42.1838 36 52.125 36ZM38.364 27.1075C37.6628 26.0499 37.08 24.9067 36.6349 23.6969C35.9817 21.9213 35.625 20.0023 35.625 18C35.625 15.9714 35.9911 14.0282 36.6609 12.2331C37.1025 11.0492 37.6763 9.9297 38.364 8.89249C41.3186 4.43738 46.3789 1.5 52.125 1.5C59.3231 1.5 65.4446 6.10912 67.6991 12.537C68.0663 13.584 68.331 14.6792 68.481 15.8106C68.5759 16.5269 68.625 17.2577 68.625 18C68.625 18.7126 68.58 19.4147 68.4922 20.1035C68.3479 21.2382 68.088 22.3369 67.7254 23.3875C65.4922 29.8548 59.3512 34.5 52.125 34.5C46.3789 34.5 41.3186 31.5626 38.364 27.1075Z" fill="#212121"/>
<path fill-rule="evenodd" clip-rule="evenodd" d="M46.0826 21.012C46.3643 21.5759 46.7224 22.0948 47.1435 22.5551C48.378 23.904 50.1525 24.75 52.125 24.75C55.4689 24.75 58.245 22.3184 58.7813 19.1269C58.821 18.89 58.8488 18.6489 58.863 18.4042C58.8709 18.2705 58.875 18.1357 58.875 18C58.875 17.8348 58.869 17.6711 58.8574 17.5089C58.8401 17.2661 58.8098 17.0269 58.7674 16.7919C58.1978 13.6405 55.4404 11.25 52.125 11.25C50.1525 11.25 48.378 12.096 47.1435 13.4449C46.7224 13.9051 46.3643 14.4239 46.0826 14.9877C45.63 15.8944 45.375 16.9174 45.375 18C45.375 19.0824 45.6296 20.1053 46.0826 21.012ZM52.125 23.25C55.0245 23.25 57.375 20.8995 57.375 18C57.375 15.1005 55.0245 12.75 52.125 12.75C49.2255 12.75 46.875 15.1005 46.875 18C46.875 20.8995 49.2255 23.25 52.125 23.25Z" fill="#212121"/>
<path fill-rule="evenodd" clip-rule="evenodd" d="M55.5 18C55.5 19.864 53.9891 21.375 52.125 21.375C50.2609 21.375 48.75 19.864 48.75 18C48.75 16.136 50.2609 14.625 52.125 14.625C53.9891 14.625 55.5 16.136 55.5 18ZM52.125 19.875C53.1604 19.875 54 19.0355 54 18C54 16.9645 53.1604 16.125 52.125 16.125C51.0896 16.125 50.25 16.9645 50.25 18C50.25 19.0355 51.0896 19.875 52.125 19.875Z" fill="#212121"/>
<path d="M38.3643 8.89246C37.6765 9.92967 37.1028 11.0492 36.6611 12.233L46.0829 14.9876C46.3645 14.4239 46.7226 13.9051 47.1438 13.4448L38.3643 8.89246Z" fill="#FAFAFA"/>
<path d="M36.6348 23.697C37.0798 24.9067 37.6626 26.0499 38.3639 27.1076L47.1434 22.5552C46.7222 22.0949 46.3641 21.5759 46.0825 21.0121L36.6348 23.697Z" fill="#FAFAFA"/>
<path d="M68.4812 15.8105C68.3312 14.6791 68.0665 13.5839 67.6993 12.537L58.7676 16.7919C58.81 17.0269 58.8403 17.2661 58.8576 17.5089L68.4812 15.8105Z" fill="#FAFAFA"/>
<path d="M67.7254 23.3875C68.088 22.3369 68.3479 21.2381 68.4922 20.1034L58.863 18.4042C58.8488 18.6488 58.821 18.8899 58.7812 19.1269L67.7254 23.3875Z" fill="#FAFAFA"/>
</g>
<defs>
<clipPath id="clip0_195_284">
<rect width="121.875" height="48" fill="white"/>
</clipPath>
</defs>
</svg>
