<svg width="194" height="176" viewBox="0 0 194 176" fill="none" xmlns="http://www.w3.org/2000/svg">
<path d="M11.6546 68.6876L9.36399 67.7255L13.1991 58.5304L17.7805 60.4547C20.2084 61.4747 21.518 64.4021 20.4441 66.9767L17.5677 73.8731C16.5418 76.3327 13.6573 77.6335 11.0689 76.5462L4.19699 73.6597C1.76892 72.6396 0.45945 69.7123 1.53329 67.1377L4.40965 60.2413C5.43555 57.7817 8.33712 56.569 10.9085 57.5681L9.94971 59.8669C8.68986 59.3376 7.22761 59.9391 6.70029 61.2035L3.82392 68.0998C3.2966 69.3642 3.89592 70.8317 5.15577 71.3608L12.0277 74.2475C13.2875 74.7766 14.7498 74.1752 15.2771 72.9108L18.1534 66.0144C18.6808 64.7502 18.0815 63.2827 16.8216 62.7534L14.531 61.7914L11.6546 68.6876Z" fill="#FAFAFA"/>
<path fill-rule="evenodd" clip-rule="evenodd" d="M11.8627 69.1972L8.85627 67.9344L12.991 58.0207L17.9302 60.0955C20.5489 61.1956 21.9615 64.3471 20.802 67.127L17.9257 74.0234C16.8199 76.6744 13.7121 78.0787 10.9191 76.9054L4.04718 74.0188C1.42843 72.9188 0.015903 69.7673 1.17538 66.9873L4.05174 60.091C5.16206 57.4289 8.28917 56.1329 11.0486 57.2051L11.4203 57.3495L10.1578 60.3765L9.7999 60.226C8.73771 59.78 7.5028 60.2879 7.0582 61.3538L4.18184 68.2503C3.73724 69.3162 4.24341 70.5555 5.30559 71.0016L12.1775 73.8883C13.2397 74.3344 14.4746 73.8265 14.9192 72.7605L17.7955 65.8641C18.2402 64.7982 17.734 63.5588 16.6719 63.1128L14.7391 62.3008L11.8627 69.1972ZM14.531 61.7914L16.8216 62.7534C18.0815 63.2827 18.6808 64.7502 18.1534 66.0144L15.2771 72.9108C14.7498 74.1752 13.2875 74.7766 12.0277 74.2475L5.15577 71.3608C3.89592 70.8317 3.2966 69.3642 3.82392 68.0998L6.70029 61.2035C7.22761 59.9391 8.68986 59.3376 9.94971 59.8669L10.9085 57.5681C10.7866 57.5208 10.6641 57.4784 10.5409 57.4409C8.06633 56.6867 5.38694 57.8982 4.40965 60.2413L1.53329 67.1377C0.45945 69.7123 1.76892 72.6396 4.19699 73.6597L11.0689 76.5462C13.6573 77.6335 16.5418 76.3327 17.5677 73.8731L20.4441 66.9767C21.518 64.4021 20.2084 61.4747 17.7805 60.4547L13.1991 58.5304L9.36399 67.7255L11.6546 68.6876L14.531 61.7914Z" fill="#FAFAFA"/>
<path d="M33.314 38.7179L27.7671 33.7273C26.7502 32.8124 25.1723 32.8989 24.2605 33.9193L19.2878 39.4859C18.376 40.5064 18.4621 42.0901 19.4791 43.005L25.026 47.9954C26.0428 48.9105 27.6208 48.8241 28.5324 47.8036L33.5053 42.237C34.417 41.2163 34.3308 39.6328 33.314 38.7179ZM29.4248 31.8718L34.9716 36.8623C37.0054 38.6922 37.1777 41.8593 35.3542 43.9004L30.3815 49.467C28.5414 51.5267 25.4206 51.6975 23.3683 49.8511L17.8214 44.8605C15.7875 43.0307 15.6154 39.8635 17.4387 37.8225L22.4116 32.2559C24.1686 30.2889 27.4094 30.0586 29.4248 31.8718Z" fill="#FAFAFA"/>
<path fill-rule="evenodd" clip-rule="evenodd" d="M33.0549 39.0078L27.5081 34.0173C26.6508 33.2459 25.3181 33.3189 24.5495 34.1793L19.5766 39.7459C18.808 40.6063 18.8807 41.9437 19.738 42.715L25.2848 47.7056C26.1423 48.4769 27.4749 48.404 28.2436 47.5436L33.2163 41.977C33.985 41.1165 33.9123 39.7792 33.0549 39.0078ZM29.6837 31.582L35.2305 36.5724C37.424 38.5458 37.6096 41.9591 35.6432 44.1604L30.6703 49.727C28.6873 51.9467 25.3212 52.131 23.1092 50.1409L17.5624 45.1505C15.3691 43.177 15.1835 39.7636 17.1499 37.5625L22.1226 31.996C24.0203 29.8718 27.5061 29.6226 29.6837 31.582ZM27.7671 33.7273L33.314 38.7179C34.3308 39.6328 34.417 41.2163 33.5053 42.237L28.5324 47.8036C27.6208 48.8241 26.0428 48.9105 25.026 47.9954L19.4791 43.005C18.4621 42.0901 18.376 40.5064 19.2878 39.4859L24.2605 33.9193C25.1723 32.8989 26.7502 32.8124 27.7671 33.7273ZM34.9716 36.8623L29.4248 31.8718C27.4094 30.0586 24.1686 30.2889 22.4116 32.2559L17.4387 37.8225C15.6154 39.8635 15.7875 43.0307 17.8214 44.8605L23.3683 49.8511C25.4206 51.6975 28.5414 51.5267 30.3815 49.467L35.3542 43.9004C37.1777 41.8593 37.0054 38.6922 34.9716 36.8623Z" fill="#FAFAFA"/>
<path d="M39.6649 16.7998L47.0532 29.7843L59.9916 22.3697L61.2229 24.5337L46.1282 33.184L37.5085 18.0356L39.6649 16.7998Z" fill="#FAFAFA"/>
<path fill-rule="evenodd" clip-rule="evenodd" d="M39.8095 16.2687L47.1977 29.253L60.1361 21.8384L61.7522 24.6789L45.9837 33.7153L36.9792 17.8906L39.8095 16.2687ZM47.0532 29.7843L39.6649 16.7998L37.5085 18.0356L46.1282 33.184L61.2229 24.5337L59.9916 22.3697L47.0532 29.7843Z" fill="#FAFAFA"/>
<path d="M82.8918 13.0534L81.4682 5.71505C81.2071 4.36969 79.8968 3.48326 78.5562 3.7452L68.8063 5.65022L71.1792 17.8808L80.929 15.9758C82.2696 15.7138 83.1529 14.3987 82.8918 13.0534ZM83.9056 5.23879L85.3292 12.5771C85.8322 15.17 84.1334 17.8884 81.4036 18.4218L69.2164 20.8031L65.8945 3.68038L78.0816 1.2991C80.6895 0.789502 83.3056 2.53791 83.9056 5.23879Z" fill="#FAFAFA"/>
<path fill-rule="evenodd" clip-rule="evenodd" d="M84.2864 5.16437L85.7101 12.5027C86.2527 15.2992 84.4254 18.2281 81.4776 18.8041L68.9097 21.2597L65.4394 3.3726L78.0074 0.916894C80.8301 0.365362 83.6405 2.25567 84.2843 5.15408L84.2864 5.16437ZM82.511 13.1278L81.0873 5.78947C80.8672 4.65519 79.7605 3.90656 78.6303 4.1274L69.2614 5.95802L71.486 17.4241L80.8548 15.5935C81.9851 15.3727 82.731 14.262 82.511 13.1278ZM71.1792 17.8808L68.8063 5.65022L78.5562 3.7452C79.8968 3.48326 81.2071 4.36969 81.4682 5.71505L82.8918 13.0534C83.1529 14.3987 82.2696 15.7138 80.929 15.9758L71.1792 17.8808ZM85.3292 12.5771L83.9056 5.23879C83.3056 2.53791 80.6895 0.789502 78.0816 1.2991L65.8945 3.68038L69.2164 20.8031L81.4036 18.4218C84.1334 17.8884 85.8322 15.17 85.3292 12.5771Z" fill="#FAFAFA"/>
<path d="M126.332 17.3838C125.585 19.9169 122.828 21.5419 120.161 20.7508L113.017 18.6318C110.421 17.8619 108.938 15.1612 109.662 12.4395L112.043 13.1458C111.656 14.4602 112.411 15.8535 113.721 16.2419L120.865 18.3609C122.175 18.7494 123.563 17.9918 123.95 16.6774C124.337 15.363 123.582 13.9697 122.273 13.5813L115.129 11.4623C112.58 10.7065 110.978 7.9705 111.773 5.26997C112.519 2.73674 115.277 1.11184 117.944 1.90292L125.088 4.02187C127.636 4.77764 129.153 7.54028 128.443 10.2142L126.062 9.50788C126.449 8.19347 125.694 6.80019 124.384 6.41171L117.24 4.29277C115.93 3.90429 114.542 4.66187 114.155 5.97629C113.768 7.2907 114.523 8.68397 115.832 9.07244L122.976 11.1914C125.477 11.933 127.113 14.731 126.332 17.3838Z" fill="#FAFAFA"/>
<path fill-rule="evenodd" clip-rule="evenodd" d="M109.39 11.9528L112.525 12.8828L112.415 13.2562C112.089 14.3644 112.727 15.541 113.831 15.8686L120.975 17.9874C122.079 18.315 123.252 17.6752 123.578 16.567C123.904 15.4589 123.267 14.2822 122.163 13.9547L115.019 11.8357C112.272 11.0212 110.543 8.0736 111.401 5.15961C112.206 2.42743 115.174 0.67534 118.054 1.5295L125.198 3.64845C127.956 4.46641 129.58 7.44497 128.818 10.3144L128.715 10.701L125.58 9.77093L125.69 9.39751C126.016 8.28934 125.378 7.11266 124.274 6.78513L117.13 4.66617C116.026 4.33865 114.853 4.97847 114.527 6.08664C114.2 7.19483 114.838 8.37151 115.942 8.69904L123.086 10.818C125.785 11.6184 127.548 14.6279 126.704 17.494C125.899 20.2262 122.931 21.9783 120.051 21.1241L112.907 19.0053C110.102 18.1733 108.511 15.2566 109.287 12.3391L109.39 11.9528ZM126.062 9.50788C126.449 8.19347 125.694 6.80019 124.384 6.41171L117.24 4.29277C115.93 3.90429 114.542 4.66187 114.155 5.97629C113.768 7.2907 114.523 8.68397 115.832 9.07244L122.976 11.1914C125.477 11.933 127.113 14.731 126.332 17.3838C125.585 19.9169 122.828 21.5419 120.161 20.7508L113.017 18.6318C110.542 17.8979 109.079 15.4088 109.575 12.8197C109.599 12.6932 109.628 12.5664 109.662 12.4395L112.043 13.1458C111.656 14.4602 112.411 15.8535 113.721 16.2419L120.865 18.3609C122.175 18.7494 123.563 17.9918 123.95 16.6774C124.337 15.363 123.582 13.9697 122.273 13.5813L115.129 11.4623C112.58 10.7065 110.978 7.9705 111.773 5.26997C112.519 2.73674 115.277 1.11184 117.944 1.90292L125.088 4.02187C127.515 4.74182 129.007 7.28296 128.529 9.83368C128.505 9.96057 128.477 10.0875 128.443 10.2142L126.062 9.50788Z" fill="#FAFAFA"/>
<path d="M149.452 30.4294L153.791 24.3518C154.586 23.2375 154.328 21.6729 153.218 20.8746L147.162 16.521C146.051 15.723 144.492 15.9817 143.697 17.0959L139.359 23.1735C138.563 24.2878 138.821 25.8526 139.932 26.6507L145.988 31.0043C147.098 31.8024 148.657 31.5437 149.452 30.4294ZM155.81 25.8029L151.471 31.8807C149.881 34.1092 146.762 34.6265 144.542 33.0302L138.486 28.6766C136.245 27.0658 135.735 23.9711 137.34 21.7224L141.678 15.6446C143.269 13.4162 146.387 12.8989 148.608 14.4952L154.664 18.8488C156.803 20.387 157.385 23.5947 155.81 25.8029Z" fill="#FAFAFA"/>
<path fill-rule="evenodd" clip-rule="evenodd" d="M149.137 30.2028L153.475 24.125C154.146 23.1855 153.928 21.8641 152.992 21.1911L146.936 16.8377C146 16.1647 144.683 16.3832 144.012 17.3225L139.674 23.4003C139.004 24.3398 139.221 25.6612 140.158 26.3342L146.214 30.6876C147.15 31.3606 148.466 31.1421 149.137 30.2028ZM156.125 26.0297L151.787 32.1073C150.071 34.5107 146.711 35.0682 144.316 33.3466L138.26 28.9932C135.845 27.2572 135.295 23.9193 137.025 21.4956L141.363 15.4179C143.078 13.0146 146.439 12.4571 148.834 14.1787L154.89 18.5321C157.201 20.1935 157.828 23.6436 156.125 26.0297ZM153.791 24.3518L149.452 30.4294C148.657 31.5437 147.098 31.8024 145.988 31.0043L139.932 26.6507C138.821 25.8526 138.563 24.2878 139.359 23.1735L143.697 17.0959C144.492 15.9817 146.051 15.723 147.162 16.521L153.218 20.8746C154.328 21.6729 154.586 23.2375 153.791 24.3518ZM151.471 31.8807L155.81 25.8029C157.385 23.5947 156.803 20.387 154.664 18.8488L148.608 14.4952C146.387 12.8989 143.269 13.4162 141.678 15.6446L137.34 21.7224C135.735 23.9711 136.245 27.0658 138.486 28.6766L144.542 33.0302C146.762 34.6265 149.881 34.1092 151.471 31.8807Z" fill="#FAFAFA"/>
<path d="M170.126 36.0413L166.076 38.9288L173.27 49.0848L171.246 50.5286L164.053 40.3725L157.981 44.7038L156.542 42.6726L170.711 32.5663L180.782 46.7848L178.756 48.2285L170.126 36.0413Z" fill="#FAFAFA"/>
<path fill-rule="evenodd" clip-rule="evenodd" d="M173.812 49.1765L171.155 51.0716L163.961 40.9154L157.89 45.2467L156.001 42.5809L170.802 32.0234L181.322 46.8765L178.666 48.7714L170.034 36.5843L166.618 39.0205L173.812 49.1765ZM170.126 36.0413L178.756 48.2285L180.782 46.7848L170.711 32.5663L156.542 42.6726L157.981 44.7038L164.053 40.3725L171.246 50.5286L173.27 49.0848L166.076 38.9288L170.126 36.0413Z" fill="#FAFAFA"/>
<path d="M190.614 76.747L188.447 69.5938L174.192 73.94L173.47 71.5556L187.725 67.2094L185.56 60.056L187.936 59.3316L192.99 76.0226L190.614 76.747Z" fill="#FAFAFA"/>
<path fill-rule="evenodd" clip-rule="evenodd" d="M190.354 77.2328L188.189 70.0796L173.933 74.4257L172.986 71.2961L187.243 66.9499L185.076 59.7966L188.195 58.8459L193.474 76.2821L190.354 77.2328ZM187.725 67.2094L173.47 71.5556L174.192 73.94L188.447 69.5938L190.614 76.747L192.99 76.0226L187.936 59.3316L185.56 60.056L187.725 67.2094Z" fill="#FAFAFA"/>
<path d="M96.224 32.0246C72.4422 32.0246 51.4998 44.2247 39.2721 62.7285L75.6078 81.6364C80.7156 76.034 88.0609 72.5202 96.224 72.5202C109.946 72.5202 121.357 82.4488 123.714 95.538L160.68 77.8658C151.349 51.1683 126.014 32.0246 96.224 32.0246Z" fill="#FFD700"/>
<path d="M32.2229 76.6032C29.4512 84.0593 27.936 92.1299 27.936 100.556C27.936 108.872 29.4121 116.842 32.1157 124.217L71.2166 113.066C69.3424 109.3 68.288 105.051 68.288 100.556C68.288 96.0595 69.3427 91.8104 71.2172 88.0442L32.2229 76.6032Z" fill="#FFD700"/>
<path fill-rule="evenodd" clip-rule="evenodd" d="M117.952 100.556C117.952 112.598 108.224 122.361 96.224 122.361C84.2239 122.361 74.496 112.598 74.496 100.556C74.496 88.5128 84.2239 78.7503 96.224 78.7503C108.224 78.7503 117.952 88.5128 117.952 100.556ZM96.224 114.573C103.938 114.573 110.192 108.297 110.192 100.556C110.192 92.8139 103.938 86.5379 96.224 86.5379C88.5096 86.5379 82.256 92.8139 82.256 100.556C82.256 108.297 88.5096 114.573 96.224 114.573Z" fill="#FFD700"/>
<path d="M96.224 169.086C126.131 169.086 151.547 149.793 160.789 122.932L123.772 105.236C121.552 118.492 110.063 128.591 96.224 128.591C88.0609 128.591 80.7156 125.077 75.6078 119.475L39.2721 138.383C51.4998 156.886 72.4422 169.086 96.224 169.086Z" fill="#FFD700"/>
<path d="M124.087 98.5156C124.135 99.1892 124.16 99.8694 124.16 100.555C124.16 101.119 124.143 101.679 124.111 102.234L163.963 109.292C164.326 106.431 164.512 103.515 164.512 100.555C164.512 97.4725 164.309 94.437 163.916 91.4619L124.087 98.5156Z" fill="#FFD700"/>
<path fill-rule="evenodd" clip-rule="evenodd" d="M96.224 175.316C137.367 175.316 170.72 141.845 170.72 100.556C170.72 79.7976 162.289 61.0154 148.678 47.4692C145.069 43.878 141.097 40.655 136.821 37.8605C125.142 30.229 111.199 25.7945 96.224 25.7945C55.0809 25.7945 21.728 59.2663 21.728 100.556C21.728 141.845 55.0809 175.316 96.224 175.316ZM32.2229 76.6032C34.0508 71.6863 36.4253 67.0366 39.2721 62.7285C51.4998 44.2247 72.4422 32.0246 96.224 32.0246C126.014 32.0246 151.349 51.1683 160.68 77.8658C162.199 82.2142 163.295 86.7628 163.916 91.4619C164.309 94.437 164.512 97.4725 164.512 100.555C164.512 103.515 164.326 106.431 163.963 109.292C163.365 114.005 162.289 118.568 160.789 122.932C151.547 149.793 126.131 169.086 96.224 169.086C72.4422 169.086 51.4998 156.886 39.2721 138.383C36.3692 133.99 33.9576 129.242 32.1157 124.217C29.4121 116.842 27.936 108.872 27.936 100.556C27.936 92.1299 29.4512 84.0593 32.2229 76.6032Z" fill="#FAFAFA"/>
<path d="M39.2721 62.7285C36.4253 67.0366 34.0508 71.6863 32.2229 76.6032L71.2172 88.0442C72.3826 85.7028 73.8651 83.5479 75.6078 81.6364L39.2721 62.7285Z" fill="#FAFAFA"/>
<path d="M75.6078 119.475C73.8648 117.563 72.3821 115.408 71.2166 113.066L32.1157 124.217C33.9576 129.242 36.3692 133.99 39.2721 138.383L75.6078 119.475Z" fill="#FAFAFA"/>
<path fill-rule="evenodd" clip-rule="evenodd" d="M68.288 100.556C68.288 105.051 69.3424 109.3 71.2166 113.066C72.3821 115.408 73.8648 117.563 75.6078 119.475C80.7156 125.077 88.0609 128.591 96.224 128.591C110.063 128.591 121.552 118.492 123.772 105.236C123.937 104.252 124.051 103.25 124.111 102.234C124.143 101.679 124.16 101.119 124.16 100.555C124.16 99.8694 124.135 99.1892 124.087 98.5156C124.015 97.5072 123.889 96.514 123.714 95.538C121.357 82.4488 109.946 72.5202 96.224 72.5202C88.0609 72.5202 80.7156 76.034 75.6078 81.6364C73.8651 83.5479 72.3826 85.7028 71.2172 88.0442C69.3427 91.8104 68.288 96.0595 68.288 100.556ZM96.224 122.361C108.224 122.361 117.952 112.598 117.952 100.556C117.952 88.5128 108.224 78.7503 96.224 78.7503C84.2239 78.7503 74.496 88.5128 74.496 100.556C74.496 112.598 84.2239 122.361 96.224 122.361Z" fill="#FAFAFA"/>
<path fill-rule="evenodd" clip-rule="evenodd" d="M110.192 100.556C110.192 108.297 103.938 114.573 96.224 114.573C88.5096 114.573 82.256 108.297 82.256 100.556C82.256 92.8139 88.5096 86.5379 96.224 86.5379C103.938 86.5379 110.192 92.8139 110.192 100.556ZM96.224 108.343C100.51 108.343 103.984 104.857 103.984 100.556C103.984 96.2547 100.51 92.768 96.224 92.768C91.9383 92.768 88.464 96.2547 88.464 100.556C88.464 104.857 91.9383 108.343 96.224 108.343Z" fill="#FAFAFA"/>
<path d="M123.714 95.538C123.889 96.514 124.015 97.5072 124.087 98.5156L163.916 91.4619C163.295 86.7628 162.199 82.2142 160.68 77.8658L123.714 95.538Z" fill="#FAFAFA"/>
<path d="M124.111 102.234C124.051 103.25 123.937 104.252 123.772 105.236L160.789 122.932C162.289 118.568 163.365 114.005 163.963 109.292L124.111 102.234Z" fill="#FAFAFA"/>
</svg>
